<?xml version="1.0" encoding="UTF-8" standalone="no"?>
<!DOCTYPE svg PUBLIC "-//W3C//DTD SVG 1.1//EN"
 "http://www.w3.org/Graphics/SVG/1.1/DTD/svg11.dtd">
<!-- Generated by graphviz version 2.43.0 (0)
 -->
<!-- Title: G Pages: 1 -->
<svg width="808pt" height="478pt"
 viewBox="0.00 0.00 808.30 478.00" xmlns="http://www.w3.org/2000/svg" xmlns:xlink="http://www.w3.org/1999/xlink">
<g id="graph0" class="graph" transform="scale(1 1) rotate(0) translate(4 474)">
<title>G</title>
<polygon fill="white" stroke="transparent" points="-4,4 -4,-474 804.3,-474 804.3,4 -4,4"/>
<g id="clust1" class="cluster">
<title>cluster_m2n</title>
<polygon fill="none" stroke="black" points="7.5,-178 7.5,-291 111.5,-291 111.5,-178 7.5,-178"/>
<text text-anchor="middle" x="59.5" y="-275.8" font-family="Times,serif" font-size="14.00">Communicators</text>
</g>
<g id="clust2" class="cluster">
<title>cluster_cpl</title>
<polygon fill="none" stroke="black" points="0,-291 0,-404 119,-404 119,-291 0,-291"/>
<text text-anchor="middle" x="59.5" y="-388.8" font-family="Times,serif" font-size="14.00">Coupling Schemes</text>
</g>
<g id="clust3" class="cluster">
<title>cluster_Controller</title>
<polygon fill="none" stroke="black" stroke-width="2" points="155,-325 155,-462 549.3,-462 549.3,-325 155,-325"/>
<text text-anchor="middle" x="352.15" y="-446.8" font-family="Times,serif" font-size="14.00">Controller</text>
</g>
<g id="clust4" class="cluster">
<title>cluster_Fluid</title>
<polygon fill="none" stroke="black" stroke-width="2" points="173.99,-198 173.99,-292 792.3,-292 792.3,-198 173.99,-198"/>
<text text-anchor="middle" x="483.15" y="-276.8" font-family="Times,serif" font-size="14.00">Fluid</text>
</g>
<g id="clust5" class="cluster">
<title>cluster_Solid</title>
<polygon fill="none" stroke="black" stroke-width="2" points="21,-8 21,-178 535.8,-178 535.8,-8 21,-8"/>
<text text-anchor="middle" x="278.4" y="-162.8" font-family="Times,serif" font-size="14.00">Solid</text>
</g>
<!-- m2n&#45;Controller&#45;Solid -->
<g id="node1" class="node">
<title>m2n&#45;Controller&#45;Solid</title>
<polygon fill="none" stroke="black" points="87.5,-268 31.5,-268 31.5,-264 27.5,-264 27.5,-260 31.5,-260 31.5,-240 27.5,-240 27.5,-236 31.5,-236 31.5,-232 87.5,-232 87.5,-268"/>
<polyline fill="none" stroke="black" points="31.5,-264 35.5,-264 35.5,-260 31.5,-260 "/>
<polyline fill="none" stroke="black" points="31.5,-240 35.5,-240 35.5,-236 31.5,-236 "/>
<text text-anchor="middle" x="59.5" y="-246.3" font-family="Times,serif" font-size="14.00">sockets</text>
</g>
<!-- Controller -->
<g id="node5" class="node">
<title>Controller</title>
<polygon fill="none" stroke="#0173b2" points="260.44,-409.54 260.44,-424.46 230.69,-435 188.61,-435 158.86,-424.46 158.86,-409.54 188.61,-399 230.69,-399 260.44,-409.54"/>
<polygon fill="none" stroke="#0173b2" points="264.45,-406.72 264.45,-427.28 231.38,-439 187.92,-439 154.85,-427.28 154.85,-406.72 187.92,-395 231.38,-395 264.45,-406.72"/>
<text text-anchor="middle" x="209.65" y="-413.3" font-family="Times,serif" font-size="14.00">Controller</text>
</g>
<!-- m2n&#45;Controller&#45;Solid&#45;&gt;Controller -->
<g id="edge13" class="edge">
<title>m2n&#45;Controller&#45;Solid&#45;&gt;Controller</title>
<path fill="none" stroke="#0173b2" d="M96.38,-267.48C104.67,-272.83 112.85,-279.36 119,-287 146.07,-320.62 128.26,-345.9 148.88,-377.75"/>
<polygon fill="#0173b2" stroke="#0173b2" points="98.17,-264.46 87.79,-262.33 94.57,-270.47 98.17,-264.46"/>
<polygon fill="#0173b2" stroke="#0173b2" points="146.23,-380.06 155,-386 151.85,-375.88 146.23,-380.06"/>
</g>
<!-- Solid -->
<g id="node11" class="node">
<title>Solid</title>
<polygon fill="none" stroke="#029e73" points="241.45,-55.54 241.45,-70.46 222.82,-81 196.48,-81 177.85,-70.46 177.85,-55.54 196.48,-45 222.82,-45 241.45,-55.54"/>
<polygon fill="none" stroke="#029e73" points="245.47,-53.22 245.47,-72.78 223.88,-85 195.42,-85 173.84,-72.78 173.84,-53.22 195.42,-41 223.88,-41 245.47,-53.22"/>
<text text-anchor="middle" x="209.65" y="-59.3" font-family="Times,serif" font-size="14.00">Solid</text>
</g>
<!-- m2n&#45;Controller&#45;Solid&#45;&gt;Solid -->
<g id="edge14" class="edge">
<title>m2n&#45;Controller&#45;Solid&#45;&gt;Solid</title>
<path fill="none" stroke="#029e73" d="M97.01,-239.02C105.18,-235.09 113.15,-229.87 119,-223 129.29,-210.91 134.06,-199.45 136.21,-188.23"/>
<polygon fill="#029e73" stroke="#029e73" points="95.64,-235.8 87.8,-242.93 98.37,-242.24 95.64,-235.8"/>
<polygon fill="#029e73" stroke="#029e73" points="139.72,-188.36 137.53,-178 132.78,-187.47 139.72,-188.36"/>
</g>
<!-- m2n&#45;Fluid&#45;Solid -->
<g id="node2" class="node">
<title>m2n&#45;Fluid&#45;Solid</title>
<polygon fill="none" stroke="black" points="87.5,-214 31.5,-214 31.5,-210 27.5,-210 27.5,-206 31.5,-206 31.5,-186 27.5,-186 27.5,-182 31.5,-182 31.5,-178 87.5,-178 87.5,-214"/>
<polyline fill="none" stroke="black" points="31.5,-210 35.5,-210 35.5,-206 31.5,-206 "/>
<polyline fill="none" stroke="black" points="31.5,-186 35.5,-186 35.5,-182 31.5,-182 "/>
<text text-anchor="middle" x="59.5" y="-192.3" font-family="Times,serif" font-size="14.00">sockets</text>
</g>
<!-- Fluid -->
<g id="node8" class="node">
<title>Fluid</title>
<polygon fill="none" stroke="#de8f05" points="241.45,-225.54 241.45,-240.46 222.82,-251 196.48,-251 177.85,-240.46 177.85,-225.54 196.48,-215 222.82,-215 241.45,-225.54"/>
<polygon fill="none" stroke="#de8f05" points="245.47,-223.22 245.47,-242.78 223.88,-255 195.42,-255 173.84,-242.78 173.84,-223.22 195.42,-211 223.88,-211 245.47,-223.22"/>
<text text-anchor="middle" x="209.65" y="-229.3" font-family="Times,serif" font-size="14.00">Fluid</text>
</g>
<!-- m2n&#45;Fluid&#45;Solid&#45;&gt;Fluid -->
<g id="edge15" class="edge">
<title>m2n&#45;Fluid&#45;Solid&#45;&gt;Fluid</title>
<path fill="none" stroke="#de8f05" d="M97.56,-205.26C117.73,-210.29 142.81,-216.56 164.04,-221.86"/>
<polygon fill="#de8f05" stroke="#de8f05" points="98.22,-201.81 87.67,-202.79 96.53,-208.61 98.22,-201.81"/>
<polygon fill="#de8f05" stroke="#de8f05" points="163.45,-225.32 173.99,-224.3 165.11,-218.52 163.45,-225.32"/>
</g>
<!-- m2n&#45;Fluid&#45;Solid&#45;&gt;Solid -->
<g id="edge16" class="edge">
<title>m2n&#45;Fluid&#45;Solid&#45;&gt;Solid</title>
<path fill="none" stroke="#029e73" d="M97.22,-187.22C100,-186.1 102.77,-184.84 105.45,-183.42"/>
<polygon fill="#029e73" stroke="#029e73" points="95.96,-183.96 87.69,-190.58 98.28,-190.56 95.96,-183.96"/>
<polygon fill="#029e73" stroke="#029e73" points="107.54,-186.25 114.18,-178 103.84,-180.3 107.54,-186.25"/>
</g>
<!-- cpl&#45;Fluid&#45;Solid -->
<g id="node3" class="node">
<title>cpl&#45;Fluid&#45;Solid</title>
<polygon fill="none" stroke="black" points="105,-327 14,-327 14,-323 10,-323 10,-319 14,-319 14,-299 10,-299 10,-295 14,-295 14,-291 105,-291 105,-327"/>
<polyline fill="none" stroke="black" points="14,-323 18,-323 18,-319 14,-319 "/>
<polyline fill="none" stroke="black" points="14,-299 18,-299 18,-295 14,-295 "/>
<text text-anchor="middle" x="59.5" y="-305.3" font-family="Times,serif" font-size="14.00">serial&#45;explicit</text>
</g>
<!-- cpl&#45;Fluid&#45;Solid&#45;&gt;Fluid -->
<g id="edge17" class="edge">
<title>cpl&#45;Fluid&#45;Solid&#45;&gt;Fluid</title>
<path fill="none" stroke="#de8f05" d="M105.36,-301.99C116.05,-299.36 127.2,-295.8 137,-291 147,-286.1 156.87,-279.57 165.92,-272.67"/>
<polygon fill="#de8f05" stroke="#de8f05" points="168.34,-275.22 174,-266.26 163.99,-269.73 168.34,-275.22"/>
<text text-anchor="middle" x="116.36" y="-290.79" font-family="Times,serif" font-size="14.00">first</text>
</g>
<!-- cpl&#45;Fluid&#45;Solid&#45;&gt;Solid -->
<g id="edge18" class="edge">
<title>cpl&#45;Fluid&#45;Solid&#45;&gt;Solid</title>
<path fill="none" stroke="#029e73" d="M105.18,-297.84C110.39,-295.01 115.19,-291.45 119,-287 133.59,-269.94 136.1,-228.84 138.5,-188.06"/>
<polygon fill="#029e73" stroke="#029e73" points="142,-188.19 139.09,-178 135.01,-187.77 142,-188.19"/>
<text text-anchor="middle" x="124.18" y="-301.64" font-family="Times,serif" font-size="14.00">second</text>
</g>
<!-- cpl&#45;Solid&#45;Controller -->
<g id="node4" class="node">
<title>cpl&#45;Solid&#45;Controller</title>
<polygon fill="none" stroke="black" points="105,-381 14,-381 14,-377 10,-377 10,-373 14,-373 14,-353 10,-353 10,-349 14,-349 14,-345 105,-345 105,-381"/>
<polyline fill="none" stroke="black" points="14,-377 18,-377 18,-373 14,-373 "/>
<polyline fill="none" stroke="black" points="14,-353 18,-353 18,-349 14,-349 "/>
<text text-anchor="middle" x="59.5" y="-359.3" font-family="Times,serif" font-size="14.00">serial&#45;explicit</text>
</g>
<!-- cpl&#45;Solid&#45;Controller&#45;&gt;Controller -->
<g id="edge22" class="edge">
<title>cpl&#45;Solid&#45;Controller&#45;&gt;Controller</title>
<path fill="none" stroke="#0173b2" d="M105.35,-379.35C117.94,-383.94 131.87,-389.02 145.32,-393.92"/>
<polygon fill="#0173b2" stroke="#0173b2" points="144.41,-397.31 155,-397.45 146.81,-390.73 144.41,-397.31"/>
<text text-anchor="middle" x="124.35" y="-368.15" font-family="Times,serif" font-size="14.00">second</text>
</g>
<!-- cpl&#45;Solid&#45;Controller&#45;&gt;Solid -->
<g id="edge21" class="edge">
<title>cpl&#45;Solid&#45;Controller&#45;&gt;Solid</title>
<path fill="none" stroke="#029e73" d="M105.14,-348.23C110.42,-344.91 115.26,-340.88 119,-336 138.62,-310.41 137.01,-245.95 138.75,-188.3"/>
<polygon fill="#029e73" stroke="#029e73" points="142.26,-188.11 139.1,-178 135.26,-187.87 142.26,-188.11"/>
<text text-anchor="middle" x="116.14" y="-337.03" font-family="Times,serif" font-size="14.00">first</text>
</g>
<!-- Controller&#45;Mesh&#45;Controller -->
<g id="node6" class="node">
<title>Controller&#45;Mesh&#45;Controller</title>
<path fill="none" stroke="#0173b2" d="M549.3,-381.73C549.3,-383.53 521.96,-385 488.3,-385 454.64,-385 427.3,-383.53 427.3,-381.73 427.3,-381.73 427.3,-352.27 427.3,-352.27 427.3,-350.47 454.64,-349 488.3,-349 521.96,-349 549.3,-350.47 549.3,-352.27 549.3,-352.27 549.3,-381.73 549.3,-381.73"/>
<path fill="none" stroke="#0173b2" d="M549.3,-381.73C549.3,-379.92 521.96,-378.45 488.3,-378.45 454.64,-378.45 427.3,-379.92 427.3,-381.73"/>
<text text-anchor="start" x="435.3" y="-364.3" font-family="Times,serif" font-size="14.00">Mesh&#45;Controller</text>
<text text-anchor="start" x="526.3" y="-364.3" font-family="Times,serif" font-style="italic" baseline-shift="super" font-size="14.00">2D</text>
</g>
<!-- Controller&#45;&gt;Controller&#45;Mesh&#45;Controller -->
<g id="edge2" class="edge">
<title>Controller&#45;&gt;Controller&#45;Mesh&#45;Controller</title>
<g id="a_edge2"><a xlink:title="vector">
<path fill="none" stroke="#0173b2" d="M264.58,-417.92C305,-417.42 361.36,-414.17 409.3,-402 421.22,-398.98 433.58,-394.25 444.87,-389.23"/>
<polygon fill="#0173b2" stroke="#0173b2" points="446.45,-392.36 454.05,-384.98 443.51,-386 446.45,-392.36"/>
</a>
</g>
<text text-anchor="middle" x="345.8" y="-420.8" font-family="Times,serif" font-size="14.00">Displacement&#45;Spring</text>
</g>
<!-- Controller&#45;Mesh&#45;Controller&#45;&gt;Controller -->
<g id="edge1" class="edge">
<title>Controller&#45;Mesh&#45;Controller&#45;&gt;Controller</title>
<g id="a_edge1"><a xlink:title="vector">
<path fill="none" stroke="#0173b2" d="M427.29,-368.14C385.99,-370.07 330.15,-374.94 282.3,-387 273.28,-389.28 263.91,-392.5 255.04,-396.01"/>
<polygon fill="#0173b2" stroke="#0173b2" points="253.56,-392.83 245.65,-399.89 256.23,-399.3 253.56,-392.83"/>
</a>
</g>
<text text-anchor="middle" x="345.8" y="-390.8" font-family="Times,serif" font-size="14.00">Displacement&#45;Cylinder</text>
</g>
<!-- Solid&#45;Mesh&#45;Controller -->
<g id="node13" class="node">
<title>Solid&#45;Mesh&#45;Controller</title>
<path fill="none" stroke="#0173b2" stroke-dasharray="5,2" d="M263.15,-150.48C263.15,-153.11 239.17,-155.25 209.65,-155.25 180.13,-155.25 156.15,-153.11 156.15,-150.48 156.15,-150.48 156.15,-107.52 156.15,-107.52 156.15,-104.89 180.13,-102.75 209.65,-102.75 239.17,-102.75 263.15,-104.89 263.15,-107.52 263.15,-107.52 263.15,-150.48 263.15,-150.48"/>
<path fill="none" stroke="#0173b2" stroke-dasharray="5,2" d="M263.15,-150.48C263.15,-147.84 239.17,-145.7 209.65,-145.7 180.13,-145.7 156.15,-147.84 156.15,-150.48"/>
<text text-anchor="middle" x="209.65" y="-132.8" font-family="Times,serif" font-size="14.00">Mesh&#45;Controller</text>
<text text-anchor="middle" x="209.65" y="-117.8" font-family="Times,serif" font-size="14.00">from Controller</text>
</g>
<!-- Controller&#45;Mesh&#45;Controller&#45;&gt;Solid&#45;Mesh&#45;Controller -->
<g id="edge23" class="edge">
<title>Controller&#45;Mesh&#45;Controller&#45;&gt;Solid&#45;Mesh&#45;Controller</title>
<g id="a_edge23"><a xlink:title="vector initialized">
<path fill="none" stroke="#0173b2" stroke-width="2" d="M466.98,-348.86C453.49,-335.59 436.6,-316.42 427.3,-296 405.51,-248.12 445.58,-217.11 409.3,-179 369.58,-137.27 337.94,-167.95 282.3,-153 279.2,-152.17 276.03,-151.27 272.84,-150.34"/>
<polygon fill="#0173b2" stroke="#0173b2" stroke-width="2" points="273.84,-146.98 263.26,-147.43 271.81,-153.68 273.84,-146.98"/>
</a>
</g>
<text text-anchor="middle" x="345.8" y="-182.8" font-family="Times,serif" font-size="14.00">Displacement&#45;Spring</text>
</g>
<!-- Controller&#45;Mesh&#45;Solid -->
<g id="node7" class="node">
<title>Controller&#45;Mesh&#45;Solid</title>
<path fill="none" stroke="#029e73" stroke-dasharray="5,2" d="M249.65,-372.48C249.65,-375.11 231.72,-377.25 209.65,-377.25 187.58,-377.25 169.65,-375.11 169.65,-372.48 169.65,-372.48 169.65,-329.52 169.65,-329.52 169.65,-326.89 187.58,-324.75 209.65,-324.75 231.72,-324.75 249.65,-326.89 249.65,-329.52 249.65,-329.52 249.65,-372.48 249.65,-372.48"/>
<path fill="none" stroke="#029e73" stroke-dasharray="5,2" d="M249.65,-372.48C249.65,-369.84 231.72,-367.7 209.65,-367.7 187.58,-367.7 169.65,-369.84 169.65,-372.48"/>
<text text-anchor="middle" x="209.65" y="-354.8" font-family="Times,serif" font-size="14.00">Mesh&#45;Solid</text>
<text text-anchor="middle" x="209.65" y="-339.8" font-family="Times,serif" font-size="14.00">from Solid</text>
</g>
<!-- Controller&#45;Mesh&#45;Solid&#45;&gt;Controller&#45;Mesh&#45;Controller -->
<g id="edge3" class="edge">
<title>Controller&#45;Mesh&#45;Solid&#45;&gt;Controller&#45;Mesh&#45;Controller</title>
<path fill="none" stroke="#0173b2" d="M250,-347.76C290.18,-345.11 354.3,-342.74 409.3,-349 411.84,-349.29 414.42,-349.63 417.01,-350.01"/>
<polygon fill="#0173b2" stroke="#0173b2" points="416.63,-353.5 427.07,-351.68 417.78,-346.59 416.63,-353.5"/>
<text text-anchor="middle" x="345.8" y="-352.8" font-family="Times,serif" font-size="14.00">nearest&#45;neighbor</text>
</g>
<!-- Fluid&#45;Mesh&#45;Fluid -->
<g id="node9" class="node">
<title>Fluid&#45;Mesh&#45;Fluid</title>
<path fill="none" stroke="#de8f05" d="M535.8,-247.73C535.8,-249.53 514.51,-251 488.3,-251 462.09,-251 440.8,-249.53 440.8,-247.73 440.8,-247.73 440.8,-218.27 440.8,-218.27 440.8,-216.47 462.09,-215 488.3,-215 514.51,-215 535.8,-216.47 535.8,-218.27 535.8,-218.27 535.8,-247.73 535.8,-247.73"/>
<path fill="none" stroke="#de8f05" d="M535.8,-247.73C535.8,-245.92 514.51,-244.45 488.3,-244.45 462.09,-244.45 440.8,-245.92 440.8,-247.73"/>
<text text-anchor="start" x="448.8" y="-230.3" font-family="Times,serif" font-size="14.00">Mesh&#45;Fluid</text>
<text text-anchor="start" x="512.8" y="-230.3" font-family="Times,serif" font-style="italic" baseline-shift="super" font-size="14.00">2D</text>
</g>
<!-- Fluid&#45;&gt;Fluid&#45;Mesh&#45;Fluid -->
<g id="edge5" class="edge">
<title>Fluid&#45;&gt;Fluid&#45;Mesh&#45;Fluid</title>
<g id="a_edge5"><a xlink:title="vector">
<path fill="none" stroke="#de8f05" d="M245.41,-233C291.86,-233 374.77,-233 430.4,-233"/>
<polygon fill="#de8f05" stroke="#de8f05" points="430.45,-236.5 440.45,-233 430.45,-229.5 430.45,-236.5"/>
</a>
</g>
<text text-anchor="middle" x="345.8" y="-236.8" font-family="Times,serif" font-size="14.00">Force</text>
</g>
<!-- Fluid&#45;Mesh&#45;Fluid&#45;&gt;Fluid -->
<g id="edge4" class="edge">
<title>Fluid&#45;Mesh&#45;Fluid&#45;&gt;Fluid</title>
<g id="a_edge4"><a xlink:title="vector">
<path fill="none" stroke="#de8f05" d="M440.52,-221.8C430.29,-219.81 419.48,-218.03 409.3,-217 353.15,-211.3 338.41,-210.81 282.3,-217 273.47,-217.97 264.13,-219.61 255.21,-221.46"/>
<polygon fill="#de8f05" stroke="#de8f05" points="254.39,-218.06 245.38,-223.63 255.9,-224.9 254.39,-218.06"/>
</a>
</g>
<text text-anchor="middle" x="345.8" y="-220.8" font-family="Times,serif" font-size="14.00">Displacement&#45;Cylinder</text>
</g>
<!-- Fluid&#45;Mesh&#45;Solid -->
<g id="node10" class="node">
<title>Fluid&#45;Mesh&#45;Solid</title>
<path fill="none" stroke="#029e73" stroke-dasharray="5,2" d="M792.3,-245.48C792.3,-248.11 774.37,-250.25 752.3,-250.25 730.23,-250.25 712.3,-248.11 712.3,-245.48 712.3,-245.48 712.3,-202.52 712.3,-202.52 712.3,-199.89 730.23,-197.75 752.3,-197.75 774.37,-197.75 792.3,-199.89 792.3,-202.52 792.3,-202.52 792.3,-245.48 792.3,-245.48"/>
<path fill="none" stroke="#029e73" stroke-dasharray="5,2" d="M792.3,-245.48C792.3,-242.84 774.37,-240.7 752.3,-240.7 730.23,-240.7 712.3,-242.84 712.3,-245.48"/>
<text text-anchor="middle" x="752.3" y="-227.8" font-family="Times,serif" font-size="14.00">Mesh&#45;Solid</text>
<text text-anchor="middle" x="752.3" y="-212.8" font-family="Times,serif" font-size="14.00">from Solid</text>
</g>
<!-- Fluid&#45;Mesh&#45;Fluid&#45;&gt;Fluid&#45;Mesh&#45;Solid -->
<g id="edge7" class="edge">
<title>Fluid&#45;Mesh&#45;Fluid&#45;&gt;Fluid&#45;Mesh&#45;Solid</title>
<path fill="none" stroke="#de8f05" d="M535.96,-219.01C546.19,-216.51 557.04,-214.29 567.3,-213 623.3,-205.93 638.11,-207.63 694.3,-213 696.85,-213.24 699.45,-213.55 702.07,-213.9"/>
<polygon fill="#de8f05" stroke="#de8f05" points="701.78,-217.39 712.2,-215.44 702.84,-210.47 701.78,-217.39"/>
<text text-anchor="middle" x="630.8" y="-216.8" font-family="Times,serif" font-size="14.00">nearest&#45;neighbor</text>
</g>
<!-- Fluid&#45;Mesh&#45;Solid&#45;&gt;Fluid&#45;Mesh&#45;Fluid -->
<g id="edge6" class="edge">
<title>Fluid&#45;Mesh&#45;Solid&#45;&gt;Fluid&#45;Mesh&#45;Fluid</title>
<path fill="none" stroke="#de8f05" d="M712.13,-230.2C706.17,-230.94 700.08,-231.58 694.3,-232 644.4,-235.61 587.48,-235.55 546.3,-234.77"/>
<polygon fill="#de8f05" stroke="#de8f05" points="546.26,-231.27 536.19,-234.56 546.11,-238.27 546.26,-231.27"/>
<text text-anchor="middle" x="630.8" y="-238.8" font-family="Times,serif" font-size="14.00">nearest&#45;neighbor</text>
</g>
<!-- Solid&#45;Mesh&#45;Solid -->
<g id="node12" class="node">
<title>Solid&#45;Mesh&#45;Solid</title>
<path fill="none" stroke="#029e73" d="M535.8,-151.73C535.8,-153.53 514.51,-155 488.3,-155 462.09,-155 440.8,-153.53 440.8,-151.73 440.8,-151.73 440.8,-122.27 440.8,-122.27 440.8,-120.47 462.09,-119 488.3,-119 514.51,-119 535.8,-120.47 535.8,-122.27 535.8,-122.27 535.8,-151.73 535.8,-151.73"/>
<path fill="none" stroke="#029e73" d="M535.8,-151.73C535.8,-149.92 514.51,-148.45 488.3,-148.45 462.09,-148.45 440.8,-149.92 440.8,-151.73"/>
<text text-anchor="start" x="448.8" y="-134.3" font-family="Times,serif" font-size="14.00">Mesh&#45;Solid</text>
<text text-anchor="start" x="512.8" y="-134.3" font-family="Times,serif" font-style="italic" baseline-shift="super" font-size="14.00">2D</text>
</g>
<!-- Fluid&#45;Mesh&#45;Solid&#45;&gt;Solid&#45;Mesh&#45;Solid -->
<g id="edge19" class="edge">
<title>Fluid&#45;Mesh&#45;Solid&#45;&gt;Solid&#45;Mesh&#45;Solid</title>
<g id="a_edge19"><a xlink:title="vector">
<path fill="none" stroke="#de8f05" d="M715.07,-199.53C708.35,-195.64 701.26,-191.94 694.3,-189 680.54,-183.19 601.44,-163.75 545.63,-150.36"/>
<polygon fill="#de8f05" stroke="#de8f05" points="546.39,-146.95 535.85,-148.02 544.76,-153.75 546.39,-146.95"/>
</a>
</g>
<text text-anchor="middle" x="630.8" y="-192.8" font-family="Times,serif" font-size="14.00">Force</text>
</g>
<!-- Solid&#45;&gt;Solid&#45;Mesh&#45;Solid -->
<g id="edge10" class="edge">
<title>Solid&#45;&gt;Solid&#45;Mesh&#45;Solid</title>
<g id="a_edge10"><a xlink:title="vector">
<path fill="none" stroke="#029e73" d="M245.54,-54.79C286.44,-46.9 355.47,-39.11 409.3,-61 433.84,-70.98 454.88,-92.79 468.9,-110.5"/>
<polygon fill="#029e73" stroke="#029e73" points="466.37,-112.95 475.2,-118.79 471.94,-108.71 466.37,-112.95"/>
</a>
</g>
<text text-anchor="middle" x="345.8" y="-64.8" font-family="Times,serif" font-size="14.00">Displacement&#45;Cylinder</text>
</g>
<!-- Solid&#45;Mesh&#45;Solid&#45;&gt;Controller&#45;Mesh&#45;Solid -->
<g id="edge24" class="edge">
<title>Solid&#45;Mesh&#45;Solid&#45;&gt;Controller&#45;Mesh&#45;Solid</title>
<g id="a_edge24"><a xlink:title="vector">
<path fill="none" stroke="#029e73" d="M461.8,-155.11C449.5,-165.18 435.64,-178.74 427.3,-194 406.91,-231.33 437.82,-256.43 409.3,-288 369.81,-331.72 338.35,-307.85 282.3,-326 274.9,-328.4 267.1,-331.02 259.48,-333.63"/>
<polygon fill="#029e73" stroke="#029e73" points="258.27,-330.35 249.96,-336.93 260.56,-336.96 258.27,-330.35"/>
</a>
</g>
<text text-anchor="middle" x="345.8" y="-329.8" font-family="Times,serif" font-size="14.00">Displacement&#45;Cylinder</text>
</g>
<!-- Solid&#45;Mesh&#45;Solid&#45;&gt;Fluid&#45;Mesh&#45;Solid -->
<g id="edge20" class="edge">
<title>Solid&#45;Mesh&#45;Solid&#45;&gt;Fluid&#45;Mesh&#45;Solid</title>
<g id="a_edge20"><a xlink:title="vector initialized">
<path fill="none" stroke="#029e73" stroke-width="2" d="M535.93,-125C579.6,-116.42 645.3,-110.52 694.3,-137 714.55,-147.94 728.77,-169.56 737.94,-188.5"/>
<polygon fill="#029e73" stroke="#029e73" stroke-width="2" points="734.84,-190.15 742.16,-197.81 741.22,-187.26 734.84,-190.15"/>
</a>
</g>
<text text-anchor="middle" x="630.8" y="-140.8" font-family="Times,serif" font-size="14.00">Displacement&#45;Cylinder</text>
</g>
<!-- Solid&#45;Mesh&#45;Solid&#45;&gt;Solid -->
<g id="edge8" class="edge">
<title>Solid&#45;Mesh&#45;Solid&#45;&gt;Solid</title>
<g id="a_edge8"><a xlink:title="vector">
<path fill="none" stroke="#029e73" d="M440.44,-121.41C430.22,-118.17 419.43,-114.87 409.3,-112 380.69,-103.89 304.5,-85.43 255.23,-73.62"/>
<polygon fill="#029e73" stroke="#029e73" points="255.99,-70.2 245.45,-71.28 254.36,-77.01 255.99,-70.2"/>
</a>
</g>
<text text-anchor="middle" x="345.8" y="-115.8" font-family="Times,serif" font-size="14.00">Force</text>
</g>
<!-- Solid&#45;Mesh&#45;Solid&#45;&gt;Solid -->
<g id="edge9" class="edge">
<title>Solid&#45;Mesh&#45;Solid&#45;&gt;Solid</title>
<g id="a_edge9"><a xlink:title="vector">
<path fill="none" stroke="#029e73" d="M480.66,-118.79C470.09,-92.87 446.74,-46.35 409.3,-27 359.16,-1.09 337.22,-13.98 282.3,-27 269.16,-30.12 255.68,-36.04 244.01,-42.2"/>
<polygon fill="#029e73" stroke="#029e73" points="242.14,-39.24 235.08,-47.14 245.53,-45.37 242.14,-39.24"/>
</a>
</g>
<text text-anchor="middle" x="345.8" y="-30.8" font-family="Times,serif" font-size="14.00">Displacement&#45;Spring</text>
</g>
<!-- Solid&#45;Mesh&#45;Controller&#45;&gt;Solid&#45;Mesh&#45;Solid -->
<g id="edge12" class="edge">
<title>Solid&#45;Mesh&#45;Controller&#45;&gt;Solid&#45;Mesh&#45;Solid</title>
<path fill="none" stroke="#029e73" d="M263.34,-130.52C311.2,-131.91 381.61,-133.94 430.66,-135.36"/>
<polygon fill="#029e73" stroke="#029e73" points="430.69,-138.86 440.79,-135.66 430.9,-131.87 430.69,-138.86"/>
<text text-anchor="middle" x="345.8" y="-137.8" font-family="Times,serif" font-size="14.00">nearest&#45;neighbor</text>
</g>
<!-- Solid&#45;WP&#45;Spring -->
<g id="node14" class="node">
<title>Solid&#45;WP&#45;Spring</title>
<polygon fill="none" stroke="#029e73" points="92,-82 21,-82 21,-44 98,-44 98,-76 92,-82"/>
<polyline fill="none" stroke="#029e73" points="92,-82 92,-76 "/>
<polyline fill="none" stroke="#029e73" points="98,-76 92,-76 "/>
<text text-anchor="middle" x="59.5" y="-66.8" font-family="Times,serif" font-size="14.00">Spring</text>
<text text-anchor="middle" x="59.5" y="-51.8" font-family="Times,serif" font-size="14.00">at (0.0;0.0)</text>
</g>
<!-- Solid&#45;WP&#45;Spring&#45;&gt;Solid -->
<g id="edge11" class="edge">
<title>Solid&#45;WP&#45;Spring&#45;&gt;Solid</title>
<path fill="none" stroke="#029e73" d="M98.27,-63C118.14,-63 142.65,-63 163.52,-63"/>
<polygon fill="#029e73" stroke="#029e73" points="163.75,-66.5 173.75,-63 163.75,-59.5 163.75,-66.5"/>
</g>
</g>
</svg>
