<?xml version="1.0" encoding="UTF-8" standalone="no"?>
<!DOCTYPE svg PUBLIC "-//W3C//DTD SVG 1.1//EN"
 "http://www.w3.org/Graphics/SVG/1.1/DTD/svg11.dtd">
<!-- Generated by graphviz version 2.43.0 (0)
 -->
<!-- Title: G Pages: 1 -->
<svg width="1803pt" height="1452pt"
 viewBox="576.00 576.00 1227.31 876.00" xmlns="http://www.w3.org/2000/svg" xmlns:xlink="http://www.w3.org/1999/xlink">
<g id="graph0" class="graph" transform="scale(1 1) rotate(0) translate(580 872)">
<title>G</title>
<polygon fill="white" stroke="transparent" points="-4,4 -4,-296 647.31,-296 647.31,4 -4,4"/>
<g id="clust1" class="cluster">
<title>cluster_m2n</title>
<polygon fill="none" stroke="black" points="16,-126 16,-201 120,-201 120,-126 16,-126"/>
<text text-anchor="middle" x="68" y="-185.8" font-family="Times,serif" font-size="14.00">Communicators</text>
</g>
<g id="clust2" class="cluster">
<title>cluster_cpl</title>
<polygon fill="none" stroke="black" points="8,-209 8,-284 128,-284 128,-209 8,-209"/>
<text text-anchor="middle" x="68" y="-268.8" font-family="Times,serif" font-size="14.00">Coupling Schemes</text>
</g>
<g id="clust3" class="cluster">
<title>cluster_Fluid</title>
<polygon fill="none" stroke="black" stroke-width="2" points="149,-126 149,-236 635.31,-236 635.31,-126 149,-126"/>
<text text-anchor="middle" x="392.16" y="-220.8" font-family="Times,serif" font-size="14.00">Fluid</text>
</g>
<g id="clust4" class="cluster">
<title>cluster_Solid</title>
<polygon fill="none" stroke="black" stroke-width="2" points="26.5,-8 26.5,-118 443.31,-118 443.31,-8 26.5,-8"/>
<text text-anchor="middle" x="234.91" y="-102.8" font-family="Times,serif" font-size="14.00">Solid</text>
</g>
<!-- m2n&#45;Fluid&#45;Solid -->
<g id="node1" class="node">
<title>m2n&#45;Fluid&#45;Solid</title>
<polygon fill="none" stroke="black" points="96,-170 40,-170 40,-166 36,-166 36,-162 40,-162 40,-142 36,-142 36,-138 40,-138 40,-134 96,-134 96,-170"/>
<polyline fill="none" stroke="black" points="40,-166 44,-166 44,-162 40,-162 "/>
<polyline fill="none" stroke="black" points="40,-142 44,-142 44,-138 40,-138 "/>
<text text-anchor="middle" x="68" y="-148.3" font-family="Times,serif" font-size="14.00">sockets</text>
</g>
<!-- Fluid -->
<g id="node3" class="node">
<title>Fluid</title>
<polygon fill="none" stroke="#0173b2" points="224.45,-161.54 224.45,-176.46 205.83,-187 179.49,-187 160.86,-176.46 160.86,-161.54 179.49,-151 205.83,-151 224.45,-161.54"/>
<polygon fill="none" stroke="#0173b2" points="228.47,-159.22 228.47,-178.78 206.89,-191 178.42,-191 156.84,-178.78 156.84,-159.22 178.42,-147 206.89,-147 228.47,-159.22"/>
<text text-anchor="middle" x="192.66" y="-165.3" font-family="Times,serif" font-size="14.00">Fluid</text>
</g>
<!-- m2n&#45;Fluid&#45;Solid&#45;&gt;Fluid -->
<g id="edge8" class="edge">
<title>m2n&#45;Fluid&#45;Solid&#45;&gt;Fluid</title>
<path fill="none" stroke="#0173b2" d="M106.3,-157.17C118.91,-158.92 133.13,-160.89 146.3,-162.71"/>
<polygon fill="#0173b2" stroke="#0173b2" points="106.61,-153.68 96.22,-155.77 105.65,-160.61 106.61,-153.68"/>
<polygon fill="#0173b2" stroke="#0173b2" points="138.58,-165.04 149,-163.14 139.67,-158.13 138.58,-165.04"/>
</g>
<!-- Solid -->
<g id="node6" class="node">
<title>Solid</title>
<polygon fill="none" stroke="#de8f05" points="224.45,-57.54 224.45,-72.46 205.83,-83 179.49,-83 160.86,-72.46 160.86,-57.54 179.49,-47 205.83,-47 224.45,-57.54"/>
<polygon fill="none" stroke="#de8f05" points="228.47,-55.22 228.47,-74.78 206.89,-87 178.42,-87 156.84,-74.78 156.84,-55.22 178.42,-43 206.89,-43 228.47,-55.22"/>
<text text-anchor="middle" x="192.66" y="-61.3" font-family="Times,serif" font-size="14.00">Solid</text>
</g>
<!-- m2n&#45;Fluid&#45;Solid&#45;&gt;Solid -->
<g id="edge9" class="edge">
<title>m2n&#45;Fluid&#45;Solid&#45;&gt;Solid</title>
<path fill="none" stroke="#de8f05" d="M105.44,-135.34C111.25,-132.3 117.18,-128.96 125.22,-123.69"/>
<polygon fill="#de8f05" stroke="#de8f05" points="103.62,-132.34 96.27,-139.97 106.78,-138.59 103.62,-132.34"/>
<polygon fill="#de8f05" stroke="#de8f05" points="127.32,-126.5 133.64,-118 123.4,-120.7 127.32,-126.5"/>
</g>
<!-- cpl&#45;Fluid&#45;Solid -->
<g id="node2" class="node">
<title>cpl&#45;Fluid&#45;Solid</title>
<polygon fill="none" stroke="black" points="120,-253 16,-253 16,-249 12,-249 12,-245 16,-245 16,-225 12,-225 12,-221 16,-221 16,-217 120,-217 120,-253"/>
<polyline fill="none" stroke="black" points="16,-249 20,-249 20,-245 16,-245 "/>
<polyline fill="none" stroke="black" points="16,-225 20,-225 20,-221 16,-221 "/>
<text text-anchor="middle" x="68" y="-231.3" font-family="Times,serif" font-size="14.00">parallel&#45;implicit</text>
</g>
<!-- cpl&#45;Fluid&#45;Solid&#45;&gt;Fluid -->
<g id="edge10" class="edge">
<title>cpl&#45;Fluid&#45;Solid&#45;&gt;Fluid</title>
<path fill="none" stroke="#0173b2" d="M120.35,-219.69C126.78,-217.11 133.14,-214.21 139,-211 139.42,-210.77 139.84,-210.54 140.26,-210.3"/>
<polygon fill="#0173b2" stroke="#0173b2" points="142.32,-213.14 149,-204.92 138.65,-207.18 142.32,-213.14"/>
<text text-anchor="middle" x="131.35" y="-208.49" font-family="Times,serif" font-size="14.00">first</text>
</g>
<!-- cpl&#45;Fluid&#45;Solid&#45;&gt;Solid -->
<g id="edge11" class="edge">
<title>cpl&#45;Fluid&#45;Solid&#45;&gt;Solid</title>
<path fill="none" stroke="#de8f05" d="M114.87,-216.91C119.8,-213.52 124.34,-209.58 128,-205 149.71,-177.83 135.59,-159.68 147.05,-127.47"/>
<polygon fill="#de8f05" stroke="#de8f05" points="150.38,-128.57 151.01,-118 143.92,-125.87 150.38,-128.57"/>
<text text-anchor="middle" x="95.87" y="-205.71" font-family="Times,serif" font-size="14.00">second</text>
</g>
<!-- Fluid&#45;Fluid&#45;Mesh -->
<g id="node4" class="node">
<title>Fluid&#45;Fluid&#45;Mesh</title>
<path fill="none" stroke="#0173b2" d="M435.31,-166.73C435.31,-168.53 414.02,-170 387.81,-170 361.6,-170 340.31,-168.53 340.31,-166.73 340.31,-166.73 340.31,-137.27 340.31,-137.27 340.31,-135.47 361.6,-134 387.81,-134 414.02,-134 435.31,-135.47 435.31,-137.27 435.31,-137.27 435.31,-166.73 435.31,-166.73"/>
<path fill="none" stroke="#0173b2" d="M435.31,-166.73C435.31,-164.92 414.02,-163.45 387.81,-163.45 361.6,-163.45 340.31,-164.92 340.31,-166.73"/>
<text text-anchor="start" x="348.31" y="-149.3" font-family="Times,serif" font-size="14.00">Fluid&#45;Mesh</text>
<text text-anchor="start" x="412.31" y="-149.3" font-family="Times,serif" font-style="italic" baseline-shift="super" font-size="14.00">2D</text>
</g>
<!-- Fluid&#45;&gt;Fluid&#45;Fluid&#45;Mesh -->
<g id="edge2" class="edge">
<title>Fluid&#45;&gt;Fluid&#45;Fluid&#45;Mesh</title>
<g id="a_edge2"><a xlink:title="vector">
<path fill="none" stroke="#0173b2" d="M222.64,-155.85C230.19,-153.02 238.43,-150.45 246.31,-149 273.64,-143.98 304.46,-144.03 330.26,-145.62"/>
<polygon fill="#0173b2" stroke="#0173b2" points="330.02,-149.11 340.24,-146.32 330.52,-142.13 330.02,-149.11"/>
</a>
</g>
<text text-anchor="middle" x="284.31" y="-152.8" font-family="Times,serif" font-size="14.00">Force</text>
</g>
<!-- Fluid&#45;Fluid&#45;Mesh&#45;&gt;Fluid -->
<g id="edge1" class="edge">
<title>Fluid&#45;Fluid&#45;Mesh&#45;&gt;Fluid</title>
<g id="a_edge1"><a xlink:title="vector">
<path fill="none" stroke="#0173b2" d="M340.2,-164.93C334.22,-166.19 328.15,-167.26 322.31,-168 294.68,-171.49 263.45,-171.81 238.67,-171.23"/>
<polygon fill="#0173b2" stroke="#0173b2" points="238.58,-167.73 228.48,-170.93 238.37,-174.72 238.58,-167.73"/>
</a>
</g>
<text text-anchor="middle" x="284.31" y="-174.8" font-family="Times,serif" font-size="14.00">Displacement</text>
</g>
<!-- Fluid&#45;Solid&#45;Mesh -->
<g id="node5" class="node">
<title>Fluid&#45;Solid&#45;Mesh</title>
<path fill="none" stroke="#de8f05" stroke-dasharray="5,2" d="M627.31,-181.48C627.31,-184.11 609.39,-186.25 587.31,-186.25 565.24,-186.25 547.31,-184.11 547.31,-181.48 547.31,-181.48 547.31,-138.52 547.31,-138.52 547.31,-135.89 565.24,-133.75 587.31,-133.75 609.39,-133.75 627.31,-135.89 627.31,-138.52 627.31,-138.52 627.31,-181.48 627.31,-181.48"/>
<path fill="none" stroke="#de8f05" stroke-dasharray="5,2" d="M627.31,-181.48C627.31,-178.84 609.39,-176.7 587.31,-176.7 565.24,-176.7 547.31,-178.84 547.31,-181.48"/>
<text text-anchor="middle" x="587.31" y="-163.8" font-family="Times,serif" font-size="14.00">Solid&#45;Mesh</text>
<text text-anchor="middle" x="587.31" y="-148.8" font-family="Times,serif" font-size="14.00">from Solid</text>
</g>
<!-- Fluid&#45;Fluid&#45;Mesh&#45;&gt;Fluid&#45;Solid&#45;Mesh -->
<g id="edge3" class="edge">
<title>Fluid&#45;Fluid&#45;Mesh&#45;&gt;Fluid&#45;Solid&#45;Mesh</title>
<path fill="none" stroke="#0173b2" d="M435.38,-150.99C462.76,-150.73 498.03,-150.97 529.31,-153 531.84,-153.16 534.42,-153.36 537.03,-153.59"/>
<polygon fill="#0173b2" stroke="#0173b2" points="536.83,-157.09 547.12,-154.59 537.51,-150.12 536.83,-157.09"/>
<text text-anchor="middle" x="491.31" y="-156.8" font-family="Times,serif" font-size="14.00">rbf</text>
</g>
<!-- Fluid&#45;Solid&#45;Mesh&#45;&gt;Fluid&#45;Fluid&#45;Mesh -->
<g id="edge4" class="edge">
<title>Fluid&#45;Solid&#45;Mesh&#45;&gt;Fluid&#45;Fluid&#45;Mesh</title>
<path fill="none" stroke="#0173b2" d="M547.14,-166.23C541.18,-166.96 535.1,-167.6 529.31,-168 495.62,-170.35 486.84,-172.1 453.31,-168 450.67,-167.68 447.97,-167.28 445.26,-166.83"/>
<polygon fill="#0173b2" stroke="#0173b2" points="445.89,-163.39 435.42,-164.98 444.6,-170.27 445.89,-163.39"/>
<text text-anchor="middle" x="491.31" y="-173.8" font-family="Times,serif" font-size="14.00">rbf</text>
</g>
<!-- Solid&#45;Solid&#45;Mesh -->
<g id="node7" class="node">
<title>Solid&#45;Solid&#45;Mesh</title>
<path fill="none" stroke="#de8f05" d="M435.31,-83.73C435.31,-85.53 414.02,-87 387.81,-87 361.6,-87 340.31,-85.53 340.31,-83.73 340.31,-83.73 340.31,-54.27 340.31,-54.27 340.31,-52.47 361.6,-51 387.81,-51 414.02,-51 435.31,-52.47 435.31,-54.27 435.31,-54.27 435.31,-83.73 435.31,-83.73"/>
<path fill="none" stroke="#de8f05" d="M435.31,-83.73C435.31,-81.92 414.02,-80.45 387.81,-80.45 361.6,-80.45 340.31,-81.92 340.31,-83.73"/>
<text text-anchor="start" x="348.31" y="-66.3" font-family="Times,serif" font-size="14.00">Solid&#45;Mesh</text>
<text text-anchor="start" x="412.31" y="-66.3" font-family="Times,serif" font-style="italic" baseline-shift="super" font-size="14.00">2D</text>
</g>
<!-- Fluid&#45;Solid&#45;Mesh&#45;&gt;Solid&#45;Solid&#45;Mesh -->
<g id="edge12" class="edge">
<title>Fluid&#45;Solid&#45;Mesh&#45;&gt;Solid&#45;Solid&#45;Mesh</title>
<g id="a_edge12"><a xlink:title="vector">
<path fill="none" stroke="#0173b2" d="M576.5,-133.85C567.51,-113.91 552.09,-87.78 529.31,-75 504.2,-60.91 472.41,-58.53 445.42,-60.06"/>
<polygon fill="#0173b2" stroke="#0173b2" points="445.05,-56.58 435.34,-60.82 445.57,-63.56 445.05,-56.58"/>
</a>
</g>
<text text-anchor="middle" x="491.31" y="-78.8" font-family="Times,serif" font-size="14.00">Force</text>
</g>
<!-- Solid&#45;&gt;Solid&#45;Solid&#45;Mesh -->
<g id="edge6" class="edge">
<title>Solid&#45;&gt;Solid&#45;Solid&#45;Mesh</title>
<g id="a_edge6"><a xlink:title="vector">
<path fill="none" stroke="#de8f05" d="M225.01,-53.12C231.93,-50.99 239.29,-49.11 246.31,-48 279.68,-42.75 288.95,-42.71 322.31,-48 325.36,-48.48 328.45,-49.09 331.55,-49.78"/>
<polygon fill="#de8f05" stroke="#de8f05" points="330.89,-53.22 341.44,-52.27 332.6,-46.43 330.89,-53.22"/>
</a>
</g>
<text text-anchor="middle" x="284.31" y="-51.8" font-family="Times,serif" font-size="14.00">Displacement</text>
</g>
<!-- Solid&#45;Solid&#45;Mesh&#45;&gt;Fluid&#45;Solid&#45;Mesh -->
<g id="edge13" class="edge">
<title>Solid&#45;Solid&#45;Mesh&#45;&gt;Fluid&#45;Solid&#45;Mesh</title>
<g id="a_edge13"><a xlink:title="vector">
<path fill="none" stroke="#de8f05" d="M428.05,-86.15C456.32,-98.62 495.32,-116.03 529.31,-132 532.12,-133.32 534.99,-134.68 537.89,-136.07"/>
<polygon fill="#de8f05" stroke="#de8f05" points="536.63,-139.34 547.15,-140.54 539.67,-133.04 536.63,-139.34"/>
</a>
</g>
<text text-anchor="middle" x="491.31" y="-135.8" font-family="Times,serif" font-size="14.00">Displacement</text>
</g>
<!-- Solid&#45;Solid&#45;Mesh&#45;&gt;Solid -->
<g id="edge5" class="edge">
<title>Solid&#45;Solid&#45;Mesh&#45;&gt;Solid</title>
<g id="a_edge5"><a xlink:title="vector">
<path fill="none" stroke="#de8f05" d="M340.1,-68.03C309.38,-67.4 269.4,-66.57 238.97,-65.94"/>
<polygon fill="#de8f05" stroke="#de8f05" points="238.71,-62.43 228.64,-65.72 238.56,-69.43 238.71,-62.43"/>
</a>
</g>
<text text-anchor="middle" x="284.31" y="-71.8" font-family="Times,serif" font-size="14.00">Force</text>
</g>
<!-- Solid&#45;WP&#45;Flap&#45;Tip -->
<g id="node8" class="node">
<title>Solid&#45;WP&#45;Flap&#45;Tip</title>
<polygon fill="none" stroke="#de8f05" points="95.5,-84 34.5,-84 34.5,-46 101.5,-46 101.5,-78 95.5,-84"/>
<polyline fill="none" stroke="#de8f05" points="95.5,-84 95.5,-78 "/>
<polyline fill="none" stroke="#de8f05" points="101.5,-78 95.5,-78 "/>
<text text-anchor="middle" x="68" y="-68.8" font-family="Times,serif" font-size="14.00">Flap&#45;Tip</text>
<text text-anchor="middle" x="68" y="-53.8" font-family="Times,serif" font-size="14.00">at (0.0;1)</text>
</g>
<!-- Solid&#45;WP&#45;Flap&#45;Tip&#45;&gt;Solid -->
<g id="edge7" class="edge">
<title>Solid&#45;WP&#45;Flap&#45;Tip&#45;&gt;Solid</title>
<path fill="none" stroke="#de8f05" d="M101.55,-65C115.39,-65 131.76,-65 146.72,-65"/>
<polygon fill="#de8f05" stroke="#de8f05" points="146.81,-68.5 156.81,-65 146.81,-61.5 146.81,-68.5"/>
</g>
</g>
</svg>
