<?xml version="1.0" encoding="UTF-8" standalone="no"?>
<!DOCTYPE svg PUBLIC "-//W3C//DTD SVG 1.1//EN"
 "http://www.w3.org/Graphics/SVG/1.1/DTD/svg11.dtd">
<!-- Generated by graphviz version 2.43.0 (0)
 -->
<!-- Title: G Pages: 1 -->
<svg width="835pt" height="357pt"
 viewBox="0.00 0.00 835.31 357.00" xmlns="http://www.w3.org/2000/svg" xmlns:xlink="http://www.w3.org/1999/xlink">
<g id="graph0" class="graph" transform="scale(1 1) rotate(0) translate(4 353)">
<title>G</title>
<polygon fill="white" stroke="transparent" points="-4,4 -4,-353 831.31,-353 831.31,4 -4,4"/>
<g id="clust1" class="cluster">
<title>cluster_m2n</title>
<polygon fill="none" stroke="black" points="279.5,-176 279.5,-235 383.5,-235 383.5,-176 279.5,-176"/>
<text text-anchor="middle" x="331.5" y="-219.8" font-family="Times,serif" font-size="14.00">Communicators</text>
</g>
<g id="clust2" class="cluster">
<title>cluster_cpl</title>
<polygon fill="none" stroke="black" points="272,-117 272,-176 391,-176 391,-117 272,-117"/>
<text text-anchor="middle" x="331.5" y="-160.8" font-family="Times,serif" font-size="14.00">Coupling Schemes</text>
</g>
<g id="clust3" class="cluster">
<title>cluster_Fluid</title>
<polygon fill="none" stroke="black" stroke-width="2" points="8,-266 8,-341 819.31,-341 819.31,-266 8,-266"/>
<text text-anchor="middle" x="413.66" y="-325.8" font-family="Times,serif" font-size="14.00">Fluid</text>
</g>
<g id="clust4" class="cluster">
<title>cluster_Solid</title>
<polygon fill="none" stroke="black" stroke-width="2" points="8,-8 8,-83 819.31,-83 819.31,-8 8,-8"/>
<text text-anchor="middle" x="413.66" y="-67.8" font-family="Times,serif" font-size="14.00">Solid</text>
</g>
<!-- m2n&#45;Fluid&#45;Solid -->
<g id="node1" class="node">
<title>m2n&#45;Fluid&#45;Solid</title>
<polygon fill="none" stroke="black" points="359.5,-212 303.5,-212 303.5,-208 299.5,-208 299.5,-204 303.5,-204 303.5,-184 299.5,-184 299.5,-180 303.5,-180 303.5,-176 359.5,-176 359.5,-212"/>
<polyline fill="none" stroke="black" points="303.5,-208 307.5,-208 307.5,-204 303.5,-204 "/>
<polyline fill="none" stroke="black" points="303.5,-184 307.5,-184 307.5,-180 303.5,-180 "/>
<text text-anchor="middle" x="331.5" y="-190.3" font-family="Times,serif" font-size="14.00">sockets</text>
</g>
<!-- Fluid -->
<g id="node3" class="node">
<title>Fluid</title>
<polygon fill="none" stroke="#0173b2" points="575.45,-287.54 575.45,-302.46 556.83,-313 530.49,-313 511.86,-302.46 511.86,-287.54 530.49,-277 556.83,-277 575.45,-287.54"/>
<polygon fill="none" stroke="#0173b2" points="579.47,-285.22 579.47,-304.78 557.89,-317 529.42,-317 507.84,-304.78 507.84,-285.22 529.42,-273 557.89,-273 579.47,-285.22"/>
<text text-anchor="middle" x="543.66" y="-291.3" font-family="Times,serif" font-size="14.00">Fluid</text>
</g>
<!-- m2n&#45;Fluid&#45;Solid&#45;&gt;Fluid -->
<g id="edge7" class="edge">
<title>m2n&#45;Fluid&#45;Solid&#45;&gt;Fluid</title>
<path fill="none" stroke="#0173b2" d="M370.12,-193.29C403.91,-194.34 453.67,-200.19 490,-223 505.75,-232.89 518.31,-249.34 527.21,-264.03"/>
<polygon fill="#0173b2" stroke="#0173b2" points="369.8,-189.79 359.74,-193.11 369.68,-196.79 369.8,-189.79"/>
<polygon fill="#0173b2" stroke="#0173b2" points="519.62,-261.61 529.27,-266 524.47,-256.56 519.62,-261.61"/>
</g>
<!-- Solid -->
<g id="node7" class="node">
<title>Solid</title>
<polygon fill="none" stroke="#de8f05" points="575.45,-30.54 575.45,-45.46 556.83,-56 530.49,-56 511.86,-45.46 511.86,-30.54 530.49,-20 556.83,-20 575.45,-30.54"/>
<polygon fill="none" stroke="#de8f05" points="579.47,-28.22 579.47,-47.78 557.89,-60 529.42,-60 507.84,-47.78 507.84,-28.22 529.42,-16 557.89,-16 579.47,-28.22"/>
<text text-anchor="middle" x="543.66" y="-34.3" font-family="Times,serif" font-size="14.00">Solid</text>
</g>
<!-- m2n&#45;Fluid&#45;Solid&#45;&gt;Solid -->
<g id="edge8" class="edge">
<title>m2n&#45;Fluid&#45;Solid&#45;&gt;Solid</title>
<path fill="none" stroke="#de8f05" d="M369.32,-184.76C380.14,-181.41 391.79,-177.15 402,-172 445.17,-150.2 455.53,-141.92 490,-108 495.29,-102.8 500.47,-97.04 505.4,-91.12"/>
<polygon fill="#de8f05" stroke="#de8f05" points="368.31,-181.41 359.69,-187.58 370.27,-188.13 368.31,-181.41"/>
<polygon fill="#de8f05" stroke="#de8f05" points="508.39,-92.98 511.94,-83 502.94,-88.59 508.39,-92.98"/>
</g>
<!-- cpl&#45;Fluid&#45;Solid -->
<g id="node2" class="node">
<title>cpl&#45;Fluid&#45;Solid</title>
<polygon fill="none" stroke="black" points="378,-153 285,-153 285,-149 281,-149 281,-145 285,-145 285,-125 281,-125 281,-121 285,-121 285,-117 378,-117 378,-153"/>
<polyline fill="none" stroke="black" points="285,-149 289,-149 289,-145 285,-145 "/>
<polyline fill="none" stroke="black" points="285,-125 289,-125 289,-121 285,-121 "/>
<text text-anchor="middle" x="331.5" y="-131.3" font-family="Times,serif" font-size="14.00">serial&#45;implicit</text>
</g>
<!-- cpl&#45;Fluid&#45;Solid&#45;&gt;Fluid -->
<g id="edge9" class="edge">
<title>cpl&#45;Fluid&#45;Solid&#45;&gt;Fluid</title>
<path fill="none" stroke="#0173b2" d="M378.12,-142.92C412.29,-150.85 458.4,-166.04 490,-194 510.81,-212.41 524.63,-241.03 532.88,-263.11"/>
<polygon fill="#0173b2" stroke="#0173b2" points="526.77,-258.52 534.28,-266 533.07,-255.47 526.77,-258.52"/>
<text text-anchor="middle" x="389.12" y="-131.72" font-family="Times,serif" font-size="14.00">first</text>
</g>
<!-- cpl&#45;Fluid&#45;Solid&#45;&gt;Solid -->
<g id="edge10" class="edge">
<title>cpl&#45;Fluid&#45;Solid&#45;&gt;Solid</title>
<path fill="none" stroke="#de8f05" d="M360.94,-116.79C371.79,-109.53 384.31,-100.8 398.36,-89.53"/>
<polygon fill="#de8f05" stroke="#de8f05" points="400.81,-92.05 406.32,-83 396.37,-86.64 400.81,-92.05"/>
<text text-anchor="middle" x="341.94" y="-105.59" font-family="Times,serif" font-size="14.00">second</text>
</g>
<!-- Fluid&#45;Fluid&#45;Mesh&#45;Nodes -->
<g id="node5" class="node">
<title>Fluid&#45;Fluid&#45;Mesh&#45;Nodes</title>
<path fill="none" stroke="#0173b2" d="M819.31,-303.73C819.31,-305.53 789.28,-307 752.31,-307 715.34,-307 685.31,-305.53 685.31,-303.73 685.31,-303.73 685.31,-274.27 685.31,-274.27 685.31,-272.47 715.34,-271 752.31,-271 789.28,-271 819.31,-272.47 819.31,-274.27 819.31,-274.27 819.31,-303.73 819.31,-303.73"/>
<path fill="none" stroke="#0173b2" d="M819.31,-303.73C819.31,-301.92 789.28,-300.45 752.31,-300.45 715.34,-300.45 685.31,-301.92 685.31,-303.73"/>
<text text-anchor="start" x="693.31" y="-286.3" font-family="Times,serif" font-size="14.00">Fluid&#45;Mesh&#45;Nodes</text>
<text text-anchor="start" x="796.31" y="-286.3" font-family="Times,serif" font-style="italic" baseline-shift="super" font-size="14.00">3D</text>
</g>
<!-- Fluid&#45;&gt;Fluid&#45;Fluid&#45;Mesh&#45;Nodes -->
<g id="edge2" class="edge">
<title>Fluid&#45;&gt;Fluid&#45;Fluid&#45;Mesh&#45;Nodes</title>
<g id="a_edge2"><a xlink:title="scalar">
<path fill="none" stroke="#0173b2" d="M579.71,-293.98C605.8,-293.22 642.41,-292.16 675.11,-291.21"/>
<polygon fill="#0173b2" stroke="#0173b2" points="675.22,-294.71 685.11,-290.92 675.02,-287.71 675.22,-294.71"/>
</a>
</g>
<text text-anchor="middle" x="632.31" y="-296.8" font-family="Times,serif" font-size="14.00">Temperature</text>
</g>
<!-- Fluid&#45;Fluid&#45;Mesh&#45;Centers -->
<g id="node4" class="node">
<title>Fluid&#45;Fluid&#45;Mesh&#45;Centers</title>
<path fill="none" stroke="#0173b2" d="M402,-307.73C402,-309.53 370.4,-311 331.5,-311 292.6,-311 261,-309.53 261,-307.73 261,-307.73 261,-278.27 261,-278.27 261,-276.47 292.6,-275 331.5,-275 370.4,-275 402,-276.47 402,-278.27 402,-278.27 402,-307.73 402,-307.73"/>
<path fill="none" stroke="#0173b2" d="M402,-307.73C402,-305.92 370.4,-304.45 331.5,-304.45 292.6,-304.45 261,-305.92 261,-307.73"/>
<text text-anchor="start" x="269" y="-290.3" font-family="Times,serif" font-size="14.00">Fluid&#45;Mesh&#45;Centers</text>
<text text-anchor="start" x="379" y="-290.3" font-family="Times,serif" font-style="italic" baseline-shift="super" font-size="14.00">3D</text>
</g>
<!-- Fluid&#45;Fluid&#45;Mesh&#45;Centers&#45;&gt;Fluid -->
<g id="edge1" class="edge">
<title>Fluid&#45;Fluid&#45;Mesh&#45;Centers&#45;&gt;Fluid</title>
<g id="a_edge1"><a xlink:title="scalar">
<path fill="none" stroke="#0173b2" d="M402.19,-293.66C433.65,-293.96 469.91,-294.31 497.71,-294.57"/>
<polygon fill="#0173b2" stroke="#0173b2" points="497.89,-298.07 507.92,-294.67 497.96,-291.07 497.89,-298.07"/>
</a>
</g>
<text text-anchor="middle" x="455" y="-297.8" font-family="Times,serif" font-size="14.00">Heat&#45;Flux</text>
</g>
<!-- Solid&#45;Fluid&#45;Mesh&#45;Nodes -->
<g id="node10" class="node">
<title>Solid&#45;Fluid&#45;Mesh&#45;Nodes</title>
<path fill="none" stroke="#0173b2" stroke-dasharray="5,2" d="M127,-55.48C127,-58.11 100.33,-60.25 67.5,-60.25 34.67,-60.25 8,-58.11 8,-55.48 8,-55.48 8,-12.52 8,-12.52 8,-9.89 34.67,-7.75 67.5,-7.75 100.33,-7.75 127,-9.89 127,-12.52 127,-12.52 127,-55.48 127,-55.48"/>
<path fill="none" stroke="#0173b2" stroke-dasharray="5,2" d="M127,-55.48C127,-52.84 100.33,-50.7 67.5,-50.7 34.67,-50.7 8,-52.84 8,-55.48"/>
<text text-anchor="middle" x="67.5" y="-37.8" font-family="Times,serif" font-size="14.00">Fluid&#45;Mesh&#45;Nodes</text>
<text text-anchor="middle" x="67.5" y="-22.8" font-family="Times,serif" font-size="14.00">from Fluid</text>
</g>
<!-- Fluid&#45;Fluid&#45;Mesh&#45;Nodes&#45;&gt;Solid&#45;Fluid&#45;Mesh&#45;Nodes -->
<g id="edge11" class="edge">
<title>Fluid&#45;Fluid&#45;Mesh&#45;Nodes&#45;&gt;Solid&#45;Fluid&#45;Mesh&#45;Nodes</title>
<g id="a_edge11"><a xlink:title="scalar">
<path fill="none" stroke="#0173b2" d="M685.24,-278.75C653.29,-273.96 614.35,-268.36 579.31,-264 438.17,-246.43 389.06,-292.88 261,-231 185.16,-194.35 122.55,-114.87 90.87,-68.85"/>
<polygon fill="#0173b2" stroke="#0173b2" points="93.64,-66.7 85.13,-60.39 87.85,-70.63 93.64,-66.7"/>
</a>
</g>
<text text-anchor="middle" x="455" y="-266.8" font-family="Times,serif" font-size="14.00">Temperature</text>
</g>
<!-- Fluid&#45;Solid&#45;Mesh&#45;Nodes -->
<g id="node6" class="node">
<title>Fluid&#45;Solid&#45;Mesh&#45;Nodes</title>
<path fill="none" stroke="#de8f05" stroke-dasharray="5,2" d="M127,-313.48C127,-316.11 100.33,-318.25 67.5,-318.25 34.67,-318.25 8,-316.11 8,-313.48 8,-313.48 8,-270.52 8,-270.52 8,-267.89 34.67,-265.75 67.5,-265.75 100.33,-265.75 127,-267.89 127,-270.52 127,-270.52 127,-313.48 127,-313.48"/>
<path fill="none" stroke="#de8f05" stroke-dasharray="5,2" d="M127,-313.48C127,-310.84 100.33,-308.7 67.5,-308.7 34.67,-308.7 8,-310.84 8,-313.48"/>
<text text-anchor="middle" x="67.5" y="-295.8" font-family="Times,serif" font-size="14.00">Solid&#45;Mesh&#45;Nodes</text>
<text text-anchor="middle" x="67.5" y="-280.8" font-family="Times,serif" font-size="14.00">from Solid</text>
</g>
<!-- Fluid&#45;Solid&#45;Mesh&#45;Nodes&#45;&gt;Fluid&#45;Fluid&#45;Mesh&#45;Centers -->
<g id="edge3" class="edge">
<title>Fluid&#45;Solid&#45;Mesh&#45;Nodes&#45;&gt;Fluid&#45;Fluid&#45;Mesh&#45;Centers</title>
<path fill="none" stroke="#0173b2" d="M127.3,-292.22C163.66,-292.36 210.82,-292.54 250.55,-292.69"/>
<polygon fill="#0173b2" stroke="#0173b2" points="250.73,-296.2 260.74,-292.73 250.76,-289.2 250.73,-296.2"/>
<text text-anchor="middle" x="194" y="-295.8" font-family="Times,serif" font-size="14.00">nearest&#45;projection</text>
</g>
<!-- Solid&#45;Solid&#45;Mesh&#45;Nodes -->
<g id="node8" class="node">
<title>Solid&#45;Solid&#45;Mesh&#45;Nodes</title>
<path fill="none" stroke="#de8f05" d="M819.31,-55.73C819.31,-57.53 789.28,-59 752.31,-59 715.34,-59 685.31,-57.53 685.31,-55.73 685.31,-55.73 685.31,-26.27 685.31,-26.27 685.31,-24.47 715.34,-23 752.31,-23 789.28,-23 819.31,-24.47 819.31,-26.27 819.31,-26.27 819.31,-55.73 819.31,-55.73"/>
<path fill="none" stroke="#de8f05" d="M819.31,-55.73C819.31,-53.92 789.28,-52.45 752.31,-52.45 715.34,-52.45 685.31,-53.92 685.31,-55.73"/>
<text text-anchor="start" x="693.31" y="-38.3" font-family="Times,serif" font-size="14.00">Solid&#45;Mesh&#45;Nodes</text>
<text text-anchor="start" x="796.31" y="-38.3" font-family="Times,serif" font-style="italic" baseline-shift="super" font-size="14.00">3D</text>
</g>
<!-- Solid&#45;&gt;Solid&#45;Solid&#45;Mesh&#45;Nodes -->
<g id="edge5" class="edge">
<title>Solid&#45;&gt;Solid&#45;Solid&#45;Mesh&#45;Nodes</title>
<g id="a_edge5"><a xlink:title="scalar">
<path fill="none" stroke="#de8f05" d="M579.71,-38.51C605.8,-38.89 642.41,-39.42 675.11,-39.89"/>
<polygon fill="#de8f05" stroke="#de8f05" points="675.06,-43.39 685.11,-40.04 675.17,-36.39 675.06,-43.39"/>
</a>
</g>
<text text-anchor="middle" x="632.31" y="-43.8" font-family="Times,serif" font-size="14.00">Heat&#45;Flux</text>
</g>
<!-- Solid&#45;Solid&#45;Mesh&#45;Nodes&#45;&gt;Fluid&#45;Solid&#45;Mesh&#45;Nodes -->
<g id="edge12" class="edge">
<title>Solid&#45;Solid&#45;Mesh&#45;Nodes&#45;&gt;Fluid&#45;Solid&#45;Mesh&#45;Nodes</title>
<g id="a_edge12"><a xlink:title="scalar">
<path fill="none" stroke="#de8f05" d="M684.92,-55.73C678.98,-56.9 673.05,-58.01 667.31,-59 622.44,-66.78 302.19,-93.58 261,-113 189.99,-146.48 127.49,-215.8 94.13,-257.67"/>
<polygon fill="#de8f05" stroke="#de8f05" points="91.27,-255.63 87.85,-265.66 96.78,-259.96 91.27,-255.63"/>
</a>
</g>
<text text-anchor="middle" x="455" y="-90.8" font-family="Times,serif" font-size="14.00">Heat&#45;Flux</text>
</g>
<!-- Solid&#45;Solid&#45;Mesh&#45;Centers -->
<g id="node9" class="node">
<title>Solid&#45;Solid&#45;Mesh&#45;Centers</title>
<path fill="none" stroke="#de8f05" d="M402,-42.73C402,-44.53 370.4,-46 331.5,-46 292.6,-46 261,-44.53 261,-42.73 261,-42.73 261,-13.27 261,-13.27 261,-11.47 292.6,-10 331.5,-10 370.4,-10 402,-11.47 402,-13.27 402,-13.27 402,-42.73 402,-42.73"/>
<path fill="none" stroke="#de8f05" d="M402,-42.73C402,-40.92 370.4,-39.45 331.5,-39.45 292.6,-39.45 261,-40.92 261,-42.73"/>
<text text-anchor="start" x="269" y="-25.3" font-family="Times,serif" font-size="14.00">Solid&#45;Mesh&#45;Centers</text>
<text text-anchor="start" x="379" y="-25.3" font-family="Times,serif" font-style="italic" baseline-shift="super" font-size="14.00">3D</text>
</g>
<!-- Solid&#45;Solid&#45;Mesh&#45;Centers&#45;&gt;Solid -->
<g id="edge4" class="edge">
<title>Solid&#45;Solid&#45;Mesh&#45;Centers&#45;&gt;Solid</title>
<g id="a_edge4"><a xlink:title="scalar">
<path fill="none" stroke="#de8f05" d="M402.05,-24.3C429.51,-23.68 461.3,-24.03 490,-27 492.65,-27.27 495.37,-27.62 498.1,-28.03"/>
<polygon fill="#de8f05" stroke="#de8f05" points="497.53,-31.48 507.98,-29.7 498.7,-24.58 497.53,-31.48"/>
</a>
</g>
<text text-anchor="middle" x="455" y="-30.8" font-family="Times,serif" font-size="14.00">Temperature</text>
</g>
<!-- Solid&#45;Fluid&#45;Mesh&#45;Nodes&#45;&gt;Solid&#45;Solid&#45;Mesh&#45;Centers -->
<g id="edge6" class="edge">
<title>Solid&#45;Fluid&#45;Mesh&#45;Nodes&#45;&gt;Solid&#45;Solid&#45;Mesh&#45;Centers</title>
<path fill="none" stroke="#de8f05" d="M127.3,-32.65C163.66,-31.82 210.82,-30.74 250.55,-29.83"/>
<polygon fill="#de8f05" stroke="#de8f05" points="250.83,-33.33 260.74,-29.6 250.67,-26.33 250.83,-33.33"/>
<text text-anchor="middle" x="194" y="-36.8" font-family="Times,serif" font-size="14.00">nearest&#45;projection</text>
</g>
</g>
</svg>
