<?xml version="1.0" encoding="UTF-8" standalone="no"?>
<!DOCTYPE svg PUBLIC "-//W3C//DTD SVG 1.1//EN"
 "http://www.w3.org/Graphics/SVG/1.1/DTD/svg11.dtd">
<!-- Generated by graphviz version 2.43.0 (0)
 -->
<!-- Title: G Pages: 1 -->
<svg width="1158pt" height="712pt"
 viewBox="0.00 0.00 1158.00 711.75" xmlns="http://www.w3.org/2000/svg" xmlns:xlink="http://www.w3.org/1999/xlink">
<g id="graph0" class="graph" transform="scale(1 1) rotate(0) translate(4 707.75)">
<title>G</title>
<polygon fill="white" stroke="transparent" points="-4,4 -4,-707.75 1154,-707.75 1154,4 -4,4"/>
<g id="clust1" class="cluster">
<title>cluster_m2n</title>
<polygon fill="none" stroke="black" points="7.5,-528.62 7.5,-641.62 111.5,-641.62 111.5,-528.62 7.5,-528.62"/>
<text text-anchor="middle" x="59.5" y="-626.42" font-family="Times,serif" font-size="14.00">Communicators</text>
</g>
<g id="clust2" class="cluster">
<title>cluster_cpl</title>
<polygon fill="none" stroke="black" points="0,-366.62 0,-479.62 119,-479.62 119,-366.62 0,-366.62"/>
<text text-anchor="middle" x="59.5" y="-464.42" font-family="Times,serif" font-size="14.00">Coupling Schemes</text>
</g>
<g id="clust3" class="cluster">
<title>cluster_Fluid1</title>
<polygon fill="none" stroke="black" stroke-width="2" points="739,-210.62 739,-570.62 1142,-570.62 1142,-210.62 739,-210.62"/>
<text text-anchor="middle" x="940.5" y="-555.42" font-family="Times,serif" font-size="14.00">Fluid1</text>
</g>
<g id="clust4" class="cluster">
<title>cluster_Solid</title>
<polygon fill="none" stroke="black" stroke-width="2" points="155,-458.62 155,-595.62 554.5,-595.62 554.5,-458.62 155,-458.62"/>
<text text-anchor="middle" x="354.75" y="-580.42" font-family="Times,serif" font-size="14.00">Solid</text>
</g>
<g id="clust5" class="cluster">
<title>cluster_Fluid2</title>
<polygon fill="none" stroke="black" stroke-width="2" points="155,-136.62 155,-382.62 558,-382.62 558,-136.62 155,-136.62"/>
<text text-anchor="middle" x="356.5" y="-367.42" font-family="Times,serif" font-size="14.00">Fluid2</text>
</g>
<!-- m2n&#45;Fluid1&#45;Solid -->
<g id="node1" class="node">
<title>m2n&#45;Fluid1&#45;Solid</title>
<polygon fill="none" stroke="black" points="87.5,-564.62 31.5,-564.62 31.5,-560.62 27.5,-560.62 27.5,-556.62 31.5,-556.62 31.5,-536.62 27.5,-536.62 27.5,-532.62 31.5,-532.62 31.5,-528.62 87.5,-528.62 87.5,-564.62"/>
<polyline fill="none" stroke="black" points="31.5,-560.62 35.5,-560.62 35.5,-556.62 31.5,-556.62 "/>
<polyline fill="none" stroke="black" points="31.5,-536.62 35.5,-536.62 35.5,-532.62 31.5,-532.62 "/>
<text text-anchor="middle" x="59.5" y="-542.92" font-family="Times,serif" font-size="14.00">sockets</text>
</g>
<!-- Fluid1 -->
<g id="node5" class="node">
<title>Fluid1</title>
<polygon fill="none" stroke="#0173b2" points="819.16,-411.16 819.16,-426.07 797.68,-436.62 767.32,-436.62 745.84,-426.07 745.84,-411.16 767.32,-400.62 797.68,-400.62 819.16,-411.16"/>
<polygon fill="none" stroke="#0173b2" points="823.16,-408.67 823.16,-428.56 798.62,-440.62 766.38,-440.62 741.84,-428.56 741.84,-408.67 766.38,-396.62 798.62,-396.62 823.16,-408.67"/>
<text text-anchor="middle" x="782.5" y="-414.92" font-family="Times,serif" font-size="14.00">Fluid1</text>
</g>
<!-- m2n&#45;Fluid1&#45;Solid&#45;&gt;Fluid1 -->
<g id="edge19" class="edge">
<title>m2n&#45;Fluid1&#45;Solid&#45;&gt;Fluid1</title>
<path fill="none" stroke="#0173b2" d="M96.9,-562.9C104.26,-566.34 111.92,-570.02 119,-573.62 135.32,-581.9 137.28,-589.02 155,-593.62 276.79,-625.17 627.84,-665.17 721,-580.62 752.13,-552.37 726.34,-526.17 735.78,-489.24"/>
<polygon fill="#0173b2" stroke="#0173b2" points="98.33,-559.71 87.79,-558.7 95.4,-566.07 98.33,-559.71"/>
<polygon fill="#0173b2" stroke="#0173b2" points="739.15,-490.21 739,-479.62 732.51,-487.99 739.15,-490.21"/>
</g>
<!-- Solid -->
<g id="node10" class="node">
<title>Solid</title>
<polygon fill="none" stroke="#de8f05" points="246.8,-473.16 246.8,-488.07 228.17,-498.62 201.83,-498.62 183.2,-488.07 183.2,-473.16 201.83,-462.62 228.17,-462.62 246.8,-473.16"/>
<polygon fill="none" stroke="#de8f05" points="250.82,-470.83 250.82,-490.4 229.23,-502.62 200.77,-502.62 179.18,-490.4 179.18,-470.83 200.77,-458.62 229.23,-458.62 250.82,-470.83"/>
<text text-anchor="middle" x="215" y="-476.92" font-family="Times,serif" font-size="14.00">Solid</text>
</g>
<!-- m2n&#45;Fluid1&#45;Solid&#45;&gt;Solid -->
<g id="edge20" class="edge">
<title>m2n&#45;Fluid1&#45;Solid&#45;&gt;Solid</title>
<path fill="none" stroke="#de8f05" d="M96.97,-530.94C111.6,-524.65 128.95,-517.19 145.75,-509.96"/>
<polygon fill="#de8f05" stroke="#de8f05" points="95.39,-527.8 87.59,-534.97 98.16,-534.23 95.39,-527.8"/>
<polygon fill="#de8f05" stroke="#de8f05" points="147.2,-513.15 155,-505.98 144.43,-506.72 147.2,-513.15"/>
</g>
<!-- m2n&#45;Fluid1&#45;Fluid2 -->
<g id="node2" class="node">
<title>m2n&#45;Fluid1&#45;Fluid2</title>
<polygon fill="none" stroke="black" points="87.5,-618.62 31.5,-618.62 31.5,-614.62 27.5,-614.62 27.5,-610.62 31.5,-610.62 31.5,-590.62 27.5,-590.62 27.5,-586.62 31.5,-586.62 31.5,-582.62 87.5,-582.62 87.5,-618.62"/>
<polyline fill="none" stroke="black" points="31.5,-614.62 35.5,-614.62 35.5,-610.62 31.5,-610.62 "/>
<polyline fill="none" stroke="black" points="31.5,-590.62 35.5,-590.62 35.5,-586.62 31.5,-586.62 "/>
<text text-anchor="middle" x="59.5" y="-596.92" font-family="Times,serif" font-size="14.00">sockets</text>
</g>
<!-- m2n&#45;Fluid1&#45;Fluid2&#45;&gt;Fluid1 -->
<g id="edge21" class="edge">
<title>m2n&#45;Fluid1&#45;Fluid2&#45;&gt;Fluid1</title>
<path fill="none" stroke="#0173b2" d="M96.98,-616.95C208.1,-663.92 545.42,-785.63 721,-617.62 741.16,-598.32 730.51,-524.97 736.43,-489.64"/>
<polygon fill="#0173b2" stroke="#0173b2" points="98.12,-613.63 87.55,-612.91 95.37,-620.06 98.12,-613.63"/>
<polygon fill="#0173b2" stroke="#0173b2" points="739.91,-490.17 739,-479.62 733.13,-488.43 739.91,-490.17"/>
</g>
<!-- Fluid2 -->
<g id="node13" class="node">
<title>Fluid2</title>
<polygon fill="none" stroke="#029e73" points="251.66,-299.16 251.66,-314.07 230.18,-324.62 199.82,-324.62 178.34,-314.07 178.34,-299.16 199.82,-288.62 230.18,-288.62 251.66,-299.16"/>
<polygon fill="none" stroke="#029e73" points="255.66,-296.67 255.66,-316.56 231.12,-328.62 198.88,-328.62 174.34,-316.56 174.34,-296.67 198.88,-284.62 231.12,-284.62 255.66,-296.67"/>
<text text-anchor="middle" x="215" y="-302.92" font-family="Times,serif" font-size="14.00">Fluid2</text>
</g>
<!-- m2n&#45;Fluid1&#45;Fluid2&#45;&gt;Fluid2 -->
<g id="edge22" class="edge">
<title>m2n&#45;Fluid1&#45;Fluid2&#45;&gt;Fluid2</title>
<path fill="none" stroke="#029e73" d="M96.91,-589.55C105.08,-585.62 113.08,-580.42 119,-573.62 155.27,-531.93 136.75,-506.77 155,-454.62 162.13,-434.23 170.4,-412.51 178.46,-392.16"/>
<polygon fill="#029e73" stroke="#029e73" points="95.53,-586.33 87.7,-593.46 98.27,-592.77 95.53,-586.33"/>
<polygon fill="#029e73" stroke="#029e73" points="181.81,-393.2 182.26,-382.61 175.31,-390.61 181.81,-393.2"/>
</g>
<!-- cpl&#45;Fluid1&#45;Solid -->
<g id="node3" class="node">
<title>cpl&#45;Fluid1&#45;Solid</title>
<polygon fill="none" stroke="black" points="105,-456.62 14,-456.62 14,-452.62 10,-452.62 10,-448.62 14,-448.62 14,-428.62 10,-428.62 10,-424.62 14,-424.62 14,-420.62 105,-420.62 105,-456.62"/>
<polyline fill="none" stroke="black" points="14,-452.62 18,-452.62 18,-448.62 14,-448.62 "/>
<polyline fill="none" stroke="black" points="14,-428.62 18,-428.62 18,-424.62 14,-424.62 "/>
<text text-anchor="middle" x="59.5" y="-434.92" font-family="Times,serif" font-size="14.00">serial&#45;explicit</text>
</g>
<!-- cpl&#45;Fluid1&#45;Solid&#45;&gt;Fluid1 -->
<g id="edge23" class="edge">
<title>cpl&#45;Fluid1&#45;Solid&#45;&gt;Fluid1</title>
<path fill="none" stroke="#0173b2" d="M105.06,-437.38C232.4,-433.85 597.34,-423.72 731.36,-420.01"/>
<polygon fill="#0173b2" stroke="#0173b2" points="729.14,-423.59 739,-419.72 728.88,-416.6 729.14,-423.59"/>
<text text-anchor="middle" x="116.06" y="-426.18" font-family="Times,serif" font-size="14.00">first</text>
</g>
<!-- cpl&#45;Fluid1&#45;Solid&#45;&gt;Solid -->
<g id="edge24" class="edge">
<title>cpl&#45;Fluid1&#45;Solid&#45;&gt;Solid</title>
<path fill="none" stroke="#de8f05" d="M105.31,-450.88C117.81,-454.3 131.69,-458.09 145.23,-461.8"/>
<polygon fill="#de8f05" stroke="#de8f05" points="144.43,-465.21 155,-464.47 146.28,-458.46 144.43,-465.21"/>
<text text-anchor="middle" x="124.31" y="-447.18" font-family="Times,serif" font-size="14.00">second</text>
</g>
<!-- cpl&#45;Fluid1&#45;Fluid2 -->
<g id="node4" class="node">
<title>cpl&#45;Fluid1&#45;Fluid2</title>
<polygon fill="none" stroke="black" points="106,-402.62 13,-402.62 13,-398.62 9,-398.62 9,-394.62 13,-394.62 13,-374.62 9,-374.62 9,-370.62 13,-370.62 13,-366.62 106,-366.62 106,-402.62"/>
<polyline fill="none" stroke="black" points="13,-398.62 17,-398.62 17,-394.62 13,-394.62 "/>
<polyline fill="none" stroke="black" points="13,-374.62 17,-374.62 17,-370.62 13,-370.62 "/>
<text text-anchor="middle" x="59.5" y="-380.92" font-family="Times,serif" font-size="14.00">serial&#45;implicit</text>
</g>
<!-- cpl&#45;Fluid1&#45;Fluid2&#45;&gt;Fluid1 -->
<g id="edge27" class="edge">
<title>cpl&#45;Fluid1&#45;Fluid2&#45;&gt;Fluid1</title>
<path fill="none" stroke="#0173b2" d="M106.15,-386.72C213.42,-391.66 489.95,-404.47 721,-415.62 724.47,-415.78 728.04,-415.96 731.65,-416.13"/>
<polygon fill="#0173b2" stroke="#0173b2" points="728.79,-419.45 739,-416.63 729.26,-412.46 728.79,-419.45"/>
<text text-anchor="middle" x="117.15" y="-375.52" font-family="Times,serif" font-size="14.00">first</text>
</g>
<!-- cpl&#45;Fluid1&#45;Fluid2&#45;&gt;Fluid2 -->
<g id="edge28" class="edge">
<title>cpl&#45;Fluid1&#45;Fluid2&#45;&gt;Fluid2</title>
<path fill="none" stroke="#029e73" d="M96.1,-366.52C111,-358.96 128.83,-349.89 146.06,-341.14"/>
<polygon fill="#029e73" stroke="#029e73" points="147.67,-344.25 155,-336.59 144.5,-338 147.67,-344.25"/>
<text text-anchor="middle" x="77.1" y="-355.32" font-family="Times,serif" font-size="14.00">second</text>
</g>
<!-- Fluid1&#45;Fluid1&#45;Solid&#45;Mesh -->
<g id="node6" class="node">
<title>Fluid1&#45;Fluid1&#45;Solid&#45;Mesh</title>
<path fill="none" stroke="#0173b2" d="M1142,-526.34C1142,-528.15 1111.75,-529.62 1074.5,-529.62 1037.25,-529.62 1007,-528.15 1007,-526.34 1007,-526.34 1007,-496.89 1007,-496.89 1007,-495.08 1037.25,-493.62 1074.5,-493.62 1111.75,-493.62 1142,-495.08 1142,-496.89 1142,-496.89 1142,-526.34 1142,-526.34"/>
<path fill="none" stroke="#0173b2" d="M1142,-526.34C1142,-524.54 1111.75,-523.07 1074.5,-523.07 1037.25,-523.07 1007,-524.54 1007,-526.34"/>
<text text-anchor="start" x="1015" y="-508.92" font-family="Times,serif" font-size="14.00">Fluid1&#45;Solid&#45;Mesh</text>
<text text-anchor="start" x="1119" y="-508.92" font-family="Times,serif" font-style="italic" baseline-shift="super" font-size="14.00">2D</text>
</g>
<!-- Fluid1&#45;&gt;Fluid1&#45;Fluid1&#45;Solid&#45;Mesh -->
<g id="edge5" class="edge">
<title>Fluid1&#45;&gt;Fluid1&#45;Fluid1&#45;Solid&#45;Mesh</title>
<g id="a_edge5"><a xlink:title="scalar">
<path fill="none" stroke="#0173b2" d="M801.22,-439.67C812.28,-451.34 827.51,-465 844,-472.62 903.05,-499.91 924.99,-481.03 989,-492.62 991.52,-493.07 994.09,-493.55 996.67,-494.05"/>
<polygon fill="#0173b2" stroke="#0173b2" points="996.23,-497.53 1006.72,-496.06 997.6,-490.67 996.23,-497.53"/>
</a>
</g>
<text text-anchor="middle" x="916.5" y="-496.42" font-family="Times,serif" font-size="14.00">Temperature&#45;Solid</text>
</g>
<!-- Fluid1&#45;Fluid1&#45;Fluid&#45;Mesh -->
<g id="node7" class="node">
<title>Fluid1&#45;Fluid1&#45;Fluid&#45;Mesh</title>
<path fill="none" stroke="#0173b2" d="M1142,-300.34C1142,-302.15 1111.75,-303.62 1074.5,-303.62 1037.25,-303.62 1007,-302.15 1007,-300.34 1007,-300.34 1007,-270.89 1007,-270.89 1007,-269.08 1037.25,-267.62 1074.5,-267.62 1111.75,-267.62 1142,-269.08 1142,-270.89 1142,-270.89 1142,-300.34 1142,-300.34"/>
<path fill="none" stroke="#0173b2" d="M1142,-300.34C1142,-298.54 1111.75,-297.07 1074.5,-297.07 1037.25,-297.07 1007,-298.54 1007,-300.34"/>
<text text-anchor="start" x="1015" y="-282.92" font-family="Times,serif" font-size="14.00">Fluid1&#45;Fluid&#45;Mesh</text>
<text text-anchor="start" x="1119" y="-282.92" font-family="Times,serif" font-style="italic" baseline-shift="super" font-size="14.00">2D</text>
</g>
<!-- Fluid1&#45;&gt;Fluid1&#45;Fluid1&#45;Fluid&#45;Mesh -->
<g id="edge6" class="edge">
<title>Fluid1&#45;&gt;Fluid1&#45;Fluid1&#45;Fluid&#45;Mesh</title>
<g id="a_edge6"><a xlink:title="vector">
<path fill="none" stroke="#0173b2" d="M795.28,-396.46C805.7,-379.15 822.57,-356.02 844,-343.62 900.47,-310.93 926.2,-338.33 989,-320.62 1001.3,-317.15 1014.22,-312.4 1026.15,-307.52"/>
<polygon fill="#0173b2" stroke="#0173b2" points="1027.61,-310.7 1035.48,-303.6 1024.9,-304.25 1027.61,-310.7"/>
</a>
</g>
<text text-anchor="middle" x="916.5" y="-347.42" font-family="Times,serif" font-size="14.00">Velocity</text>
</g>
<!-- Fluid1&#45;&gt;Fluid1&#45;Fluid1&#45;Fluid&#45;Mesh -->
<g id="edge7" class="edge">
<title>Fluid1&#45;&gt;Fluid1&#45;Fluid1&#45;Fluid&#45;Mesh</title>
<g id="a_edge7"><a xlink:title="scalar">
<path fill="none" stroke="#0173b2" d="M805.65,-399.93C816.53,-391.75 830.24,-382.84 844,-377.62 904.76,-354.54 929.69,-385.2 989,-358.62 1013.17,-347.78 1035.61,-327.71 1051.29,-311.36"/>
<polygon fill="#0173b2" stroke="#0173b2" points="1054.17,-313.39 1058.41,-303.68 1049.04,-308.63 1054.17,-313.39"/>
</a>
</g>
<text text-anchor="middle" x="916.5" y="-381.42" font-family="Times,serif" font-size="14.00">FlowTemperature&#45;Fluid</text>
</g>
<!-- Fluid1&#45;Fluid1&#45;Solid&#45;Mesh&#45;&gt;Fluid1 -->
<g id="edge1" class="edge">
<title>Fluid1&#45;Fluid1&#45;Solid&#45;Mesh&#45;&gt;Fluid1</title>
<g id="a_edge1"><a xlink:title="scalar">
<path fill="none" stroke="#0173b2" d="M1050.86,-493.47C1034.59,-481.39 1011.62,-466.21 989,-457.62 928,-434.45 907.84,-448.09 844,-434.62 839.93,-433.76 835.73,-432.8 831.53,-431.79"/>
<polygon fill="#0173b2" stroke="#0173b2" points="832.32,-428.38 821.77,-429.36 830.63,-435.17 832.32,-428.38"/>
</a>
</g>
<text text-anchor="middle" x="916.5" y="-461.42" font-family="Times,serif" font-size="14.00">Heat&#45;Flux</text>
</g>
<!-- Solid&#45;Fluid1&#45;Solid&#45;Mesh -->
<g id="node12" class="node">
<title>Solid&#45;Fluid1&#45;Solid&#45;Mesh</title>
<path fill="none" stroke="#0173b2" stroke-dasharray="5,2" d="M275,-568.09C275,-570.73 248.11,-572.87 215,-572.87 181.89,-572.87 155,-570.73 155,-568.09 155,-568.09 155,-525.14 155,-525.14 155,-522.5 181.89,-520.37 215,-520.37 248.11,-520.37 275,-522.5 275,-525.14 275,-525.14 275,-568.09 275,-568.09"/>
<path fill="none" stroke="#0173b2" stroke-dasharray="5,2" d="M275,-568.09C275,-565.46 248.11,-563.32 215,-563.32 181.89,-563.32 155,-565.46 155,-568.09"/>
<text text-anchor="middle" x="215" y="-550.42" font-family="Times,serif" font-size="14.00">Fluid1&#45;Solid&#45;Mesh</text>
<text text-anchor="middle" x="215" y="-535.42" font-family="Times,serif" font-size="14.00">from Fluid1</text>
</g>
<!-- Fluid1&#45;Fluid1&#45;Solid&#45;Mesh&#45;&gt;Solid&#45;Fluid1&#45;Solid&#45;Mesh -->
<g id="edge25" class="edge">
<title>Fluid1&#45;Fluid1&#45;Solid&#45;Mesh&#45;&gt;Solid&#45;Fluid1&#45;Solid&#45;Mesh</title>
<g id="a_edge25"><a xlink:title="scalar">
<path fill="none" stroke="#0173b2" d="M1010.03,-528.4C1002.96,-529.97 995.85,-531.41 989,-532.62 747.44,-575.01 683.22,-558.51 438,-562.62 373.56,-563.69 357.11,-569.21 293,-562.62 290.44,-562.35 287.85,-562.04 285.23,-561.69"/>
<polygon fill="#0173b2" stroke="#0173b2" points="285.49,-558.19 275.08,-560.17 284.45,-565.11 285.49,-558.19"/>
</a>
</g>
<text text-anchor="middle" x="648.5" y="-565.42" font-family="Times,serif" font-size="14.00">Temperature&#45;Solid</text>
</g>
<!-- Fluid1&#45;Fluid1&#45;Fluid&#45;Mesh&#45;&gt;Fluid1 -->
<g id="edge2" class="edge">
<title>Fluid1&#45;Fluid1&#45;Fluid&#45;Mesh&#45;&gt;Fluid1</title>
<g id="a_edge2"><a xlink:title="scalar">
<path fill="none" stroke="#0173b2" d="M1065.41,-303.92C1053.03,-329.54 1026.76,-375.32 989,-396.62 975.76,-404.08 890.01,-411.3 833.54,-415.33"/>
<polygon fill="#0173b2" stroke="#0173b2" points="833.09,-411.85 823.36,-416.05 833.58,-418.84 833.09,-411.85"/>
</a>
</g>
<text text-anchor="middle" x="916.5" y="-417.42" font-family="Times,serif" font-size="14.00">Pressure</text>
</g>
<!-- Fluid1&#45;Fluid1&#45;Fluid&#45;Mesh&#45;&gt;Fluid1 -->
<g id="edge3" class="edge">
<title>Fluid1&#45;Fluid1&#45;Fluid&#45;Mesh&#45;&gt;Fluid1</title>
<g id="a_edge3"><a xlink:title="vector">
<path fill="none" stroke="#0173b2" d="M1031.82,-267.84C982.53,-249.85 900.11,-229.65 844,-267.62 804.83,-294.12 791.02,-350.57 786.15,-386.44"/>
<polygon fill="#0173b2" stroke="#0173b2" points="782.67,-386.07 784.95,-396.41 789.62,-386.9 782.67,-386.07"/>
</a>
</g>
<text text-anchor="middle" x="916.5" y="-271.42" font-family="Times,serif" font-size="14.00">VelocityGradient</text>
</g>
<!-- Fluid1&#45;Fluid1&#45;Fluid&#45;Mesh&#45;&gt;Fluid1 -->
<g id="edge4" class="edge">
<title>Fluid1&#45;Fluid1&#45;Fluid&#45;Mesh&#45;&gt;Fluid1</title>
<g id="a_edge4"><a xlink:title="scalar">
<path fill="none" stroke="#0173b2" d="M1006.88,-284.53C948.8,-284.81 869.92,-288.52 844,-305.62 815.83,-324.19 799.81,-360.41 791.42,-386.85"/>
<polygon fill="#0173b2" stroke="#0173b2" points="788.06,-385.86 788.57,-396.44 794.78,-387.85 788.06,-385.86"/>
</a>
</g>
<text text-anchor="middle" x="916.5" y="-309.42" font-family="Times,serif" font-size="14.00">FlowTemperatureGradient</text>
</g>
<!-- Fluid2&#45;Fluid1&#45;Fluid&#45;Mesh -->
<g id="node15" class="node">
<title>Fluid2&#45;Fluid1&#45;Fluid&#45;Mesh</title>
<path fill="none" stroke="#0173b2" stroke-dasharray="5,2" d="M275,-184.09C275,-186.73 248.11,-188.87 215,-188.87 181.89,-188.87 155,-186.73 155,-184.09 155,-184.09 155,-141.14 155,-141.14 155,-138.5 181.89,-136.37 215,-136.37 248.11,-136.37 275,-138.5 275,-141.14 275,-141.14 275,-184.09 275,-184.09"/>
<path fill="none" stroke="#0173b2" stroke-dasharray="5,2" d="M275,-184.09C275,-181.46 248.11,-179.32 215,-179.32 181.89,-179.32 155,-181.46 155,-184.09"/>
<text text-anchor="middle" x="215" y="-166.42" font-family="Times,serif" font-size="14.00">Fluid1&#45;Fluid&#45;Mesh</text>
<text text-anchor="middle" x="215" y="-151.42" font-family="Times,serif" font-size="14.00">from Fluid1</text>
</g>
<!-- Fluid1&#45;Fluid1&#45;Fluid&#45;Mesh&#45;&gt;Fluid2&#45;Fluid1&#45;Fluid&#45;Mesh -->
<g id="edge29" class="edge">
<title>Fluid1&#45;Fluid1&#45;Fluid&#45;Mesh&#45;&gt;Fluid2&#45;Fluid1&#45;Fluid&#45;Mesh</title>
<g id="a_edge29"><a xlink:title="vector">
<path fill="none" stroke="#0173b2" d="M1070.88,-267.45C1064.46,-230.3 1044.23,-145.94 989,-107.62 734.85,68.73 583.51,-1.35 293,-107.62 278.83,-112.8 264.93,-121.34 252.91,-130.16"/>
<polygon fill="#0173b2" stroke="#0173b2" points="250.73,-127.42 244.92,-136.27 254.99,-132.98 250.73,-127.42"/>
</a>
</g>
<text text-anchor="middle" x="648.5" y="-17.42" font-family="Times,serif" font-size="14.00">Velocity</text>
</g>
<!-- Fluid1&#45;Fluid1&#45;Fluid&#45;Mesh&#45;&gt;Fluid2&#45;Fluid1&#45;Fluid&#45;Mesh -->
<g id="edge32" class="edge">
<title>Fluid1&#45;Fluid1&#45;Fluid&#45;Mesh&#45;&gt;Fluid2&#45;Fluid1&#45;Fluid&#45;Mesh</title>
<g id="a_edge32"><a xlink:title="scalar">
<path fill="none" stroke="#0173b2" d="M1057.29,-267.36C1041.54,-250.85 1016.09,-227.24 989,-214.62 764.77,-110.09 685,-149.54 438,-135.62 373.66,-131.99 356.53,-124.8 293,-135.62 290.34,-136.07 287.65,-136.6 284.95,-137.2"/>
<polygon fill="#0173b2" stroke="#0173b2" points="284.02,-133.83 275.17,-139.65 285.72,-140.62 284.02,-133.83"/>
</a>
</g>
<text text-anchor="middle" x="648.5" y="-145.42" font-family="Times,serif" font-size="14.00">FlowTemperature&#45;Fluid</text>
</g>
<!-- Fluid1&#45;Solid&#45;Mesh -->
<g id="node8" class="node">
<title>Fluid1&#45;Solid&#45;Mesh</title>
<path fill="none" stroke="#de8f05" stroke-dasharray="5,2" d="M822.5,-536.09C822.5,-538.73 804.57,-540.87 782.5,-540.87 760.43,-540.87 742.5,-538.73 742.5,-536.09 742.5,-536.09 742.5,-493.14 742.5,-493.14 742.5,-490.5 760.43,-488.37 782.5,-488.37 804.57,-488.37 822.5,-490.5 822.5,-493.14 822.5,-493.14 822.5,-536.09 822.5,-536.09"/>
<path fill="none" stroke="#de8f05" stroke-dasharray="5,2" d="M822.5,-536.09C822.5,-533.46 804.57,-531.32 782.5,-531.32 760.43,-531.32 742.5,-533.46 742.5,-536.09"/>
<text text-anchor="middle" x="782.5" y="-518.42" font-family="Times,serif" font-size="14.00">Solid&#45;Mesh</text>
<text text-anchor="middle" x="782.5" y="-503.42" font-family="Times,serif" font-size="14.00">from Solid</text>
</g>
<!-- Fluid1&#45;Solid&#45;Mesh&#45;&gt;Fluid1&#45;Fluid1&#45;Solid&#45;Mesh -->
<g id="edge8" class="edge">
<title>Fluid1&#45;Solid&#45;Mesh&#45;&gt;Fluid1&#45;Fluid1&#45;Solid&#45;Mesh</title>
<path fill="none" stroke="#0173b2" d="M822.61,-514.21C867,-513.75 940.51,-512.99 996.51,-512.41"/>
<polygon fill="#0173b2" stroke="#0173b2" points="996.79,-515.91 1006.75,-512.31 996.72,-508.91 996.79,-515.91"/>
<text text-anchor="middle" x="916.5" y="-517.42" font-family="Times,serif" font-size="14.00">nearest&#45;neighbor</text>
</g>
<!-- Fluid1&#45;Fluid2&#45;Mesh -->
<g id="node9" class="node">
<title>Fluid1&#45;Fluid2&#45;Mesh</title>
<path fill="none" stroke="#029e73" stroke-dasharray="5,2" d="M826,-258.09C826,-260.73 806.5,-262.87 782.5,-262.87 758.5,-262.87 739,-260.73 739,-258.09 739,-258.09 739,-215.14 739,-215.14 739,-212.5 758.5,-210.37 782.5,-210.37 806.5,-210.37 826,-212.5 826,-215.14 826,-215.14 826,-258.09 826,-258.09"/>
<path fill="none" stroke="#029e73" stroke-dasharray="5,2" d="M826,-258.09C826,-255.46 806.5,-253.32 782.5,-253.32 758.5,-253.32 739,-255.46 739,-258.09"/>
<text text-anchor="middle" x="782.5" y="-240.42" font-family="Times,serif" font-size="14.00">Fluid2&#45;Mesh</text>
<text text-anchor="middle" x="782.5" y="-225.42" font-family="Times,serif" font-size="14.00">from Fluid2</text>
</g>
<!-- Fluid1&#45;Fluid2&#45;Mesh&#45;&gt;Fluid1&#45;Fluid1&#45;Fluid&#45;Mesh -->
<g id="edge9" class="edge">
<title>Fluid1&#45;Fluid2&#45;Mesh&#45;&gt;Fluid1&#45;Fluid1&#45;Fluid&#45;Mesh</title>
<path fill="none" stroke="#0173b2" d="M826.25,-227.31C868.54,-219.91 934.65,-213.24 989,-229.62 1009.76,-235.87 1030.11,-249.07 1045.63,-261.09"/>
<polygon fill="#0173b2" stroke="#0173b2" points="1043.74,-264.06 1053.73,-267.59 1048.12,-258.6 1043.74,-264.06"/>
<text text-anchor="middle" x="916.5" y="-233.42" font-family="Times,serif" font-size="14.00">nearest&#45;neighbor</text>
</g>
<!-- Solid&#45;Solid&#45;Mesh -->
<g id="node11" class="node">
<title>Solid&#45;Solid&#45;Mesh</title>
<path fill="none" stroke="#de8f05" d="M554.5,-529.34C554.5,-531.15 533.21,-532.62 507,-532.62 480.79,-532.62 459.5,-531.15 459.5,-529.34 459.5,-529.34 459.5,-499.89 459.5,-499.89 459.5,-498.08 480.79,-496.62 507,-496.62 533.21,-496.62 554.5,-498.08 554.5,-499.89 554.5,-499.89 554.5,-529.34 554.5,-529.34"/>
<path fill="none" stroke="#de8f05" d="M554.5,-529.34C554.5,-527.54 533.21,-526.07 507,-526.07 480.79,-526.07 459.5,-527.54 459.5,-529.34"/>
<text text-anchor="start" x="467.5" y="-511.92" font-family="Times,serif" font-size="14.00">Solid&#45;Mesh</text>
<text text-anchor="start" x="531.5" y="-511.92" font-family="Times,serif" font-style="italic" baseline-shift="super" font-size="14.00">2D</text>
</g>
<!-- Solid&#45;&gt;Solid&#45;Solid&#45;Mesh -->
<g id="edge11" class="edge">
<title>Solid&#45;&gt;Solid&#45;Solid&#45;Mesh</title>
<g id="a_edge11"><a xlink:title="scalar">
<path fill="none" stroke="#de8f05" d="M250.83,-486.43C264.02,-488.53 279.18,-490.83 293,-492.62 345.9,-499.47 406.42,-505.55 449.4,-509.57"/>
<polygon fill="#de8f05" stroke="#de8f05" points="449.1,-513.06 459.38,-510.5 449.75,-506.09 449.1,-513.06"/>
</a>
</g>
<text text-anchor="middle" x="365.5" y="-511.42" font-family="Times,serif" font-size="14.00">Heat&#45;Flux</text>
</g>
<!-- Solid&#45;Solid&#45;Mesh&#45;&gt;Fluid1&#45;Solid&#45;Mesh -->
<g id="edge26" class="edge">
<title>Solid&#45;Solid&#45;Mesh&#45;&gt;Fluid1&#45;Solid&#45;Mesh</title>
<g id="a_edge26"><a xlink:title="scalar">
<path fill="none" stroke="#de8f05" d="M554.71,-514.62C604.09,-514.62 681.68,-514.62 732.08,-514.62"/>
<polygon fill="#de8f05" stroke="#de8f05" points="732.09,-518.12 742.09,-514.62 732.09,-511.12 732.09,-518.12"/>
</a>
</g>
<text text-anchor="middle" x="648.5" y="-518.42" font-family="Times,serif" font-size="14.00">Heat&#45;Flux</text>
</g>
<!-- Solid&#45;Solid&#45;Mesh&#45;&gt;Solid -->
<g id="edge10" class="edge">
<title>Solid&#45;Solid&#45;Mesh&#45;&gt;Solid</title>
<g id="a_edge10"><a xlink:title="scalar">
<path fill="none" stroke="#de8f05" d="M480.15,-496.58C467.96,-489.14 452.85,-481.39 438,-477.62 378.22,-462.4 306.42,-467.38 261,-473.25"/>
<polygon fill="#de8f05" stroke="#de8f05" points="260.32,-469.81 250.88,-474.63 261.26,-476.75 260.32,-469.81"/>
</a>
</g>
<text text-anchor="middle" x="365.5" y="-481.42" font-family="Times,serif" font-size="14.00">Temperature&#45;Solid</text>
</g>
<!-- Solid&#45;Fluid1&#45;Solid&#45;Mesh&#45;&gt;Solid&#45;Solid&#45;Mesh -->
<g id="edge12" class="edge">
<title>Solid&#45;Fluid1&#45;Solid&#45;Mesh&#45;&gt;Solid&#45;Solid&#45;Mesh</title>
<path fill="none" stroke="#de8f05" d="M275.18,-544.91C320.07,-543 383.18,-538.99 438,-530.62 441.69,-530.05 445.48,-529.39 449.29,-528.67"/>
<polygon fill="#de8f05" stroke="#de8f05" points="450.27,-532.04 459.37,-526.62 448.87,-525.18 450.27,-532.04"/>
<text text-anchor="middle" x="365.5" y="-547.42" font-family="Times,serif" font-size="14.00">nearest&#45;neighbor</text>
</g>
<!-- Fluid2&#45;Fluid2&#45;Mesh -->
<g id="node14" class="node">
<title>Fluid2&#45;Fluid2&#45;Mesh</title>
<path fill="none" stroke="#029e73" d="M558,-251.34C558,-253.15 535.14,-254.62 507,-254.62 478.86,-254.62 456,-253.15 456,-251.34 456,-251.34 456,-221.89 456,-221.89 456,-220.08 478.86,-218.62 507,-218.62 535.14,-218.62 558,-220.08 558,-221.89 558,-221.89 558,-251.34 558,-251.34"/>
<path fill="none" stroke="#029e73" d="M558,-251.34C558,-249.54 535.14,-248.07 507,-248.07 478.86,-248.07 456,-249.54 456,-251.34"/>
<text text-anchor="start" x="464" y="-233.92" font-family="Times,serif" font-size="14.00">Fluid2&#45;Mesh</text>
<text text-anchor="start" x="535" y="-233.92" font-family="Times,serif" font-style="italic" baseline-shift="super" font-size="14.00">2D</text>
</g>
<!-- Fluid2&#45;&gt;Fluid2&#45;Fluid2&#45;Mesh -->
<g id="edge15" class="edge">
<title>Fluid2&#45;&gt;Fluid2&#45;Fluid2&#45;Mesh</title>
<g id="a_edge15"><a xlink:title="scalar">
<path fill="none" stroke="#029e73" d="M223.77,-284.27C234.55,-257.15 256.9,-212.7 293,-193.62 349.97,-163.5 376.1,-175.69 438,-193.62 451.47,-197.52 464.84,-204.97 476.1,-212.6"/>
<polygon fill="#029e73" stroke="#029e73" points="474.1,-215.46 484.28,-218.4 478.15,-209.76 474.1,-215.46"/>
</a>
</g>
<text text-anchor="middle" x="365.5" y="-197.42" font-family="Times,serif" font-size="14.00">Pressure</text>
</g>
<!-- Fluid2&#45;&gt;Fluid2&#45;Fluid2&#45;Mesh -->
<g id="edge16" class="edge">
<title>Fluid2&#45;&gt;Fluid2&#45;Fluid2&#45;Mesh</title>
<g id="a_edge16"><a xlink:title="vector">
<path fill="none" stroke="#029e73" d="M231.06,-284.47C244.8,-266.41 266.9,-242.23 293,-231.62 341.64,-211.84 401.82,-215.53 445.8,-222.75"/>
<polygon fill="#029e73" stroke="#029e73" points="445.31,-226.22 455.77,-224.49 446.52,-219.32 445.31,-226.22"/>
</a>
</g>
<text text-anchor="middle" x="365.5" y="-235.42" font-family="Times,serif" font-size="14.00">VelocityGradient</text>
</g>
<!-- Fluid2&#45;&gt;Fluid2&#45;Fluid2&#45;Mesh -->
<g id="edge17" class="edge">
<title>Fluid2&#45;&gt;Fluid2&#45;Fluid2&#45;Mesh</title>
<g id="a_edge17"><a xlink:title="scalar">
<path fill="none" stroke="#029e73" d="M242.04,-289.72C256.49,-281.14 275.11,-271.34 293,-265.62 354.9,-245.8 373.62,-255.57 438,-246.62 440.53,-246.26 443.12,-245.9 445.73,-245.53"/>
<polygon fill="#029e73" stroke="#029e73" points="446.48,-248.96 455.88,-244.08 445.48,-242.03 446.48,-248.96"/>
</a>
</g>
<text text-anchor="middle" x="365.5" y="-269.42" font-family="Times,serif" font-size="14.00">FlowTemperatureGradient</text>
</g>
<!-- Fluid2&#45;Fluid2&#45;Mesh&#45;&gt;Fluid1&#45;Fluid2&#45;Mesh -->
<g id="edge30" class="edge">
<title>Fluid2&#45;Fluid2&#45;Mesh&#45;&gt;Fluid1&#45;Fluid2&#45;Mesh</title>
<g id="a_edge30"><a xlink:title="vector">
<path fill="none" stroke="#029e73" d="M533.85,-218.58C546.04,-211.14 561.15,-203.39 576,-199.62 638.45,-183.72 658.97,-182.15 721,-199.62 726.99,-201.3 732.97,-203.76 738.71,-206.63"/>
<polygon fill="#029e73" stroke="#029e73" points="737.05,-209.71 747.51,-211.41 740.4,-203.56 737.05,-209.71"/>
</a>
</g>
<text text-anchor="middle" x="648.5" y="-203.42" font-family="Times,serif" font-size="14.00">VelocityGradient</text>
</g>
<!-- Fluid2&#45;Fluid2&#45;Mesh&#45;&gt;Fluid1&#45;Fluid2&#45;Mesh -->
<g id="edge31" class="edge">
<title>Fluid2&#45;Fluid2&#45;Mesh&#45;&gt;Fluid1&#45;Fluid2&#45;Mesh</title>
<g id="a_edge31"><a xlink:title="scalar initialized">
<path fill="none" stroke="#029e73" stroke-width="2" d="M558.27,-249.81C564.21,-250.96 570.22,-251.94 576,-252.62 640.01,-260.05 657.09,-260.92 721,-252.62 723.55,-252.28 726.14,-251.88 728.74,-251.41"/>
<polygon fill="#029e73" stroke="#029e73" stroke-width="2" points="729.71,-254.79 738.81,-249.37 728.31,-247.93 729.71,-254.79"/>
</a>
</g>
<text text-anchor="middle" x="648.5" y="-261.42" font-family="Times,serif" font-size="14.00">Pressure</text>
</g>
<!-- Fluid2&#45;Fluid2&#45;Mesh&#45;&gt;Fluid1&#45;Fluid2&#45;Mesh -->
<g id="edge33" class="edge">
<title>Fluid2&#45;Fluid2&#45;Mesh&#45;&gt;Fluid1&#45;Fluid2&#45;Mesh</title>
<g id="a_edge33"><a xlink:title="scalar">
<path fill="none" stroke="#029e73" d="M558.13,-234.15C564.15,-233.93 570.21,-233.74 576,-233.62 640.43,-232.2 656.58,-232.02 721,-233.62 723.53,-233.68 726.12,-233.76 728.73,-233.84"/>
<polygon fill="#029e73" stroke="#029e73" points="728.74,-237.35 738.87,-234.24 729.01,-230.35 728.74,-237.35"/>
</a>
</g>
<text text-anchor="middle" x="648.5" y="-237.42" font-family="Times,serif" font-size="14.00">FlowTemperatureGradient</text>
</g>
<!-- Fluid2&#45;Fluid2&#45;Mesh&#45;&gt;Fluid2 -->
<g id="edge13" class="edge">
<title>Fluid2&#45;Fluid2&#45;Mesh&#45;&gt;Fluid2</title>
<g id="a_edge13"><a xlink:title="vector">
<path fill="none" stroke="#029e73" d="M486.17,-254.8C473.39,-265.4 455.87,-277.95 438,-284.62 407.51,-295.98 321.39,-301.9 265.81,-304.63"/>
<polygon fill="#029e73" stroke="#029e73" points="265.64,-301.14 255.81,-305.11 265.97,-308.13 265.64,-301.14"/>
</a>
</g>
<text text-anchor="middle" x="365.5" y="-306.42" font-family="Times,serif" font-size="14.00">Velocity</text>
</g>
<!-- Fluid2&#45;Fluid2&#45;Mesh&#45;&gt;Fluid2 -->
<g id="edge14" class="edge">
<title>Fluid2&#45;Fluid2&#45;Mesh&#45;&gt;Fluid2</title>
<g id="a_edge14"><a xlink:title="scalar">
<path fill="none" stroke="#029e73" d="M497.56,-254.97C486.96,-275.55 466.62,-307.86 438,-321.62 381.4,-348.82 307.16,-335.42 260.51,-322.02"/>
<polygon fill="#029e73" stroke="#029e73" points="261.28,-318.6 250.7,-319.09 259.28,-325.31 261.28,-318.6"/>
</a>
</g>
<text text-anchor="middle" x="365.5" y="-340.42" font-family="Times,serif" font-size="14.00">FlowTemperature&#45;Fluid</text>
</g>
<!-- Fluid2&#45;Fluid1&#45;Fluid&#45;Mesh&#45;&gt;Fluid2&#45;Fluid2&#45;Mesh -->
<g id="edge18" class="edge">
<title>Fluid2&#45;Fluid1&#45;Fluid&#45;Mesh&#45;&gt;Fluid2&#45;Fluid2&#45;Mesh</title>
<path fill="none" stroke="#029e73" d="M275,-146.77C321.5,-137.49 386.8,-131.75 438,-155.62 461.74,-166.68 480.14,-190.57 491.78,-209.55"/>
<polygon fill="#029e73" stroke="#029e73" points="488.88,-211.52 496.94,-218.4 494.92,-208 488.88,-211.52"/>
<text text-anchor="middle" x="365.5" y="-159.42" font-family="Times,serif" font-size="14.00">nearest&#45;neighbor</text>
</g>
</g>
</svg>
