<?xml version="1.0" encoding="UTF-8" standalone="no"?>
<!DOCTYPE svg PUBLIC "-//W3C//DTD SVG 1.1//EN"
 "http://www.w3.org/Graphics/SVG/1.1/DTD/svg11.dtd">
<!-- Generated by graphviz version 2.43.0 (0)
 -->
<!-- Title: G Pages: 1 -->
<svg width="760pt" height="212pt"
 viewBox="0.00 0.00 759.56 212.00" xmlns="http://www.w3.org/2000/svg" xmlns:xlink="http://www.w3.org/1999/xlink">
<g id="graph0" class="graph" transform="scale(1 1) rotate(0) translate(4 208)">
<title>G</title>
<polygon fill="white" stroke="transparent" points="-4,4 -4,-208 755.56,-208 755.56,4 -4,4"/>
<g id="clust1" class="cluster">
<title>cluster_m2n</title>
<polygon fill="none" stroke="black" points="7.5,-105 7.5,-164 111.5,-164 111.5,-105 7.5,-105"/>
<text text-anchor="middle" x="59.5" y="-148.8" font-family="Times,serif" font-size="14.00">Communicators</text>
</g>
<g id="clust2" class="cluster">
<title>cluster_cpl</title>
<polygon fill="none" stroke="black" points="0,-38 0,-97 119,-97 119,-38 0,-38"/>
<text text-anchor="middle" x="59.5" y="-81.8" font-family="Times,serif" font-size="14.00">Coupling Schemes</text>
</g>
<g id="clust3" class="cluster">
<title>cluster_Mass&#45;Left</title>
<polygon fill="none" stroke="black" stroke-width="2" points="159.92,-8 159.92,-102 504.56,-102 504.56,-8 159.92,-8"/>
<text text-anchor="middle" x="332.24" y="-86.8" font-family="Times,serif" font-size="14.00">Mass&#45;Left</text>
</g>
<g id="clust4" class="cluster">
<title>cluster_Mass&#45;Right</title>
<polygon fill="none" stroke="black" stroke-width="2" points="155,-102 155,-196 743.56,-196 743.56,-102 155,-102"/>
<text text-anchor="middle" x="449.28" y="-180.8" font-family="Times,serif" font-size="14.00">Mass&#45;Right</text>
</g>
<!-- m2n&#45;Mass&#45;Left&#45;Mass&#45;Right -->
<g id="node1" class="node">
<title>m2n&#45;Mass&#45;Left&#45;Mass&#45;Right</title>
<polygon fill="none" stroke="black" points="87.5,-141 31.5,-141 31.5,-137 27.5,-137 27.5,-133 31.5,-133 31.5,-113 27.5,-113 27.5,-109 31.5,-109 31.5,-105 87.5,-105 87.5,-141"/>
<polyline fill="none" stroke="black" points="31.5,-137 35.5,-137 35.5,-133 31.5,-133 "/>
<polyline fill="none" stroke="black" points="31.5,-113 35.5,-113 35.5,-109 31.5,-109 "/>
<text text-anchor="middle" x="59.5" y="-119.3" font-family="Times,serif" font-size="14.00">sockets</text>
</g>
<!-- Mass&#45;Left -->
<g id="node3" class="node">
<title>Mass&#45;Left</title>
<polygon fill="none" stroke="#0173b2" points="266.5,-48.54 266.5,-63.46 236.5,-74 194.06,-74 164.06,-63.46 164.06,-48.54 194.06,-38 236.5,-38 266.5,-48.54"/>
<polygon fill="none" stroke="#0173b2" points="270.49,-45.71 270.49,-66.29 237.17,-78 193.38,-78 160.07,-66.29 160.07,-45.71 193.38,-34 237.17,-34 270.49,-45.71"/>
<text text-anchor="middle" x="215.28" y="-52.3" font-family="Times,serif" font-size="14.00">Mass&#45;Left</text>
</g>
<!-- m2n&#45;Mass&#45;Left&#45;Mass&#45;Right&#45;&gt;Mass&#45;Left -->
<g id="edge7" class="edge">
<title>m2n&#45;Mass&#45;Left&#45;Mass&#45;Right&#45;&gt;Mass&#45;Left</title>
<path fill="none" stroke="#0173b2" d="M97.37,-109.66C104.58,-106.9 112.06,-103.94 119,-101 129.35,-96.62 140.22,-91.75 150.76,-86.88"/>
<polygon fill="#0173b2" stroke="#0173b2" points="95.9,-106.47 87.77,-113.27 98.36,-113.02 95.9,-106.47"/>
<polygon fill="#0173b2" stroke="#0173b2" points="152.34,-90 159.92,-82.61 149.38,-83.66 152.34,-90"/>
</g>
<!-- Mass&#45;Right -->
<g id="node5" class="node">
<title>Mass&#45;Right</title>
<polygon fill="none" stroke="#de8f05" points="271.35,-118.54 271.35,-133.46 238.51,-144 192.05,-144 159.21,-133.46 159.21,-118.54 192.05,-108 238.51,-108 271.35,-118.54"/>
<polygon fill="none" stroke="#de8f05" points="275.34,-115.62 275.34,-136.38 239.13,-148 191.43,-148 155.22,-136.38 155.22,-115.62 191.43,-104 239.13,-104 275.34,-115.62"/>
<text text-anchor="middle" x="215.28" y="-122.3" font-family="Times,serif" font-size="14.00">Mass&#45;Right</text>
</g>
<!-- m2n&#45;Mass&#45;Left&#45;Mass&#45;Right&#45;&gt;Mass&#45;Right -->
<g id="edge8" class="edge">
<title>m2n&#45;Mass&#45;Left&#45;Mass&#45;Right&#45;&gt;Mass&#45;Right</title>
<path fill="none" stroke="#de8f05" d="M97.8,-123.73C112,-124 128.67,-124.33 144.9,-124.65"/>
<polygon fill="#de8f05" stroke="#de8f05" points="97.71,-120.23 87.64,-123.53 97.57,-127.22 97.71,-120.23"/>
<polygon fill="#de8f05" stroke="#de8f05" points="144.93,-128.15 155,-124.84 145.07,-121.15 144.93,-128.15"/>
</g>
<!-- cpl&#45;Mass&#45;Left&#45;Mass&#45;Right -->
<g id="node2" class="node">
<title>cpl&#45;Mass&#45;Left&#45;Mass&#45;Right</title>
<polygon fill="none" stroke="black" points="106,-74 13,-74 13,-70 9,-70 9,-66 13,-66 13,-46 9,-46 9,-42 13,-42 13,-38 106,-38 106,-74"/>
<polyline fill="none" stroke="black" points="13,-70 17,-70 17,-66 13,-66 "/>
<polyline fill="none" stroke="black" points="13,-46 17,-46 17,-42 13,-42 "/>
<text text-anchor="middle" x="59.5" y="-52.3" font-family="Times,serif" font-size="14.00">serial&#45;implicit</text>
</g>
<!-- cpl&#45;Mass&#45;Left&#45;Mass&#45;Right&#45;&gt;Mass&#45;Left -->
<g id="edge9" class="edge">
<title>cpl&#45;Mass&#45;Left&#45;Mass&#45;Right&#45;&gt;Mass&#45;Left</title>
<path fill="none" stroke="#0173b2" d="M106.22,-56C119.96,-56 135.3,-56 150,-56"/>
<polygon fill="#0173b2" stroke="#0173b2" points="149.92,-59.5 159.92,-56 149.92,-52.5 149.92,-59.5"/>
<text text-anchor="middle" x="117.22" y="-44.8" font-family="Times,serif" font-size="14.00">first</text>
</g>
<!-- cpl&#45;Mass&#45;Left&#45;Mass&#45;Right&#45;&gt;Mass&#45;Right -->
<g id="edge10" class="edge">
<title>cpl&#45;Mass&#45;Left&#45;Mass&#45;Right&#45;&gt;Mass&#45;Right</title>
<path fill="none" stroke="#de8f05" d="M99.03,-74.18C113.8,-81.09 131.01,-89.09 150.19,-97.81"/>
<polygon fill="#de8f05" stroke="#de8f05" points="148.89,-101.06 159.45,-102 151.78,-94.69 148.89,-101.06"/>
<text text-anchor="middle" x="118.03" y="-66.73" font-family="Times,serif" font-size="14.00">second</text>
</g>
<!-- Mass&#45;Left&#45;Mass&#45;Left&#45;Mesh -->
<g id="node4" class="node">
<title>Mass&#45;Left&#45;Mass&#45;Left&#45;Mesh</title>
<path fill="none" stroke="#0173b2" d="M504.56,-66.73C504.56,-68.53 476.99,-70 443.06,-70 409.12,-70 381.56,-68.53 381.56,-66.73 381.56,-66.73 381.56,-37.27 381.56,-37.27 381.56,-35.47 409.12,-34 443.06,-34 476.99,-34 504.56,-35.47 504.56,-37.27 504.56,-37.27 504.56,-66.73 504.56,-66.73"/>
<path fill="none" stroke="#0173b2" d="M504.56,-66.73C504.56,-64.92 476.99,-63.45 443.06,-63.45 409.12,-63.45 381.56,-64.92 381.56,-66.73"/>
<text text-anchor="start" x="389.56" y="-49.3" font-family="Times,serif" font-size="14.00">Mass&#45;Left&#45;Mesh</text>
<text text-anchor="start" x="481.56" y="-49.3" font-family="Times,serif" font-style="italic" baseline-shift="super" font-size="14.00">2D</text>
</g>
<!-- Mass&#45;Left&#45;&gt;Mass&#45;Left&#45;Mass&#45;Left&#45;Mesh -->
<g id="edge2" class="edge">
<title>Mass&#45;Left&#45;&gt;Mass&#45;Left&#45;Mass&#45;Left&#45;Mesh</title>
<g id="a_edge2"><a xlink:title="scalar">
<path fill="none" stroke="#0173b2" d="M260,-41.96C270.85,-39.07 282.53,-36.47 293.56,-35 322.63,-31.12 330.38,-32.02 359.56,-35 363.46,-35.4 367.44,-35.9 371.46,-36.48"/>
<polygon fill="#0173b2" stroke="#0173b2" points="371.03,-39.95 381.45,-38.06 372.12,-33.04 371.03,-39.95"/>
</a>
</g>
<text text-anchor="middle" x="326.56" y="-38.8" font-family="Times,serif" font-size="14.00">Force&#45;Left</text>
</g>
<!-- Mass&#45;Left&#45;Mass&#45;Left&#45;Mesh&#45;&gt;Mass&#45;Left -->
<g id="edge1" class="edge">
<title>Mass&#45;Left&#45;Mass&#45;Left&#45;Mesh&#45;&gt;Mass&#45;Left</title>
<g id="a_edge1"><a xlink:title="scalar">
<path fill="none" stroke="#0173b2" d="M381.41,-53.07C350.27,-53.63 312.34,-54.3 280.69,-54.86"/>
<polygon fill="#0173b2" stroke="#0173b2" points="280.58,-51.36 270.65,-55.04 280.71,-58.36 280.58,-51.36"/>
</a>
</g>
<text text-anchor="middle" x="326.56" y="-58.8" font-family="Times,serif" font-size="14.00">Force&#45;Right</text>
</g>
<!-- Mass&#45;Right&#45;Mass&#45;Left&#45;Mesh -->
<g id="node7" class="node">
<title>Mass&#45;Right&#45;Mass&#45;Left&#45;Mesh</title>
<path fill="none" stroke="#0173b2" stroke-dasharray="5,2" d="M743.56,-149.48C743.56,-152.11 719.36,-154.25 689.56,-154.25 659.76,-154.25 635.56,-152.11 635.56,-149.48 635.56,-149.48 635.56,-106.52 635.56,-106.52 635.56,-103.89 659.76,-101.75 689.56,-101.75 719.36,-101.75 743.56,-103.89 743.56,-106.52 743.56,-106.52 743.56,-149.48 743.56,-149.48"/>
<path fill="none" stroke="#0173b2" stroke-dasharray="5,2" d="M743.56,-149.48C743.56,-146.84 719.36,-144.7 689.56,-144.7 659.76,-144.7 635.56,-146.84 635.56,-149.48"/>
<text text-anchor="middle" x="689.56" y="-131.8" font-family="Times,serif" font-size="14.00">Mass&#45;Left&#45;Mesh</text>
<text text-anchor="middle" x="689.56" y="-116.8" font-family="Times,serif" font-size="14.00">from Mass&#45;Left</text>
</g>
<!-- Mass&#45;Left&#45;Mass&#45;Left&#45;Mesh&#45;&gt;Mass&#45;Right&#45;Mass&#45;Left&#45;Mesh -->
<g id="edge11" class="edge">
<title>Mass&#45;Left&#45;Mass&#45;Left&#45;Mesh&#45;&gt;Mass&#45;Right&#45;Mass&#45;Left&#45;Mesh</title>
<g id="a_edge11"><a xlink:title="scalar initialized">
<path fill="none" stroke="#0173b2" stroke-width="2" d="M504.6,-34.35C539.4,-28.6 582.57,-26.92 618.4,-43.18 640.68,-53.64 658.16,-73.78 670.51,-91.91"/>
<path fill="none" stroke="transparent" stroke-width="2" d="M504.93,-36.33C539.47,-30.6 582.65,-28.92 617.56,-45 639.17,-54.95 656.65,-75.09 668.86,-93.03"/>
<path fill="none" stroke="#0173b2" stroke-width="2" d="M505.26,-38.3C539.55,-32.59 582.72,-30.92 616.72,-46.82 637.66,-56.26 655.14,-76.4 667.21,-94.16"/>
<polygon fill="#0173b2" stroke="#0173b2" stroke-width="2" points="666.05,-95.13 674.43,-101.61 671.92,-91.32 666.05,-95.13"/>
</a>
</g>
<text text-anchor="middle" x="572.06" y="-48.8" font-family="Times,serif" font-size="14.00">Force&#45;Left</text>
</g>
<!-- Mass&#45;Right&#45;Mass&#45;Right&#45;Mesh -->
<g id="node6" class="node">
<title>Mass&#45;Right&#45;Mass&#45;Right&#45;Mesh</title>
<path fill="none" stroke="#de8f05" d="M508.56,-151.73C508.56,-153.53 479.2,-155 443.06,-155 406.92,-155 377.56,-153.53 377.56,-151.73 377.56,-151.73 377.56,-122.27 377.56,-122.27 377.56,-120.47 406.92,-119 443.06,-119 479.2,-119 508.56,-120.47 508.56,-122.27 508.56,-122.27 508.56,-151.73 508.56,-151.73"/>
<path fill="none" stroke="#de8f05" d="M508.56,-151.73C508.56,-149.92 479.2,-148.45 443.06,-148.45 406.92,-148.45 377.56,-149.92 377.56,-151.73"/>
<text text-anchor="start" x="385.56" y="-134.3" font-family="Times,serif" font-size="14.00">Mass&#45;Right&#45;Mesh</text>
<text text-anchor="start" x="485.56" y="-134.3" font-family="Times,serif" font-style="italic" baseline-shift="super" font-size="14.00">2D</text>
</g>
<!-- Mass&#45;Right&#45;&gt;Mass&#45;Right&#45;Mass&#45;Right&#45;Mesh -->
<g id="edge4" class="edge">
<title>Mass&#45;Right&#45;&gt;Mass&#45;Right&#45;Mass&#45;Right&#45;Mesh</title>
<g id="a_edge4"><a xlink:title="scalar">
<path fill="none" stroke="#de8f05" d="M275.67,-117.45C301.5,-114.97 332.09,-113.72 359.56,-117 363.03,-117.41 366.57,-117.92 370.12,-118.51"/>
<polygon fill="#de8f05" stroke="#de8f05" points="369.72,-121.99 380.18,-120.33 370.97,-115.1 369.72,-121.99"/>
</a>
</g>
<text text-anchor="middle" x="326.56" y="-120.8" font-family="Times,serif" font-size="14.00">Force&#45;Right</text>
</g>
<!-- Mass&#45;Right&#45;Mass&#45;Right&#45;Mesh&#45;&gt;Mass&#45;Right -->
<g id="edge3" class="edge">
<title>Mass&#45;Right&#45;Mass&#45;Right&#45;Mesh&#45;&gt;Mass&#45;Right</title>
<g id="a_edge3"><a xlink:title="scalar">
<path fill="none" stroke="#de8f05" d="M377.31,-138.28C351.26,-138.34 320.95,-137.86 293.56,-136 291.02,-135.83 288.44,-135.63 285.83,-135.4"/>
<polygon fill="#de8f05" stroke="#de8f05" points="285.99,-131.9 275.7,-134.43 285.32,-138.87 285.99,-131.9"/>
</a>
</g>
<text text-anchor="middle" x="326.56" y="-141.8" font-family="Times,serif" font-size="14.00">Force&#45;Left</text>
</g>
<!-- Mass&#45;Right&#45;Mass&#45;Right&#45;Mesh&#45;&gt;Mass&#45;Right&#45;Mass&#45;Left&#45;Mesh -->
<g id="edge5" class="edge">
<title>Mass&#45;Right&#45;Mass&#45;Right&#45;Mesh&#45;&gt;Mass&#45;Right&#45;Mass&#45;Left&#45;Mesh</title>
<path fill="none" stroke="#de8f05" d="M508.74,-123.24C514.74,-122.33 520.75,-121.56 526.56,-121 566.82,-117.13 577.16,-119.01 617.56,-121 620.1,-121.13 622.7,-121.28 625.31,-121.45"/>
<polygon fill="#de8f05" stroke="#de8f05" points="625.26,-124.95 635.49,-122.19 625.77,-117.97 625.26,-124.95"/>
<text text-anchor="middle" x="572.06" y="-124.8" font-family="Times,serif" font-size="14.00">nearest&#45;neighbor</text>
</g>
<!-- Mass&#45;Right&#45;Mass&#45;Left&#45;Mesh&#45;&gt;Mass&#45;Left&#45;Mass&#45;Left&#45;Mesh -->
<g id="edge12" class="edge">
<title>Mass&#45;Right&#45;Mass&#45;Left&#45;Mesh&#45;&gt;Mass&#45;Left&#45;Mass&#45;Left&#45;Mesh</title>
<g id="a_edge12"><a xlink:title="scalar initialized">
<path fill="none" stroke="#de8f05" stroke-width="2" d="M634.61,-107.3C628.68,-105.03 622.68,-102.84 616.92,-100.89 583.68,-89.65 546.04,-79.19 514.39,-71.02"/>
<path fill="none" stroke="transparent" stroke-width="2" d="M635.32,-105.43C629.37,-103.16 623.36,-100.96 617.56,-99 584.22,-87.72 546.57,-77.26 514.89,-69.08"/>
<path fill="none" stroke="#de8f05" stroke-width="2" d="M636.04,-103.57C630.06,-101.28 624.05,-99.08 618.2,-97.11 584.75,-85.79 547.11,-75.33 515.39,-67.14"/>
<polygon fill="#de8f05" stroke="#de8f05" stroke-width="2" points="515.38,-65.59 504.83,-66.51 513.65,-72.38 515.38,-65.59"/>
</a>
</g>
<text text-anchor="middle" x="572.06" y="-102.8" font-family="Times,serif" font-size="14.00">Force&#45;Right</text>
</g>
<!-- Mass&#45;Right&#45;Mass&#45;Left&#45;Mesh&#45;&gt;Mass&#45;Right&#45;Mass&#45;Right&#45;Mesh -->
<g id="edge6" class="edge">
<title>Mass&#45;Right&#45;Mass&#45;Left&#45;Mesh&#45;&gt;Mass&#45;Right&#45;Mass&#45;Right&#45;Mesh</title>
<path fill="none" stroke="#de8f05" d="M635.5,-134.6C629.45,-135.17 623.38,-135.66 617.56,-136 585.28,-137.91 549.55,-138.39 518.96,-138.31"/>
<polygon fill="#de8f05" stroke="#de8f05" points="518.81,-134.81 508.79,-138.26 518.77,-141.81 518.81,-134.81"/>
<text text-anchor="middle" x="572.06" y="-141.8" font-family="Times,serif" font-size="14.00">nearest&#45;neighbor</text>
</g>
</g>
</svg>
