<?xml version="1.0" encoding="UTF-8" standalone="no"?>
<!DOCTYPE svg PUBLIC "-//W3C//DTD SVG 1.1//EN"
 "http://www.w3.org/Graphics/SVG/1.1/DTD/svg11.dtd">
<!-- Generated by graphviz version 2.43.0 (0)
 -->
<!-- Title: G Pages: 1 -->
<svg width="780pt" height="668pt"
 viewBox="0.00 0.00 780.07 668.00" xmlns="http://www.w3.org/2000/svg" xmlns:xlink="http://www.w3.org/1999/xlink">
<g id="graph0" class="graph" transform="scale(1 1) rotate(0) translate(4 664)">
<title>G</title>
<polygon fill="white" stroke="transparent" points="-4,4 -4,-664 776.07,-664 776.07,4 -4,4"/>
<g id="clust1" class="cluster">
<title>cluster_m2n</title>
<polygon fill="none" stroke="black" points="7.5,-395 7.5,-454 111.5,-454 111.5,-395 7.5,-395"/>
<text text-anchor="middle" x="59.5" y="-438.8" font-family="Times,serif" font-size="14.00">Communicators</text>
</g>
<g id="clust2" class="cluster">
<title>cluster_cpl</title>
<polygon fill="none" stroke="black" points="0,-462 0,-521 119,-521 119,-462 0,-462"/>
<text text-anchor="middle" x="59.5" y="-505.8" font-family="Times,serif" font-size="14.00">Coupling Schemes</text>
</g>
<g id="clust3" class="cluster">
<title>cluster_macro&#45;heat</title>
<polygon fill="none" stroke="black" stroke-width="2" points="436.33,-406 436.33,-652 764.07,-652 764.07,-406 436.33,-406"/>
<text text-anchor="middle" x="600.2" y="-636.8" font-family="Times,serif" font-size="14.00">macro&#45;heat</text>
</g>
<g id="clust4" class="cluster">
<title>cluster_Micro&#45;Manager</title>
<polygon fill="none" stroke="black" stroke-width="2" points="155,-8 155,-406 549.7,-406 549.7,-8 155,-8"/>
<text text-anchor="middle" x="352.35" y="-390.8" font-family="Times,serif" font-size="14.00">Micro&#45;Manager</text>
</g>
<!-- m2n&#45;Micro&#45;Manager&#45;macro&#45;heat -->
<g id="node1" class="node">
<title>m2n&#45;Micro&#45;Manager&#45;macro&#45;heat</title>
<polygon fill="none" stroke="black" points="87.5,-431 31.5,-431 31.5,-427 27.5,-427 27.5,-423 31.5,-423 31.5,-403 27.5,-403 27.5,-399 31.5,-399 31.5,-395 87.5,-395 87.5,-431"/>
<polyline fill="none" stroke="black" points="31.5,-427 35.5,-427 35.5,-423 31.5,-423 "/>
<polyline fill="none" stroke="black" points="31.5,-403 35.5,-403 35.5,-399 31.5,-399 "/>
<text text-anchor="middle" x="59.5" y="-409.3" font-family="Times,serif" font-size="14.00">sockets</text>
</g>
<!-- macro&#45;heat -->
<g id="node3" class="node">
<title>macro&#45;heat</title>
<polygon fill="none" stroke="#0173b2" points="549.95,-488.54 549.95,-503.46 517.88,-514 472.52,-514 440.45,-503.46 440.45,-488.54 472.52,-478 517.88,-478 549.95,-488.54"/>
<polygon fill="none" stroke="#0173b2" points="553.94,-485.65 553.94,-506.35 518.52,-518 471.88,-518 436.45,-506.35 436.45,-485.65 471.88,-474 518.52,-474 553.94,-485.65"/>
<text text-anchor="middle" x="495.2" y="-492.3" font-family="Times,serif" font-size="14.00">macro&#45;heat</text>
</g>
<!-- m2n&#45;Micro&#45;Manager&#45;macro&#45;heat&#45;&gt;macro&#45;heat -->
<g id="edge18" class="edge">
<title>m2n&#45;Micro&#45;Manager&#45;macro&#45;heat&#45;&gt;macro&#45;heat</title>
<path fill="none" stroke="#0173b2" d="M97.7,-420.12C171.06,-434.16 335.24,-465.58 427.68,-483.27"/>
<polygon fill="#0173b2" stroke="#0173b2" points="98.11,-416.63 87.63,-418.19 96.79,-423.51 98.11,-416.63"/>
<polygon fill="#0173b2" stroke="#0173b2" points="425.8,-486.44 436.33,-485.2 427.33,-479.61 425.8,-486.44"/>
</g>
<!-- Micro&#45;Manager -->
<g id="node5" class="node">
<title>Micro&#45;Manager</title>
<polygon fill="none" stroke="#de8f05" points="305.48,-227.54 305.48,-242.46 262.53,-253 201.79,-253 158.84,-242.46 158.84,-227.54 201.79,-217 262.53,-217 305.48,-227.54"/>
<polygon fill="none" stroke="#de8f05" points="309.49,-224.41 309.49,-245.59 263.02,-257 201.31,-257 154.84,-245.59 154.84,-224.41 201.31,-213 263.02,-213 309.49,-224.41"/>
<text text-anchor="middle" x="232.16" y="-231.3" font-family="Times,serif" font-size="14.00">Micro&#45;Manager</text>
</g>
<!-- m2n&#45;Micro&#45;Manager&#45;macro&#45;heat&#45;&gt;Micro&#45;Manager -->
<g id="edge17" class="edge">
<title>m2n&#45;Micro&#45;Manager&#45;macro&#45;heat&#45;&gt;Micro&#45;Manager</title>
<path fill="none" stroke="#de8f05" d="M84.93,-387.52C101.64,-370.09 124.86,-345.88 147.87,-321.87"/>
<polygon fill="#de8f05" stroke="#de8f05" points="82.2,-385.31 77.8,-394.95 87.25,-390.16 82.2,-385.31"/>
<polygon fill="#de8f05" stroke="#de8f05" points="150.61,-324.07 155,-314.43 145.56,-319.23 150.61,-324.07"/>
</g>
<!-- cpl&#45;macro&#45;heat&#45;Micro&#45;Manager -->
<g id="node2" class="node">
<title>cpl&#45;macro&#45;heat&#45;Micro&#45;Manager</title>
<polygon fill="none" stroke="black" points="106,-498 13,-498 13,-494 9,-494 9,-490 13,-490 13,-470 9,-470 9,-466 13,-466 13,-462 106,-462 106,-498"/>
<polyline fill="none" stroke="black" points="13,-494 17,-494 17,-490 13,-490 "/>
<polyline fill="none" stroke="black" points="13,-470 17,-470 17,-466 13,-466 "/>
<text text-anchor="middle" x="59.5" y="-476.3" font-family="Times,serif" font-size="14.00">serial&#45;implicit</text>
</g>
<!-- cpl&#45;macro&#45;heat&#45;Micro&#45;Manager&#45;&gt;macro&#45;heat -->
<g id="edge19" class="edge">
<title>cpl&#45;macro&#45;heat&#45;Micro&#45;Manager&#45;&gt;macro&#45;heat</title>
<path fill="none" stroke="#0173b2" d="M106.09,-481.68C182.53,-484.5 336.9,-490.2 426.2,-493.49"/>
<polygon fill="#0173b2" stroke="#0173b2" points="426.21,-496.99 436.33,-493.86 426.46,-490 426.21,-496.99"/>
<text text-anchor="middle" x="117.09" y="-485.48" font-family="Times,serif" font-size="14.00">first</text>
</g>
<!-- cpl&#45;macro&#45;heat&#45;Micro&#45;Manager&#45;&gt;Micro&#45;Manager -->
<g id="edge20" class="edge">
<title>cpl&#45;macro&#45;heat&#45;Micro&#45;Manager&#45;&gt;Micro&#45;Manager</title>
<path fill="none" stroke="#de8f05" d="M106.22,-466.77C110.84,-464.31 115.21,-461.41 119,-458 133.13,-445.3 145.71,-430.4 156.86,-414.44"/>
<polygon fill="#de8f05" stroke="#de8f05" points="159.86,-416.25 162.56,-406 154.06,-412.33 159.86,-416.25"/>
<text text-anchor="middle" x="125.22" y="-455.57" font-family="Times,serif" font-size="14.00">second</text>
</g>
<!-- macro&#45;heat&#45;macro&#45;mesh -->
<g id="node4" class="node">
<title>macro&#45;heat&#45;macro&#45;mesh</title>
<path fill="none" stroke="#0173b2" d="M764.07,-438.73C764.07,-440.53 741.66,-442 714.07,-442 686.48,-442 664.07,-440.53 664.07,-438.73 664.07,-438.73 664.07,-409.27 664.07,-409.27 664.07,-407.47 686.48,-406 714.07,-406 741.66,-406 764.07,-407.47 764.07,-409.27 764.07,-409.27 764.07,-438.73 764.07,-438.73"/>
<path fill="none" stroke="#0173b2" d="M764.07,-438.73C764.07,-436.92 741.66,-435.45 714.07,-435.45 686.48,-435.45 664.07,-436.92 664.07,-438.73"/>
<text text-anchor="start" x="672.07" y="-421.3" font-family="Times,serif" font-size="14.00">macro&#45;mesh</text>
<text text-anchor="start" x="741.07" y="-421.3" font-family="Times,serif" font-style="italic" baseline-shift="super" font-size="14.00">2D</text>
</g>
<!-- macro&#45;heat&#45;&gt;macro&#45;heat&#45;macro&#45;mesh -->
<g id="edge6" class="edge">
<title>macro&#45;heat&#45;&gt;macro&#45;heat&#45;macro&#45;mesh</title>
<g id="a_edge6"><a xlink:title="scalar">
<path fill="none" stroke="#0173b2" d="M510.96,-473.86C524.45,-455.81 546.2,-431.63 572.07,-421 597.56,-410.53 627.9,-409.84 653.89,-412.37"/>
<polygon fill="#0173b2" stroke="#0173b2" points="653.65,-415.86 663.98,-413.52 654.45,-408.91 653.65,-415.86"/>
</a>
</g>
<text text-anchor="middle" x="609.07" y="-424.8" font-family="Times,serif" font-size="14.00">concentration</text>
</g>
<!-- macro&#45;heat&#45;macro&#45;mesh&#45;&gt;macro&#45;heat -->
<g id="edge1" class="edge">
<title>macro&#45;heat&#45;macro&#45;mesh&#45;&gt;macro&#45;heat</title>
<g id="a_edge1"><a xlink:title="scalar">
<path fill="none" stroke="#0173b2" d="M663.93,-435.78C636.59,-442.79 602.12,-452.37 572.07,-463 562.42,-466.41 552.27,-470.48 542.64,-474.58"/>
<polygon fill="#0173b2" stroke="#0173b2" points="541,-471.47 533.22,-478.66 543.78,-477.9 541,-471.47"/>
</a>
</g>
<text text-anchor="middle" x="609.07" y="-466.8" font-family="Times,serif" font-size="14.00">k_00</text>
</g>
<!-- macro&#45;heat&#45;macro&#45;mesh&#45;&gt;macro&#45;heat -->
<g id="edge2" class="edge">
<title>macro&#45;heat&#45;macro&#45;mesh&#45;&gt;macro&#45;heat</title>
<g id="a_edge2"><a xlink:title="scalar">
<path fill="none" stroke="#0173b2" d="M696.14,-442.21C683.58,-454.49 665.34,-469.88 646.07,-478 620.6,-488.74 590.67,-493.68 564.28,-495.79"/>
<polygon fill="#0173b2" stroke="#0173b2" points="563.72,-492.32 553.98,-496.48 564.19,-499.3 563.72,-492.32"/>
</a>
</g>
<text text-anchor="middle" x="609.07" y="-497.8" font-family="Times,serif" font-size="14.00">k_01</text>
</g>
<!-- macro&#45;heat&#45;macro&#45;mesh&#45;&gt;macro&#45;heat -->
<g id="edge3" class="edge">
<title>macro&#45;heat&#45;macro&#45;mesh&#45;&gt;macro&#45;heat</title>
<g id="a_edge3"><a xlink:title="scalar">
<path fill="none" stroke="#0173b2" d="M705.6,-442.04C695.62,-463.49 675.66,-498.24 646.07,-513 615.33,-528.33 576.75,-523.49 546.43,-515.12"/>
<polygon fill="#0173b2" stroke="#0173b2" points="547.07,-511.66 536.48,-512.17 545.07,-518.37 547.07,-511.66"/>
</a>
</g>
<text text-anchor="middle" x="609.07" y="-525.8" font-family="Times,serif" font-size="14.00">k_10</text>
</g>
<!-- macro&#45;heat&#45;macro&#45;mesh&#45;&gt;macro&#45;heat -->
<g id="edge4" class="edge">
<title>macro&#45;heat&#45;macro&#45;mesh&#45;&gt;macro&#45;heat</title>
<g id="a_edge4"><a xlink:title="scalar">
<path fill="none" stroke="#0173b2" d="M708.75,-442.32C701.24,-469.51 682.93,-519.63 646.07,-541 610.09,-561.86 563.54,-541.67 531.93,-522.08"/>
<polygon fill="#0173b2" stroke="#0173b2" points="533.74,-519.07 523.43,-516.6 529.94,-524.96 533.74,-519.07"/>
</a>
</g>
<text text-anchor="middle" x="609.07" y="-552.8" font-family="Times,serif" font-size="14.00">k_11</text>
</g>
<!-- macro&#45;heat&#45;macro&#45;mesh&#45;&gt;macro&#45;heat -->
<g id="edge5" class="edge">
<title>macro&#45;heat&#45;macro&#45;mesh&#45;&gt;macro&#45;heat</title>
<g id="a_edge5"><a xlink:title="scalar">
<path fill="none" stroke="#0173b2" d="M710.82,-442.16C705.75,-474.15 690.24,-539.83 646.07,-568 618.34,-585.68 602.62,-580.19 572.07,-568 550.81,-559.52 532.1,-541.94 518.57,-526.27"/>
<polygon fill="#0173b2" stroke="#0173b2" points="521.06,-523.79 511.99,-518.31 515.67,-528.25 521.06,-523.79"/>
</a>
</g>
<text text-anchor="middle" x="609.07" y="-582.8" font-family="Times,serif" font-size="14.00">porosity</text>
</g>
<!-- Micro&#45;Manager&#45;macro&#45;mesh -->
<g id="node6" class="node">
<title>Micro&#45;Manager&#45;macro&#45;mesh</title>
<path fill="none" stroke="#0173b2" stroke-dasharray="5,2" d="M549.7,-265.48C549.7,-268.11 525.27,-270.25 495.2,-270.25 465.13,-270.25 440.7,-268.11 440.7,-265.48 440.7,-265.48 440.7,-222.52 440.7,-222.52 440.7,-219.89 465.13,-217.75 495.2,-217.75 525.27,-217.75 549.7,-219.89 549.7,-222.52 549.7,-222.52 549.7,-265.48 549.7,-265.48"/>
<path fill="none" stroke="#0173b2" stroke-dasharray="5,2" d="M549.7,-265.48C549.7,-262.84 525.27,-260.7 495.2,-260.7 465.13,-260.7 440.7,-262.84 440.7,-265.48"/>
<text text-anchor="middle" x="495.2" y="-247.8" font-family="Times,serif" font-size="14.00">macro&#45;mesh</text>
<text text-anchor="middle" x="495.2" y="-232.8" font-family="Times,serif" font-size="14.00">from macro&#45;heat</text>
</g>
<!-- macro&#45;heat&#45;macro&#45;mesh&#45;&gt;Micro&#45;Manager&#45;macro&#45;mesh -->
<g id="edge26" class="edge">
<title>macro&#45;heat&#45;macro&#45;mesh&#45;&gt;Micro&#45;Manager&#45;macro&#45;mesh</title>
<g id="a_edge26"><a xlink:title="scalar initialized">
<path fill="none" stroke="#0173b2" stroke-width="2" d="M710.83,-405.77C705.76,-372.81 690.17,-303.51 646.07,-269 639.04,-263.5 597.52,-256.82 559.96,-251.75"/>
<polygon fill="#0173b2" stroke="#0173b2" stroke-width="2" points="560.39,-248.28 550.02,-250.44 559.47,-255.22 560.39,-248.28"/>
</a>
</g>
<text text-anchor="middle" x="609.07" y="-272.8" font-family="Times,serif" font-size="14.00">concentration</text>
</g>
<!-- Micro&#45;Manager&#45;&gt;Micro&#45;Manager&#45;macro&#45;mesh -->
<g id="edge8" class="edge">
<title>Micro&#45;Manager&#45;&gt;Micro&#45;Manager&#45;macro&#45;mesh</title>
<g id="a_edge8"><a xlink:title="scalar">
<path fill="none" stroke="#de8f05" d="M241.33,-212.88C254.18,-181.72 282.4,-126.14 327.33,-103 363.28,-84.48 383.61,-82.26 418.33,-103 456.06,-125.55 476.13,-174.04 485.96,-207.83"/>
<polygon fill="#de8f05" stroke="#de8f05" points="482.67,-209.07 488.69,-217.79 489.42,-207.22 482.67,-209.07"/>
</a>
</g>
<text text-anchor="middle" x="372.83" y="-106.8" font-family="Times,serif" font-size="14.00">k_00</text>
</g>
<!-- Micro&#45;Manager&#45;&gt;Micro&#45;Manager&#45;macro&#45;mesh -->
<g id="edge9" class="edge">
<title>Micro&#45;Manager&#45;&gt;Micro&#45;Manager&#45;macro&#45;mesh</title>
<g id="a_edge9"><a xlink:title="scalar">
<path fill="none" stroke="#de8f05" d="M247.34,-212.92C263.52,-189.99 292.32,-155.48 327.33,-141 364.7,-125.54 382.23,-122.76 418.33,-141 446.15,-155.06 466.27,-184.67 478.77,-208.55"/>
<polygon fill="#de8f05" stroke="#de8f05" points="475.75,-210.32 483.35,-217.7 482.01,-207.19 475.75,-210.32"/>
</a>
</g>
<text text-anchor="middle" x="372.83" y="-144.8" font-family="Times,serif" font-size="14.00">k_01</text>
</g>
<!-- Micro&#45;Manager&#45;&gt;Micro&#45;Manager&#45;macro&#45;mesh -->
<g id="edge10" class="edge">
<title>Micro&#45;Manager&#45;&gt;Micro&#45;Manager&#45;macro&#45;mesh</title>
<g id="a_edge10"><a xlink:title="scalar">
<path fill="none" stroke="#de8f05" d="M261,-213C278.84,-200.34 303.12,-185.65 327.33,-179 366.32,-168.28 380.39,-164.97 418.33,-179 435.87,-185.49 452.1,-198.04 465,-210.4"/>
<polygon fill="#de8f05" stroke="#de8f05" points="462.66,-213.01 472.2,-217.61 467.61,-208.06 462.66,-213.01"/>
</a>
</g>
<text text-anchor="middle" x="372.83" y="-182.8" font-family="Times,serif" font-size="14.00">k_10</text>
</g>
<!-- Micro&#45;Manager&#45;&gt;Micro&#45;Manager&#45;macro&#45;mesh -->
<g id="edge11" class="edge">
<title>Micro&#45;Manager&#45;&gt;Micro&#45;Manager&#45;macro&#45;mesh</title>
<g id="a_edge11"><a xlink:title="scalar">
<path fill="none" stroke="#de8f05" d="M295.19,-220.73C331.3,-214.47 377.59,-209.97 418.33,-217 422.43,-217.71 426.61,-218.62 430.79,-219.67"/>
<polygon fill="#de8f05" stroke="#de8f05" points="429.94,-223.07 440.51,-222.37 431.81,-216.32 429.94,-223.07"/>
</a>
</g>
<text text-anchor="middle" x="372.83" y="-220.8" font-family="Times,serif" font-size="14.00">k_11</text>
</g>
<!-- Micro&#45;Manager&#45;&gt;Micro&#45;Manager&#45;macro&#45;mesh -->
<g id="edge12" class="edge">
<title>Micro&#45;Manager&#45;&gt;Micro&#45;Manager&#45;macro&#45;mesh</title>
<g id="a_edge12"><a xlink:title="scalar">
<path fill="none" stroke="#de8f05" d="M309.37,-237.63C347.88,-238.96 394.08,-240.55 430.65,-241.81"/>
<polygon fill="#de8f05" stroke="#de8f05" points="430.58,-245.31 440.7,-242.16 430.82,-238.31 430.58,-245.31"/>
</a>
</g>
<text text-anchor="middle" x="372.83" y="-245.8" font-family="Times,serif" font-size="14.00">porosity</text>
</g>
<!-- Micro&#45;Manager&#45;&gt;Micro&#45;Manager&#45;macro&#45;mesh -->
<g id="edge13" class="edge">
<title>Micro&#45;Manager&#45;&gt;Micro&#45;Manager&#45;macro&#45;mesh</title>
<g id="a_edge13"><a xlink:title="scalar">
<path fill="none" stroke="#de8f05" d="M284.45,-251.85C298.22,-255.63 313.21,-259.09 327.33,-261 367.4,-266.43 378.13,-265.45 418.33,-261 422.29,-260.56 426.35,-260 430.42,-259.34"/>
<polygon fill="#de8f05" stroke="#de8f05" points="431.32,-262.74 440.56,-257.55 430.11,-255.85 431.32,-262.74"/>
</a>
</g>
<text text-anchor="middle" x="372.83" y="-268.8" font-family="Times,serif" font-size="14.00">micro_sim_time</text>
</g>
<!-- Micro&#45;Manager&#45;&gt;Micro&#45;Manager&#45;macro&#45;mesh -->
<g id="edge14" class="edge">
<title>Micro&#45;Manager&#45;&gt;Micro&#45;Manager&#45;macro&#45;mesh</title>
<g id="a_edge14"><a xlink:title="scalar">
<path fill="none" stroke="#de8f05" d="M265.17,-256.57C282.71,-267.09 305.31,-278.61 327.33,-284 366.61,-293.61 379.07,-293.72 418.33,-284 427.55,-281.72 436.89,-278.09 445.72,-273.92"/>
<polygon fill="#de8f05" stroke="#de8f05" points="447.33,-277.03 454.71,-269.42 444.2,-270.77 447.33,-277.03"/>
</a>
</g>
<text text-anchor="middle" x="372.83" y="-295.8" font-family="Times,serif" font-size="14.00">grain_size</text>
</g>
<!-- Micro&#45;Manager&#45;&gt;Micro&#45;Manager&#45;macro&#45;mesh -->
<g id="edge15" class="edge">
<title>Micro&#45;Manager&#45;&gt;Micro&#45;Manager&#45;macro&#45;mesh</title>
<g id="a_edge15"><a xlink:title="scalar">
<path fill="none" stroke="#de8f05" d="M252.25,-257.17C269.67,-275.57 297.22,-300.37 327.33,-311 365.46,-324.47 380.5,-325.31 418.33,-311 436.46,-304.14 453.06,-290.74 466.08,-277.72"/>
<polygon fill="#de8f05" stroke="#de8f05" points="468.93,-279.8 473.31,-270.15 463.87,-274.96 468.93,-279.8"/>
</a>
</g>
<text text-anchor="middle" x="372.83" y="-325.8" font-family="Times,serif" font-size="14.00">active_state</text>
</g>
<!-- Micro&#45;Manager&#45;&gt;Micro&#45;Manager&#45;macro&#45;mesh -->
<g id="edge16" class="edge">
<title>Micro&#45;Manager&#45;&gt;Micro&#45;Manager&#45;macro&#45;mesh</title>
<g id="a_edge16"><a xlink:title="scalar">
<path fill="none" stroke="#de8f05" d="M235.65,-212.99C241.94,-169.09 262.87,-71.33 327.33,-30 361.37,-8.17 385.29,-6.66 418.33,-30 475.59,-70.45 489.91,-157.98 493.31,-207.66"/>
<polygon fill="#de8f05" stroke="#de8f05" points="489.82,-207.87 493.88,-217.65 496.81,-207.47 489.82,-207.87"/>
</a>
</g>
<text text-anchor="middle" x="372.83" y="-33.8" font-family="Times,serif" font-size="14.00">active_steps</text>
</g>
<!-- Micro&#45;Manager&#45;macro&#45;mesh&#45;&gt;macro&#45;heat&#45;macro&#45;mesh -->
<g id="edge21" class="edge">
<title>Micro&#45;Manager&#45;macro&#45;mesh&#45;&gt;macro&#45;heat&#45;macro&#45;mesh</title>
<g id="a_edge21"><a xlink:title="scalar">
<path fill="none" stroke="#de8f05" d="M549.98,-225.23C580.77,-218.03 618.61,-215.6 646.07,-235 698.1,-271.76 709.98,-352.54 712.53,-395.62"/>
<polygon fill="#de8f05" stroke="#de8f05" points="709.04,-395.88 712.99,-405.71 716.03,-395.56 709.04,-395.88"/>
</a>
</g>
<text text-anchor="middle" x="609.07" y="-238.8" font-family="Times,serif" font-size="14.00">k_00</text>
</g>
<!-- Micro&#45;Manager&#45;macro&#45;mesh&#45;&gt;macro&#45;heat&#45;macro&#45;mesh -->
<g id="edge22" class="edge">
<title>Micro&#45;Manager&#45;macro&#45;mesh&#45;&gt;macro&#45;heat&#45;macro&#45;mesh</title>
<g id="a_edge22"><a xlink:title="scalar">
<path fill="none" stroke="#de8f05" d="M531.12,-218.1C563.64,-197.42 612.08,-175.72 646.07,-201 677.62,-224.46 699.91,-341.03 708.79,-395.66"/>
<polygon fill="#de8f05" stroke="#de8f05" points="705.37,-396.39 710.39,-405.72 712.28,-395.29 705.37,-396.39"/>
</a>
</g>
<text text-anchor="middle" x="609.07" y="-204.8" font-family="Times,serif" font-size="14.00">k_01</text>
</g>
<!-- Micro&#45;Manager&#45;macro&#45;mesh&#45;&gt;macro&#45;heat&#45;macro&#45;mesh -->
<g id="edge23" class="edge">
<title>Micro&#45;Manager&#45;macro&#45;mesh&#45;&gt;macro&#45;heat&#45;macro&#45;mesh</title>
<g id="a_edge23"><a xlink:title="scalar">
<path fill="none" stroke="#de8f05" d="M506.92,-270.37C519.08,-297.27 541.28,-338.58 572.07,-364 599.31,-386.49 613.58,-379.13 646.07,-393 652.88,-395.91 660.02,-399.08 667.01,-402.25"/>
<polygon fill="#de8f05" stroke="#de8f05" points="665.84,-405.56 676.39,-406.55 668.75,-399.2 665.84,-405.56"/>
</a>
</g>
<text text-anchor="middle" x="609.07" y="-396.8" font-family="Times,serif" font-size="14.00">k_10</text>
</g>
<!-- Micro&#45;Manager&#45;macro&#45;mesh&#45;&gt;macro&#45;heat&#45;macro&#45;mesh -->
<g id="edge24" class="edge">
<title>Micro&#45;Manager&#45;macro&#45;mesh&#45;&gt;macro&#45;heat&#45;macro&#45;mesh</title>
<g id="a_edge24"><a xlink:title="scalar">
<path fill="none" stroke="#de8f05" d="M514.16,-270.3C527.95,-288.54 548.58,-311.99 572.07,-326 601.23,-343.39 617.29,-326.98 646.07,-345 666.97,-358.08 684.7,-379.81 696.66,-397.17"/>
<polygon fill="#de8f05" stroke="#de8f05" points="693.93,-399.39 702.38,-405.78 699.76,-395.52 693.93,-399.39"/>
</a>
</g>
<text text-anchor="middle" x="609.07" y="-348.8" font-family="Times,serif" font-size="14.00">k_11</text>
</g>
<!-- Micro&#45;Manager&#45;macro&#45;mesh&#45;&gt;macro&#45;heat&#45;macro&#45;mesh -->
<g id="edge25" class="edge">
<title>Micro&#45;Manager&#45;macro&#45;mesh&#45;&gt;macro&#45;heat&#45;macro&#45;mesh</title>
<g id="a_edge25"><a xlink:title="scalar">
<path fill="none" stroke="#de8f05" d="M535.32,-269.42C546.83,-276.14 559.67,-282.93 572.07,-288 603.5,-300.86 619.06,-286.42 646.07,-307 675.79,-329.64 694.5,-369.53 704.37,-396.36"/>
<polygon fill="#de8f05" stroke="#de8f05" points="701.11,-397.66 707.72,-405.94 707.72,-395.34 701.11,-397.66"/>
</a>
</g>
<text text-anchor="middle" x="609.07" y="-310.8" font-family="Times,serif" font-size="14.00">porosity</text>
</g>
<!-- Micro&#45;Manager&#45;macro&#45;mesh&#45;&gt;Micro&#45;Manager -->
<g id="edge7" class="edge">
<title>Micro&#45;Manager&#45;macro&#45;mesh&#45;&gt;Micro&#45;Manager</title>
<g id="a_edge7"><a xlink:title="scalar">
<path fill="none" stroke="#de8f05" d="M491.86,-217.62C486.65,-176.76 470.11,-99.29 418.33,-65 384.61,-42.67 362.17,-44.47 327.33,-65 276.79,-94.78 251.46,-162.52 240.42,-202.93"/>
<polygon fill="#de8f05" stroke="#de8f05" points="236.97,-202.26 237.85,-212.81 243.75,-204.02 236.97,-202.26"/>
</a>
</g>
<text text-anchor="middle" x="372.83" y="-68.8" font-family="Times,serif" font-size="14.00">concentration</text>
</g>
</g>
</svg>
