<?xml version="1.0" encoding="UTF-8" standalone="no"?>
<!DOCTYPE svg PUBLIC "-//W3C//DTD SVG 1.1//EN"
 "http://www.w3.org/Graphics/SVG/1.1/DTD/svg11.dtd">
<!-- Generated by graphviz version 2.43.0 (0)
 -->
<!-- Title: G Pages: 1 -->
<svg width="1103pt" height="160pt"
 viewBox="0.00 0.00 1102.64 160.00" xmlns="http://www.w3.org/2000/svg" xmlns:xlink="http://www.w3.org/1999/xlink">
<g id="graph0" class="graph" transform="scale(1 1) rotate(0) translate(4 156)">
<title>G</title>
<polygon fill="white" stroke="transparent" points="-4,4 -4,-156 1098.64,-156 1098.64,4 -4,4"/>
<g id="clust1" class="cluster">
<title>cluster_m2n</title>
<polygon fill="none" stroke="black" points="7.5,-85 7.5,-144 111.5,-144 111.5,-85 7.5,-85"/>
<text text-anchor="middle" x="59.5" y="-128.8" font-family="Times,serif" font-size="14.00">Communicators</text>
</g>
<g id="clust2" class="cluster">
<title>cluster_cpl</title>
<polygon fill="none" stroke="black" points="0,-20 0,-79 119,-79 119,-20 0,-20"/>
<text text-anchor="middle" x="59.5" y="-63.8" font-family="Times,serif" font-size="14.00">Coupling Schemes</text>
</g>
<g id="clust3" class="cluster">
<title>cluster_Fluid</title>
<polygon fill="none" stroke="black" stroke-width="2" points="577.33,-28 577.33,-103 1086.64,-103 1086.64,-28 577.33,-28"/>
<text text-anchor="middle" x="831.98" y="-87.8" font-family="Times,serif" font-size="14.00">Fluid</text>
</g>
<g id="clust4" class="cluster">
<title>cluster_Source&#45;Velocity</title>
<polygon fill="none" stroke="black" stroke-width="2" points="155,-31 155,-98 495.33,-98 495.33,-31 155,-31"/>
<text text-anchor="middle" x="325.16" y="-82.8" font-family="Times,serif" font-size="14.00">Source&#45;Velocity</text>
</g>
<!-- m2n&#45;Source&#45;Velocity&#45;Fluid -->
<g id="node1" class="node">
<title>m2n&#45;Source&#45;Velocity&#45;Fluid</title>
<polygon fill="none" stroke="black" points="87.5,-121 31.5,-121 31.5,-117 27.5,-117 27.5,-113 31.5,-113 31.5,-93 27.5,-93 27.5,-89 31.5,-89 31.5,-85 87.5,-85 87.5,-121"/>
<polyline fill="none" stroke="black" points="31.5,-117 35.5,-117 35.5,-113 31.5,-113 "/>
<polyline fill="none" stroke="black" points="31.5,-93 35.5,-93 35.5,-89 31.5,-89 "/>
<text text-anchor="middle" x="59.5" y="-99.3" font-family="Times,serif" font-size="14.00">sockets</text>
</g>
<!-- Fluid -->
<g id="node3" class="node">
<title>Fluid</title>
<polygon fill="none" stroke="#0173b2" points="1082.78,-46.54 1082.78,-61.46 1064.15,-72 1037.81,-72 1019.19,-61.46 1019.19,-46.54 1037.81,-36 1064.15,-36 1082.78,-46.54"/>
<polygon fill="none" stroke="#0173b2" points="1086.8,-44.22 1086.8,-63.78 1065.22,-76 1036.75,-76 1015.17,-63.78 1015.17,-44.22 1036.75,-32 1065.22,-32 1086.8,-44.22"/>
<text text-anchor="middle" x="1050.98" y="-50.3" font-family="Times,serif" font-size="14.00">Fluid</text>
</g>
<!-- m2n&#45;Source&#45;Velocity&#45;Fluid&#45;&gt;Fluid -->
<g id="edge5" class="edge">
<title>m2n&#45;Source&#45;Velocity&#45;Fluid&#45;&gt;Fluid</title>
<path fill="none" stroke="#0173b2" d="M97.8,-104.72C132.37,-106.17 185.23,-108 231.16,-108 231.16,-108 231.16,-108 886.83,-108 897.93,-108 909.24,-106.86 920.48,-104.91"/>
<polygon fill="#0173b2" stroke="#0173b2" points="97.83,-101.22 87.69,-104.29 97.53,-108.21 97.83,-101.22"/>
<polygon fill="#0173b2" stroke="#0173b2" points="921.18,-108.34 930.33,-103 919.85,-101.47 921.18,-108.34"/>
</g>
<!-- Source&#45;Velocity -->
<g id="node6" class="node">
<title>Source&#45;Velocity</title>
<polygon fill="none" stroke="#de8f05" points="305.48,-45.54 305.48,-60.46 262.53,-71 201.79,-71 158.84,-60.46 158.84,-45.54 201.79,-35 262.53,-35 305.48,-45.54"/>
<polygon fill="none" stroke="#de8f05" points="309.49,-42.41 309.49,-63.59 263.02,-75 201.31,-75 154.84,-63.59 154.84,-42.41 201.31,-31 263.02,-31 309.49,-42.41"/>
<text text-anchor="middle" x="232.16" y="-49.3" font-family="Times,serif" font-size="14.00">Source&#45;Velocity</text>
</g>
<!-- m2n&#45;Source&#45;Velocity&#45;Fluid&#45;&gt;Source&#45;Velocity -->
<g id="edge4" class="edge">
<title>m2n&#45;Source&#45;Velocity&#45;Fluid&#45;&gt;Source&#45;Velocity</title>
<path fill="none" stroke="#de8f05" d="M97.28,-92.23C111.42,-88.08 128.24,-83.15 145.09,-78.22"/>
<polygon fill="#de8f05" stroke="#de8f05" points="96.15,-88.91 87.54,-95.08 98.12,-95.62 96.15,-88.91"/>
<polygon fill="#de8f05" stroke="#de8f05" points="146.39,-81.48 155,-75.31 144.42,-74.77 146.39,-81.48"/>
</g>
<!-- cpl&#45;Source&#45;Velocity&#45;Fluid -->
<g id="node2" class="node">
<title>cpl&#45;Source&#45;Velocity&#45;Fluid</title>
<polygon fill="none" stroke="black" points="105,-56 14,-56 14,-52 10,-52 10,-48 14,-48 14,-28 10,-28 10,-24 14,-24 14,-20 105,-20 105,-56"/>
<polyline fill="none" stroke="black" points="14,-52 18,-52 18,-48 14,-48 "/>
<polyline fill="none" stroke="black" points="14,-28 18,-28 18,-24 14,-24 "/>
<text text-anchor="middle" x="59.5" y="-34.3" font-family="Times,serif" font-size="14.00">serial&#45;explicit</text>
</g>
<!-- cpl&#45;Source&#45;Velocity&#45;Fluid&#45;&gt;Fluid -->
<g id="edge7" class="edge">
<title>cpl&#45;Source&#45;Velocity&#45;Fluid&#45;&gt;Fluid</title>
<path fill="none" stroke="#0173b2" d="M105.17,-22.43C139.25,-11.94 187.6,0 231.16,0 231.16,0 231.16,0 886.83,0 922.14,0 959.68,-11.54 989.83,-23.96"/>
<polygon fill="#0173b2" stroke="#0173b2" points="988.78,-27.31 999.35,-28 991.52,-20.87 988.78,-27.31"/>
<text text-anchor="middle" x="124.17" y="-11.23" font-family="Times,serif" font-size="14.00">second</text>
</g>
<!-- cpl&#45;Source&#45;Velocity&#45;Fluid&#45;&gt;Source&#45;Velocity -->
<g id="edge6" class="edge">
<title>cpl&#45;Source&#45;Velocity&#45;Fluid&#45;&gt;Source&#45;Velocity</title>
<path fill="none" stroke="#de8f05" d="M105.34,-41.94C117.58,-43.02 131.26,-44.22 144.98,-45.42"/>
<polygon fill="#de8f05" stroke="#de8f05" points="144.73,-48.92 155,-46.3 145.34,-41.94 144.73,-48.92"/>
<text text-anchor="middle" x="116.34" y="-30.74" font-family="Times,serif" font-size="14.00">first</text>
</g>
<!-- Fluid&#45;Fluid&#45;Mesh -->
<g id="node4" class="node">
<title>Fluid&#45;Fluid&#45;Mesh</title>
<path fill="none" stroke="#0173b2" d="M933.33,-68.73C933.33,-70.53 912.04,-72 885.83,-72 859.62,-72 838.33,-70.53 838.33,-68.73 838.33,-68.73 838.33,-39.27 838.33,-39.27 838.33,-37.47 859.62,-36 885.83,-36 912.04,-36 933.33,-37.47 933.33,-39.27 933.33,-39.27 933.33,-68.73 933.33,-68.73"/>
<path fill="none" stroke="#0173b2" d="M933.33,-68.73C933.33,-66.92 912.04,-65.45 885.83,-65.45 859.62,-65.45 838.33,-66.92 838.33,-68.73"/>
<text text-anchor="start" x="846.33" y="-51.3" font-family="Times,serif" font-size="14.00">Fluid&#45;Mesh</text>
<text text-anchor="start" x="910.33" y="-51.3" font-family="Times,serif" font-style="italic" baseline-shift="super" font-size="14.00">2D</text>
</g>
<!-- Fluid&#45;Fluid&#45;Mesh&#45;&gt;Fluid -->
<g id="edge1" class="edge">
<title>Fluid&#45;Fluid&#45;Mesh&#45;&gt;Fluid</title>
<g id="a_edge1"><a xlink:title="vector">
<path fill="none" stroke="#0173b2" d="M933.58,-54C956.02,-54 982.78,-54 1004.98,-54"/>
<polygon fill="#0173b2" stroke="#0173b2" points="1005.15,-57.5 1015.15,-54 1005.15,-50.5 1005.15,-57.5"/>
</a>
</g>
<text text-anchor="middle" x="974.33" y="-57.8" font-family="Times,serif" font-size="14.00">Velocity</text>
</g>
<!-- Fluid&#45;Source&#45;Mesh -->
<g id="node5" class="node">
<title>Fluid&#45;Source&#45;Mesh</title>
<path fill="none" stroke="#de8f05" stroke-dasharray="5,2" d="M711.33,-75.48C711.33,-78.11 681.3,-80.25 644.33,-80.25 607.36,-80.25 577.33,-78.11 577.33,-75.48 577.33,-75.48 577.33,-32.52 577.33,-32.52 577.33,-29.89 607.36,-27.75 644.33,-27.75 681.3,-27.75 711.33,-29.89 711.33,-32.52 711.33,-32.52 711.33,-75.48 711.33,-75.48"/>
<path fill="none" stroke="#de8f05" stroke-dasharray="5,2" d="M711.33,-75.48C711.33,-72.84 681.3,-70.7 644.33,-70.7 607.36,-70.7 577.33,-72.84 577.33,-75.48"/>
<text text-anchor="middle" x="644.33" y="-57.8" font-family="Times,serif" font-size="14.00">Source&#45;Mesh</text>
<text text-anchor="middle" x="644.33" y="-42.8" font-family="Times,serif" font-size="14.00">from Source&#45;Velocity</text>
</g>
<!-- Fluid&#45;Source&#45;Mesh&#45;&gt;Fluid&#45;Fluid&#45;Mesh -->
<g id="edge2" class="edge">
<title>Fluid&#45;Source&#45;Mesh&#45;&gt;Fluid&#45;Fluid&#45;Mesh</title>
<path fill="none" stroke="#0173b2" d="M711.4,-54C748.08,-54 793.21,-54 828.25,-54"/>
<polygon fill="#0173b2" stroke="#0173b2" points="828.31,-57.5 838.31,-54 828.31,-50.5 828.31,-57.5"/>
<text text-anchor="middle" x="774.83" y="-57.8" font-family="Times,serif" font-size="14.00">nearest&#45;neighbor</text>
</g>
<!-- Source&#45;Velocity&#45;Source&#45;Mesh -->
<g id="node7" class="node">
<title>Source&#45;Velocity&#45;Source&#45;Mesh</title>
<path fill="none" stroke="#de8f05" d="M495.33,-67.73C495.33,-69.53 472.02,-71 443.33,-71 414.63,-71 391.33,-69.53 391.33,-67.73 391.33,-67.73 391.33,-38.27 391.33,-38.27 391.33,-36.47 414.63,-35 443.33,-35 472.02,-35 495.33,-36.47 495.33,-38.27 495.33,-38.27 495.33,-67.73 495.33,-67.73"/>
<path fill="none" stroke="#de8f05" d="M495.33,-67.73C495.33,-65.92 472.02,-64.45 443.33,-64.45 414.63,-64.45 391.33,-65.92 391.33,-67.73"/>
<text text-anchor="start" x="399.33" y="-50.3" font-family="Times,serif" font-size="14.00">Source&#45;Mesh</text>
<text text-anchor="start" x="472.33" y="-50.3" font-family="Times,serif" font-style="italic" baseline-shift="super" font-size="14.00">2D</text>
</g>
<!-- Source&#45;Velocity&#45;&gt;Source&#45;Velocity&#45;Source&#45;Mesh -->
<g id="edge3" class="edge">
<title>Source&#45;Velocity&#45;&gt;Source&#45;Velocity&#45;Source&#45;Mesh</title>
<g id="a_edge3"><a xlink:title="vector">
<path fill="none" stroke="#de8f05" d="M309.56,-53C333.14,-53 358.79,-53 381.2,-53"/>
<polygon fill="#de8f05" stroke="#de8f05" points="381.25,-56.5 391.25,-53 381.25,-49.5 381.25,-56.5"/>
</a>
</g>
<text text-anchor="middle" x="350.33" y="-56.8" font-family="Times,serif" font-size="14.00">Velocity</text>
</g>
<!-- Source&#45;Velocity&#45;Source&#45;Mesh&#45;&gt;Fluid&#45;Source&#45;Mesh -->
<g id="edge8" class="edge">
<title>Source&#45;Velocity&#45;Source&#45;Mesh&#45;&gt;Fluid&#45;Source&#45;Mesh</title>
<g id="a_edge8"><a xlink:title="vector">
<path fill="none" stroke="#de8f05" d="M495.57,-53.26C517.34,-53.37 543.17,-53.5 567.1,-53.62"/>
<polygon fill="#de8f05" stroke="#de8f05" points="567.2,-57.12 577.22,-53.67 567.24,-50.12 567.2,-57.12"/>
</a>
</g>
<text text-anchor="middle" x="536.33" y="-56.8" font-family="Times,serif" font-size="14.00">Velocity</text>
</g>
</g>
</svg>
