<?xml version="1.0" encoding="UTF-8" standalone="no"?>
<!DOCTYPE svg PUBLIC "-//W3C//DTD SVG 1.1//EN"
 "http://www.w3.org/Graphics/SVG/1.1/DTD/svg11.dtd">
<!-- Generated by graphviz version 2.43.0 (0)
 -->
<!-- Title: G Pages: 1 -->
<svg width="524pt" height="346pt"
 viewBox="0.00 0.00 524.49 346.00" xmlns="http://www.w3.org/2000/svg" xmlns:xlink="http://www.w3.org/1999/xlink">
<g id="graph0" class="graph" transform="scale(1 1) rotate(0) translate(4 342)">
<title>G</title>
<polygon fill="white" stroke="transparent" points="-4,4 -4,-342 520.49,-342 520.49,4 -4,4"/>
<g id="clust1" class="cluster">
<title>cluster_m2n</title>
<polygon fill="none" stroke="black" points="7.5,-185 7.5,-244 111.5,-244 111.5,-185 7.5,-185"/>
<text text-anchor="middle" x="59.5" y="-228.8" font-family="Times,serif" font-size="14.00">Communicators</text>
</g>
<g id="clust2" class="cluster">
<title>cluster_cpl</title>
<polygon fill="none" stroke="black" points="0,-118 0,-177 119,-177 119,-118 0,-118"/>
<text text-anchor="middle" x="59.5" y="-161.8" font-family="Times,serif" font-size="14.00">Coupling Schemes</text>
</g>
<g id="clust3" class="cluster">
<title>cluster_Dirichlet</title>
<polygon fill="none" stroke="black" stroke-width="2" points="155.74,-193 155.74,-330 505.99,-330 505.99,-193 155.74,-193"/>
<text text-anchor="middle" x="330.87" y="-314.8" font-family="Times,serif" font-size="14.00">Dirichlet</text>
</g>
<g id="clust4" class="cluster">
<title>cluster_Neumann</title>
<polygon fill="none" stroke="black" stroke-width="2" points="155,-8 155,-145 508.49,-145 508.49,-8 155,-8"/>
<text text-anchor="middle" x="331.74" y="-129.8" font-family="Times,serif" font-size="14.00">Neumann</text>
</g>
<!-- m2n&#45;Dirichlet&#45;Neumann -->
<g id="node1" class="node">
<title>m2n&#45;Dirichlet&#45;Neumann</title>
<polygon fill="none" stroke="black" points="87.5,-221 31.5,-221 31.5,-217 27.5,-217 27.5,-213 31.5,-213 31.5,-193 27.5,-193 27.5,-189 31.5,-189 31.5,-185 87.5,-185 87.5,-221"/>
<polyline fill="none" stroke="black" points="31.5,-217 35.5,-217 35.5,-213 31.5,-213 "/>
<polyline fill="none" stroke="black" points="31.5,-193 35.5,-193 35.5,-189 31.5,-189 "/>
<text text-anchor="middle" x="59.5" y="-199.3" font-family="Times,serif" font-size="14.00">sockets</text>
</g>
<!-- Dirichlet -->
<g id="node3" class="node">
<title>Dirichlet</title>
<polygon fill="none" stroke="#0173b2" points="254.18,-277.54 254.18,-292.46 227.27,-303 189.22,-303 162.31,-292.46 162.31,-277.54 189.22,-267 227.27,-267 254.18,-277.54"/>
<polygon fill="none" stroke="#0173b2" points="258.2,-274.82 258.2,-295.18 228.03,-307 188.45,-307 158.29,-295.18 158.29,-274.82 188.45,-263 228.03,-263 258.2,-274.82"/>
<text text-anchor="middle" x="208.24" y="-281.3" font-family="Times,serif" font-size="14.00">Dirichlet</text>
</g>
<!-- m2n&#45;Dirichlet&#45;Neumann&#45;&gt;Dirichlet -->
<g id="edge7" class="edge">
<title>m2n&#45;Dirichlet&#45;Neumann&#45;&gt;Dirichlet</title>
<path fill="none" stroke="#0173b2" d="M96.73,-223.24C111.88,-231.71 129.9,-241.78 146.94,-251.3"/>
<polygon fill="#0173b2" stroke="#0173b2" points="98.19,-220.05 87.76,-218.23 94.78,-226.16 98.19,-220.05"/>
<polygon fill="#0173b2" stroke="#0173b2" points="145.31,-254.4 155.75,-256.22 148.73,-248.29 145.31,-254.4"/>
</g>
<!-- Neumann -->
<g id="node6" class="node">
<title>Neumann</title>
<polygon fill="none" stroke="#de8f05" points="257.72,-22.54 257.72,-37.46 228.74,-48 187.75,-48 158.77,-37.46 158.77,-22.54 187.75,-12 228.74,-12 257.72,-22.54"/>
<polygon fill="none" stroke="#de8f05" points="261.73,-19.75 261.73,-40.25 229.45,-52 187.04,-52 154.75,-40.25 154.75,-19.75 187.04,-8 229.45,-8 261.73,-19.75"/>
<text text-anchor="middle" x="208.24" y="-26.3" font-family="Times,serif" font-size="14.00">Neumann</text>
</g>
<!-- m2n&#45;Dirichlet&#45;Neumann&#45;&gt;Neumann -->
<g id="edge8" class="edge">
<title>m2n&#45;Dirichlet&#45;Neumann&#45;&gt;Neumann</title>
<path fill="none" stroke="#de8f05" d="M97.36,-194.97C105.36,-191.75 113.16,-187.26 119,-181 154.56,-142.93 125.08,-109.46 149.21,-69.38"/>
<polygon fill="#de8f05" stroke="#de8f05" points="95.96,-191.75 87.63,-198.29 98.23,-198.37 95.96,-191.75"/>
<polygon fill="#de8f05" stroke="#de8f05" points="152.2,-71.22 155,-61 146.44,-67.24 152.2,-71.22"/>
</g>
<!-- cpl&#45;Dirichlet&#45;Neumann -->
<g id="node2" class="node">
<title>cpl&#45;Dirichlet&#45;Neumann</title>
<polygon fill="none" stroke="black" points="106,-154 13,-154 13,-150 9,-150 9,-146 13,-146 13,-126 9,-126 9,-122 13,-122 13,-118 106,-118 106,-154"/>
<polyline fill="none" stroke="black" points="13,-150 17,-150 17,-146 13,-146 "/>
<polyline fill="none" stroke="black" points="13,-126 17,-126 17,-122 13,-122 "/>
<text text-anchor="middle" x="59.5" y="-132.3" font-family="Times,serif" font-size="14.00">serial&#45;implicit</text>
</g>
<!-- cpl&#45;Dirichlet&#45;Neumann&#45;&gt;Dirichlet -->
<g id="edge9" class="edge">
<title>cpl&#45;Dirichlet&#45;Neumann&#45;&gt;Dirichlet</title>
<path fill="none" stroke="#0173b2" d="M89.24,-154.07C99.53,-161.51 110.63,-170.79 119,-181 139.69,-206.25 132.35,-223.75 149.32,-247.02"/>
<polygon fill="#0173b2" stroke="#0173b2" points="146.68,-249.32 155.75,-254.79 152.07,-244.86 146.68,-249.32"/>
<text text-anchor="middle" x="100.24" y="-150.37" font-family="Times,serif" font-size="14.00">first</text>
</g>
<!-- cpl&#45;Dirichlet&#45;Neumann&#45;&gt;Neumann -->
<g id="edge10" class="edge">
<title>cpl&#45;Dirichlet&#45;Neumann&#45;&gt;Neumann</title>
<path fill="none" stroke="#de8f05" d="M81.64,-117.87C98.41,-103.78 122.9,-83.84 146.65,-66.87"/>
<polygon fill="#de8f05" stroke="#de8f05" points="148.83,-69.61 155,-61 144.8,-63.88 148.83,-69.61"/>
<text text-anchor="middle" x="62.64" y="-106.67" font-family="Times,serif" font-size="14.00">second</text>
</g>
<!-- Dirichlet&#45;Dirichlet&#45;Mesh -->
<g id="node4" class="node">
<title>Dirichlet&#45;Dirichlet&#45;Mesh</title>
<path fill="none" stroke="#0173b2" d="M505.99,-249.73C505.99,-251.53 480.22,-253 448.49,-253 416.76,-253 390.99,-251.53 390.99,-249.73 390.99,-249.73 390.99,-220.27 390.99,-220.27 390.99,-218.47 416.76,-217 448.49,-217 480.22,-217 505.99,-218.47 505.99,-220.27 505.99,-220.27 505.99,-249.73 505.99,-249.73"/>
<path fill="none" stroke="#0173b2" d="M505.99,-249.73C505.99,-247.92 480.22,-246.45 448.49,-246.45 416.76,-246.45 390.99,-247.92 390.99,-249.73"/>
<text text-anchor="start" x="398.99" y="-232.3" font-family="Times,serif" font-size="14.00">Dirichlet&#45;Mesh</text>
<text text-anchor="start" x="482.99" y="-232.3" font-family="Times,serif" font-style="italic" baseline-shift="super" font-size="14.00">2D</text>
</g>
<!-- Dirichlet&#45;&gt;Dirichlet&#45;Dirichlet&#45;Mesh -->
<g id="edge2" class="edge">
<title>Dirichlet&#45;&gt;Dirichlet&#45;Dirichlet&#45;Mesh</title>
<g id="a_edge2"><a xlink:title="scalar">
<path fill="none" stroke="#0173b2" d="M239.78,-267.29C251.78,-261.12 265.92,-254.8 279.49,-251 312.06,-241.88 349.42,-237.74 380.63,-235.93"/>
<polygon fill="#0173b2" stroke="#0173b2" points="381.15,-239.41 390.96,-235.4 380.8,-232.42 381.15,-239.41"/>
</a>
</g>
<text text-anchor="middle" x="324.99" y="-254.8" font-family="Times,serif" font-size="14.00">Heat&#45;Flux</text>
</g>
<!-- Dirichlet&#45;Dirichlet&#45;Mesh&#45;&gt;Dirichlet -->
<g id="edge1" class="edge">
<title>Dirichlet&#45;Dirichlet&#45;Mesh&#45;&gt;Dirichlet</title>
<g id="a_edge1"><a xlink:title="scalar">
<path fill="none" stroke="#0173b2" d="M414.28,-253.03C401.02,-259.44 385.39,-266.04 370.49,-270 337.41,-278.79 299.33,-282.61 268.48,-284.2"/>
<polygon fill="#0173b2" stroke="#0173b2" points="268.15,-280.71 258.32,-284.66 268.46,-287.71 268.15,-280.71"/>
</a>
</g>
<text text-anchor="middle" x="324.99" y="-286.8" font-family="Times,serif" font-size="14.00">Temperature</text>
</g>
<!-- Neumann&#45;Dirichlet&#45;Mesh -->
<g id="node8" class="node">
<title>Neumann&#45;Dirichlet&#45;Mesh</title>
<path fill="none" stroke="#0173b2" stroke-dasharray="5,2" d="M258.24,-117.48C258.24,-120.11 235.83,-122.25 208.24,-122.25 180.66,-122.25 158.24,-120.11 158.24,-117.48 158.24,-117.48 158.24,-74.52 158.24,-74.52 158.24,-71.89 180.66,-69.75 208.24,-69.75 235.83,-69.75 258.24,-71.89 258.24,-74.52 258.24,-74.52 258.24,-117.48 258.24,-117.48"/>
<path fill="none" stroke="#0173b2" stroke-dasharray="5,2" d="M258.24,-117.48C258.24,-114.84 235.83,-112.7 208.24,-112.7 180.66,-112.7 158.24,-114.84 158.24,-117.48"/>
<text text-anchor="middle" x="208.24" y="-99.8" font-family="Times,serif" font-size="14.00">Dirichlet&#45;Mesh</text>
<text text-anchor="middle" x="208.24" y="-84.8" font-family="Times,serif" font-size="14.00">from Dirichlet</text>
</g>
<!-- Dirichlet&#45;Dirichlet&#45;Mesh&#45;&gt;Neumann&#45;Dirichlet&#45;Mesh -->
<g id="edge11" class="edge">
<title>Dirichlet&#45;Dirichlet&#45;Mesh&#45;&gt;Neumann&#45;Dirichlet&#45;Mesh</title>
<g id="a_edge11"><a xlink:title="scalar initialized">
<path fill="none" stroke="#0173b2" stroke-width="2" d="M436.39,-217.8C424.04,-195.64 400,-158.38 369.4,-138.68 361.19,-133.2 310.11,-120.7 267.8,-111.01"/>
<path fill="none" stroke="transparent" stroke-width="2" d="M438.13,-216.83C425.72,-194.56 401.68,-157.3 370.49,-137 361.66,-131.26 310.58,-118.76 268.24,-109.06"/>
<path fill="none" stroke="#0173b2" stroke-width="2" d="M439.88,-215.85C427.4,-193.48 403.36,-156.22 371.58,-135.32 362.14,-129.31 311.06,-116.81 268.69,-107.11"/>
<polygon fill="#0173b2" stroke="#0173b2" stroke-width="2" points="268.78,-105.59 258.26,-106.78 267.23,-112.42 268.78,-105.59"/>
</a>
</g>
<text text-anchor="middle" x="324.99" y="-140.8" font-family="Times,serif" font-size="14.00">Heat&#45;Flux</text>
</g>
<!-- Dirichlet&#45;Neumann&#45;Mesh -->
<g id="node5" class="node">
<title>Dirichlet&#45;Neumann&#45;Mesh</title>
<path fill="none" stroke="#de8f05" stroke-dasharray="5,2" d="M260.74,-240.48C260.74,-243.11 237.21,-245.25 208.24,-245.25 179.28,-245.25 155.74,-243.11 155.74,-240.48 155.74,-240.48 155.74,-197.52 155.74,-197.52 155.74,-194.89 179.28,-192.75 208.24,-192.75 237.21,-192.75 260.74,-194.89 260.74,-197.52 260.74,-197.52 260.74,-240.48 260.74,-240.48"/>
<path fill="none" stroke="#de8f05" stroke-dasharray="5,2" d="M260.74,-240.48C260.74,-237.84 237.21,-235.7 208.24,-235.7 179.28,-235.7 155.74,-237.84 155.74,-240.48"/>
<text text-anchor="middle" x="208.24" y="-222.8" font-family="Times,serif" font-size="14.00">Neumann&#45;Mesh</text>
<text text-anchor="middle" x="208.24" y="-207.8" font-family="Times,serif" font-size="14.00">from Neumann</text>
</g>
<!-- Dirichlet&#45;Neumann&#45;Mesh&#45;&gt;Dirichlet&#45;Dirichlet&#45;Mesh -->
<g id="edge3" class="edge">
<title>Dirichlet&#45;Neumann&#45;Mesh&#45;&gt;Dirichlet&#45;Dirichlet&#45;Mesh</title>
<path fill="none" stroke="#0173b2" d="M261.03,-217.36C267.25,-217.21 273.51,-217.09 279.49,-217 319.93,-216.42 330.31,-212.37 370.49,-217 373.93,-217.4 377.45,-217.89 380.99,-218.46"/>
<polygon fill="#0173b2" stroke="#0173b2" points="380.52,-221.93 390.98,-220.24 381.75,-215.04 380.52,-221.93"/>
<text text-anchor="middle" x="324.99" y="-220.8" font-family="Times,serif" font-size="14.00">nearest&#45;neighbor</text>
</g>
<!-- Neumann&#45;Neumann&#45;Mesh -->
<g id="node7" class="node">
<title>Neumann&#45;Neumann&#45;Mesh</title>
<path fill="none" stroke="#de8f05" d="M508.49,-97.73C508.49,-99.53 481.6,-101 448.49,-101 415.38,-101 388.49,-99.53 388.49,-97.73 388.49,-97.73 388.49,-68.27 388.49,-68.27 388.49,-66.47 415.38,-65 448.49,-65 481.6,-65 508.49,-66.47 508.49,-68.27 508.49,-68.27 508.49,-97.73 508.49,-97.73"/>
<path fill="none" stroke="#de8f05" d="M508.49,-97.73C508.49,-95.92 481.6,-94.45 448.49,-94.45 415.38,-94.45 388.49,-95.92 388.49,-97.73"/>
<text text-anchor="start" x="396.49" y="-80.3" font-family="Times,serif" font-size="14.00">Neumann&#45;Mesh</text>
<text text-anchor="start" x="485.49" y="-80.3" font-family="Times,serif" font-style="italic" baseline-shift="super" font-size="14.00">2D</text>
</g>
<!-- Neumann&#45;&gt;Neumann&#45;Neumann&#45;Mesh -->
<g id="edge5" class="edge">
<title>Neumann&#45;&gt;Neumann&#45;Neumann&#45;Mesh</title>
<g id="a_edge5"><a xlink:title="scalar">
<path fill="none" stroke="#de8f05" d="M259.48,-41.18C293.94,-48.84 340.13,-59.12 378.09,-67.56"/>
<polygon fill="#de8f05" stroke="#de8f05" points="377.54,-71.02 388.06,-69.78 379.06,-64.19 377.54,-71.02"/>
</a>
</g>
<text text-anchor="middle" x="324.99" y="-68.8" font-family="Times,serif" font-size="14.00">Temperature</text>
</g>
<!-- Neumann&#45;Neumann&#45;Mesh&#45;&gt;Dirichlet&#45;Neumann&#45;Mesh -->
<g id="edge12" class="edge">
<title>Neumann&#45;Neumann&#45;Mesh&#45;&gt;Dirichlet&#45;Neumann&#45;Mesh</title>
<g id="a_edge12"><a xlink:title="scalar initialized">
<path fill="none" stroke="#de8f05" stroke-width="2" d="M433.45,-102.63C418.86,-118.87 395.86,-142.2 371.56,-157.69 353.9,-168.85 309.24,-186.03 271.26,-199.68"/>
<path fill="none" stroke="transparent" stroke-width="2" d="M431.96,-101.29C417.44,-117.47 394.44,-140.8 370.49,-156 353.18,-166.99 308.52,-184.16 270.58,-197.8"/>
<path fill="none" stroke="#de8f05" stroke-width="2" d="M430.48,-99.95C416.01,-116.06 393.01,-139.39 369.42,-154.31 352.46,-165.12 307.8,-182.29 269.9,-195.92"/>
<polygon fill="#de8f05" stroke="#de8f05" stroke-width="2" points="269.34,-194.53 261.1,-201.19 271.69,-201.12 269.34,-194.53"/>
</a>
</g>
<text text-anchor="middle" x="324.99" y="-196.8" font-family="Times,serif" font-size="14.00">Temperature</text>
</g>
<!-- Neumann&#45;Neumann&#45;Mesh&#45;&gt;Neumann -->
<g id="edge4" class="edge">
<title>Neumann&#45;Neumann&#45;Mesh&#45;&gt;Neumann</title>
<g id="a_edge4"><a xlink:title="scalar">
<path fill="none" stroke="#de8f05" d="M429.47,-64.73C414.96,-51.39 393.28,-34.41 370.49,-27 339.03,-16.77 302.27,-16.62 271.79,-19.43"/>
<polygon fill="#de8f05" stroke="#de8f05" points="271.3,-15.96 261.72,-20.48 272.03,-22.92 271.3,-15.96"/>
</a>
</g>
<text text-anchor="middle" x="324.99" y="-30.8" font-family="Times,serif" font-size="14.00">Heat&#45;Flux</text>
</g>
<!-- Neumann&#45;Dirichlet&#45;Mesh&#45;&gt;Neumann&#45;Neumann&#45;Mesh -->
<g id="edge6" class="edge">
<title>Neumann&#45;Dirichlet&#45;Mesh&#45;&gt;Neumann&#45;Neumann&#45;Mesh</title>
<path fill="none" stroke="#de8f05" d="M258.32,-93.32C292.96,-91.43 339.85,-88.87 378.28,-86.78"/>
<polygon fill="#de8f05" stroke="#de8f05" points="378.57,-90.27 388.36,-86.23 378.19,-83.28 378.57,-90.27"/>
<text text-anchor="middle" x="324.99" y="-95.8" font-family="Times,serif" font-size="14.00">nearest&#45;neighbor</text>
</g>
</g>
</svg>
