<?xml version="1.0" encoding="UTF-8" standalone="no"?>
<!DOCTYPE svg PUBLIC "-//W3C//DTD SVG 1.1//EN"
 "http://www.w3.org/Graphics/SVG/1.1/DTD/svg11.dtd">
<!-- Generated by graphviz version 2.43.0 (0)
 -->
<!-- Title: G Pages: 1 -->
<svg width="746pt" height="212pt"
 viewBox="0.00 0.00 746.08 212.00" xmlns="http://www.w3.org/2000/svg" xmlns:xlink="http://www.w3.org/1999/xlink">
<g id="graph0" class="graph" transform="scale(1 1) rotate(0) translate(4 208)">
<title>G</title>
<polygon fill="white" stroke="transparent" points="-4,4 -4,-208 742.08,-208 742.08,4 -4,4"/>
<g id="clust1" class="cluster">
<title>cluster_m2n</title>
<polygon fill="none" stroke="black" points="8,-105 8,-164 112,-164 112,-105 8,-105"/>
<text text-anchor="middle" x="60" y="-148.8" font-family="Times,serif" font-size="14.00">Communicators</text>
</g>
<g id="clust2" class="cluster">
<title>cluster_cpl</title>
<polygon fill="none" stroke="black" points="1,-38 1,-97 120,-97 120,-38 1,-38"/>
<text text-anchor="middle" x="60.5" y="-81.8" font-family="Times,serif" font-size="14.00">Coupling Schemes</text>
</g>
<g id="clust3" class="cluster">
<title>cluster_Calculix1</title>
<polygon fill="none" stroke="black" stroke-width="2" points="157,-102 157,-196 730.08,-196 730.08,-102 157,-102"/>
<text text-anchor="middle" x="443.54" y="-180.8" font-family="Times,serif" font-size="14.00">Calculix1</text>
</g>
<g id="clust4" class="cluster">
<title>cluster_Calculix2</title>
<polygon fill="none" stroke="black" stroke-width="2" points="157,-8 157,-102 499.08,-102 499.08,-8 157,-8"/>
<text text-anchor="middle" x="328.04" y="-86.8" font-family="Times,serif" font-size="14.00">Calculix2</text>
</g>
<!-- m2n&#45;Calculix1&#45;Calculix2 -->
<g id="node1" class="node">
<title>m2n&#45;Calculix1&#45;Calculix2</title>
<polygon fill="none" stroke="black" points="88,-141 32,-141 32,-137 28,-137 28,-133 32,-133 32,-113 28,-113 28,-109 32,-109 32,-105 88,-105 88,-141"/>
<polyline fill="none" stroke="black" points="32,-137 36,-137 36,-133 32,-133 "/>
<polyline fill="none" stroke="black" points="32,-113 36,-113 36,-109 32,-109 "/>
<text text-anchor="middle" x="60" y="-119.3" font-family="Times,serif" font-size="14.00">sockets</text>
</g>
<!-- Calculix1 -->
<g id="node3" class="node">
<title>Calculix1</title>
<polygon fill="none" stroke="#0173b2" points="258.12,-118.54 258.12,-133.46 229.66,-144 189.42,-144 160.96,-133.46 160.96,-118.54 189.42,-108 229.66,-108 258.12,-118.54"/>
<polygon fill="none" stroke="#0173b2" points="262.12,-115.76 262.12,-136.24 230.38,-148 188.7,-148 156.96,-136.24 156.96,-115.76 188.7,-104 230.38,-104 262.12,-115.76"/>
<text text-anchor="middle" x="209.54" y="-122.3" font-family="Times,serif" font-size="14.00">Calculix1</text>
</g>
<!-- m2n&#45;Calculix1&#45;Calculix2&#45;&gt;Calculix1 -->
<g id="edge7" class="edge">
<title>m2n&#45;Calculix1&#45;Calculix2&#45;&gt;Calculix1</title>
<path fill="none" stroke="#0173b2" d="M98.3,-123.76C113.01,-124.06 130.29,-124.41 146.75,-124.74"/>
<polygon fill="#0173b2" stroke="#0173b2" points="98.13,-120.25 88.06,-123.55 97.99,-127.25 98.13,-120.25"/>
<polygon fill="#0173b2" stroke="#0173b2" points="146.93,-128.25 157,-124.95 147.07,-121.25 146.93,-128.25"/>
</g>
<!-- Calculix2 -->
<g id="node6" class="node">
<title>Calculix2</title>
<polygon fill="none" stroke="#de8f05" points="258.12,-48.54 258.12,-63.46 229.66,-74 189.42,-74 160.96,-63.46 160.96,-48.54 189.42,-38 229.66,-38 258.12,-48.54"/>
<polygon fill="none" stroke="#de8f05" points="262.12,-45.76 262.12,-66.24 230.38,-78 188.7,-78 156.96,-66.24 156.96,-45.76 188.7,-34 230.38,-34 262.12,-45.76"/>
<text text-anchor="middle" x="209.54" y="-52.3" font-family="Times,serif" font-size="14.00">Calculix2</text>
</g>
<!-- m2n&#45;Calculix1&#45;Calculix2&#45;&gt;Calculix2 -->
<g id="edge8" class="edge">
<title>m2n&#45;Calculix1&#45;Calculix2&#45;&gt;Calculix2</title>
<path fill="none" stroke="#de8f05" d="M98.04,-109.92C105.38,-107.12 112.98,-104.08 120,-101 129.11,-97 138.61,-92.52 147.86,-87.98"/>
<polygon fill="#de8f05" stroke="#de8f05" points="96.43,-106.79 88.28,-113.56 98.87,-113.35 96.43,-106.79"/>
<polygon fill="#de8f05" stroke="#de8f05" points="149.61,-91.02 157,-83.43 146.49,-84.75 149.61,-91.02"/>
</g>
<!-- cpl&#45;Calculix1&#45;Calculix2 -->
<g id="node2" class="node">
<title>cpl&#45;Calculix1&#45;Calculix2</title>
<polygon fill="none" stroke="black" points="112,-74 8,-74 8,-70 4,-70 4,-66 8,-66 8,-46 4,-46 4,-42 8,-42 8,-38 112,-38 112,-74"/>
<polyline fill="none" stroke="black" points="8,-70 12,-70 12,-66 8,-66 "/>
<polyline fill="none" stroke="black" points="8,-46 12,-46 12,-42 8,-42 "/>
<text text-anchor="middle" x="60" y="-52.3" font-family="Times,serif" font-size="14.00">parallel&#45;implicit</text>
</g>
<!-- cpl&#45;Calculix1&#45;Calculix2&#45;&gt;Calculix1 -->
<g id="edge9" class="edge">
<title>cpl&#45;Calculix1&#45;Calculix2&#45;&gt;Calculix1</title>
<path fill="none" stroke="#0173b2" d="M99,-74.03C114.15,-81.21 131.95,-89.66 148.75,-97.63"/>
<polygon fill="#0173b2" stroke="#0173b2" points="147.43,-100.88 157.96,-102 150.43,-94.55 147.43,-100.88"/>
<text text-anchor="middle" x="110" y="-77.83" font-family="Times,serif" font-size="14.00">first</text>
</g>
<!-- cpl&#45;Calculix1&#45;Calculix2&#45;&gt;Calculix2 -->
<g id="edge10" class="edge">
<title>cpl&#45;Calculix1&#45;Calculix2&#45;&gt;Calculix2</title>
<path fill="none" stroke="#de8f05" d="M112.19,-56C123.39,-56 135.36,-56 146.92,-56"/>
<polygon fill="#de8f05" stroke="#de8f05" points="147,-59.5 157,-56 147,-52.5 147,-59.5"/>
<text text-anchor="middle" x="131.19" y="-44.8" font-family="Times,serif" font-size="14.00">second</text>
</g>
<!-- Calculix1&#45;Calculix&#45;Mesh1 -->
<g id="node4" class="node">
<title>Calculix1&#45;Calculix&#45;Mesh1</title>
<path fill="none" stroke="#0173b2" d="M499.08,-151.73C499.08,-153.53 472.41,-155 439.58,-155 406.75,-155 380.08,-153.53 380.08,-151.73 380.08,-151.73 380.08,-122.27 380.08,-122.27 380.08,-120.47 406.75,-119 439.58,-119 472.41,-119 499.08,-120.47 499.08,-122.27 499.08,-122.27 499.08,-151.73 499.08,-151.73"/>
<path fill="none" stroke="#0173b2" d="M499.08,-151.73C499.08,-149.92 472.41,-148.45 439.58,-148.45 406.75,-148.45 380.08,-149.92 380.08,-151.73"/>
<text text-anchor="start" x="388.08" y="-134.3" font-family="Times,serif" font-size="14.00">Calculix&#45;Mesh1</text>
<text text-anchor="start" x="476.08" y="-134.3" font-family="Times,serif" font-style="italic" baseline-shift="super" font-size="14.00">3D</text>
</g>
<!-- Calculix1&#45;&gt;Calculix1&#45;Calculix&#45;Mesh1 -->
<g id="edge2" class="edge">
<title>Calculix1&#45;&gt;Calculix1&#45;Calculix&#45;Mesh1</title>
<g id="a_edge2"><a xlink:title="vector">
<path fill="none" stroke="#0173b2" d="M262.26,-118.16C291.62,-114.9 329.01,-112.75 362.08,-117 365.12,-117.39 368.2,-117.86 371.31,-118.4"/>
<polygon fill="#0173b2" stroke="#0173b2" points="370.76,-121.86 381.25,-120.33 372.1,-114.99 370.76,-121.86"/>
</a>
</g>
<text text-anchor="middle" x="321.08" y="-120.8" font-family="Times,serif" font-size="14.00">Force0</text>
</g>
<!-- Calculix1&#45;Calculix&#45;Mesh1&#45;&gt;Calculix1 -->
<g id="edge1" class="edge">
<title>Calculix1&#45;Calculix&#45;Mesh1&#45;&gt;Calculix1</title>
<g id="a_edge1"><a xlink:title="vector">
<path fill="none" stroke="#0173b2" d="M379.79,-138.54C349.9,-138.83 313.01,-138.46 280.08,-136 277.53,-135.81 274.92,-135.58 272.3,-135.33"/>
<polygon fill="#0173b2" stroke="#0173b2" points="272.42,-131.82 262.1,-134.21 271.66,-138.78 272.42,-131.82"/>
</a>
</g>
<text text-anchor="middle" x="321.08" y="-141.8" font-family="Times,serif" font-size="14.00">Displacement0</text>
</g>
<!-- Calculix1&#45;Calculix&#45;Mesh2 -->
<g id="node5" class="node">
<title>Calculix1&#45;Calculix&#45;Mesh2</title>
<path fill="none" stroke="#de8f05" stroke-dasharray="5,2" d="M730.08,-149.48C730.08,-152.11 706.77,-154.25 678.08,-154.25 649.39,-154.25 626.08,-152.11 626.08,-149.48 626.08,-149.48 626.08,-106.52 626.08,-106.52 626.08,-103.89 649.39,-101.75 678.08,-101.75 706.77,-101.75 730.08,-103.89 730.08,-106.52 730.08,-106.52 730.08,-149.48 730.08,-149.48"/>
<path fill="none" stroke="#de8f05" stroke-dasharray="5,2" d="M730.08,-149.48C730.08,-146.84 706.77,-144.7 678.08,-144.7 649.39,-144.7 626.08,-146.84 626.08,-149.48"/>
<text text-anchor="middle" x="678.08" y="-131.8" font-family="Times,serif" font-size="14.00">Calculix&#45;Mesh2</text>
<text text-anchor="middle" x="678.08" y="-116.8" font-family="Times,serif" font-size="14.00">from Calculix2</text>
</g>
<!-- Calculix1&#45;Calculix&#45;Mesh1&#45;&gt;Calculix1&#45;Calculix&#45;Mesh2 -->
<g id="edge3" class="edge">
<title>Calculix1&#45;Calculix&#45;Mesh1&#45;&gt;Calculix1&#45;Calculix&#45;Mesh2</title>
<path fill="none" stroke="#0173b2" d="M499.28,-123.45C505.27,-122.45 511.28,-121.6 517.08,-121 557.31,-116.84 567.69,-118.96 608.08,-121 610.61,-121.13 613.18,-121.28 615.78,-121.46"/>
<polygon fill="#0173b2" stroke="#0173b2" points="615.64,-124.96 625.88,-122.22 616.18,-117.98 615.64,-124.96"/>
<text text-anchor="middle" x="562.58" y="-124.8" font-family="Times,serif" font-size="14.00">nearest&#45;neighbor</text>
</g>
<!-- Calculix1&#45;Calculix&#45;Mesh2&#45;&gt;Calculix1&#45;Calculix&#45;Mesh1 -->
<g id="edge4" class="edge">
<title>Calculix1&#45;Calculix&#45;Mesh2&#45;&gt;Calculix1&#45;Calculix&#45;Mesh1</title>
<path fill="none" stroke="#0173b2" d="M625.89,-134.57C619.9,-135.15 613.86,-135.65 608.08,-136 575.61,-137.97 539.54,-138.41 509.21,-138.28"/>
<polygon fill="#0173b2" stroke="#0173b2" points="509.18,-134.78 499.16,-138.22 509.14,-141.78 509.18,-134.78"/>
<text text-anchor="middle" x="562.58" y="-141.8" font-family="Times,serif" font-size="14.00">nearest&#45;neighbor</text>
</g>
<!-- Calculix2&#45;Calculix&#45;Mesh2 -->
<g id="node7" class="node">
<title>Calculix2&#45;Calculix&#45;Mesh2</title>
<path fill="none" stroke="#de8f05" d="M499.08,-66.73C499.08,-68.53 472.41,-70 439.58,-70 406.75,-70 380.08,-68.53 380.08,-66.73 380.08,-66.73 380.08,-37.27 380.08,-37.27 380.08,-35.47 406.75,-34 439.58,-34 472.41,-34 499.08,-35.47 499.08,-37.27 499.08,-37.27 499.08,-66.73 499.08,-66.73"/>
<path fill="none" stroke="#de8f05" d="M499.08,-66.73C499.08,-64.92 472.41,-63.45 439.58,-63.45 406.75,-63.45 380.08,-64.92 380.08,-66.73"/>
<text text-anchor="start" x="388.08" y="-49.3" font-family="Times,serif" font-size="14.00">Calculix&#45;Mesh2</text>
<text text-anchor="start" x="476.08" y="-49.3" font-family="Times,serif" font-style="italic" baseline-shift="super" font-size="14.00">3D</text>
</g>
<!-- Calculix1&#45;Calculix&#45;Mesh2&#45;&gt;Calculix2&#45;Calculix&#45;Mesh2 -->
<g id="edge12" class="edge">
<title>Calculix1&#45;Calculix&#45;Mesh2&#45;&gt;Calculix2&#45;Calculix&#45;Mesh2</title>
<g id="a_edge12"><a xlink:title="vector">
<path fill="none" stroke="#0173b2" d="M661.47,-101.55C649.39,-83.88 630.9,-62.1 608.08,-52 577.49,-38.46 540.57,-37.08 509.18,-39.68"/>
<polygon fill="#0173b2" stroke="#0173b2" points="508.81,-36.2 499.2,-40.65 509.49,-43.17 508.81,-36.2"/>
</a>
</g>
<text text-anchor="middle" x="562.58" y="-55.8" font-family="Times,serif" font-size="14.00">Force0</text>
</g>
<!-- Calculix2&#45;&gt;Calculix2&#45;Calculix&#45;Mesh2 -->
<g id="edge6" class="edge">
<title>Calculix2&#45;&gt;Calculix2&#45;Calculix&#45;Mesh2</title>
<g id="a_edge6"><a xlink:title="vector">
<path fill="none" stroke="#de8f05" d="M250.12,-41.18C259.79,-38.21 270.2,-35.53 280.08,-34 316.1,-28.44 325.88,-29.8 362.08,-34 364.63,-34.3 367.22,-34.65 369.83,-35.04"/>
<polygon fill="#de8f05" stroke="#de8f05" points="369.49,-38.53 379.94,-36.76 370.66,-31.63 369.49,-38.53"/>
</a>
</g>
<text text-anchor="middle" x="321.08" y="-37.8" font-family="Times,serif" font-size="14.00">Displacement0</text>
</g>
<!-- Calculix2&#45;Calculix&#45;Mesh2&#45;&gt;Calculix1&#45;Calculix&#45;Mesh2 -->
<g id="edge11" class="edge">
<title>Calculix2&#45;Calculix&#45;Mesh2&#45;&gt;Calculix1&#45;Calculix&#45;Mesh2</title>
<g id="a_edge11"><a xlink:title="vector">
<path fill="none" stroke="#de8f05" d="M499.27,-66.56C531.67,-75.06 572.44,-86.56 608.08,-99 610.78,-99.94 613.53,-100.94 616.3,-101.97"/>
<polygon fill="#de8f05" stroke="#de8f05" points="615.15,-105.28 625.74,-105.6 617.66,-98.74 615.15,-105.28"/>
</a>
</g>
<text text-anchor="middle" x="562.58" y="-102.8" font-family="Times,serif" font-size="14.00">Displacement0</text>
</g>
<!-- Calculix2&#45;Calculix&#45;Mesh2&#45;&gt;Calculix2 -->
<g id="edge5" class="edge">
<title>Calculix2&#45;Calculix&#45;Mesh2&#45;&gt;Calculix2</title>
<g id="a_edge5"><a xlink:title="vector">
<path fill="none" stroke="#de8f05" d="M379.8,-53.03C346.87,-53.61 305.82,-54.33 272.4,-54.91"/>
<polygon fill="#de8f05" stroke="#de8f05" points="272.22,-51.42 262.29,-55.09 272.35,-58.42 272.22,-51.42"/>
</a>
</g>
<text text-anchor="middle" x="321.08" y="-57.8" font-family="Times,serif" font-size="14.00">Force0</text>
</g>
</g>
</svg>
