<?xml version="1.0" encoding="UTF-8" standalone="no"?>
<!DOCTYPE svg PUBLIC "-//W3C//DTD SVG 1.1//EN"
 "http://www.w3.org/Graphics/SVG/1.1/DTD/svg11.dtd">
<!-- Generated by graphviz version 2.43.0 (0)
 -->
<!-- Title: G Pages: 1 -->
<svg width="491pt" height="346pt"
 viewBox="0.00 0.00 491.00 346.00" xmlns="http://www.w3.org/2000/svg" xmlns:xlink="http://www.w3.org/1999/xlink">
<g id="graph0" class="graph" transform="scale(1 1) rotate(0) translate(4 342)">
<title>G</title>
<polygon fill="white" stroke="transparent" points="-4,4 -4,-342 487,-342 487,4 -4,4"/>
<g id="clust1" class="cluster">
<title>cluster_m2n</title>
<polygon fill="none" stroke="black" points="7.5,-185 7.5,-244 111.5,-244 111.5,-185 7.5,-185"/>
<text text-anchor="middle" x="59.5" y="-228.8" font-family="Times,serif" font-size="14.00">Communicators</text>
</g>
<g id="clust2" class="cluster">
<title>cluster_cpl</title>
<polygon fill="none" stroke="black" points="0,-118 0,-177 119,-177 119,-118 0,-118"/>
<text text-anchor="middle" x="59.5" y="-161.8" font-family="Times,serif" font-size="14.00">Coupling Schemes</text>
</g>
<g id="clust3" class="cluster">
<title>cluster_Left</title>
<polygon fill="none" stroke="black" stroke-width="2" points="155,-193 155,-330 471,-330 471,-193 155,-193"/>
<text text-anchor="middle" x="313" y="-314.8" font-family="Times,serif" font-size="14.00">Left</text>
</g>
<g id="clust4" class="cluster">
<title>cluster_Right</title>
<polygon fill="none" stroke="black" stroke-width="2" points="158.94,-8 158.94,-145 475,-145 475,-8 158.94,-8"/>
<text text-anchor="middle" x="316.97" y="-129.8" font-family="Times,serif" font-size="14.00">Right</text>
</g>
<!-- m2n&#45;Left&#45;Right -->
<g id="node1" class="node">
<title>m2n&#45;Left&#45;Right</title>
<polygon fill="none" stroke="black" points="87.5,-221 31.5,-221 31.5,-217 27.5,-217 27.5,-213 31.5,-213 31.5,-193 27.5,-193 27.5,-189 31.5,-189 31.5,-185 87.5,-185 87.5,-221"/>
<polyline fill="none" stroke="black" points="31.5,-217 35.5,-217 35.5,-213 31.5,-213 "/>
<polyline fill="none" stroke="black" points="31.5,-193 35.5,-193 35.5,-189 31.5,-189 "/>
<text text-anchor="middle" x="59.5" y="-199.3" font-family="Times,serif" font-size="14.00">sockets</text>
</g>
<!-- Left -->
<g id="node3" class="node">
<title>Left</title>
<polygon fill="none" stroke="#0173b2" points="223.38,-277.54 223.38,-292.46 207.34,-303 184.66,-303 168.62,-292.46 168.62,-277.54 184.66,-267 207.34,-267 223.38,-277.54"/>
<polygon fill="none" stroke="#0173b2" points="227.37,-275.38 227.37,-294.62 208.53,-307 183.47,-307 164.63,-294.62 164.63,-275.38 183.47,-263 208.53,-263 227.37,-275.38"/>
<text text-anchor="middle" x="196" y="-281.3" font-family="Times,serif" font-size="14.00">Left</text>
</g>
<!-- m2n&#45;Left&#45;Right&#45;&gt;Left -->
<g id="edge7" class="edge">
<title>m2n&#45;Left&#45;Right&#45;&gt;Left</title>
<path fill="none" stroke="#0173b2" d="M96.46,-224.93C111.69,-234.21 129.67,-245.17 146.08,-255.17"/>
<polygon fill="#0173b2" stroke="#0173b2" points="98.08,-221.81 87.72,-219.59 94.43,-227.79 98.08,-221.81"/>
<polygon fill="#0173b2" stroke="#0173b2" points="144.64,-258.4 155,-260.61 148.29,-252.42 144.64,-258.4"/>
</g>
<!-- Right -->
<g id="node6" class="node">
<title>Right</title>
<polygon fill="none" stroke="#de8f05" points="229.12,-22.54 229.12,-37.46 209.72,-48 182.28,-48 162.88,-37.46 162.88,-22.54 182.28,-12 209.72,-12 229.12,-22.54"/>
<polygon fill="none" stroke="#de8f05" points="233.13,-20.17 233.13,-39.83 210.74,-52 181.26,-52 158.87,-39.83 158.87,-20.17 181.26,-8 210.74,-8 233.13,-20.17"/>
<text text-anchor="middle" x="196" y="-26.3" font-family="Times,serif" font-size="14.00">Right</text>
</g>
<!-- m2n&#45;Left&#45;Right&#45;&gt;Right -->
<g id="edge8" class="edge">
<title>m2n&#45;Left&#45;Right&#45;&gt;Right</title>
<path fill="none" stroke="#de8f05" d="M97.36,-194.97C105.36,-191.75 113.16,-187.26 119,-181 154.85,-142.61 127.06,-110.72 153.55,-64.44"/>
<polygon fill="#de8f05" stroke="#de8f05" points="95.96,-191.75 87.63,-198.29 98.23,-198.37 95.96,-191.75"/>
<polygon fill="#de8f05" stroke="#de8f05" points="156.54,-66.26 158.94,-55.94 150.63,-62.51 156.54,-66.26"/>
</g>
<!-- cpl&#45;Left&#45;Right -->
<g id="node2" class="node">
<title>cpl&#45;Left&#45;Right</title>
<polygon fill="none" stroke="black" points="106,-154 13,-154 13,-150 9,-150 9,-146 13,-146 13,-126 9,-126 9,-122 13,-122 13,-118 106,-118 106,-154"/>
<polyline fill="none" stroke="black" points="13,-150 17,-150 17,-146 13,-146 "/>
<polyline fill="none" stroke="black" points="13,-126 17,-126 17,-122 13,-122 "/>
<text text-anchor="middle" x="59.5" y="-132.3" font-family="Times,serif" font-size="14.00">serial&#45;implicit</text>
</g>
<!-- cpl&#45;Left&#45;Right&#45;&gt;Left -->
<g id="edge9" class="edge">
<title>cpl&#45;Left&#45;Right&#45;&gt;Left</title>
<path fill="none" stroke="#0173b2" d="M89.24,-154.07C99.53,-161.51 110.63,-170.79 119,-181 139.6,-206.14 133.77,-222.41 148.97,-245.78"/>
<polygon fill="#0173b2" stroke="#0173b2" points="146.26,-248.01 155,-254 151.91,-243.87 146.26,-248.01"/>
<text text-anchor="middle" x="100.24" y="-150.37" font-family="Times,serif" font-size="14.00">first</text>
</g>
<!-- cpl&#45;Left&#45;Right&#45;&gt;Right -->
<g id="edge10" class="edge">
<title>cpl&#45;Left&#45;Right&#45;&gt;Right</title>
<path fill="none" stroke="#de8f05" d="M83.36,-117.74C100.67,-103.93 125.27,-84.37 150.94,-64.19"/>
<polygon fill="#de8f05" stroke="#de8f05" points="153.23,-66.85 158.94,-57.92 148.91,-61.34 153.23,-66.85"/>
<text text-anchor="middle" x="64.36" y="-106.54" font-family="Times,serif" font-size="14.00">second</text>
</g>
<!-- Left&#45;Left&#45;Mesh -->
<g id="node4" class="node">
<title>Left&#45;Left&#45;Mesh</title>
<path fill="none" stroke="#0173b2" d="M471,-249.73C471,-251.53 451.05,-253 426.5,-253 401.95,-253 382,-251.53 382,-249.73 382,-249.73 382,-220.27 382,-220.27 382,-218.47 401.95,-217 426.5,-217 451.05,-217 471,-218.47 471,-220.27 471,-220.27 471,-249.73 471,-249.73"/>
<path fill="none" stroke="#0173b2" d="M471,-249.73C471,-247.92 451.05,-246.45 426.5,-246.45 401.95,-246.45 382,-247.92 382,-249.73"/>
<text text-anchor="start" x="390" y="-232.3" font-family="Times,serif" font-size="14.00">Left&#45;Mesh</text>
<text text-anchor="start" x="448" y="-232.3" font-family="Times,serif" font-style="italic" baseline-shift="super" font-size="14.00">2D</text>
</g>
<!-- Left&#45;&gt;Left&#45;Left&#45;Mesh -->
<g id="edge2" class="edge">
<title>Left&#45;&gt;Left&#45;Left&#45;Mesh</title>
<g id="a_edge2"><a xlink:title="scalar">
<path fill="none" stroke="#0173b2" d="M218.5,-269.34C229,-262.53 242.11,-255.15 255,-251 292.7,-238.85 337.33,-235.01 371.47,-234.12"/>
<polygon fill="#0173b2" stroke="#0173b2" points="371.78,-237.62 381.71,-233.94 371.65,-230.62 371.78,-237.62"/>
</a>
</g>
<text text-anchor="middle" x="307.5" y="-254.8" font-family="Times,serif" font-size="14.00">Temperature&#45;Left</text>
</g>
<!-- Left&#45;Left&#45;Mesh&#45;&gt;Left -->
<g id="edge1" class="edge">
<title>Left&#45;Left&#45;Mesh&#45;&gt;Left</title>
<g id="a_edge1"><a xlink:title="scalar">
<path fill="none" stroke="#0173b2" d="M398.19,-252.74C386.83,-259.27 373.21,-266.04 360,-270 319.59,-282.11 271.24,-285.22 237.75,-285.7"/>
<polygon fill="#0173b2" stroke="#0173b2" points="237.4,-282.2 227.42,-285.77 237.45,-289.2 237.4,-282.2"/>
</a>
</g>
<text text-anchor="middle" x="307.5" y="-288.8" font-family="Times,serif" font-size="14.00">Temperature&#45;Right</text>
</g>
<!-- Right&#45;Left&#45;Mesh -->
<g id="node8" class="node">
<title>Right&#45;Left&#45;Mesh</title>
<path fill="none" stroke="#0173b2" stroke-dasharray="5,2" d="M233,-117.48C233,-120.11 216.42,-122.25 196,-122.25 175.58,-122.25 159,-120.11 159,-117.48 159,-117.48 159,-74.52 159,-74.52 159,-71.89 175.58,-69.75 196,-69.75 216.42,-69.75 233,-71.89 233,-74.52 233,-74.52 233,-117.48 233,-117.48"/>
<path fill="none" stroke="#0173b2" stroke-dasharray="5,2" d="M233,-117.48C233,-114.84 216.42,-112.7 196,-112.7 175.58,-112.7 159,-114.84 159,-117.48"/>
<text text-anchor="middle" x="196" y="-99.8" font-family="Times,serif" font-size="14.00">Left&#45;Mesh</text>
<text text-anchor="middle" x="196" y="-84.8" font-family="Times,serif" font-size="14.00">from Left</text>
</g>
<!-- Left&#45;Left&#45;Mesh&#45;&gt;Right&#45;Left&#45;Mesh -->
<g id="edge11" class="edge">
<title>Left&#45;Left&#45;Mesh&#45;&gt;Right&#45;Left&#45;Mesh</title>
<g id="a_edge11"><a xlink:title="scalar initialized">
<path fill="none" stroke="#0173b2" stroke-width="2" d="M418.28,-216.8C408.47,-194.51 388.81,-157.23 360,-137 320.65,-109.37 301.61,-122.8 255,-111 251.14,-110.02 247.14,-109 243.12,-107.97"/>
<polygon fill="#0173b2" stroke="#0173b2" stroke-width="2" points="243.74,-104.52 233.18,-105.42 242,-111.3 243.74,-104.52"/>
</a>
</g>
<text text-anchor="middle" x="307.5" y="-140.8" font-family="Times,serif" font-size="14.00">Temperature&#45;Left</text>
</g>
<!-- Left&#45;Right&#45;Mesh -->
<g id="node5" class="node">
<title>Left&#45;Right&#45;Mesh</title>
<path fill="none" stroke="#de8f05" stroke-dasharray="5,2" d="M237,-240.48C237,-243.11 218.62,-245.25 196,-245.25 173.38,-245.25 155,-243.11 155,-240.48 155,-240.48 155,-197.52 155,-197.52 155,-194.89 173.38,-192.75 196,-192.75 218.62,-192.75 237,-194.89 237,-197.52 237,-197.52 237,-240.48 237,-240.48"/>
<path fill="none" stroke="#de8f05" stroke-dasharray="5,2" d="M237,-240.48C237,-237.84 218.62,-235.7 196,-235.7 173.38,-235.7 155,-237.84 155,-240.48"/>
<text text-anchor="middle" x="196" y="-222.8" font-family="Times,serif" font-size="14.00">Right&#45;Mesh</text>
<text text-anchor="middle" x="196" y="-207.8" font-family="Times,serif" font-size="14.00">from Right</text>
</g>
<!-- Left&#45;Right&#45;Mesh&#45;&gt;Left&#45;Left&#45;Mesh -->
<g id="edge3" class="edge">
<title>Left&#45;Right&#45;Mesh&#45;&gt;Left&#45;Left&#45;Mesh</title>
<path fill="none" stroke="#0173b2" d="M237.06,-215.27C270.17,-212.95 318.35,-211.38 360,-217 363.9,-217.53 367.89,-218.22 371.89,-219.03"/>
<polygon fill="#0173b2" stroke="#0173b2" points="371.27,-222.48 381.79,-221.25 372.8,-215.65 371.27,-222.48"/>
<text text-anchor="middle" x="307.5" y="-220.8" font-family="Times,serif" font-size="14.00">nearest&#45;neighbor</text>
</g>
<!-- Right&#45;Right&#45;Mesh -->
<g id="node7" class="node">
<title>Right&#45;Right&#45;Mesh</title>
<path fill="none" stroke="#de8f05" d="M475,-97.73C475,-99.53 453.26,-101 426.5,-101 399.74,-101 378,-99.53 378,-97.73 378,-97.73 378,-68.27 378,-68.27 378,-66.47 399.74,-65 426.5,-65 453.26,-65 475,-66.47 475,-68.27 475,-68.27 475,-97.73 475,-97.73"/>
<path fill="none" stroke="#de8f05" d="M475,-97.73C475,-95.92 453.26,-94.45 426.5,-94.45 399.74,-94.45 378,-95.92 378,-97.73"/>
<text text-anchor="start" x="386" y="-80.3" font-family="Times,serif" font-size="14.00">Right&#45;Mesh</text>
<text text-anchor="start" x="452" y="-80.3" font-family="Times,serif" font-style="italic" baseline-shift="super" font-size="14.00">2D</text>
</g>
<!-- Right&#45;&gt;Right&#45;Right&#45;Mesh -->
<g id="edge5" class="edge">
<title>Right&#45;&gt;Right&#45;Right&#45;Mesh</title>
<g id="a_edge5"><a xlink:title="scalar">
<path fill="none" stroke="#de8f05" d="M233.29,-38.06C266.35,-45.44 316.5,-56.75 360,-67 362.63,-67.62 365.32,-68.26 368.04,-68.91"/>
<polygon fill="#de8f05" stroke="#de8f05" points="367.4,-72.35 377.94,-71.29 369.04,-65.55 367.4,-72.35"/>
</a>
</g>
<text text-anchor="middle" x="307.5" y="-70.8" font-family="Times,serif" font-size="14.00">Temperature&#45;Right</text>
</g>
<!-- Right&#45;Right&#45;Mesh&#45;&gt;Left&#45;Right&#45;Mesh -->
<g id="edge12" class="edge">
<title>Right&#45;Right&#45;Mesh&#45;&gt;Left&#45;Right&#45;Mesh</title>
<g id="a_edge12"><a xlink:title="scalar initialized">
<path fill="none" stroke="#de8f05" stroke-width="2" d="M413.18,-101.23C401.28,-117.59 381.88,-141.24 360,-156 318.85,-183.75 301.14,-175.73 255,-194 252.19,-195.11 249.3,-196.28 246.4,-197.47"/>
<polygon fill="#de8f05" stroke="#de8f05" stroke-width="2" points="245,-194.26 237.12,-201.34 247.7,-200.72 245,-194.26"/>
</a>
</g>
<text text-anchor="middle" x="307.5" y="-197.8" font-family="Times,serif" font-size="14.00">Temperature&#45;Right</text>
</g>
<!-- Right&#45;Right&#45;Mesh&#45;&gt;Right -->
<g id="edge4" class="edge">
<title>Right&#45;Right&#45;Mesh&#45;&gt;Right</title>
<g id="a_edge4"><a xlink:title="scalar">
<path fill="none" stroke="#de8f05" d="M410.71,-64.78C398.66,-51.48 380.35,-34.51 360,-27 322.46,-13.14 276.67,-15.5 243.2,-20.4"/>
<polygon fill="#de8f05" stroke="#de8f05" points="242.55,-16.96 233.22,-21.98 243.65,-23.87 242.55,-16.96"/>
</a>
</g>
<text text-anchor="middle" x="307.5" y="-30.8" font-family="Times,serif" font-size="14.00">Temperature&#45;Left</text>
</g>
<!-- Right&#45;Left&#45;Mesh&#45;&gt;Right&#45;Right&#45;Mesh -->
<g id="edge6" class="edge">
<title>Right&#45;Left&#45;Mesh&#45;&gt;Right&#45;Right&#45;Mesh</title>
<path fill="none" stroke="#de8f05" d="M233.21,-93.94C269.36,-91.88 325.49,-88.69 367.79,-86.28"/>
<polygon fill="#de8f05" stroke="#de8f05" points="368.17,-89.77 377.96,-85.7 367.77,-82.78 368.17,-89.77"/>
<text text-anchor="middle" x="307.5" y="-95.8" font-family="Times,serif" font-size="14.00">nearest&#45;neighbor</text>
</g>
</g>
</svg>
