<?xml version="1.0" encoding="UTF-8" standalone="no"?>
<!DOCTYPE svg PUBLIC "-//W3C//DTD SVG 1.1//EN"
 "http://www.w3.org/Graphics/SVG/1.1/DTD/svg11.dtd">
<!-- Generated by graphviz version 2.43.0 (0)
 -->
<!-- Title: G Pages: 1 -->
<svg width="770pt" height="314pt"
 viewBox="0.00 0.00 770.00 314.00" xmlns="http://www.w3.org/2000/svg" xmlns:xlink="http://www.w3.org/1999/xlink">
<g id="graph0" class="graph" transform="scale(1 1) rotate(0) translate(4 310)">
<title>G</title>
<polygon fill="white" stroke="transparent" points="-4,4 -4,-310 766,-310 766,4 -4,4"/>
<g id="clust1" class="cluster">
<title>cluster_m2n</title>
<polygon fill="none" stroke="black" points="228.5,-194 228.5,-253 332.5,-253 332.5,-194 228.5,-194"/>
<text text-anchor="middle" x="280.5" y="-237.8" font-family="Times,serif" font-size="14.00">Communicators</text>
</g>
<g id="clust2" class="cluster">
<title>cluster_cpl</title>
<polygon fill="none" stroke="black" points="221,-131 221,-190 340,-190 340,-131 221,-131"/>
<text text-anchor="middle" x="280.5" y="-174.8" font-family="Times,serif" font-size="14.00">Coupling Schemes</text>
</g>
<g id="clust3" class="cluster">
<title>cluster_Fluid</title>
<polygon fill="none" stroke="black" stroke-width="2" points="452,-123 452,-260 754,-260 754,-123 452,-123"/>
<text text-anchor="middle" x="603" y="-244.8" font-family="Times,serif" font-size="14.00">Fluid</text>
</g>
<g id="clust4" class="cluster">
<title>cluster_Solid</title>
<polygon fill="none" stroke="black" stroke-width="2" points="8,-8 8,-123 754,-123 754,-8 8,-8"/>
<text text-anchor="middle" x="381" y="-107.8" font-family="Times,serif" font-size="14.00">Solid</text>
</g>
<!-- m2n&#45;Fluid&#45;Solid -->
<g id="node1" class="node">
<title>m2n&#45;Fluid&#45;Solid</title>
<polygon fill="none" stroke="black" points="308.5,-230 252.5,-230 252.5,-226 248.5,-226 248.5,-222 252.5,-222 252.5,-202 248.5,-202 248.5,-198 252.5,-198 252.5,-194 308.5,-194 308.5,-230"/>
<polyline fill="none" stroke="black" points="252.5,-226 256.5,-226 256.5,-222 252.5,-222 "/>
<polyline fill="none" stroke="black" points="252.5,-202 256.5,-202 256.5,-198 252.5,-198 "/>
<text text-anchor="middle" x="280.5" y="-208.3" font-family="Times,serif" font-size="14.00">sockets</text>
</g>
<!-- Fluid -->
<g id="node3" class="node">
<title>Fluid</title>
<polygon fill="none" stroke="#0173b2" points="523.8,-207.54 523.8,-222.46 505.17,-233 478.83,-233 460.2,-222.46 460.2,-207.54 478.83,-197 505.17,-197 523.8,-207.54"/>
<polygon fill="none" stroke="#0173b2" points="527.82,-205.22 527.82,-224.78 506.23,-237 477.77,-237 456.18,-224.78 456.18,-205.22 477.77,-193 506.23,-193 527.82,-205.22"/>
<text text-anchor="middle" x="492" y="-211.3" font-family="Times,serif" font-size="14.00">Fluid</text>
</g>
<!-- m2n&#45;Fluid&#45;Solid&#45;&gt;Fluid -->
<g id="edge8" class="edge">
<title>m2n&#45;Fluid&#45;Solid&#45;&gt;Fluid</title>
<path fill="none" stroke="#0173b2" d="M319.28,-212.54C354.89,-213.05 408.29,-213.82 446.07,-214.36"/>
<polygon fill="#0173b2" stroke="#0173b2" points="318.94,-209.04 308.89,-212.39 318.84,-216.04 318.94,-209.04"/>
<polygon fill="#0173b2" stroke="#0173b2" points="441.92,-217.76 452,-214.5 442.09,-210.76 441.92,-217.76"/>
</g>
<!-- Solid -->
<g id="node6" class="node">
<title>Solid</title>
<polygon fill="none" stroke="#de8f05" points="523.8,-70.54 523.8,-85.46 505.17,-96 478.83,-96 460.2,-85.46 460.2,-70.54 478.83,-60 505.17,-60 523.8,-70.54"/>
<polygon fill="none" stroke="#de8f05" points="527.82,-68.22 527.82,-87.78 506.23,-100 477.77,-100 456.18,-87.78 456.18,-68.22 477.77,-56 506.23,-56 527.82,-68.22"/>
<text text-anchor="middle" x="492" y="-74.3" font-family="Times,serif" font-size="14.00">Solid</text>
</g>
<!-- m2n&#45;Fluid&#45;Solid&#45;&gt;Solid -->
<g id="edge9" class="edge">
<title>m2n&#45;Fluid&#45;Solid&#45;&gt;Solid</title>
<path fill="none" stroke="#de8f05" d="M318.37,-201.55C327.62,-198.36 337.36,-194.48 346,-190 377.33,-173.74 408.74,-150.54 434.27,-129.46"/>
<polygon fill="#de8f05" stroke="#de8f05" points="317.02,-198.31 308.6,-204.74 319.19,-204.96 317.02,-198.31"/>
<polygon fill="#de8f05" stroke="#de8f05" points="436.57,-132.1 442,-123 432.08,-126.73 436.57,-132.1"/>
</g>
<!-- cpl&#45;Fluid&#45;Solid -->
<g id="node2" class="node">
<title>cpl&#45;Fluid&#45;Solid</title>
<polygon fill="none" stroke="black" points="327,-167 234,-167 234,-163 230,-163 230,-159 234,-159 234,-139 230,-139 230,-135 234,-135 234,-131 327,-131 327,-167"/>
<polyline fill="none" stroke="black" points="234,-163 238,-163 238,-159 234,-159 "/>
<polyline fill="none" stroke="black" points="234,-139 238,-139 238,-135 234,-135 "/>
<text text-anchor="middle" x="280.5" y="-145.3" font-family="Times,serif" font-size="14.00">serial&#45;implicit</text>
</g>
<!-- cpl&#45;Fluid&#45;Solid&#45;&gt;Fluid -->
<g id="edge10" class="edge">
<title>cpl&#45;Fluid&#45;Solid&#45;&gt;Fluid</title>
<path fill="none" stroke="#0173b2" d="M327.22,-163.4C362.94,-174.66 412.26,-190.2 447.43,-201.27"/>
<polygon fill="#0173b2" stroke="#0173b2" points="441.46,-202.34 452,-203.41 444.43,-196 441.46,-202.34"/>
<text text-anchor="middle" x="338.22" y="-152.2" font-family="Times,serif" font-size="14.00">first</text>
</g>
<!-- cpl&#45;Fluid&#45;Solid&#45;&gt;Solid -->
<g id="edge11" class="edge">
<title>cpl&#45;Fluid&#45;Solid&#45;&gt;Solid</title>
<path fill="none" stroke="#de8f05" d="M327.1,-135.1C335.86,-132.38 345.47,-129.36 355.57,-126.14"/>
<polygon fill="#de8f05" stroke="#de8f05" points="356.94,-129.38 365.4,-123 354.81,-122.71 356.94,-129.38"/>
<text text-anchor="middle" x="346.1" y="-123.9" font-family="Times,serif" font-size="14.00">second</text>
</g>
<!-- Fluid&#45;Fluid&#45;Mesh -->
<g id="node4" class="node">
<title>Fluid&#45;Fluid&#45;Mesh</title>
<path fill="none" stroke="#0173b2" d="M754,-215.73C754,-217.53 732.71,-219 706.5,-219 680.29,-219 659,-217.53 659,-215.73 659,-215.73 659,-186.27 659,-186.27 659,-184.47 680.29,-183 706.5,-183 732.71,-183 754,-184.47 754,-186.27 754,-186.27 754,-215.73 754,-215.73"/>
<path fill="none" stroke="#0173b2" d="M754,-215.73C754,-213.92 732.71,-212.45 706.5,-212.45 680.29,-212.45 659,-213.92 659,-215.73"/>
<text text-anchor="start" x="667" y="-198.3" font-family="Times,serif" font-size="14.00">Fluid&#45;Mesh</text>
<text text-anchor="start" x="731" y="-198.3" font-family="Times,serif" font-style="italic" baseline-shift="super" font-size="14.00">2D</text>
</g>
<!-- Fluid&#45;&gt;Fluid&#45;Fluid&#45;Mesh -->
<g id="edge2" class="edge">
<title>Fluid&#45;&gt;Fluid&#45;Fluid&#45;Mesh</title>
<g id="a_edge2"><a xlink:title="scalar">
<path fill="none" stroke="#0173b2" d="M517.55,-199.32C527.26,-193.98 538.77,-188.69 550,-186 582.09,-178.31 618.79,-181.31 648.48,-186.59"/>
<polygon fill="#0173b2" stroke="#0173b2" points="648.19,-190.1 658.67,-188.53 649.51,-183.22 648.19,-190.1"/>
</a>
</g>
<text text-anchor="middle" x="595.5" y="-189.8" font-family="Times,serif" font-size="14.00">Temperature</text>
</g>
<!-- Fluid&#45;Fluid&#45;Mesh&#45;&gt;Fluid -->
<g id="edge1" class="edge">
<title>Fluid&#45;Fluid&#45;Mesh&#45;&gt;Fluid</title>
<g id="a_edge1"><a xlink:title="scalar">
<path fill="none" stroke="#0173b2" d="M658.8,-204.08C622.93,-206.44 573.66,-209.69 538.17,-212.02"/>
<polygon fill="#0173b2" stroke="#0173b2" points="537.84,-208.54 528.09,-212.69 538.3,-215.52 537.84,-208.54"/>
</a>
</g>
<text text-anchor="middle" x="595.5" y="-213.8" font-family="Times,serif" font-size="14.00">Heat&#45;Flux</text>
</g>
<!-- Solid&#45;Fluid&#45;Mesh -->
<g id="node9" class="node">
<title>Solid&#45;Fluid&#45;Mesh</title>
<path fill="none" stroke="#0173b2" stroke-dasharray="5,2" d="M88,-95.48C88,-98.11 70.07,-100.25 48,-100.25 25.93,-100.25 8,-98.11 8,-95.48 8,-95.48 8,-52.52 8,-52.52 8,-49.89 25.93,-47.75 48,-47.75 70.07,-47.75 88,-49.89 88,-52.52 88,-52.52 88,-95.48 88,-95.48"/>
<path fill="none" stroke="#0173b2" stroke-dasharray="5,2" d="M88,-95.48C88,-92.84 70.07,-90.7 48,-90.7 25.93,-90.7 8,-92.84 8,-95.48"/>
<text text-anchor="middle" x="48" y="-77.8" font-family="Times,serif" font-size="14.00">Fluid&#45;Mesh</text>
<text text-anchor="middle" x="48" y="-62.8" font-family="Times,serif" font-size="14.00">from Fluid</text>
</g>
<!-- Fluid&#45;Fluid&#45;Mesh&#45;&gt;Solid&#45;Fluid&#45;Mesh -->
<g id="edge12" class="edge">
<title>Fluid&#45;Fluid&#45;Mesh&#45;&gt;Solid&#45;Fluid&#45;Mesh</title>
<g id="a_edge12"><a xlink:title="scalar">
<path fill="none" stroke="#0173b2" d="M669.94,-218.36C660.69,-222.34 650.61,-226.21 641,-229 458.91,-281.78 388.97,-326.35 215,-251 148.23,-222.08 96,-151.62 69.08,-108.83"/>
<polygon fill="#0173b2" stroke="#0173b2" points="71.95,-106.82 63.72,-100.14 65.99,-110.49 71.95,-106.82"/>
</a>
</g>
<text text-anchor="middle" x="399" y="-294.8" font-family="Times,serif" font-size="14.00">Temperature</text>
</g>
<!-- Fluid&#45;Solid&#45;Mesh -->
<g id="node5" class="node">
<title>Fluid&#45;Solid&#45;Mesh</title>
<path fill="none" stroke="#de8f05" stroke-dasharray="5,2" d="M532,-170.48C532,-173.11 514.07,-175.25 492,-175.25 469.93,-175.25 452,-173.11 452,-170.48 452,-170.48 452,-127.52 452,-127.52 452,-124.89 469.93,-122.75 492,-122.75 514.07,-122.75 532,-124.89 532,-127.52 532,-127.52 532,-170.48 532,-170.48"/>
<path fill="none" stroke="#de8f05" stroke-dasharray="5,2" d="M532,-170.48C532,-167.84 514.07,-165.7 492,-165.7 469.93,-165.7 452,-167.84 452,-170.48"/>
<text text-anchor="middle" x="492" y="-152.8" font-family="Times,serif" font-size="14.00">Solid&#45;Mesh</text>
<text text-anchor="middle" x="492" y="-137.8" font-family="Times,serif" font-size="14.00">from Solid</text>
</g>
<!-- Fluid&#45;Solid&#45;Mesh&#45;&gt;Fluid&#45;Fluid&#45;Mesh -->
<g id="edge3" class="edge">
<title>Fluid&#45;Solid&#45;Mesh&#45;&gt;Fluid&#45;Fluid&#45;Mesh</title>
<path fill="none" stroke="#0173b2" d="M532.29,-147.66C562.69,-147.76 605.45,-150.39 641,-162 652.05,-165.61 663.19,-171.41 673.04,-177.44"/>
<polygon fill="#0173b2" stroke="#0173b2" points="671.37,-180.53 681.67,-182.99 675.16,-174.64 671.37,-180.53"/>
<text text-anchor="middle" x="595.5" y="-165.8" font-family="Times,serif" font-size="14.00">nearest&#45;neighbor</text>
</g>
<!-- Solid&#45;Solid&#45;Mesh -->
<g id="node7" class="node">
<title>Solid&#45;Solid&#45;Mesh</title>
<path fill="none" stroke="#de8f05" d="M754,-90.73C754,-92.53 732.71,-94 706.5,-94 680.29,-94 659,-92.53 659,-90.73 659,-90.73 659,-61.27 659,-61.27 659,-59.47 680.29,-58 706.5,-58 732.71,-58 754,-59.47 754,-61.27 754,-61.27 754,-90.73 754,-90.73"/>
<path fill="none" stroke="#de8f05" d="M754,-90.73C754,-88.92 732.71,-87.45 706.5,-87.45 680.29,-87.45 659,-88.92 659,-90.73"/>
<text text-anchor="start" x="667" y="-73.3" font-family="Times,serif" font-size="14.00">Solid&#45;Mesh</text>
<text text-anchor="start" x="731" y="-73.3" font-family="Times,serif" font-style="italic" baseline-shift="super" font-size="14.00">2D</text>
</g>
<!-- Solid&#45;&gt;Solid&#45;Solid&#45;Mesh -->
<g id="edge5" class="edge">
<title>Solid&#45;&gt;Solid&#45;Solid&#45;Mesh</title>
<g id="a_edge5"><a xlink:title="scalar">
<path fill="none" stroke="#de8f05" d="M527.91,-73.03C535.19,-72.18 542.83,-71.44 550,-71 590.37,-68.53 600.59,-69.44 641,-71 643.5,-71.1 646.06,-71.21 648.64,-71.35"/>
<polygon fill="#de8f05" stroke="#de8f05" points="648.48,-74.85 658.67,-71.94 648.89,-67.86 648.48,-74.85"/>
</a>
</g>
<text text-anchor="middle" x="595.5" y="-74.8" font-family="Times,serif" font-size="14.00">Heat&#45;Flux</text>
</g>
<!-- Solid&#45;Solid&#45;Mesh&#45;&gt;Fluid&#45;Solid&#45;Mesh -->
<g id="edge13" class="edge">
<title>Solid&#45;Solid&#45;Mesh&#45;&gt;Fluid&#45;Solid&#45;Mesh</title>
<g id="a_edge13"><a xlink:title="scalar">
<path fill="none" stroke="#de8f05" d="M658.85,-91.78C627.95,-102.26 586.52,-116.37 550,-129 547.31,-129.93 544.54,-130.89 541.75,-131.86"/>
<polygon fill="#de8f05" stroke="#de8f05" points="540.52,-128.58 532.23,-135.18 542.83,-135.19 540.52,-128.58"/>
</a>
</g>
<text text-anchor="middle" x="595.5" y="-132.8" font-family="Times,serif" font-size="14.00">Heat&#45;Flux</text>
</g>
<!-- Solid&#45;Solid&#45;Mesh&#45;nodes -->
<g id="node8" class="node">
<title>Solid&#45;Solid&#45;Mesh&#45;nodes</title>
<path fill="none" stroke="#de8f05" d="M346,-96.73C346,-98.53 316.64,-100 280.5,-100 244.36,-100 215,-98.53 215,-96.73 215,-96.73 215,-67.27 215,-67.27 215,-65.47 244.36,-64 280.5,-64 316.64,-64 346,-65.47 346,-67.27 346,-67.27 346,-96.73 346,-96.73"/>
<path fill="none" stroke="#de8f05" d="M346,-96.73C346,-94.92 316.64,-93.45 280.5,-93.45 244.36,-93.45 215,-94.92 215,-96.73"/>
<text text-anchor="start" x="223" y="-79.3" font-family="Times,serif" font-size="14.00">Solid&#45;Mesh&#45;nodes</text>
<text text-anchor="start" x="323" y="-79.3" font-family="Times,serif" font-style="italic" baseline-shift="super" font-size="14.00">2D</text>
</g>
<!-- Solid&#45;Solid&#45;Mesh&#45;nodes&#45;&gt;Solid -->
<g id="edge4" class="edge">
<title>Solid&#45;Solid&#45;Mesh&#45;nodes&#45;&gt;Solid</title>
<g id="a_edge4"><a xlink:title="scalar">
<path fill="none" stroke="#de8f05" d="M346.07,-80.77C378.4,-80.15 416.76,-79.42 445.89,-78.86"/>
<polygon fill="#de8f05" stroke="#de8f05" points="446.25,-82.36 456.18,-78.66 446.11,-75.36 446.25,-82.36"/>
</a>
</g>
<text text-anchor="middle" x="399" y="-84.8" font-family="Times,serif" font-size="14.00">Temperature</text>
</g>
<!-- Solid&#45;Fluid&#45;Mesh&#45;&gt;Solid&#45;Solid&#45;Mesh&#45;nodes -->
<g id="edge7" class="edge">
<title>Solid&#45;Fluid&#45;Mesh&#45;&gt;Solid&#45;Solid&#45;Mesh&#45;nodes</title>
<path fill="none" stroke="#de8f05" d="M88.1,-75.36C119.94,-76.46 165.8,-78.05 204.65,-79.4"/>
<polygon fill="#de8f05" stroke="#de8f05" points="204.77,-82.91 214.89,-79.76 205.01,-75.91 204.77,-82.91"/>
<text text-anchor="middle" x="151.5" y="-82.8" font-family="Times,serif" font-size="14.00">nearest&#45;neighbor</text>
</g>
<!-- Solid&#45;WP&#45;MyWatchPoint -->
<g id="node10" class="node">
<title>Solid&#45;WP&#45;MyWatchPoint</title>
<polygon fill="none" stroke="#de8f05" points="324.5,-46 230.5,-46 230.5,-8 330.5,-8 330.5,-40 324.5,-46"/>
<polyline fill="none" stroke="#de8f05" points="324.5,-46 324.5,-40 "/>
<polyline fill="none" stroke="#de8f05" points="330.5,-40 324.5,-40 "/>
<text text-anchor="middle" x="280.5" y="-30.8" font-family="Times,serif" font-size="14.00">MyWatchPoint</text>
<text text-anchor="middle" x="280.5" y="-15.8" font-family="Times,serif" font-size="14.00">at (0.5; 0.0)</text>
</g>
<!-- Solid&#45;WP&#45;MyWatchPoint&#45;&gt;Solid -->
<g id="edge6" class="edge">
<title>Solid&#45;WP&#45;MyWatchPoint&#45;&gt;Solid</title>
<path fill="none" stroke="#de8f05" d="M330.62,-38.96C365.58,-47.47 412.19,-58.82 446.15,-67.08"/>
<polygon fill="#de8f05" stroke="#de8f05" points="445.72,-70.58 456.26,-69.54 447.37,-63.78 445.72,-70.58"/>
</g>
</g>
</svg>
