<?xml version="1.0" encoding="UTF-8" standalone="no"?>
<!DOCTYPE svg PUBLIC "-//W3C//DTD SVG 1.1//EN"
 "http://www.w3.org/Graphics/SVG/1.1/DTD/svg11.dtd">
<!-- Generated by graphviz version 2.43.0 (0)
 -->
<!-- Title: G Pages: 1 -->
<svg width="688pt" height="1125pt"
 viewBox="0.00 0.00 688.00 1125.21" xmlns="http://www.w3.org/2000/svg" xmlns:xlink="http://www.w3.org/1999/xlink">
<g id="graph0" class="graph" transform="scale(1 1) rotate(0) translate(4 1121.21)">
<title>G</title>
<polygon fill="white" stroke="transparent" points="-4,4 -4,-1121.21 684,-1121.21 684,4 -4,4"/>
<g id="clust1" class="cluster">
<title>cluster_m2n</title>
<polygon fill="none" stroke="black" points="7,-504.21 7,-617.21 111,-617.21 111,-504.21 7,-504.21"/>
<text text-anchor="middle" x="59" y="-602.01" font-family="Times,serif" font-size="14.00">Communicators</text>
</g>
<g id="clust2" class="cluster">
<title>cluster_cpl</title>
<polygon fill="none" stroke="black" points="0,-387.21 0,-500.21 119,-500.21 119,-387.21 0,-387.21"/>
<text text-anchor="middle" x="59.5" y="-485.01" font-family="Times,serif" font-size="14.00">Coupling Schemes</text>
</g>
<g id="clust3" class="cluster">
<title>cluster_Solid</title>
<polygon fill="none" stroke="black" stroke-width="2" points="155,-711.21 155,-1109.21 672,-1109.21 672,-711.21 155,-711.21"/>
<text text-anchor="middle" x="413.5" y="-1094.01" font-family="Times,serif" font-size="14.00">Solid</text>
</g>
<g id="clust4" class="cluster">
<title>cluster_Fluid&#45;Inner</title>
<polygon fill="none" stroke="black" stroke-width="2" points="156,-237.21 156,-445.21 671,-445.21 671,-237.21 156,-237.21"/>
<text text-anchor="middle" x="413.5" y="-430.01" font-family="Times,serif" font-size="14.00">Fluid&#45;Inner</text>
</g>
<g id="clust5" class="cluster">
<title>cluster_Fluid&#45;Outer</title>
<polygon fill="none" stroke="black" stroke-width="2" points="155,-9.21 155,-217.21 672,-217.21 672,-9.21 155,-9.21"/>
<text text-anchor="middle" x="413.5" y="-202.01" font-family="Times,serif" font-size="14.00">Fluid&#45;Outer</text>
</g>
<!-- m2n&#45;Solid&#45;Fluid&#45;Inner -->
<g id="node1" class="node">
<title>m2n&#45;Solid&#45;Fluid&#45;Inner</title>
<polygon fill="none" stroke="black" points="87,-594.21 31,-594.21 31,-590.21 27,-590.21 27,-586.21 31,-586.21 31,-566.21 27,-566.21 27,-562.21 31,-562.21 31,-558.21 87,-558.21 87,-594.21"/>
<polyline fill="none" stroke="black" points="31,-590.21 35,-590.21 35,-586.21 31,-586.21 "/>
<polyline fill="none" stroke="black" points="31,-566.21 35,-566.21 35,-562.21 31,-562.21 "/>
<text text-anchor="middle" x="59" y="-572.51" font-family="Times,serif" font-size="14.00">sockets</text>
</g>
<!-- Solid -->
<g id="node5" class="node">
<title>Solid</title>
<polygon fill="none" stroke="#0173b2" points="250.8,-865.75 250.8,-880.66 232.17,-891.21 205.83,-891.21 187.2,-880.66 187.2,-865.75 205.83,-855.21 232.17,-855.21 250.8,-865.75"/>
<polygon fill="none" stroke="#0173b2" points="254.82,-863.42 254.82,-882.99 233.23,-895.21 204.77,-895.21 183.18,-882.99 183.18,-863.42 204.77,-851.21 233.23,-851.21 254.82,-863.42"/>
<text text-anchor="middle" x="219" y="-869.51" font-family="Times,serif" font-size="14.00">Solid</text>
</g>
<!-- m2n&#45;Solid&#45;Fluid&#45;Inner&#45;&gt;Solid -->
<g id="edge21" class="edge">
<title>m2n&#45;Solid&#45;Fluid&#45;Inner&#45;&gt;Solid</title>
<path fill="none" stroke="#0173b2" d="M63.07,-604.38C69.91,-655.19 90.63,-763.42 148.18,-834.2"/>
<polygon fill="#0173b2" stroke="#0173b2" points="66.53,-603.88 61.8,-594.4 59.58,-604.76 66.53,-603.88"/>
<polygon fill="#0173b2" stroke="#0173b2" points="145.85,-836.86 155,-842.21 151.18,-832.32 145.85,-836.86"/>
</g>
<!-- Fluid&#45;Inner -->
<g id="node10" class="node">
<title>Fluid&#45;Inner</title>
<polygon fill="none" stroke="#de8f05" points="273.75,-322.75 273.75,-337.66 241.68,-348.21 196.32,-348.21 164.25,-337.66 164.25,-322.75 196.32,-312.21 241.68,-312.21 273.75,-322.75"/>
<polygon fill="none" stroke="#de8f05" points="277.75,-319.85 277.75,-340.56 242.32,-352.21 195.68,-352.21 160.25,-340.56 160.25,-319.85 195.68,-308.21 242.32,-308.21 277.75,-319.85"/>
<text text-anchor="middle" x="219" y="-326.51" font-family="Times,serif" font-size="14.00">Fluid&#45;Inner</text>
</g>
<!-- m2n&#45;Solid&#45;Fluid&#45;Inner&#45;&gt;Fluid&#45;Inner -->
<g id="edge22" class="edge">
<title>m2n&#45;Solid&#45;Fluid&#45;Inner&#45;&gt;Fluid&#45;Inner</title>
<path fill="none" stroke="#de8f05" d="M96.61,-565.69C105,-561.73 113.16,-556.38 119,-549.21 141.72,-521.27 130.06,-505.54 137,-470.21 145.79,-425.41 128.5,-403.77 150.34,-368.23"/>
<polygon fill="#de8f05" stroke="#de8f05" points="95.06,-562.54 87.14,-569.59 97.72,-569.02 95.06,-562.54"/>
<polygon fill="#de8f05" stroke="#de8f05" points="153.27,-370.14 156,-359.91 147.48,-366.21 153.27,-370.14"/>
</g>
<!-- m2n&#45;Solid&#45;Fluid&#45;Outer -->
<g id="node2" class="node">
<title>m2n&#45;Solid&#45;Fluid&#45;Outer</title>
<polygon fill="none" stroke="black" points="87,-540.21 31,-540.21 31,-536.21 27,-536.21 27,-532.21 31,-532.21 31,-512.21 27,-512.21 27,-508.21 31,-508.21 31,-504.21 87,-504.21 87,-540.21"/>
<polyline fill="none" stroke="black" points="31,-536.21 35,-536.21 35,-532.21 31,-532.21 "/>
<polyline fill="none" stroke="black" points="31,-512.21 35,-512.21 35,-508.21 31,-508.21 "/>
<text text-anchor="middle" x="59" y="-518.51" font-family="Times,serif" font-size="14.00">sockets</text>
</g>
<!-- m2n&#45;Solid&#45;Fluid&#45;Outer&#45;&gt;Solid -->
<g id="edge29" class="edge">
<title>m2n&#45;Solid&#45;Fluid&#45;Outer&#45;&gt;Solid</title>
<path fill="none" stroke="#0173b2" d="M96.4,-531.99C105.05,-535.98 113.38,-541.53 119,-549.21 194.46,-652.28 85.05,-731.02 149.38,-833.8"/>
<polygon fill="#0173b2" stroke="#0173b2" points="97.6,-528.7 87.01,-528.24 95.01,-535.2 97.6,-528.7"/>
<polygon fill="#0173b2" stroke="#0173b2" points="146.53,-835.84 155,-842.21 152.35,-831.95 146.53,-835.84"/>
</g>
<!-- Fluid&#45;Outer -->
<g id="node13" class="node">
<title>Fluid&#45;Outer</title>
<polygon fill="none" stroke="#029e73" points="275.07,-94.75 275.07,-109.66 242.23,-120.21 195.77,-120.21 162.93,-109.66 162.93,-94.75 195.77,-84.21 242.23,-84.21 275.07,-94.75"/>
<polygon fill="none" stroke="#029e73" points="279.06,-91.83 279.06,-112.58 242.85,-124.21 195.15,-124.21 158.94,-112.58 158.94,-91.83 195.15,-80.21 242.85,-80.21 279.06,-91.83"/>
<text text-anchor="middle" x="219" y="-98.51" font-family="Times,serif" font-size="14.00">Fluid&#45;Outer</text>
</g>
<!-- m2n&#45;Solid&#45;Fluid&#45;Outer&#45;&gt;Fluid&#45;Outer -->
<g id="edge30" class="edge">
<title>m2n&#45;Solid&#45;Fluid&#45;Outer&#45;&gt;Fluid&#45;Outer</title>
<path fill="none" stroke="#029e73" d="M96.66,-515.56C105.21,-512.3 113.43,-507.45 119,-500.21 166.92,-437.92 113.14,-219.54 149.79,-142.32"/>
<polygon fill="#029e73" stroke="#029e73" points="95.49,-512.26 87,-518.61 97.59,-518.94 95.49,-512.26"/>
<polygon fill="#029e73" stroke="#029e73" points="153.07,-143.63 155,-133.21 147,-140.15 153.07,-143.63"/>
</g>
<!-- cpl&#45;Solid&#45;Fluid&#45;Inner -->
<g id="node3" class="node">
<title>cpl&#45;Solid&#45;Fluid&#45;Inner</title>
<polygon fill="none" stroke="black" points="110,-477.21 8,-477.21 8,-473.21 4,-473.21 4,-469.21 8,-469.21 8,-449.21 4,-449.21 4,-445.21 8,-445.21 8,-441.21 110,-441.21 110,-477.21"/>
<polyline fill="none" stroke="black" points="8,-473.21 12,-473.21 12,-469.21 8,-469.21 "/>
<polyline fill="none" stroke="black" points="8,-449.21 12,-449.21 12,-445.21 8,-445.21 "/>
<text text-anchor="middle" x="59" y="-455.51" font-family="Times,serif" font-size="14.00">parallel&#45;explicit</text>
</g>
<!-- cpl&#45;Solid&#45;Fluid&#45;Inner&#45;&gt;Solid -->
<g id="edge23" class="edge">
<title>cpl&#45;Solid&#45;Fluid&#45;Inner&#45;&gt;Solid</title>
<path fill="none" stroke="#0173b2" d="M94.89,-477.28C103.92,-483.46 112.82,-491.14 119,-500.21 138.54,-528.9 131.81,-541.89 137,-576.21 141.07,-603.09 138.94,-784.03 151.32,-832.57"/>
<polygon fill="#0173b2" stroke="#0173b2" points="148.16,-834.12 155,-842.21 154.7,-831.62 148.16,-834.12"/>
<text text-anchor="middle" x="105.89" y="-481.08" font-family="Times,serif" font-size="14.00">first</text>
</g>
<!-- cpl&#45;Solid&#45;Fluid&#45;Inner&#45;&gt;Fluid&#45;Inner -->
<g id="edge24" class="edge">
<title>cpl&#45;Solid&#45;Fluid&#45;Inner&#45;&gt;Fluid&#45;Inner</title>
<path fill="none" stroke="#de8f05" d="M106.31,-441.12C110.82,-438.46 115.14,-435.5 119,-432.21 129.97,-422.85 130.24,-417.94 137,-405.21 145.21,-389.75 142.28,-380.31 149.79,-368.16"/>
<polygon fill="#de8f05" stroke="#de8f05" points="152.63,-370.2 156,-360.16 147.1,-365.91 152.63,-370.2"/>
<text text-anchor="middle" x="87.31" y="-429.92" font-family="Times,serif" font-size="14.00">second</text>
</g>
<!-- cpl&#45;Solid&#45;Fluid&#45;Outer -->
<g id="node4" class="node">
<title>cpl&#45;Solid&#45;Fluid&#45;Outer</title>
<polygon fill="none" stroke="black" points="110,-423.21 8,-423.21 8,-419.21 4,-419.21 4,-415.21 8,-415.21 8,-395.21 4,-395.21 4,-391.21 8,-391.21 8,-387.21 110,-387.21 110,-423.21"/>
<polyline fill="none" stroke="black" points="8,-419.21 12,-419.21 12,-415.21 8,-415.21 "/>
<polyline fill="none" stroke="black" points="8,-395.21 12,-395.21 12,-391.21 8,-391.21 "/>
<text text-anchor="middle" x="59" y="-401.51" font-family="Times,serif" font-size="14.00">parallel&#45;explicit</text>
</g>
<!-- cpl&#45;Solid&#45;Fluid&#45;Outer&#45;&gt;Solid -->
<g id="edge31" class="edge">
<title>cpl&#45;Solid&#45;Fluid&#45;Outer&#45;&gt;Solid</title>
<path fill="none" stroke="#0173b2" d="M110.21,-423.33C113.52,-425.91 116.52,-428.86 119,-432.21 154.77,-480.49 131.04,-506.41 137,-566.21 139.81,-594.4 138.22,-783.46 151.34,-832.84"/>
<polygon fill="#0173b2" stroke="#0173b2" points="148.1,-834.17 155,-842.21 154.62,-831.62 148.1,-834.17"/>
<text text-anchor="middle" x="121.21" y="-412.13" font-family="Times,serif" font-size="14.00">first</text>
</g>
<!-- cpl&#45;Solid&#45;Fluid&#45;Outer&#45;&gt;Fluid&#45;Outer -->
<g id="edge32" class="edge">
<title>cpl&#45;Solid&#45;Fluid&#45;Outer&#45;&gt;Fluid&#45;Outer</title>
<path fill="none" stroke="#029e73" d="M61.64,-386.96C66.63,-341.04 85.38,-218.83 148.35,-141.06"/>
<polygon fill="#029e73" stroke="#029e73" points="151.21,-143.1 155,-133.21 145.87,-138.58 151.21,-143.1"/>
<text text-anchor="middle" x="42.64" y="-375.76" font-family="Times,serif" font-size="14.00">second</text>
</g>
<!-- Solid&#45;Solid&#45;to&#45;Fluid&#45;Inner -->
<g id="node6" class="node">
<title>Solid&#45;Solid&#45;to&#45;Fluid&#45;Inner</title>
<path fill="none" stroke="#0173b2" d="M671,-971.93C671,-973.74 639.4,-975.21 600.5,-975.21 561.6,-975.21 530,-973.74 530,-971.93 530,-971.93 530,-942.48 530,-942.48 530,-940.67 561.6,-939.21 600.5,-939.21 639.4,-939.21 671,-940.67 671,-942.48 671,-942.48 671,-971.93 671,-971.93"/>
<path fill="none" stroke="#0173b2" d="M671,-971.93C671,-970.13 639.4,-968.66 600.5,-968.66 561.6,-968.66 530,-970.13 530,-971.93"/>
<text text-anchor="start" x="538" y="-954.51" font-family="Times,serif" font-size="14.00">Solid&#45;to&#45;Fluid&#45;Inner</text>
<text text-anchor="start" x="648" y="-954.51" font-family="Times,serif" font-style="italic" baseline-shift="super" font-size="14.00">3D</text>
</g>
<!-- Solid&#45;&gt;Solid&#45;Solid&#45;to&#45;Fluid&#45;Inner -->
<g id="edge5" class="edge">
<title>Solid&#45;&gt;Solid&#45;Solid&#45;to&#45;Fluid&#45;Inner</title>
<g id="a_edge5"><a xlink:title="scalar">
<path fill="none" stroke="#0173b2" d="M223,-895.27C229.5,-933.28 248.75,-1010.22 301,-1043.21 379.92,-1093.03 424.52,-1078.31 511,-1043.21 540.49,-1031.24 565.55,-1004.21 581.4,-983.62"/>
<polygon fill="#0173b2" stroke="#0173b2" points="584.25,-985.65 587.41,-975.54 578.63,-981.47 584.25,-985.65"/>
</a>
</g>
<text text-anchor="middle" x="406" y="-1079.01" font-family="Times,serif" font-size="14.00">Sink&#45;Temperature&#45;Solid</text>
</g>
<!-- Solid&#45;&gt;Solid&#45;Solid&#45;to&#45;Fluid&#45;Inner -->
<g id="edge6" class="edge">
<title>Solid&#45;&gt;Solid&#45;Solid&#45;to&#45;Fluid&#45;Inner</title>
<g id="a_edge6"><a xlink:title="scalar">
<path fill="none" stroke="#0173b2" d="M238.63,-892.62C253.89,-907.14 276.83,-926.02 301,-935.21 320.94,-942.79 438.14,-949.7 519.61,-953.68"/>
<polygon fill="#0173b2" stroke="#0173b2" points="519.7,-957.18 529.85,-954.17 520.03,-950.19 519.7,-957.18"/>
</a>
</g>
<text text-anchor="middle" x="406" y="-956.01" font-family="Times,serif" font-size="14.00">Heat&#45;Transfer&#45;Coefficient&#45;Solid</text>
</g>
<!-- Solid&#45;Solid&#45;to&#45;Fluid&#45;Outer -->
<g id="node7" class="node">
<title>Solid&#45;Solid&#45;to&#45;Fluid&#45;Outer</title>
<path fill="none" stroke="#0173b2" d="M672,-781.93C672,-783.74 639.95,-785.21 600.5,-785.21 561.05,-785.21 529,-783.74 529,-781.93 529,-781.93 529,-752.48 529,-752.48 529,-750.67 561.05,-749.21 600.5,-749.21 639.95,-749.21 672,-750.67 672,-752.48 672,-752.48 672,-781.93 672,-781.93"/>
<path fill="none" stroke="#0173b2" d="M672,-781.93C672,-780.13 639.95,-778.66 600.5,-778.66 561.05,-778.66 529,-780.13 529,-781.93"/>
<text text-anchor="start" x="537" y="-764.51" font-family="Times,serif" font-size="14.00">Solid&#45;to&#45;Fluid&#45;Outer</text>
<text text-anchor="start" x="649" y="-764.51" font-family="Times,serif" font-style="italic" baseline-shift="super" font-size="14.00">3D</text>
</g>
<!-- Solid&#45;&gt;Solid&#45;Solid&#45;to&#45;Fluid&#45;Outer -->
<g id="edge7" class="edge">
<title>Solid&#45;&gt;Solid&#45;Solid&#45;to&#45;Fluid&#45;Outer</title>
<g id="a_edge7"><a xlink:title="scalar">
<path fill="none" stroke="#0173b2" d="M252.69,-861.98C263.31,-857.14 274.53,-850.63 283,-842.21 295.69,-829.6 286.32,-816.43 301,-806.21 339.53,-779.39 464.54,-789.94 511,-783.21 513.5,-782.84 516.04,-782.46 518.6,-782.07"/>
<polygon fill="#0173b2" stroke="#0173b2" points="519.24,-785.51 528.56,-780.48 518.14,-778.6 519.24,-785.51"/>
</a>
</g>
<text text-anchor="middle" x="406" y="-810.01" font-family="Times,serif" font-size="14.00">Sink&#45;Temperature&#45;Solid</text>
</g>
<!-- Solid&#45;&gt;Solid&#45;Solid&#45;to&#45;Fluid&#45;Outer -->
<g id="edge8" class="edge">
<title>Solid&#45;&gt;Solid&#45;Solid&#45;to&#45;Fluid&#45;Outer</title>
<g id="a_edge8"><a xlink:title="scalar">
<path fill="none" stroke="#0173b2" d="M249.88,-860.61C264.96,-854.74 283.68,-848.2 301,-844.21 392.49,-823.13 422.13,-851.5 511,-821.21 531.12,-814.35 551.52,-802.32 567.65,-791.36"/>
<polygon fill="#0173b2" stroke="#0173b2" points="569.96,-794.01 576.15,-785.41 565.95,-788.28 569.96,-794.01"/>
</a>
</g>
<text text-anchor="middle" x="406" y="-848.01" font-family="Times,serif" font-size="14.00">Heat&#45;Transfer&#45;Coefficient&#45;Solid</text>
</g>
<!-- Solid&#45;Solid&#45;to&#45;Fluid&#45;Inner&#45;&gt;Solid -->
<g id="edge1" class="edge">
<title>Solid&#45;Solid&#45;to&#45;Fluid&#45;Inner&#45;&gt;Solid</title>
<g id="a_edge1"><a xlink:title="scalar">
<path fill="none" stroke="#0173b2" d="M546.94,-974.58C484.9,-991.89 380.17,-1010.96 301,-973.21 271.27,-959.03 248.92,-928.02 235.31,-904.26"/>
<polygon fill="#0173b2" stroke="#0173b2" points="238.23,-902.32 230.35,-895.24 232.1,-905.69 238.23,-902.32"/>
</a>
</g>
<text text-anchor="middle" x="406" y="-998.01" font-family="Times,serif" font-size="14.00">Sink&#45;Temperature&#45;Fluid&#45;Inner</text>
</g>
<!-- Solid&#45;Solid&#45;to&#45;Fluid&#45;Inner&#45;&gt;Solid -->
<g id="edge2" class="edge">
<title>Solid&#45;Solid&#45;to&#45;Fluid&#45;Inner&#45;&gt;Solid</title>
<g id="a_edge2"><a xlink:title="scalar">
<path fill="none" stroke="#0173b2" d="M577.48,-975.41C560.49,-988.21 535.78,-1004.24 511,-1011.21 466.07,-1023.83 341.5,-1034.4 301,-1011.21 261.45,-988.56 239.33,-938.28 228.54,-905.08"/>
<polygon fill="#0173b2" stroke="#0173b2" points="231.84,-903.89 225.55,-895.37 225.15,-905.95 231.84,-903.89"/>
</a>
</g>
<text text-anchor="middle" x="406" y="-1028.01" font-family="Times,serif" font-size="14.00">Heat&#45;Transfer&#45;Coefficient&#45;Fluid&#45;Inner</text>
</g>
<!-- Fluid&#45;Inner&#45;Solid&#45;to&#45;Fluid&#45;Inner -->
<g id="node12" class="node">
<title>Fluid&#45;Inner&#45;Solid&#45;to&#45;Fluid&#45;Inner</title>
<path fill="none" stroke="#0173b2" stroke-dasharray="5,2" d="M282,-417.69C282,-420.32 253.76,-422.46 219,-422.46 184.24,-422.46 156,-420.32 156,-417.69 156,-417.69 156,-374.73 156,-374.73 156,-372.1 184.24,-369.96 219,-369.96 253.76,-369.96 282,-372.1 282,-374.73 282,-374.73 282,-417.69 282,-417.69"/>
<path fill="none" stroke="#0173b2" stroke-dasharray="5,2" d="M282,-417.69C282,-415.05 253.76,-412.91 219,-412.91 184.24,-412.91 156,-415.05 156,-417.69"/>
<text text-anchor="middle" x="219" y="-400.01" font-family="Times,serif" font-size="14.00">Solid&#45;to&#45;Fluid&#45;Inner</text>
<text text-anchor="middle" x="219" y="-385.01" font-family="Times,serif" font-size="14.00">from Solid</text>
</g>
<!-- Solid&#45;Solid&#45;to&#45;Fluid&#45;Inner&#45;&gt;Fluid&#45;Inner&#45;Solid&#45;to&#45;Fluid&#45;Inner -->
<g id="edge25" class="edge">
<title>Solid&#45;Solid&#45;to&#45;Fluid&#45;Inner&#45;&gt;Fluid&#45;Inner&#45;Solid&#45;to&#45;Fluid&#45;Inner</title>
<g id="a_edge25"><a xlink:title="scalar initialized">
<path fill="none" stroke="#0173b2" stroke-width="2" d="M589.45,-938.77C573.82,-909.2 543.93,-848.94 529,-794.21 520.51,-763.09 534.19,-672.62 511,-650.21 477.31,-617.64 337.89,-660.1 301,-631.21 239.53,-583.05 224.49,-485.58 220.95,-432.55"/>
<polygon fill="#0173b2" stroke="#0173b2" stroke-width="2" points="224.45,-432.35 220.39,-422.57 217.46,-432.75 224.45,-432.35"/>
</a>
</g>
<text text-anchor="middle" x="406" y="-654.01" font-family="Times,serif" font-size="14.00">Sink&#45;Temperature&#45;Solid</text>
</g>
<!-- Solid&#45;Solid&#45;to&#45;Fluid&#45;Inner&#45;&gt;Fluid&#45;Inner&#45;Solid&#45;to&#45;Fluid&#45;Inner -->
<g id="edge26" class="edge">
<title>Solid&#45;Solid&#45;to&#45;Fluid&#45;Inner&#45;&gt;Fluid&#45;Inner&#45;Solid&#45;to&#45;Fluid&#45;Inner</title>
<g id="a_edge26"><a xlink:title="scalar initialized">
<path fill="none" stroke="#0173b2" stroke-width="2" d="M589.28,-938.81C573.42,-909.31 543.22,-849.13 529,-794.21 518.81,-754.86 539.86,-640.83 511,-612.21 477.73,-579.21 338.71,-621.02 301,-593.21 249.37,-555.13 230.52,-478.19 223.73,-432.54"/>
<polygon fill="#0173b2" stroke="#0173b2" stroke-width="2" points="227.18,-431.91 222.35,-422.48 220.24,-432.86 227.18,-431.91"/>
</a>
</g>
<text text-anchor="middle" x="406" y="-616.01" font-family="Times,serif" font-size="14.00">Heat&#45;Transfer&#45;Coefficient&#45;Solid</text>
</g>
<!-- Solid&#45;Solid&#45;to&#45;Fluid&#45;Outer&#45;&gt;Solid -->
<g id="edge3" class="edge">
<title>Solid&#45;Solid&#45;to&#45;Fluid&#45;Outer&#45;&gt;Solid</title>
<g id="a_edge3"><a xlink:title="scalar">
<path fill="none" stroke="#0173b2" d="M593.51,-785.25C582.55,-814.97 556.13,-873.33 511,-897.21 469.75,-919.03 347.18,-903.91 301,-897.21 287.94,-895.31 274.06,-891.79 261.55,-888.01"/>
<polygon fill="#0173b2" stroke="#0173b2" points="262.43,-884.62 251.84,-884.95 260.33,-891.3 262.43,-884.62"/>
</a>
</g>
<text text-anchor="middle" x="406" y="-912.01" font-family="Times,serif" font-size="14.00">Sink&#45;Temperature&#45;Fluid&#45;Outer</text>
</g>
<!-- Solid&#45;Solid&#45;to&#45;Fluid&#45;Outer&#45;&gt;Solid -->
<g id="edge4" class="edge">
<title>Solid&#45;Solid&#45;to&#45;Fluid&#45;Outer&#45;&gt;Solid</title>
<g id="a_edge4"><a xlink:title="scalar">
<path fill="none" stroke="#0173b2" d="M528.67,-757.77C451.65,-749.15 334.98,-741.41 301,-768.21 274.42,-789.17 304.18,-815.8 283,-842.21 277.8,-848.69 270.9,-853.92 263.57,-858.11"/>
<polygon fill="#0173b2" stroke="#0173b2" points="261.5,-855.23 254.16,-862.86 264.66,-861.48 261.5,-855.23"/>
</a>
</g>
<text text-anchor="middle" x="406" y="-772.01" font-family="Times,serif" font-size="14.00">Heat&#45;Transfer&#45;Coefficient&#45;Fluid&#45;Outer</text>
</g>
<!-- Fluid&#45;Outer&#45;Solid&#45;to&#45;Fluid&#45;Outer -->
<g id="node15" class="node">
<title>Fluid&#45;Outer&#45;Solid&#45;to&#45;Fluid&#45;Outer</title>
<path fill="none" stroke="#0173b2" stroke-dasharray="5,2" d="M283,-189.69C283,-192.32 254.31,-194.46 219,-194.46 183.69,-194.46 155,-192.32 155,-189.69 155,-189.69 155,-146.73 155,-146.73 155,-144.1 183.69,-141.96 219,-141.96 254.31,-141.96 283,-144.1 283,-146.73 283,-146.73 283,-189.69 283,-189.69"/>
<path fill="none" stroke="#0173b2" stroke-dasharray="5,2" d="M283,-189.69C283,-187.05 254.31,-184.91 219,-184.91 183.69,-184.91 155,-187.05 155,-189.69"/>
<text text-anchor="middle" x="219" y="-172.01" font-family="Times,serif" font-size="14.00">Solid&#45;to&#45;Fluid&#45;Outer</text>
<text text-anchor="middle" x="219" y="-157.01" font-family="Times,serif" font-size="14.00">from Solid</text>
</g>
<!-- Solid&#45;Solid&#45;to&#45;Fluid&#45;Outer&#45;&gt;Fluid&#45;Outer&#45;Solid&#45;to&#45;Fluid&#45;Outer -->
<g id="edge33" class="edge">
<title>Solid&#45;Solid&#45;to&#45;Fluid&#45;Outer&#45;&gt;Fluid&#45;Outer&#45;Solid&#45;to&#45;Fluid&#45;Outer</title>
<g id="a_edge33"><a xlink:title="scalar initialized">
<path fill="none" stroke="#0173b2" stroke-width="2" d="M594.54,-749.09C581.53,-700.79 546.22,-564.7 529,-449.21 525.2,-423.74 528.52,-237.07 511,-218.21 478.87,-183.62 347.4,-194.89 301,-186.21 298.37,-185.72 295.69,-185.2 292.99,-184.67"/>
<polygon fill="#0173b2" stroke="#0173b2" stroke-width="2" points="293.64,-181.23 283.15,-182.67 292.25,-188.09 293.64,-181.23"/>
</a>
</g>
<text text-anchor="middle" x="406" y="-222.01" font-family="Times,serif" font-size="14.00">Sink&#45;Temperature&#45;Solid</text>
</g>
<!-- Solid&#45;Solid&#45;to&#45;Fluid&#45;Outer&#45;&gt;Fluid&#45;Outer&#45;Solid&#45;to&#45;Fluid&#45;Outer -->
<g id="edge34" class="edge">
<title>Solid&#45;Solid&#45;to&#45;Fluid&#45;Outer&#45;&gt;Fluid&#45;Outer&#45;Solid&#45;to&#45;Fluid&#45;Outer</title>
<g id="a_edge34"><a xlink:title="scalar initialized">
<path fill="none" stroke="#0173b2" stroke-width="2" d="M597.2,-749.06C591.15,-709.69 570.89,-616.56 511,-574.21 472.74,-547.15 333.56,-588.91 301,-555.21 276.1,-529.44 297.38,-266.03 283,-233.21 277.93,-221.62 269.81,-210.9 261.08,-201.63"/>
<polygon fill="#0173b2" stroke="#0173b2" stroke-width="2" points="263.53,-199.13 253.98,-194.53 258.58,-204.08 263.53,-199.13"/>
</a>
</g>
<text text-anchor="middle" x="406" y="-578.01" font-family="Times,serif" font-size="14.00">Heat&#45;Transfer&#45;Coefficient&#45;Solid</text>
</g>
<!-- Solid&#45;Fluid&#45;Inner&#45;to&#45;Solid -->
<g id="node8" class="node">
<title>Solid&#45;Fluid&#45;Inner&#45;to&#45;Solid</title>
<path fill="none" stroke="#de8f05" stroke-dasharray="5,2" d="M282,-828.69C282,-831.32 253.76,-833.46 219,-833.46 184.24,-833.46 156,-831.32 156,-828.69 156,-828.69 156,-785.73 156,-785.73 156,-783.1 184.24,-780.96 219,-780.96 253.76,-780.96 282,-783.1 282,-785.73 282,-785.73 282,-828.69 282,-828.69"/>
<path fill="none" stroke="#de8f05" stroke-dasharray="5,2" d="M282,-828.69C282,-826.05 253.76,-823.91 219,-823.91 184.24,-823.91 156,-826.05 156,-828.69"/>
<text text-anchor="middle" x="219" y="-811.01" font-family="Times,serif" font-size="14.00">Fluid&#45;Inner&#45;to&#45;Solid</text>
<text text-anchor="middle" x="219" y="-796.01" font-family="Times,serif" font-size="14.00">from Fluid&#45;Inner</text>
</g>
<!-- Solid&#45;Fluid&#45;Inner&#45;to&#45;Solid&#45;&gt;Solid&#45;Solid&#45;to&#45;Fluid&#45;Inner -->
<g id="edge9" class="edge">
<title>Solid&#45;Fluid&#45;Inner&#45;to&#45;Solid&#45;&gt;Solid&#45;Solid&#45;to&#45;Fluid&#45;Inner</title>
<path fill="none" stroke="#0173b2" d="M268.59,-832.56C273.56,-835.64 278.46,-838.88 283,-842.21 291.88,-848.71 290.97,-854.68 301,-859.21 386.43,-897.72 425.03,-840.9 511,-878.21 537.87,-889.87 562.2,-912.96 578.52,-931.17"/>
<polygon fill="#0173b2" stroke="#0173b2" points="576.23,-933.88 585.43,-939.14 581.52,-929.3 576.23,-933.88"/>
<text text-anchor="middle" x="406" y="-882.01" font-family="Times,serif" font-size="14.00">nearest&#45;neighbor</text>
</g>
<!-- Solid&#45;Fluid&#45;Outer&#45;to&#45;Solid -->
<g id="node9" class="node">
<title>Solid&#45;Fluid&#45;Outer&#45;to&#45;Solid</title>
<path fill="none" stroke="#029e73" stroke-dasharray="5,2" d="M283,-758.69C283,-761.32 254.31,-763.46 219,-763.46 183.69,-763.46 155,-761.32 155,-758.69 155,-758.69 155,-715.73 155,-715.73 155,-713.1 183.69,-710.96 219,-710.96 254.31,-710.96 283,-713.1 283,-715.73 283,-715.73 283,-758.69 283,-758.69"/>
<path fill="none" stroke="#029e73" stroke-dasharray="5,2" d="M283,-758.69C283,-756.05 254.31,-753.91 219,-753.91 183.69,-753.91 155,-756.05 155,-758.69"/>
<text text-anchor="middle" x="219" y="-741.01" font-family="Times,serif" font-size="14.00">Fluid&#45;Outer&#45;to&#45;Solid</text>
<text text-anchor="middle" x="219" y="-726.01" font-family="Times,serif" font-size="14.00">from Fluid&#45;Outer</text>
</g>
<!-- Solid&#45;Fluid&#45;Outer&#45;to&#45;Solid&#45;&gt;Solid&#45;Solid&#45;to&#45;Fluid&#45;Outer -->
<g id="edge10" class="edge">
<title>Solid&#45;Fluid&#45;Outer&#45;to&#45;Solid&#45;&gt;Solid&#45;Solid&#45;to&#45;Fluid&#45;Outer</title>
<path fill="none" stroke="#0173b2" d="M283.14,-727.74C342.55,-720.69 433.7,-714.7 511,-730.21 526.12,-733.24 541.89,-738.92 555.85,-744.94"/>
<polygon fill="#0173b2" stroke="#0173b2" points="554.64,-748.23 565.2,-749.13 557.51,-741.85 554.64,-748.23"/>
<text text-anchor="middle" x="406" y="-734.01" font-family="Times,serif" font-size="14.00">nearest&#45;neighbor</text>
</g>
<!-- Fluid&#45;Inner&#45;Fluid&#45;Inner&#45;to&#45;Solid -->
<g id="node11" class="node">
<title>Fluid&#45;Inner&#45;Fluid&#45;Inner&#45;to&#45;Solid</title>
<path fill="none" stroke="#de8f05" d="M671,-383.93C671,-385.74 639.4,-387.21 600.5,-387.21 561.6,-387.21 530,-385.74 530,-383.93 530,-383.93 530,-354.48 530,-354.48 530,-352.67 561.6,-351.21 600.5,-351.21 639.4,-351.21 671,-352.67 671,-354.48 671,-354.48 671,-383.93 671,-383.93"/>
<path fill="none" stroke="#de8f05" d="M671,-383.93C671,-382.13 639.4,-380.66 600.5,-380.66 561.6,-380.66 530,-382.13 530,-383.93"/>
<text text-anchor="start" x="538" y="-366.51" font-family="Times,serif" font-size="14.00">Fluid&#45;Inner&#45;to&#45;Solid</text>
<text text-anchor="start" x="648" y="-366.51" font-family="Times,serif" font-style="italic" baseline-shift="super" font-size="14.00">3D</text>
</g>
<!-- Fluid&#45;Inner&#45;&gt;Fluid&#45;Inner&#45;Fluid&#45;Inner&#45;to&#45;Solid -->
<g id="edge13" class="edge">
<title>Fluid&#45;Inner&#45;&gt;Fluid&#45;Inner&#45;Fluid&#45;Inner&#45;to&#45;Solid</title>
<g id="a_edge13"><a xlink:title="scalar">
<path fill="none" stroke="#de8f05" d="M272.54,-342.3C281.98,-344.16 291.75,-345.9 301,-347.21 374.69,-357.61 459.35,-363.26 519.64,-366.22"/>
<polygon fill="#de8f05" stroke="#de8f05" points="519.7,-369.72 529.86,-366.7 520.04,-362.73 519.7,-369.72"/>
</a>
</g>
<text text-anchor="middle" x="406" y="-369.01" font-family="Times,serif" font-size="14.00">Sink&#45;Temperature&#45;Fluid&#45;Inner</text>
</g>
<!-- Fluid&#45;Inner&#45;&gt;Fluid&#45;Inner&#45;Fluid&#45;Inner&#45;to&#45;Solid -->
<g id="edge14" class="edge">
<title>Fluid&#45;Inner&#45;&gt;Fluid&#45;Inner&#45;Fluid&#45;Inner&#45;to&#45;Solid</title>
<g id="a_edge14"><a xlink:title="scalar">
<path fill="none" stroke="#de8f05" d="M236.1,-308.03C250.72,-289.96 274.06,-265.77 301,-255.21 387.9,-221.15 427.18,-214.16 511,-255.21 547.64,-273.15 573.47,-314.37 587.42,-342.01"/>
<polygon fill="#de8f05" stroke="#de8f05" points="584.34,-343.69 591.86,-351.16 590.64,-340.64 584.34,-343.69"/>
</a>
</g>
<text text-anchor="middle" x="406" y="-259.01" font-family="Times,serif" font-size="14.00">Heat&#45;Transfer&#45;Coefficient&#45;Fluid&#45;Inner</text>
</g>
<!-- Fluid&#45;Inner&#45;Fluid&#45;Inner&#45;to&#45;Solid&#45;&gt;Solid&#45;Fluid&#45;Inner&#45;to&#45;Solid -->
<g id="edge27" class="edge">
<title>Fluid&#45;Inner&#45;Fluid&#45;Inner&#45;to&#45;Solid&#45;&gt;Solid&#45;Fluid&#45;Inner&#45;to&#45;Solid</title>
<g id="a_edge27"><a xlink:title="scalar initialized">
<path fill="none" stroke="#de8f05" stroke-width="2" d="M600.28,-387.52C601.43,-440.39 596.91,-594.22 511,-669.21 439.87,-731.29 370.92,-637.77 301,-701.21 276.89,-723.08 302.86,-746.41 283,-772.21 282.21,-773.24 281.37,-774.24 280.5,-775.22"/>
<polygon fill="#de8f05" stroke="#de8f05" stroke-width="2" points="278,-772.78 273.23,-782.24 282.86,-777.82 278,-772.78"/>
</a>
</g>
<text text-anchor="middle" x="406" y="-705.01" font-family="Times,serif" font-size="14.00">Sink&#45;Temperature&#45;Fluid&#45;Inner</text>
</g>
<!-- Fluid&#45;Inner&#45;Fluid&#45;Inner&#45;to&#45;Solid&#45;&gt;Solid&#45;Fluid&#45;Inner&#45;to&#45;Solid -->
<g id="edge28" class="edge">
<title>Fluid&#45;Inner&#45;Fluid&#45;Inner&#45;to&#45;Solid&#45;&gt;Solid&#45;Fluid&#45;Inner&#45;to&#45;Solid</title>
<g id="a_edge28"><a xlink:title="scalar initialized">
<path fill="none" stroke="#de8f05" stroke-width="2" d="M594.51,-387.27C584.57,-419.49 559,-486.41 511,-517.21 471.49,-542.56 333.67,-506.49 301,-540.21 265.02,-577.35 310.93,-728.69 283,-772.21 282.39,-773.16 281.75,-774.08 281.07,-774.98"/>
<polygon fill="#de8f05" stroke="#de8f05" stroke-width="2" points="278.38,-772.74 274.22,-782.49 283.55,-777.46 278.38,-772.74"/>
</a>
</g>
<text text-anchor="middle" x="406" y="-544.01" font-family="Times,serif" font-size="14.00">Heat&#45;Transfer&#45;Coefficient&#45;Fluid&#45;Inner</text>
</g>
<!-- Fluid&#45;Inner&#45;Fluid&#45;Inner&#45;to&#45;Solid&#45;&gt;Fluid&#45;Inner -->
<g id="edge11" class="edge">
<title>Fluid&#45;Inner&#45;Fluid&#45;Inner&#45;to&#45;Solid&#45;&gt;Fluid&#45;Inner</title>
<g id="a_edge11"><a xlink:title="scalar">
<path fill="none" stroke="#de8f05" d="M585.15,-351.18C569.27,-332.83 541.82,-305.51 511,-294.21 423.37,-262.07 392.3,-274.83 301,-294.21 288.05,-296.95 274.66,-301.92 262.59,-307.3"/>
<polygon fill="#de8f05" stroke="#de8f05" points="260.8,-304.27 253.22,-311.67 263.76,-310.62 260.8,-304.27"/>
</a>
</g>
<text text-anchor="middle" x="406" y="-298.01" font-family="Times,serif" font-size="14.00">Sink&#45;Temperature&#45;Solid</text>
</g>
<!-- Fluid&#45;Inner&#45;Fluid&#45;Inner&#45;to&#45;Solid&#45;&gt;Fluid&#45;Inner -->
<g id="edge12" class="edge">
<title>Fluid&#45;Inner&#45;Fluid&#45;Inner&#45;to&#45;Solid&#45;&gt;Fluid&#45;Inner</title>
<g id="a_edge12"><a xlink:title="scalar">
<path fill="none" stroke="#de8f05" d="M565.19,-351.19C549.19,-343.76 529.6,-336.01 511,-332.21 435.78,-316.85 347.33,-319.02 287.85,-323.32"/>
<polygon fill="#de8f05" stroke="#de8f05" points="287.53,-319.83 277.83,-324.08 288.07,-326.81 287.53,-319.83"/>
</a>
</g>
<text text-anchor="middle" x="406" y="-336.01" font-family="Times,serif" font-size="14.00">Heat&#45;Transfer&#45;Coefficient&#45;Solid</text>
</g>
<!-- Fluid&#45;Inner&#45;Solid&#45;to&#45;Fluid&#45;Inner&#45;&gt;Fluid&#45;Inner&#45;Fluid&#45;Inner&#45;to&#45;Solid -->
<g id="edge15" class="edge">
<title>Fluid&#45;Inner&#45;Solid&#45;to&#45;Fluid&#45;Inner&#45;&gt;Fluid&#45;Inner&#45;Fluid&#45;Inner&#45;to&#45;Solid</title>
<path fill="none" stroke="#de8f05" d="M282.06,-396.39C341.1,-395.97 432.34,-393.76 511,-385.21 513.84,-384.9 516.72,-384.55 519.63,-384.18"/>
<polygon fill="#de8f05" stroke="#de8f05" points="520.16,-387.64 529.59,-382.79 519.2,-380.7 520.16,-387.64"/>
<text text-anchor="middle" x="406" y="-399.01" font-family="Times,serif" font-size="14.00">nearest&#45;neighbor</text>
</g>
<!-- Fluid&#45;Outer&#45;Fluid&#45;Outer&#45;to&#45;Solid -->
<g id="node14" class="node">
<title>Fluid&#45;Outer&#45;Fluid&#45;Outer&#45;to&#45;Solid</title>
<path fill="none" stroke="#029e73" d="M672,-155.93C672,-157.74 639.95,-159.21 600.5,-159.21 561.05,-159.21 529,-157.74 529,-155.93 529,-155.93 529,-126.48 529,-126.48 529,-124.67 561.05,-123.21 600.5,-123.21 639.95,-123.21 672,-124.67 672,-126.48 672,-126.48 672,-155.93 672,-155.93"/>
<path fill="none" stroke="#029e73" d="M672,-155.93C672,-154.13 639.95,-152.66 600.5,-152.66 561.05,-152.66 529,-154.13 529,-155.93"/>
<text text-anchor="start" x="537" y="-138.51" font-family="Times,serif" font-size="14.00">Fluid&#45;Outer&#45;to&#45;Solid</text>
<text text-anchor="start" x="649" y="-138.51" font-family="Times,serif" font-style="italic" baseline-shift="super" font-size="14.00">3D</text>
</g>
<!-- Fluid&#45;Outer&#45;&gt;Fluid&#45;Outer&#45;Fluid&#45;Outer&#45;to&#45;Solid -->
<g id="edge18" class="edge">
<title>Fluid&#45;Outer&#45;&gt;Fluid&#45;Outer&#45;Fluid&#45;Outer&#45;to&#45;Solid</title>
<g id="a_edge18"><a xlink:title="scalar">
<path fill="none" stroke="#029e73" d="M273.41,-114.47C282.58,-116.27 292.04,-117.94 301,-119.21 374.32,-129.56 458.51,-135.2 518.75,-138.17"/>
<polygon fill="#029e73" stroke="#029e73" points="518.8,-141.68 528.95,-138.66 519.13,-134.69 518.8,-141.68"/>
</a>
</g>
<text text-anchor="middle" x="406" y="-142.01" font-family="Times,serif" font-size="14.00">Sink&#45;Temperature&#45;Fluid&#45;Outer</text>
</g>
<!-- Fluid&#45;Outer&#45;&gt;Fluid&#45;Outer&#45;Fluid&#45;Outer&#45;to&#45;Solid -->
<g id="edge19" class="edge">
<title>Fluid&#45;Outer&#45;&gt;Fluid&#45;Outer&#45;Fluid&#45;Outer&#45;to&#45;Solid</title>
<g id="a_edge19"><a xlink:title="scalar">
<path fill="none" stroke="#029e73" d="M236.46,-79.97C251.13,-62.17 274.36,-38.54 301,-28.21 388.01,5.56 427.09,12.66 511,-28.21 547.27,-45.87 573.06,-86.39 587.12,-113.79"/>
<polygon fill="#029e73" stroke="#029e73" points="584.04,-115.46 591.6,-122.88 590.32,-112.36 584.04,-115.46"/>
</a>
</g>
<text text-anchor="middle" x="406" y="-32.01" font-family="Times,serif" font-size="14.00">Heat&#45;Transfer&#45;Coefficient&#45;Fluid&#45;Outer</text>
</g>
<!-- Fluid&#45;Outer&#45;Fluid&#45;Outer&#45;to&#45;Solid&#45;&gt;Solid&#45;Fluid&#45;Outer&#45;to&#45;Solid -->
<g id="edge35" class="edge">
<title>Fluid&#45;Outer&#45;Fluid&#45;Outer&#45;to&#45;Solid&#45;&gt;Solid&#45;Fluid&#45;Outer&#45;to&#45;Solid</title>
<g id="a_edge35"><a xlink:title="scalar initialized">
<path fill="none" stroke="#029e73" stroke-width="2" d="M580.51,-159.29C563.75,-176.54 540.28,-204.13 529,-233.21 512.22,-276.46 543.43,-408.03 511,-441.21 478.18,-474.78 337.03,-434.12 301,-464.21 264.53,-494.66 237.16,-633.29 225.79,-700.48"/>
<polygon fill="#029e73" stroke="#029e73" stroke-width="2" points="222.29,-700.19 224.1,-710.63 229.19,-701.33 222.29,-700.19"/>
</a>
</g>
<text text-anchor="middle" x="406" y="-468.01" font-family="Times,serif" font-size="14.00">Sink&#45;Temperature&#45;Fluid&#45;Outer</text>
</g>
<!-- Fluid&#45;Outer&#45;Fluid&#45;Outer&#45;to&#45;Solid&#45;&gt;Solid&#45;Fluid&#45;Outer&#45;to&#45;Solid -->
<g id="edge36" class="edge">
<title>Fluid&#45;Outer&#45;Fluid&#45;Outer&#45;to&#45;Solid&#45;&gt;Solid&#45;Fluid&#45;Outer&#45;to&#45;Solid</title>
<g id="a_edge36"><a xlink:title="scalar initialized">
<path fill="none" stroke="#029e73" stroke-width="2" d="M580.42,-159.26C563.59,-176.48 540.09,-204.05 529,-233.21 509.51,-284.44 549.42,-440.12 511,-479.21 478.15,-512.62 337.81,-469.22 301,-498.21 238.56,-547.38 223.94,-646.88 220.72,-700.68"/>
<polygon fill="#029e73" stroke="#029e73" stroke-width="2" points="217.22,-700.64 220.22,-710.81 224.21,-700.99 217.22,-700.64"/>
</a>
</g>
<text text-anchor="middle" x="406" y="-502.01" font-family="Times,serif" font-size="14.00">Heat&#45;Transfer&#45;Coefficient&#45;Fluid&#45;Outer</text>
</g>
<!-- Fluid&#45;Outer&#45;Fluid&#45;Outer&#45;to&#45;Solid&#45;&gt;Fluid&#45;Outer -->
<g id="edge16" class="edge">
<title>Fluid&#45;Outer&#45;Fluid&#45;Outer&#45;to&#45;Solid&#45;&gt;Fluid&#45;Outer</title>
<g id="a_edge16"><a xlink:title="scalar">
<path fill="none" stroke="#029e73" d="M585.15,-123.18C569.27,-104.83 541.82,-77.51 511,-66.21 423.37,-34.07 392.3,-46.83 301,-66.21 288.17,-68.93 274.91,-73.83 262.92,-79.15"/>
<polygon fill="#029e73" stroke="#029e73" points="261.2,-76.09 253.61,-83.48 264.16,-82.44 261.2,-76.09"/>
</a>
</g>
<text text-anchor="middle" x="406" y="-70.01" font-family="Times,serif" font-size="14.00">Sink&#45;Temperature&#45;Solid</text>
</g>
<!-- Fluid&#45;Outer&#45;Fluid&#45;Outer&#45;to&#45;Solid&#45;&gt;Fluid&#45;Outer -->
<g id="edge17" class="edge">
<title>Fluid&#45;Outer&#45;Fluid&#45;Outer&#45;to&#45;Solid&#45;&gt;Fluid&#45;Outer</title>
<g id="a_edge17"><a xlink:title="scalar">
<path fill="none" stroke="#029e73" d="M565.19,-123.19C549.19,-115.76 529.6,-108.01 511,-104.21 436.36,-88.97 348.7,-90.98 289.25,-95.22"/>
<polygon fill="#029e73" stroke="#029e73" points="288.93,-91.73 279.22,-95.97 289.45,-98.71 288.93,-91.73"/>
</a>
</g>
<text text-anchor="middle" x="406" y="-108.01" font-family="Times,serif" font-size="14.00">Heat&#45;Transfer&#45;Coefficient&#45;Solid</text>
</g>
<!-- Fluid&#45;Outer&#45;Solid&#45;to&#45;Fluid&#45;Outer&#45;&gt;Fluid&#45;Outer&#45;Fluid&#45;Outer&#45;to&#45;Solid -->
<g id="edge20" class="edge">
<title>Fluid&#45;Outer&#45;Solid&#45;to&#45;Fluid&#45;Outer&#45;&gt;Fluid&#45;Outer&#45;Fluid&#45;Outer&#45;to&#45;Solid</title>
<path fill="none" stroke="#029e73" d="M283.2,-168.38C342.27,-167.94 432.84,-165.71 511,-157.21 513.51,-156.93 516.06,-156.63 518.63,-156.3"/>
<polygon fill="#029e73" stroke="#029e73" points="519.19,-159.76 528.62,-154.93 518.24,-152.83 519.19,-159.76"/>
<text text-anchor="middle" x="406" y="-171.01" font-family="Times,serif" font-size="14.00">nearest&#45;neighbor</text>
</g>
</g>
</svg>
