<?xml version="1.0" encoding="UTF-8" standalone="no"?>
<!DOCTYPE svg PUBLIC "-//W3C//DTD SVG 1.1//EN"
 "http://www.w3.org/Graphics/SVG/1.1/DTD/svg11.dtd">
<!-- Generated by graphviz version 2.43.0 (0)
 -->
<!-- Title: G Pages: 1 -->
<svg width="781pt" height="408pt"
 viewBox="0.00 0.00 781.00 407.89" xmlns="http://www.w3.org/2000/svg" xmlns:xlink="http://www.w3.org/1999/xlink">
<g id="graph0" class="graph" transform="scale(1 1) rotate(0) translate(4 403.89)">
<title>G</title>
<polygon fill="white" stroke="transparent" points="-4,4 -4,-403.89 777,-403.89 777,4 -4,4"/>
<g id="clust1" class="cluster">
<title>cluster_m2n</title>
<polygon fill="none" stroke="black" points="155,-198.89 155,-257.89 259,-257.89 259,-198.89 155,-198.89"/>
<text text-anchor="middle" x="207" y="-242.69" font-family="Times,serif" font-size="14.00">Communicators</text>
</g>
<g id="clust2" class="cluster">
<title>cluster_cpl</title>
<polygon fill="none" stroke="black" points="148,-257.89 148,-316.89 267,-316.89 267,-257.89 148,-257.89"/>
<text text-anchor="middle" x="207.5" y="-301.69" font-family="Times,serif" font-size="14.00">Coupling Schemes</text>
</g>
<g id="clust3" class="cluster">
<title>cluster_Fluid</title>
<polygon fill="none" stroke="black" stroke-width="2" points="8,-316.89 8,-391.89 765,-391.89 765,-316.89 8,-316.89"/>
<text text-anchor="middle" x="386.5" y="-376.69" font-family="Times,serif" font-size="14.00">Fluid</text>
</g>
<g id="clust4" class="cluster">
<title>cluster_Solid</title>
<polygon fill="none" stroke="black" stroke-width="2" points="168.5,-61.89 168.5,-198.89 742,-198.89 742,-61.89 168.5,-61.89"/>
<text text-anchor="middle" x="455.25" y="-183.69" font-family="Times,serif" font-size="14.00">Solid</text>
</g>
<!-- m2n&#45;Fluid&#45;Solid -->
<g id="node1" class="node">
<title>m2n&#45;Fluid&#45;Solid</title>
<polygon fill="none" stroke="black" points="235,-234.89 179,-234.89 179,-230.89 175,-230.89 175,-226.89 179,-226.89 179,-206.89 175,-206.89 175,-202.89 179,-202.89 179,-198.89 235,-198.89 235,-234.89"/>
<polyline fill="none" stroke="black" points="179,-230.89 183,-230.89 183,-226.89 179,-226.89 "/>
<polyline fill="none" stroke="black" points="179,-206.89 183,-206.89 183,-202.89 179,-202.89 "/>
<text text-anchor="middle" x="207" y="-213.19" font-family="Times,serif" font-size="14.00">sockets</text>
</g>
<!-- Fluid -->
<g id="node3" class="node">
<title>Fluid</title>
<polygon fill="none" stroke="#0173b2" points="480.8,-331.43 480.8,-346.35 462.17,-356.89 435.83,-356.89 417.2,-346.35 417.2,-331.43 435.83,-320.89 462.17,-320.89 480.8,-331.43"/>
<polygon fill="none" stroke="#0173b2" points="484.82,-329.11 484.82,-348.67 463.23,-360.89 434.77,-360.89 413.18,-348.67 413.18,-329.11 434.77,-316.89 463.23,-316.89 484.82,-329.11"/>
<text text-anchor="middle" x="449" y="-335.19" font-family="Times,serif" font-size="14.00">Fluid</text>
</g>
<!-- m2n&#45;Fluid&#45;Solid&#45;&gt;Fluid -->
<g id="edge8" class="edge">
<title>m2n&#45;Fluid&#45;Solid&#45;&gt;Fluid</title>
<path fill="none" stroke="#0173b2" d="M244.32,-233.56C276.96,-248.73 326.08,-272.04 368,-293.89 378.83,-299.53 390.34,-305.83 401.16,-311.88"/>
<polygon fill="#0173b2" stroke="#0173b2" points="245.7,-230.34 235.15,-229.31 242.76,-236.69 245.7,-230.34"/>
<polygon fill="#0173b2" stroke="#0173b2" points="399.62,-315.03 410.05,-316.89 403.05,-308.93 399.62,-315.03"/>
</g>
<!-- Solid -->
<g id="node7" class="node">
<title>Solid</title>
<polygon fill="none" stroke="#de8f05" points="480.8,-76.43 480.8,-91.35 462.17,-101.89 435.83,-101.89 417.2,-91.35 417.2,-76.43 435.83,-65.89 462.17,-65.89 480.8,-76.43"/>
<polygon fill="none" stroke="#de8f05" points="484.82,-74.11 484.82,-93.67 463.23,-105.89 434.77,-105.89 413.18,-93.67 413.18,-74.11 434.77,-61.89 463.23,-61.89 484.82,-74.11"/>
<text text-anchor="middle" x="449" y="-80.19" font-family="Times,serif" font-size="14.00">Solid</text>
</g>
<!-- m2n&#45;Fluid&#45;Solid&#45;&gt;Solid -->
<g id="edge9" class="edge">
<title>m2n&#45;Fluid&#45;Solid&#45;&gt;Solid</title>
<path fill="none" stroke="#de8f05" d="M244.89,-206.75C248.61,-205.51 252.41,-204.16 256.19,-202.71"/>
<polygon fill="#de8f05" stroke="#de8f05" points="243.54,-203.5 235.07,-209.86 245.66,-210.18 243.54,-203.5"/>
<polygon fill="#de8f05" stroke="#de8f05" points="257.59,-205.91 265.52,-198.89 254.94,-199.44 257.59,-205.91"/>
</g>
<!-- cpl&#45;Fluid&#45;Solid -->
<g id="node2" class="node">
<title>cpl&#45;Fluid&#45;Solid</title>
<polygon fill="none" stroke="black" points="259,-293.89 155,-293.89 155,-289.89 151,-289.89 151,-285.89 155,-285.89 155,-265.89 151,-265.89 151,-261.89 155,-261.89 155,-257.89 259,-257.89 259,-293.89"/>
<polyline fill="none" stroke="black" points="155,-289.89 159,-289.89 159,-285.89 155,-285.89 "/>
<polyline fill="none" stroke="black" points="155,-265.89 159,-265.89 159,-261.89 155,-261.89 "/>
<text text-anchor="middle" x="207" y="-272.19" font-family="Times,serif" font-size="14.00">parallel&#45;implicit</text>
</g>
<!-- cpl&#45;Fluid&#45;Solid&#45;&gt;Fluid -->
<g id="edge10" class="edge">
<title>cpl&#45;Fluid&#45;Solid&#45;&gt;Fluid</title>
<path fill="none" stroke="#0173b2" d="M259.19,-289.33C286.86,-296.59 321.89,-305.79 354.25,-314.28"/>
<polygon fill="#0173b2" stroke="#0173b2" points="353.64,-317.74 364.2,-316.89 355.41,-310.97 353.64,-317.74"/>
<text text-anchor="middle" x="270.19" y="-278.13" font-family="Times,serif" font-size="14.00">first</text>
</g>
<!-- cpl&#45;Fluid&#45;Solid&#45;&gt;Solid -->
<g id="edge11" class="edge">
<title>cpl&#45;Fluid&#45;Solid&#45;&gt;Solid</title>
<path fill="none" stroke="#de8f05" d="M259.03,-261.28C264.22,-259.09 269.31,-256.63 274,-253.89 305.84,-235.3 323.07,-224.83 339.81,-206.6"/>
<polygon fill="#de8f05" stroke="#de8f05" points="342.59,-208.74 346.49,-198.89 337.3,-204.16 342.59,-208.74"/>
<text text-anchor="middle" x="278.03" y="-250.08" font-family="Times,serif" font-size="14.00">second</text>
</g>
<!-- Fluid&#45;Fluid&#45;Mesh&#45;Centers -->
<g id="node5" class="node">
<title>Fluid&#45;Fluid&#45;Mesh&#45;Centers</title>
<path fill="none" stroke="#0173b2" d="M765,-351.62C765,-353.42 733.4,-354.89 694.5,-354.89 655.6,-354.89 624,-353.42 624,-351.62 624,-351.62 624,-322.16 624,-322.16 624,-320.36 655.6,-318.89 694.5,-318.89 733.4,-318.89 765,-320.36 765,-322.16 765,-322.16 765,-351.62 765,-351.62"/>
<path fill="none" stroke="#0173b2" d="M765,-351.62C765,-349.81 733.4,-348.34 694.5,-348.34 655.6,-348.34 624,-349.81 624,-351.62"/>
<text text-anchor="start" x="632" y="-334.19" font-family="Times,serif" font-size="14.00">Fluid&#45;Mesh&#45;Centers</text>
<text text-anchor="start" x="742" y="-334.19" font-family="Times,serif" font-style="italic" baseline-shift="super" font-size="14.00">2D</text>
</g>
<!-- Fluid&#45;&gt;Fluid&#45;Fluid&#45;Mesh&#45;Centers -->
<g id="edge2" class="edge">
<title>Fluid&#45;&gt;Fluid&#45;Fluid&#45;Mesh&#45;Centers</title>
<g id="a_edge2"><a xlink:title="vector">
<path fill="none" stroke="#0173b2" d="M484.89,-338.6C518.32,-338.33 569.97,-337.9 613.52,-337.55"/>
<polygon fill="#0173b2" stroke="#0173b2" points="613.56,-341.05 623.53,-337.46 613.51,-334.05 613.56,-341.05"/>
</a>
</g>
<text text-anchor="middle" x="568" y="-341.69" font-family="Times,serif" font-size="14.00">Stress</text>
</g>
<!-- Fluid&#45;Fluid&#45;Mesh&#45;Nodes -->
<g id="node4" class="node">
<title>Fluid&#45;Fluid&#45;Mesh&#45;Nodes</title>
<path fill="none" stroke="#0173b2" d="M274,-356.62C274,-358.42 243.97,-359.89 207,-359.89 170.03,-359.89 140,-358.42 140,-356.62 140,-356.62 140,-327.16 140,-327.16 140,-325.36 170.03,-323.89 207,-323.89 243.97,-323.89 274,-325.36 274,-327.16 274,-327.16 274,-356.62 274,-356.62"/>
<path fill="none" stroke="#0173b2" d="M274,-356.62C274,-354.81 243.97,-353.34 207,-353.34 170.03,-353.34 140,-354.81 140,-356.62"/>
<text text-anchor="start" x="148" y="-339.19" font-family="Times,serif" font-size="14.00">Fluid&#45;Mesh&#45;Nodes</text>
<text text-anchor="start" x="251" y="-339.19" font-family="Times,serif" font-style="italic" baseline-shift="super" font-size="14.00">2D</text>
</g>
<!-- Fluid&#45;Fluid&#45;Mesh&#45;Nodes&#45;&gt;Fluid -->
<g id="edge1" class="edge">
<title>Fluid&#45;Fluid&#45;Mesh&#45;Nodes&#45;&gt;Fluid</title>
<g id="a_edge1"><a xlink:title="vector">
<path fill="none" stroke="#0173b2" d="M274.22,-341.06C315.13,-340.55 366.56,-339.91 402.83,-339.45"/>
<polygon fill="#0173b2" stroke="#0173b2" points="403.14,-342.95 413.1,-339.33 403.05,-335.95 403.14,-342.95"/>
</a>
</g>
<text text-anchor="middle" x="330" y="-343.69" font-family="Times,serif" font-size="14.00">Displacement</text>
</g>
<!-- Solid&#45;Fluid&#45;Mesh&#45;Centers -->
<g id="node9" class="node">
<title>Solid&#45;Fluid&#45;Mesh&#45;Centers</title>
<path fill="none" stroke="#0173b2" stroke-dasharray="5,2" d="M512,-171.37C512,-174 483.76,-176.14 449,-176.14 414.24,-176.14 386,-174 386,-171.37 386,-171.37 386,-128.41 386,-128.41 386,-125.78 414.24,-123.64 449,-123.64 483.76,-123.64 512,-125.78 512,-128.41 512,-128.41 512,-171.37 512,-171.37"/>
<path fill="none" stroke="#0173b2" stroke-dasharray="5,2" d="M512,-171.37C512,-168.73 483.76,-166.6 449,-166.6 414.24,-166.6 386,-168.73 386,-171.37"/>
<text text-anchor="middle" x="449" y="-153.69" font-family="Times,serif" font-size="14.00">Fluid&#45;Mesh&#45;Centers</text>
<text text-anchor="middle" x="449" y="-138.69" font-family="Times,serif" font-size="14.00">from Fluid</text>
</g>
<!-- Fluid&#45;Fluid&#45;Mesh&#45;Centers&#45;&gt;Solid&#45;Fluid&#45;Mesh&#45;Centers -->
<g id="edge12" class="edge">
<title>Fluid&#45;Fluid&#45;Mesh&#45;Centers&#45;&gt;Solid&#45;Fluid&#45;Mesh&#45;Centers</title>
<g id="a_edge12"><a xlink:title="vector">
<path fill="none" stroke="#0173b2" d="M669.87,-318.74C628.74,-287.16 543.49,-221.69 492.07,-182.19"/>
<polygon fill="#0173b2" stroke="#0173b2" points="494.18,-179.4 484.11,-176.09 489.91,-184.96 494.18,-179.4"/>
</a>
</g>
<text text-anchor="middle" x="568" y="-268.69" font-family="Times,serif" font-size="14.00">Stress</text>
</g>
<!-- Fluid&#45;Solid&#45;Mesh -->
<g id="node6" class="node">
<title>Fluid&#45;Solid&#45;Mesh</title>
<path fill="none" stroke="#de8f05" stroke-dasharray="5,2" d="M88,-364.37C88,-367 70.07,-369.14 48,-369.14 25.93,-369.14 8,-367 8,-364.37 8,-364.37 8,-321.41 8,-321.41 8,-318.78 25.93,-316.64 48,-316.64 70.07,-316.64 88,-318.78 88,-321.41 88,-321.41 88,-364.37 88,-364.37"/>
<path fill="none" stroke="#de8f05" stroke-dasharray="5,2" d="M88,-364.37C88,-361.73 70.07,-359.6 48,-359.6 25.93,-359.6 8,-361.73 8,-364.37"/>
<text text-anchor="middle" x="48" y="-346.69" font-family="Times,serif" font-size="14.00">Solid&#45;Mesh</text>
<text text-anchor="middle" x="48" y="-331.69" font-family="Times,serif" font-size="14.00">from Solid</text>
</g>
<!-- Fluid&#45;Solid&#45;Mesh&#45;&gt;Fluid&#45;Fluid&#45;Mesh&#45;Nodes -->
<g id="edge3" class="edge">
<title>Fluid&#45;Solid&#45;Mesh&#45;&gt;Fluid&#45;Fluid&#45;Mesh&#45;Nodes</title>
<path fill="none" stroke="#0173b2" d="M88.21,-342.64C100.78,-342.56 115.17,-342.47 129.46,-342.38"/>
<polygon fill="#0173b2" stroke="#0173b2" points="129.85,-345.88 139.83,-342.31 129.8,-338.88 129.85,-345.88"/>
<text text-anchor="middle" x="114" y="-345.69" font-family="Times,serif" font-size="14.00">rbf</text>
</g>
<!-- Solid&#45;Solid&#45;Mesh -->
<g id="node8" class="node">
<title>Solid&#45;Solid&#45;Mesh</title>
<path fill="none" stroke="#de8f05" d="M742,-113.62C742,-115.42 720.71,-116.89 694.5,-116.89 668.29,-116.89 647,-115.42 647,-113.62 647,-113.62 647,-84.16 647,-84.16 647,-82.36 668.29,-80.89 694.5,-80.89 720.71,-80.89 742,-82.36 742,-84.16 742,-84.16 742,-113.62 742,-113.62"/>
<path fill="none" stroke="#de8f05" d="M742,-113.62C742,-111.81 720.71,-110.34 694.5,-110.34 668.29,-110.34 647,-111.81 647,-113.62"/>
<text text-anchor="start" x="655" y="-96.19" font-family="Times,serif" font-size="14.00">Solid&#45;Mesh</text>
<text text-anchor="start" x="719" y="-96.19" font-family="Times,serif" font-style="italic" baseline-shift="super" font-size="14.00">2D</text>
</g>
<!-- Solid&#45;&gt;Solid&#45;Solid&#45;Mesh -->
<g id="edge5" class="edge">
<title>Solid&#45;&gt;Solid&#45;Solid&#45;Mesh</title>
<g id="a_edge5"><a xlink:title="vector">
<path fill="none" stroke="#de8f05" d="M485,-80.16C498.98,-78.85 515.24,-77.53 530,-76.89 563.75,-75.42 572.48,-72.74 606,-76.89 616.03,-78.13 626.56,-80.14 636.7,-82.46"/>
<polygon fill="#de8f05" stroke="#de8f05" points="636.13,-85.92 646.68,-84.86 637.77,-79.12 636.13,-85.92"/>
</a>
</g>
<text text-anchor="middle" x="568" y="-80.69" font-family="Times,serif" font-size="14.00">Displacement</text>
</g>
<!-- Solid&#45;Solid&#45;Mesh&#45;&gt;Fluid&#45;Solid&#45;Mesh -->
<g id="edge13" class="edge">
<title>Solid&#45;Solid&#45;Mesh&#45;&gt;Fluid&#45;Solid&#45;Mesh</title>
<g id="a_edge13"><a xlink:title="vector">
<path fill="none" stroke="#de8f05" d="M657.7,-81.55C562.61,-38.27 300.08,62.79 140,-55.89 60.61,-114.75 48.85,-243.2 48.13,-306.36"/>
<polygon fill="#de8f05" stroke="#de8f05" points="44.63,-306.63 48.1,-316.64 51.63,-306.65 44.63,-306.63"/>
</a>
</g>
<text text-anchor="middle" x="330" y="-5.69" font-family="Times,serif" font-size="14.00">Displacement</text>
</g>
<!-- Solid&#45;Solid&#45;Mesh&#45;&gt;Solid -->
<g id="edge4" class="edge">
<title>Solid&#45;Solid&#45;Mesh&#45;&gt;Solid</title>
<g id="a_edge4"><a xlink:title="vector">
<path fill="none" stroke="#de8f05" d="M646.9,-99.65C614.15,-99.79 569.32,-99.19 530,-95.89 518.64,-94.94 506.45,-93.38 495.08,-91.7"/>
<polygon fill="#de8f05" stroke="#de8f05" points="495.35,-88.2 484.93,-90.14 494.28,-95.12 495.35,-88.2"/>
</a>
</g>
<text text-anchor="middle" x="568" y="-102.69" font-family="Times,serif" font-size="14.00">Stress</text>
</g>
<!-- Solid&#45;Fluid&#45;Mesh&#45;Centers&#45;&gt;Solid&#45;Solid&#45;Mesh -->
<g id="edge7" class="edge">
<title>Solid&#45;Fluid&#45;Mesh&#45;Centers&#45;&gt;Solid&#45;Solid&#45;Mesh</title>
<path fill="none" stroke="#de8f05" d="M512.28,-137.29C540.85,-131.46 575.16,-124.4 606,-117.89 615.92,-115.79 626.47,-113.53 636.69,-111.33"/>
<polygon fill="#de8f05" stroke="#de8f05" points="637.72,-114.68 646.75,-109.15 636.23,-107.84 637.72,-114.68"/>
<text text-anchor="middle" x="568" y="-136.69" font-family="Times,serif" font-size="14.00">rbf</text>
</g>
<!-- Solid&#45;WP&#45;Flap&#45;Tip -->
<g id="node10" class="node">
<title>Solid&#45;WP&#45;Flap&#45;Tip</title>
<polygon fill="none" stroke="#de8f05" points="239.5,-102.89 168.5,-102.89 168.5,-64.89 245.5,-64.89 245.5,-96.89 239.5,-102.89"/>
<polyline fill="none" stroke="#de8f05" points="239.5,-102.89 239.5,-96.89 "/>
<polyline fill="none" stroke="#de8f05" points="245.5,-96.89 239.5,-96.89 "/>
<text text-anchor="middle" x="207" y="-87.69" font-family="Times,serif" font-size="14.00">Flap&#45;Tip</text>
<text text-anchor="middle" x="207" y="-72.69" font-family="Times,serif" font-size="14.00">at (0.6;0.2)</text>
</g>
<!-- Solid&#45;WP&#45;Flap&#45;Tip&#45;&gt;Solid -->
<g id="edge6" class="edge">
<title>Solid&#45;WP&#45;Flap&#45;Tip&#45;&gt;Solid</title>
<path fill="none" stroke="#de8f05" d="M245.76,-83.89C288.38,-83.89 357.67,-83.89 403.04,-83.89"/>
<polygon fill="#de8f05" stroke="#de8f05" points="403.18,-87.39 413.18,-83.89 403.18,-80.39 403.18,-87.39"/>
</g>
</g>
</svg>
