<?xml version="1.0" encoding="UTF-8" standalone="no"?>
<!DOCTYPE svg PUBLIC "-//W3C//DTD SVG 1.1//EN"
 "http://www.w3.org/Graphics/SVG/1.1/DTD/svg11.dtd">
<!-- Generated by graphviz version 2.43.0 (0)
 -->
<!-- Title: G Pages: 1 -->
<svg width="641pt" height="236pt"
 viewBox="0.00 0.00 641.31 236.00" xmlns="http://www.w3.org/2000/svg" xmlns:xlink="http://www.w3.org/1999/xlink">
<g id="graph0" class="graph" transform="scale(1 1) rotate(0) translate(4 232)">
<title>G</title>
<polygon fill="white" stroke="transparent" points="-4,4 -4,-232 637.31,-232 637.31,4 -4,4"/>
<g id="clust1" class="cluster">
<title>cluster_m2n</title>
<polygon fill="none" stroke="black" points="7.5,-102 7.5,-161 111.5,-161 111.5,-102 7.5,-102"/>
<text text-anchor="middle" x="59.5" y="-145.8" font-family="Times,serif" font-size="14.00">Communicators</text>
</g>
<g id="clust2" class="cluster">
<title>cluster_cpl</title>
<polygon fill="none" stroke="black" points="0,-161 0,-220 119,-220 119,-161 0,-161"/>
<text text-anchor="middle" x="59.5" y="-204.8" font-family="Times,serif" font-size="14.00">Coupling Schemes</text>
</g>
<g id="clust3" class="cluster">
<title>cluster_Fluid</title>
<polygon fill="none" stroke="black" stroke-width="2" points="155,-106 155,-200 625.31,-200 625.31,-106 155,-106"/>
<text text-anchor="middle" x="390.16" y="-184.8" font-family="Times,serif" font-size="14.00">Fluid</text>
</g>
<g id="clust4" class="cluster">
<title>cluster_Solid</title>
<polygon fill="none" stroke="black" stroke-width="2" points="17.5,-8 17.5,-102 433.31,-102 433.31,-8 17.5,-8"/>
<text text-anchor="middle" x="225.41" y="-86.8" font-family="Times,serif" font-size="14.00">Solid</text>
</g>
<!-- m2n&#45;Fluid&#45;Solid -->
<g id="node1" class="node">
<title>m2n&#45;Fluid&#45;Solid</title>
<polygon fill="none" stroke="black" points="87.5,-138 31.5,-138 31.5,-134 27.5,-134 27.5,-130 31.5,-130 31.5,-110 27.5,-110 27.5,-106 31.5,-106 31.5,-102 87.5,-102 87.5,-138"/>
<polyline fill="none" stroke="black" points="31.5,-134 35.5,-134 35.5,-130 31.5,-130 "/>
<polyline fill="none" stroke="black" points="31.5,-110 35.5,-110 35.5,-106 31.5,-106 "/>
<text text-anchor="middle" x="59.5" y="-116.3" font-family="Times,serif" font-size="14.00">sockets</text>
</g>
<!-- Fluid -->
<g id="node3" class="node">
<title>Fluid</title>
<polygon fill="none" stroke="#0173b2" points="222.45,-124.54 222.45,-139.46 203.83,-150 177.49,-150 158.86,-139.46 158.86,-124.54 177.49,-114 203.83,-114 222.45,-124.54"/>
<polygon fill="none" stroke="#0173b2" points="226.47,-122.22 226.47,-141.78 204.89,-154 176.42,-154 154.84,-141.78 154.84,-122.22 176.42,-110 204.89,-110 226.47,-122.22"/>
<text text-anchor="middle" x="190.66" y="-128.3" font-family="Times,serif" font-size="14.00">Fluid</text>
</g>
<!-- m2n&#45;Fluid&#45;Solid&#45;&gt;Fluid -->
<g id="edge8" class="edge">
<title>m2n&#45;Fluid&#45;Solid&#45;&gt;Fluid</title>
<path fill="none" stroke="#0173b2" d="M97.7,-123.46C112.29,-124.81 129.18,-126.38 144.47,-127.8"/>
<polygon fill="#0173b2" stroke="#0173b2" points="97.86,-119.96 87.58,-122.52 97.21,-126.93 97.86,-119.96"/>
<polygon fill="#0173b2" stroke="#0173b2" points="144.72,-131.34 155,-128.76 145.36,-124.37 144.72,-131.34"/>
</g>
<!-- Solid -->
<g id="node6" class="node">
<title>Solid</title>
<polygon fill="none" stroke="#de8f05" points="222.45,-49.54 222.45,-64.46 203.83,-75 177.49,-75 158.86,-64.46 158.86,-49.54 177.49,-39 203.83,-39 222.45,-49.54"/>
<polygon fill="none" stroke="#de8f05" points="226.47,-47.22 226.47,-66.78 204.89,-79 176.42,-79 154.84,-66.78 154.84,-47.22 176.42,-35 204.89,-35 226.47,-47.22"/>
<text text-anchor="middle" x="190.66" y="-53.3" font-family="Times,serif" font-size="14.00">Solid</text>
</g>
<!-- m2n&#45;Fluid&#45;Solid&#45;&gt;Solid -->
<g id="edge9" class="edge">
<title>m2n&#45;Fluid&#45;Solid&#45;&gt;Solid</title>
<path fill="none" stroke="#de8f05" d="M97.36,-107.2C98.42,-106.79 99.48,-106.38 100.55,-105.95"/>
<polygon fill="#de8f05" stroke="#de8f05" points="95.81,-104.05 87.68,-110.84 98.27,-110.6 95.81,-104.05"/>
<polygon fill="#de8f05" stroke="#de8f05" points="102.23,-109.05 110.14,-102 99.56,-102.58 102.23,-109.05"/>
</g>
<!-- cpl&#45;Solid&#45;Fluid -->
<g id="node2" class="node">
<title>cpl&#45;Solid&#45;Fluid</title>
<polygon fill="none" stroke="black" points="105,-197 14,-197 14,-193 10,-193 10,-189 14,-189 14,-169 10,-169 10,-165 14,-165 14,-161 105,-161 105,-197"/>
<polyline fill="none" stroke="black" points="14,-193 18,-193 18,-189 14,-189 "/>
<polyline fill="none" stroke="black" points="14,-169 18,-169 18,-165 14,-165 "/>
<text text-anchor="middle" x="59.5" y="-175.3" font-family="Times,serif" font-size="14.00">serial&#45;explicit</text>
</g>
<!-- cpl&#45;Solid&#45;Fluid&#45;&gt;Fluid -->
<g id="edge11" class="edge">
<title>cpl&#45;Solid&#45;Fluid&#45;&gt;Fluid</title>
<path fill="none" stroke="#0173b2" d="M105.3,-172.18C115.89,-169.87 127,-166.87 137,-163 140.01,-161.84 143.05,-160.51 146.06,-159.08"/>
<polygon fill="#0173b2" stroke="#0173b2" points="147.69,-162.18 155,-154.52 144.5,-155.95 147.69,-162.18"/>
<text text-anchor="middle" x="124.3" y="-160.98" font-family="Times,serif" font-size="14.00">second</text>
</g>
<!-- cpl&#45;Solid&#45;Fluid&#45;&gt;Solid -->
<g id="edge10" class="edge">
<title>cpl&#45;Solid&#45;Fluid&#45;&gt;Solid</title>
<path fill="none" stroke="#de8f05" d="M105.25,-165.63C110.15,-163.18 114.85,-160.32 119,-157 138.95,-141.02 138.59,-129.13 149.53,-110.45"/>
<polygon fill="#de8f05" stroke="#de8f05" points="152.5,-112.3 155,-102 146.63,-108.49 152.5,-112.3"/>
<text text-anchor="middle" x="116.25" y="-169.43" font-family="Times,serif" font-size="14.00">first</text>
</g>
<!-- Fluid&#45;Fluid&#45;Mesh -->
<g id="node4" class="node">
<title>Fluid&#45;Fluid&#45;Mesh</title>
<path fill="none" stroke="#0173b2" d="M433.31,-155.73C433.31,-157.53 412.02,-159 385.81,-159 359.6,-159 338.31,-157.53 338.31,-155.73 338.31,-155.73 338.31,-126.27 338.31,-126.27 338.31,-124.47 359.6,-123 385.81,-123 412.02,-123 433.31,-124.47 433.31,-126.27 433.31,-126.27 433.31,-155.73 433.31,-155.73"/>
<path fill="none" stroke="#0173b2" d="M433.31,-155.73C433.31,-153.92 412.02,-152.45 385.81,-152.45 359.6,-152.45 338.31,-153.92 338.31,-155.73"/>
<text text-anchor="start" x="346.31" y="-138.3" font-family="Times,serif" font-size="14.00">Fluid&#45;Mesh</text>
<text text-anchor="start" x="410.31" y="-138.3" font-family="Times,serif" font-style="italic" baseline-shift="super" font-size="14.00">2D</text>
</g>
<!-- Fluid&#45;&gt;Fluid&#45;Fluid&#45;Mesh -->
<g id="edge2" class="edge">
<title>Fluid&#45;&gt;Fluid&#45;Fluid&#45;Mesh</title>
<g id="a_edge2"><a xlink:title="vector">
<path fill="none" stroke="#0173b2" d="M226.34,-123.7C232.3,-122.58 238.46,-121.6 244.31,-121 277.91,-117.53 286.92,-115.94 320.31,-121 322.85,-121.38 325.42,-121.85 328.01,-122.38"/>
<polygon fill="#0173b2" stroke="#0173b2" points="327.46,-125.84 337.99,-124.7 329.04,-119.02 327.46,-125.84"/>
</a>
</g>
<text text-anchor="middle" x="282.31" y="-124.8" font-family="Times,serif" font-size="14.00">Force</text>
</g>
<!-- Fluid&#45;Fluid&#45;Mesh&#45;&gt;Fluid -->
<g id="edge1" class="edge">
<title>Fluid&#45;Fluid&#45;Mesh&#45;&gt;Fluid</title>
<g id="a_edge1"><a xlink:title="vector">
<path fill="none" stroke="#0173b2" d="M338.23,-142.34C310.84,-142.71 275.56,-142.47 244.31,-140 241.77,-139.8 239.17,-139.55 236.55,-139.26"/>
<polygon fill="#0173b2" stroke="#0173b2" points="236.77,-135.76 226.41,-138 235.91,-142.71 236.77,-135.76"/>
</a>
</g>
<text text-anchor="middle" x="282.31" y="-145.8" font-family="Times,serif" font-size="14.00">Displacement</text>
</g>
<!-- Fluid&#45;Solid&#45;Mesh -->
<g id="node5" class="node">
<title>Fluid&#45;Solid&#45;Mesh</title>
<path fill="none" stroke="#de8f05" stroke-dasharray="5,2" d="M625.31,-153.48C625.31,-156.11 607.39,-158.25 585.31,-158.25 563.24,-158.25 545.31,-156.11 545.31,-153.48 545.31,-153.48 545.31,-110.52 545.31,-110.52 545.31,-107.89 563.24,-105.75 585.31,-105.75 607.39,-105.75 625.31,-107.89 625.31,-110.52 625.31,-110.52 625.31,-153.48 625.31,-153.48"/>
<path fill="none" stroke="#de8f05" stroke-dasharray="5,2" d="M625.31,-153.48C625.31,-150.84 607.39,-148.7 585.31,-148.7 563.24,-148.7 545.31,-150.84 545.31,-153.48"/>
<text text-anchor="middle" x="585.31" y="-135.8" font-family="Times,serif" font-size="14.00">Solid&#45;Mesh</text>
<text text-anchor="middle" x="585.31" y="-120.8" font-family="Times,serif" font-size="14.00">from Solid</text>
</g>
<!-- Fluid&#45;Fluid&#45;Mesh&#45;&gt;Fluid&#45;Solid&#45;Mesh -->
<g id="edge4" class="edge">
<title>Fluid&#45;Fluid&#45;Mesh&#45;&gt;Fluid&#45;Solid&#45;Mesh</title>
<path fill="none" stroke="#0173b2" d="M433.64,-124.7C439.53,-123.18 445.52,-121.88 451.31,-121 484.71,-115.94 493.69,-117.79 527.31,-121 529.86,-121.24 532.46,-121.55 535.08,-121.9"/>
<polygon fill="#0173b2" stroke="#0173b2" points="534.8,-125.39 545.21,-123.44 535.85,-118.47 534.8,-125.39"/>
<text text-anchor="middle" x="489.31" y="-124.8" font-family="Times,serif" font-size="14.00">rbf</text>
</g>
<!-- Fluid&#45;Solid&#45;Mesh&#45;&gt;Fluid&#45;Fluid&#45;Mesh -->
<g id="edge3" class="edge">
<title>Fluid&#45;Solid&#45;Mesh&#45;&gt;Fluid&#45;Fluid&#45;Mesh</title>
<path fill="none" stroke="#0173b2" d="M545.14,-138.19C539.18,-138.93 533.09,-139.58 527.31,-140 499.84,-142.02 469.26,-142.45 443.66,-142.3"/>
<polygon fill="#0173b2" stroke="#0173b2" points="443.42,-138.8 433.39,-142.21 443.36,-145.8 443.42,-138.8"/>
<text text-anchor="middle" x="489.31" y="-145.8" font-family="Times,serif" font-size="14.00">rbf</text>
</g>
<!-- Solid&#45;Solid&#45;Mesh -->
<g id="node7" class="node">
<title>Solid&#45;Solid&#45;Mesh</title>
<path fill="none" stroke="#de8f05" d="M433.31,-68.73C433.31,-70.53 412.02,-72 385.81,-72 359.6,-72 338.31,-70.53 338.31,-68.73 338.31,-68.73 338.31,-39.27 338.31,-39.27 338.31,-37.47 359.6,-36 385.81,-36 412.02,-36 433.31,-37.47 433.31,-39.27 433.31,-39.27 433.31,-68.73 433.31,-68.73"/>
<path fill="none" stroke="#de8f05" d="M433.31,-68.73C433.31,-66.92 412.02,-65.45 385.81,-65.45 359.6,-65.45 338.31,-66.92 338.31,-68.73"/>
<text text-anchor="start" x="346.31" y="-51.3" font-family="Times,serif" font-size="14.00">Solid&#45;Mesh</text>
<text text-anchor="start" x="410.31" y="-51.3" font-family="Times,serif" font-style="italic" baseline-shift="super" font-size="14.00">2D</text>
</g>
<!-- Fluid&#45;Solid&#45;Mesh&#45;&gt;Solid&#45;Solid&#45;Mesh -->
<g id="edge12" class="edge">
<title>Fluid&#45;Solid&#45;Mesh&#45;&gt;Solid&#45;Solid&#45;Mesh</title>
<g id="a_edge12"><a xlink:title="vector">
<path fill="none" stroke="#0173b2" d="M574.3,-105.78C565.26,-86.21 549.9,-60.89 527.31,-49 501.94,-35.64 470.26,-35.6 443.41,-39.46"/>
<polygon fill="#0173b2" stroke="#0173b2" points="442.68,-36.04 433.38,-41.11 443.82,-42.94 442.68,-36.04"/>
</a>
</g>
<text text-anchor="middle" x="489.31" y="-52.8" font-family="Times,serif" font-size="14.00">Force</text>
</g>
<!-- Solid&#45;&gt;Solid&#45;Solid&#45;Mesh -->
<g id="edge6" class="edge">
<title>Solid&#45;&gt;Solid&#45;Solid&#45;Mesh</title>
<g id="a_edge6"><a xlink:title="vector">
<path fill="none" stroke="#de8f05" d="M220.64,-43.85C228.19,-41.02 236.43,-38.45 244.31,-37 277.54,-30.9 286.82,-32.66 320.31,-37 322.97,-37.34 325.67,-37.76 328.39,-38.24"/>
<polygon fill="#de8f05" stroke="#de8f05" points="327.75,-41.69 338.24,-40.22 329.12,-34.82 327.75,-41.69"/>
</a>
</g>
<text text-anchor="middle" x="282.31" y="-40.8" font-family="Times,serif" font-size="14.00">Displacement</text>
</g>
<!-- Solid&#45;Solid&#45;Mesh&#45;&gt;Fluid&#45;Solid&#45;Mesh -->
<g id="edge13" class="edge">
<title>Solid&#45;Solid&#45;Mesh&#45;&gt;Fluid&#45;Solid&#45;Mesh</title>
<g id="a_edge13"><a xlink:title="vector">
<path fill="none" stroke="#de8f05" d="M433.62,-66.26C461.4,-74.2 496.99,-85.55 527.31,-99 530.15,-100.26 533.02,-101.62 535.9,-103.05"/>
<polygon fill="#de8f05" stroke="#de8f05" points="534.54,-106.28 545.02,-107.8 537.77,-100.08 534.54,-106.28"/>
</a>
</g>
<text text-anchor="middle" x="489.31" y="-102.8" font-family="Times,serif" font-size="14.00">Displacement</text>
</g>
<!-- Solid&#45;Solid&#45;Mesh&#45;&gt;Solid -->
<g id="edge5" class="edge">
<title>Solid&#45;Solid&#45;Mesh&#45;&gt;Solid</title>
<g id="a_edge5"><a xlink:title="vector">
<path fill="none" stroke="#de8f05" d="M338.1,-54.73C307.38,-55.2 267.4,-55.82 236.97,-56.3"/>
<polygon fill="#de8f05" stroke="#de8f05" points="236.58,-52.8 226.64,-56.46 236.69,-59.8 236.58,-52.8"/>
</a>
</g>
<text text-anchor="middle" x="282.31" y="-60.8" font-family="Times,serif" font-size="14.00">Force</text>
</g>
<!-- Solid&#45;WP&#45;Flap&#45;Tip -->
<g id="node8" class="node">
<title>Solid&#45;WP&#45;Flap&#45;Tip</title>
<polygon fill="none" stroke="#de8f05" points="95.5,-76 17.5,-76 17.5,-38 101.5,-38 101.5,-70 95.5,-76"/>
<polyline fill="none" stroke="#de8f05" points="95.5,-76 95.5,-70 "/>
<polyline fill="none" stroke="#de8f05" points="101.5,-70 95.5,-70 "/>
<text text-anchor="middle" x="59.5" y="-60.8" font-family="Times,serif" font-size="14.00">Flap&#45;Tip</text>
<text text-anchor="middle" x="59.5" y="-45.8" font-family="Times,serif" font-size="14.00">at (0.25;0.0)</text>
</g>
<!-- Solid&#45;WP&#45;Flap&#45;Tip&#45;&gt;Solid -->
<g id="edge7" class="edge">
<title>Solid&#45;WP&#45;Flap&#45;Tip&#45;&gt;Solid</title>
<path fill="none" stroke="#de8f05" d="M101.72,-57C115.37,-57 130.63,-57 144.55,-57"/>
<polygon fill="#de8f05" stroke="#de8f05" points="144.89,-60.5 154.89,-57 144.89,-53.5 144.89,-60.5"/>
</g>
</g>
</svg>
