<?xml version="1.0" encoding="UTF-8" standalone="no"?>
<!DOCTYPE svg PUBLIC "-//W3C//DTD SVG 1.1//EN"
 "http://www.w3.org/Graphics/SVG/1.1/DTD/svg11.dtd">
<!-- Generated by graphviz version 2.43.0 (0)
 -->
<!-- Title: G Pages: 1 -->
<svg width="570pt" height="346pt"
 viewBox="0.00 0.00 570.00 346.00" xmlns="http://www.w3.org/2000/svg" xmlns:xlink="http://www.w3.org/1999/xlink">
<g id="graph0" class="graph" transform="scale(1 1) rotate(0) translate(4 342)">
<title>G</title>
<polygon fill="white" stroke="transparent" points="-4,4 -4,-342 566,-342 566,4 -4,4"/>
<g id="clust1" class="cluster">
<title>cluster_m2n</title>
<polygon fill="none" stroke="black" points="7.5,-176 7.5,-235 111.5,-235 111.5,-176 7.5,-176"/>
<text text-anchor="middle" x="59.5" y="-219.8" font-family="Times,serif" font-size="14.00">Communicators</text>
</g>
<g id="clust2" class="cluster">
<title>cluster_cpl</title>
<polygon fill="none" stroke="black" points="0,-251 0,-310 119,-310 119,-251 0,-251"/>
<text text-anchor="middle" x="59.5" y="-294.8" font-family="Times,serif" font-size="14.00">Coupling Schemes</text>
</g>
<g id="clust3" class="cluster">
<title>cluster_Fluid</title>
<polygon fill="none" stroke="black" stroke-width="2" points="29.5,-8 29.5,-145 554,-145 554,-8 29.5,-8"/>
<text text-anchor="middle" x="291.75" y="-129.8" font-family="Times,serif" font-size="14.00">Fluid</text>
</g>
<g id="clust4" class="cluster">
<title>cluster_Solid</title>
<polygon fill="none" stroke="black" stroke-width="2" points="155,-193 155,-330 554,-330 554,-193 155,-193"/>
<text text-anchor="middle" x="354.5" y="-314.8" font-family="Times,serif" font-size="14.00">Solid</text>
</g>
<!-- m2n&#45;Fluid&#45;Solid -->
<g id="node1" class="node">
<title>m2n&#45;Fluid&#45;Solid</title>
<polygon fill="none" stroke="black" points="87.5,-212 31.5,-212 31.5,-208 27.5,-208 27.5,-204 31.5,-204 31.5,-184 27.5,-184 27.5,-180 31.5,-180 31.5,-176 87.5,-176 87.5,-212"/>
<polyline fill="none" stroke="black" points="31.5,-208 35.5,-208 35.5,-204 31.5,-204 "/>
<polyline fill="none" stroke="black" points="31.5,-184 35.5,-184 35.5,-180 31.5,-180 "/>
<text text-anchor="middle" x="59.5" y="-190.3" font-family="Times,serif" font-size="14.00">sockets</text>
</g>
<!-- Fluid -->
<g id="node3" class="node">
<title>Fluid</title>
<polygon fill="none" stroke="#0173b2" points="246.3,-22.54 246.3,-37.46 227.67,-48 201.33,-48 182.7,-37.46 182.7,-22.54 201.33,-12 227.67,-12 246.3,-22.54"/>
<polygon fill="none" stroke="#0173b2" points="250.32,-20.22 250.32,-39.78 228.73,-52 200.27,-52 178.68,-39.78 178.68,-20.22 200.27,-8 228.73,-8 250.32,-20.22"/>
<text text-anchor="middle" x="214.5" y="-26.3" font-family="Times,serif" font-size="14.00">Fluid</text>
</g>
<!-- m2n&#45;Fluid&#45;Solid&#45;&gt;Fluid -->
<g id="edge8" class="edge">
<title>m2n&#45;Fluid&#45;Solid&#45;&gt;Fluid</title>
<path fill="none" stroke="#0173b2" d="M95.59,-171.79C102.07,-166.76 108.55,-161.05 115.44,-153.04"/>
<polygon fill="#0173b2" stroke="#0173b2" points="93.52,-168.97 87.54,-177.72 97.67,-174.61 93.52,-168.97"/>
<polygon fill="#0173b2" stroke="#0173b2" points="118.37,-154.99 121.89,-145 112.9,-150.61 118.37,-154.99"/>
</g>
<!-- Solid -->
<g id="node7" class="node">
<title>Solid</title>
<polygon fill="none" stroke="#de8f05" points="246.3,-277.54 246.3,-292.46 227.67,-303 201.33,-303 182.7,-292.46 182.7,-277.54 201.33,-267 227.67,-267 246.3,-277.54"/>
<polygon fill="none" stroke="#de8f05" points="250.32,-275.22 250.32,-294.78 228.73,-307 200.27,-307 178.68,-294.78 178.68,-275.22 200.27,-263 228.73,-263 250.32,-275.22"/>
<text text-anchor="middle" x="214.5" y="-281.3" font-family="Times,serif" font-size="14.00">Solid</text>
</g>
<!-- m2n&#45;Fluid&#45;Solid&#45;&gt;Solid -->
<g id="edge9" class="edge">
<title>m2n&#45;Fluid&#45;Solid&#45;&gt;Solid</title>
<path fill="none" stroke="#de8f05" d="M96.59,-217.85C111.45,-227.46 129.14,-238.66 146.17,-248.8"/>
<polygon fill="#de8f05" stroke="#de8f05" points="98.14,-214.69 87.85,-212.17 94.33,-220.55 98.14,-214.69"/>
<polygon fill="#de8f05" stroke="#de8f05" points="144.61,-251.94 155,-254 148.16,-245.91 144.61,-251.94"/>
</g>
<!-- cpl&#45;Fluid&#45;Solid -->
<g id="node2" class="node">
<title>cpl&#45;Fluid&#45;Solid</title>
<polygon fill="none" stroke="black" points="106,-287 13,-287 13,-283 9,-283 9,-279 13,-279 13,-259 9,-259 9,-255 13,-255 13,-251 106,-251 106,-287"/>
<polyline fill="none" stroke="black" points="13,-283 17,-283 17,-279 13,-279 "/>
<polyline fill="none" stroke="black" points="13,-259 17,-259 17,-255 13,-255 "/>
<text text-anchor="middle" x="59.5" y="-265.3" font-family="Times,serif" font-size="14.00">serial&#45;implicit</text>
</g>
<!-- cpl&#45;Fluid&#45;Solid&#45;&gt;Fluid -->
<g id="edge10" class="edge">
<title>cpl&#45;Fluid&#45;Solid&#45;&gt;Fluid</title>
<path fill="none" stroke="#0173b2" d="M106.2,-251.02C111.05,-247.62 115.49,-243.64 119,-239 130.6,-223.68 133.84,-189.92 136.66,-155.27"/>
<polygon fill="#0173b2" stroke="#0173b2" points="140.17,-155.25 137.49,-145 133.2,-154.68 140.17,-155.25"/>
<text text-anchor="middle" x="95.2" y="-239.82" font-family="Times,serif" font-size="14.00">first</text>
</g>
<!-- cpl&#45;Fluid&#45;Solid&#45;&gt;Solid -->
<g id="edge11" class="edge">
<title>cpl&#45;Fluid&#45;Solid&#45;&gt;Solid</title>
<path fill="none" stroke="#de8f05" d="M106.41,-273.8C118.46,-275.06 131.73,-276.45 144.69,-277.8"/>
<polygon fill="#de8f05" stroke="#de8f05" points="144.69,-281.32 155,-278.88 145.42,-274.36 144.69,-281.32"/>
<text text-anchor="middle" x="125.41" y="-262.6" font-family="Times,serif" font-size="14.00">second</text>
</g>
<!-- Fluid&#45;Fluid&#45;Nodes&#45;Mesh -->
<g id="node4" class="node">
<title>Fluid&#45;Fluid&#45;Nodes&#45;Mesh</title>
<path fill="none" stroke="#0173b2" d="M554,-97.73C554,-99.53 523.97,-101 487,-101 450.03,-101 420,-99.53 420,-97.73 420,-97.73 420,-68.27 420,-68.27 420,-66.47 450.03,-65 487,-65 523.97,-65 554,-66.47 554,-68.27 554,-68.27 554,-97.73 554,-97.73"/>
<path fill="none" stroke="#0173b2" d="M554,-97.73C554,-95.92 523.97,-94.45 487,-94.45 450.03,-94.45 420,-95.92 420,-97.73"/>
<text text-anchor="start" x="428" y="-80.3" font-family="Times,serif" font-size="14.00">Fluid&#45;Nodes&#45;Mesh</text>
<text text-anchor="start" x="531" y="-80.3" font-family="Times,serif" font-style="italic" baseline-shift="super" font-size="14.00">2D</text>
</g>
<!-- Fluid&#45;&gt;Fluid&#45;Fluid&#45;Nodes&#45;Mesh -->
<g id="edge2" class="edge">
<title>Fluid&#45;&gt;Fluid&#45;Fluid&#45;Nodes&#45;Mesh</title>
<g id="a_edge2"><a xlink:title="scalar">
<path fill="none" stroke="#0173b2" d="M250.43,-22.84C288.59,-16.47 351.07,-10.35 402,-26 422.9,-32.42 443.26,-46 458.71,-58.29"/>
<polygon fill="#0173b2" stroke="#0173b2" points="456.81,-61.27 466.75,-64.94 461.27,-55.87 456.81,-61.27"/>
</a>
</g>
<text text-anchor="middle" x="347" y="-29.8" font-family="Times,serif" font-size="14.00">Pressure</text>
</g>
<!-- Fluid&#45;Fluid&#45;Nodes&#45;Mesh&#45;&gt;Fluid -->
<g id="edge1" class="edge">
<title>Fluid&#45;Fluid&#45;Nodes&#45;Mesh&#45;&gt;Fluid</title>
<g id="a_edge1"><a xlink:title="scalar">
<path fill="none" stroke="#0173b2" d="M419.99,-70.07C370.41,-60.35 303.83,-47.31 260.31,-38.78"/>
<polygon fill="#0173b2" stroke="#0173b2" points="260.8,-35.31 250.31,-36.82 259.45,-42.18 260.8,-35.31"/>
</a>
</g>
<text text-anchor="middle" x="347" y="-68.8" font-family="Times,serif" font-size="14.00">CrossSectionLength</text>
</g>
<!-- Solid&#45;Fluid&#45;Nodes&#45;Mesh -->
<g id="node9" class="node">
<title>Solid&#45;Fluid&#45;Nodes&#45;Mesh</title>
<path fill="none" stroke="#0173b2" stroke-dasharray="5,2" d="M274,-240.48C274,-243.11 247.33,-245.25 214.5,-245.25 181.67,-245.25 155,-243.11 155,-240.48 155,-240.48 155,-197.52 155,-197.52 155,-194.89 181.67,-192.75 214.5,-192.75 247.33,-192.75 274,-194.89 274,-197.52 274,-197.52 274,-240.48 274,-240.48"/>
<path fill="none" stroke="#0173b2" stroke-dasharray="5,2" d="M274,-240.48C274,-237.84 247.33,-235.7 214.5,-235.7 181.67,-235.7 155,-237.84 155,-240.48"/>
<text text-anchor="middle" x="214.5" y="-222.8" font-family="Times,serif" font-size="14.00">Fluid&#45;Nodes&#45;Mesh</text>
<text text-anchor="middle" x="214.5" y="-207.8" font-family="Times,serif" font-size="14.00">from Fluid</text>
</g>
<!-- Fluid&#45;Fluid&#45;Nodes&#45;Mesh&#45;&gt;Solid&#45;Fluid&#45;Nodes&#45;Mesh -->
<g id="edge12" class="edge">
<title>Fluid&#45;Fluid&#45;Nodes&#45;Mesh&#45;&gt;Solid&#45;Fluid&#45;Nodes&#45;Mesh</title>
<g id="a_edge12"><a xlink:title="scalar">
<path fill="none" stroke="#0173b2" d="M469.22,-101.17C453.29,-117.48 427.98,-141.1 402,-156 391.23,-162.18 332.6,-181.64 283.91,-197.32"/>
<polygon fill="#0173b2" stroke="#0173b2" points="282.77,-194 274.32,-200.39 284.91,-200.67 282.77,-194"/>
</a>
</g>
<text text-anchor="middle" x="347" y="-196.8" font-family="Times,serif" font-size="14.00">Pressure</text>
</g>
<!-- Fluid&#45;Solid&#45;Nodes&#45;Mesh -->
<g id="node5" class="node">
<title>Fluid&#45;Solid&#45;Nodes&#45;Mesh</title>
<path fill="none" stroke="#de8f05" stroke-dasharray="5,2" d="M274,-117.48C274,-120.11 247.33,-122.25 214.5,-122.25 181.67,-122.25 155,-120.11 155,-117.48 155,-117.48 155,-74.52 155,-74.52 155,-71.89 181.67,-69.75 214.5,-69.75 247.33,-69.75 274,-71.89 274,-74.52 274,-74.52 274,-117.48 274,-117.48"/>
<path fill="none" stroke="#de8f05" stroke-dasharray="5,2" d="M274,-117.48C274,-114.84 247.33,-112.7 214.5,-112.7 181.67,-112.7 155,-114.84 155,-117.48"/>
<text text-anchor="middle" x="214.5" y="-99.8" font-family="Times,serif" font-size="14.00">Solid&#45;Nodes&#45;Mesh</text>
<text text-anchor="middle" x="214.5" y="-84.8" font-family="Times,serif" font-size="14.00">from Solid</text>
</g>
<!-- Fluid&#45;Solid&#45;Nodes&#45;Mesh&#45;&gt;Fluid&#45;Fluid&#45;Nodes&#45;Mesh -->
<g id="edge4" class="edge">
<title>Fluid&#45;Solid&#45;Nodes&#45;Mesh&#45;&gt;Fluid&#45;Fluid&#45;Nodes&#45;Mesh</title>
<path fill="none" stroke="#0173b2" d="M274.19,-93.18C313.9,-91.27 366.72,-88.73 409.69,-86.67"/>
<polygon fill="#0173b2" stroke="#0173b2" points="410,-90.16 419.82,-86.18 409.66,-83.16 410,-90.16"/>
<text text-anchor="middle" x="347" y="-95.8" font-family="Times,serif" font-size="14.00">nearest&#45;neighbor</text>
</g>
<!-- Fluid&#45;WP&#45;Middle -->
<g id="node6" class="node">
<title>Fluid&#45;WP&#45;Middle</title>
<polygon fill="none" stroke="#0173b2" points="83.5,-49 29.5,-49 29.5,-11 89.5,-11 89.5,-43 83.5,-49"/>
<polyline fill="none" stroke="#0173b2" points="83.5,-49 83.5,-43 "/>
<polyline fill="none" stroke="#0173b2" points="89.5,-43 83.5,-43 "/>
<text text-anchor="middle" x="59.5" y="-33.8" font-family="Times,serif" font-size="14.00">Middle</text>
<text text-anchor="middle" x="59.5" y="-18.8" font-family="Times,serif" font-size="14.00">at (5; 0)</text>
</g>
<!-- Fluid&#45;WP&#45;Middle&#45;&gt;Fluid -->
<g id="edge3" class="edge">
<title>Fluid&#45;WP&#45;Middle&#45;&gt;Fluid</title>
<path fill="none" stroke="#0173b2" d="M89.64,-30C111.89,-30 142.95,-30 168.41,-30"/>
<polygon fill="#0173b2" stroke="#0173b2" points="168.57,-33.5 178.57,-30 168.57,-26.5 168.57,-33.5"/>
</g>
<!-- Solid&#45;Solid&#45;Nodes&#45;Mesh -->
<g id="node8" class="node">
<title>Solid&#45;Solid&#45;Nodes&#45;Mesh</title>
<path fill="none" stroke="#de8f05" d="M554,-249.73C554,-251.53 523.97,-253 487,-253 450.03,-253 420,-251.53 420,-249.73 420,-249.73 420,-220.27 420,-220.27 420,-218.47 450.03,-217 487,-217 523.97,-217 554,-218.47 554,-220.27 554,-220.27 554,-249.73 554,-249.73"/>
<path fill="none" stroke="#de8f05" d="M554,-249.73C554,-247.92 523.97,-246.45 487,-246.45 450.03,-246.45 420,-247.92 420,-249.73"/>
<text text-anchor="start" x="428" y="-232.3" font-family="Times,serif" font-size="14.00">Solid&#45;Nodes&#45;Mesh</text>
<text text-anchor="start" x="531" y="-232.3" font-family="Times,serif" font-style="italic" baseline-shift="super" font-size="14.00">2D</text>
</g>
<!-- Solid&#45;&gt;Solid&#45;Solid&#45;Nodes&#45;Mesh -->
<g id="edge6" class="edge">
<title>Solid&#45;&gt;Solid&#45;Solid&#45;Nodes&#45;Mesh</title>
<g id="a_edge6"><a xlink:title="scalar">
<path fill="none" stroke="#de8f05" d="M242.32,-270.41C256.64,-263.32 274.82,-255.39 292,-251 330.16,-241.25 373.78,-237.06 409.98,-235.39"/>
<polygon fill="#de8f05" stroke="#de8f05" points="410.14,-238.88 419.99,-234.98 409.85,-231.89 410.14,-238.88"/>
</a>
</g>
<text text-anchor="middle" x="347" y="-254.8" font-family="Times,serif" font-size="14.00">CrossSectionLength</text>
</g>
<!-- Solid&#45;Solid&#45;Nodes&#45;Mesh&#45;&gt;Fluid&#45;Solid&#45;Nodes&#45;Mesh -->
<g id="edge13" class="edge">
<title>Solid&#45;Solid&#45;Nodes&#45;Mesh&#45;&gt;Fluid&#45;Solid&#45;Nodes&#45;Mesh</title>
<g id="a_edge13"><a xlink:title="scalar initialized">
<path fill="none" stroke="#de8f05" stroke-width="2" d="M475.49,-216.66C461.62,-194.23 435.07,-156.79 402,-137 396.73,-133.85 335.12,-120.62 284.13,-110.03"/>
<polygon fill="#de8f05" stroke="#de8f05" stroke-width="2" points="284.6,-106.55 274.1,-107.95 283.18,-113.4 284.6,-106.55"/>
</a>
</g>
<text text-anchor="middle" x="347" y="-140.8" font-family="Times,serif" font-size="14.00">CrossSectionLength</text>
</g>
<!-- Solid&#45;Solid&#45;Nodes&#45;Mesh&#45;&gt;Solid -->
<g id="edge5" class="edge">
<title>Solid&#45;Solid&#45;Nodes&#45;Mesh&#45;&gt;Solid</title>
<g id="a_edge5"><a xlink:title="scalar">
<path fill="none" stroke="#de8f05" d="M449.63,-253.09C435.15,-259.51 418.12,-266.1 402,-270 354.67,-281.46 298.82,-284.64 260.66,-285.31"/>
<polygon fill="#de8f05" stroke="#de8f05" points="260.34,-281.81 250.39,-285.44 260.43,-288.81 260.34,-281.81"/>
</a>
</g>
<text text-anchor="middle" x="347" y="-287.8" font-family="Times,serif" font-size="14.00">Pressure</text>
</g>
<!-- Solid&#45;Fluid&#45;Nodes&#45;Mesh&#45;&gt;Solid&#45;Solid&#45;Nodes&#45;Mesh -->
<g id="edge7" class="edge">
<title>Solid&#45;Fluid&#45;Nodes&#45;Mesh&#45;&gt;Solid&#45;Solid&#45;Nodes&#45;Mesh</title>
<path fill="none" stroke="#de8f05" d="M274.39,-217.31C280.34,-217.18 286.29,-217.07 292,-217 340.88,-216.36 353.38,-211.85 402,-217 404.53,-217.27 407.1,-217.58 409.68,-217.93"/>
<polygon fill="#de8f05" stroke="#de8f05" points="409.31,-221.41 419.72,-219.45 410.36,-214.49 409.31,-221.41"/>
<text text-anchor="middle" x="347" y="-220.8" font-family="Times,serif" font-size="14.00">nearest&#45;neighbor</text>
</g>
</g>
</svg>
