<?xml version="1.0" encoding="UTF-8" standalone="no"?>
<!DOCTYPE svg PUBLIC "-//W3C//DTD SVG 1.1//EN"
 "http://www.w3.org/Graphics/SVG/1.1/DTD/svg11.dtd">
<!-- Generated by graphviz version 2.43.0 (0)
 -->
<!-- Title: G Pages: 1 -->
<svg width="473pt" height="346pt"
 viewBox="0.00 0.00 473.00 346.00" xmlns="http://www.w3.org/2000/svg" xmlns:xlink="http://www.w3.org/1999/xlink">
<g id="graph0" class="graph" transform="scale(1 1) rotate(0) translate(4 342)">
<title>G</title>
<polygon fill="white" stroke="transparent" points="-4,4 -4,-342 469,-342 469,4 -4,4"/>
<g id="clust1" class="cluster">
<title>cluster_m2n</title>
<polygon fill="none" stroke="black" points="7.5,-185 7.5,-244 111.5,-244 111.5,-185 7.5,-185"/>
<text text-anchor="middle" x="59.5" y="-228.8" font-family="Times,serif" font-size="14.00">Communicators</text>
</g>
<g id="clust2" class="cluster">
<title>cluster_cpl</title>
<polygon fill="none" stroke="black" points="0,-118 0,-177 119,-177 119,-118 0,-118"/>
<text text-anchor="middle" x="59.5" y="-161.8" font-family="Times,serif" font-size="14.00">Coupling Schemes</text>
</g>
<g id="clust3" class="cluster">
<title>cluster_Fluid</title>
<polygon fill="none" stroke="black" stroke-width="2" points="155,-193 155,-330 457,-330 457,-193 155,-193"/>
<text text-anchor="middle" x="306" y="-314.8" font-family="Times,serif" font-size="14.00">Fluid</text>
</g>
<g id="clust4" class="cluster">
<title>cluster_Solid</title>
<polygon fill="none" stroke="black" stroke-width="2" points="155,-8 155,-145 457,-145 457,-8 155,-8"/>
<text text-anchor="middle" x="306" y="-129.8" font-family="Times,serif" font-size="14.00">Solid</text>
</g>
<!-- m2n&#45;Fluid&#45;Solid -->
<g id="node1" class="node">
<title>m2n&#45;Fluid&#45;Solid</title>
<polygon fill="none" stroke="black" points="87.5,-221 31.5,-221 31.5,-217 27.5,-217 27.5,-213 31.5,-213 31.5,-193 27.5,-193 27.5,-189 31.5,-189 31.5,-185 87.5,-185 87.5,-221"/>
<polyline fill="none" stroke="black" points="31.5,-217 35.5,-217 35.5,-213 31.5,-213 "/>
<polyline fill="none" stroke="black" points="31.5,-193 35.5,-193 35.5,-189 31.5,-189 "/>
<text text-anchor="middle" x="59.5" y="-199.3" font-family="Times,serif" font-size="14.00">sockets</text>
</g>
<!-- Fluid -->
<g id="node3" class="node">
<title>Fluid</title>
<polygon fill="none" stroke="#0173b2" points="226.8,-277.54 226.8,-292.46 208.17,-303 181.83,-303 163.2,-292.46 163.2,-277.54 181.83,-267 208.17,-267 226.8,-277.54"/>
<polygon fill="none" stroke="#0173b2" points="230.82,-275.22 230.82,-294.78 209.23,-307 180.77,-307 159.18,-294.78 159.18,-275.22 180.77,-263 209.23,-263 230.82,-275.22"/>
<text text-anchor="middle" x="195" y="-281.3" font-family="Times,serif" font-size="14.00">Fluid</text>
</g>
<!-- m2n&#45;Fluid&#45;Solid&#45;&gt;Fluid -->
<g id="edge7" class="edge">
<title>m2n&#45;Fluid&#45;Solid&#45;&gt;Fluid</title>
<path fill="none" stroke="#0173b2" d="M96.27,-224.97C111.57,-234.37 129.65,-245.47 146.08,-255.56"/>
<polygon fill="#0173b2" stroke="#0173b2" points="97.87,-221.85 87.52,-219.59 94.2,-227.81 97.87,-221.85"/>
<polygon fill="#0173b2" stroke="#0173b2" points="144.65,-258.8 155,-261.05 148.31,-252.83 144.65,-258.8"/>
</g>
<!-- Solid -->
<g id="node6" class="node">
<title>Solid</title>
<polygon fill="none" stroke="#de8f05" points="226.8,-22.54 226.8,-37.46 208.17,-48 181.83,-48 163.2,-37.46 163.2,-22.54 181.83,-12 208.17,-12 226.8,-22.54"/>
<polygon fill="none" stroke="#de8f05" points="230.82,-20.22 230.82,-39.78 209.23,-52 180.77,-52 159.18,-39.78 159.18,-20.22 180.77,-8 209.23,-8 230.82,-20.22"/>
<text text-anchor="middle" x="195" y="-26.3" font-family="Times,serif" font-size="14.00">Solid</text>
</g>
<!-- m2n&#45;Fluid&#45;Solid&#45;&gt;Solid -->
<g id="edge8" class="edge">
<title>m2n&#45;Fluid&#45;Solid&#45;&gt;Solid</title>
<path fill="none" stroke="#de8f05" d="M97.36,-194.97C105.36,-191.75 113.16,-187.26 119,-181 154.56,-142.93 127.76,-111.41 149.73,-69.76"/>
<polygon fill="#de8f05" stroke="#de8f05" points="95.96,-191.75 87.63,-198.29 98.23,-198.37 95.96,-191.75"/>
<polygon fill="#de8f05" stroke="#de8f05" points="152.84,-71.37 155,-61 146.85,-67.76 152.84,-71.37"/>
</g>
<!-- cpl&#45;Fluid&#45;Solid -->
<g id="node2" class="node">
<title>cpl&#45;Fluid&#45;Solid</title>
<polygon fill="none" stroke="black" points="106,-154 13,-154 13,-150 9,-150 9,-146 13,-146 13,-126 9,-126 9,-122 13,-122 13,-118 106,-118 106,-154"/>
<polyline fill="none" stroke="black" points="13,-150 17,-150 17,-146 13,-146 "/>
<polyline fill="none" stroke="black" points="13,-126 17,-126 17,-122 13,-122 "/>
<text text-anchor="middle" x="59.5" y="-132.3" font-family="Times,serif" font-size="14.00">serial&#45;implicit</text>
</g>
<!-- cpl&#45;Fluid&#45;Solid&#45;&gt;Fluid -->
<g id="edge9" class="edge">
<title>cpl&#45;Fluid&#45;Solid&#45;&gt;Fluid</title>
<path fill="none" stroke="#0173b2" d="M89.24,-154.07C99.53,-161.51 110.63,-170.79 119,-181 139.6,-206.14 133.91,-222.3 149.01,-245.75"/>
<polygon fill="#0173b2" stroke="#0173b2" points="146.3,-247.96 155,-254 151.96,-243.85 146.3,-247.96"/>
<text text-anchor="middle" x="100.24" y="-150.37" font-family="Times,serif" font-size="14.00">first</text>
</g>
<!-- cpl&#45;Fluid&#45;Solid&#45;&gt;Solid -->
<g id="edge10" class="edge">
<title>cpl&#45;Fluid&#45;Solid&#45;&gt;Solid</title>
<path fill="none" stroke="#de8f05" d="M83.45,-117.78C100.86,-103.95 125.39,-84.48 146.92,-67.38"/>
<polygon fill="#de8f05" stroke="#de8f05" points="149.35,-69.92 155,-60.96 144.99,-64.44 149.35,-69.92"/>
<text text-anchor="middle" x="64.45" y="-106.58" font-family="Times,serif" font-size="14.00">second</text>
</g>
<!-- Fluid&#45;Fluid&#45;Mesh -->
<g id="node4" class="node">
<title>Fluid&#45;Fluid&#45;Mesh</title>
<path fill="none" stroke="#0173b2" d="M457,-249.73C457,-251.53 435.71,-253 409.5,-253 383.29,-253 362,-251.53 362,-249.73 362,-249.73 362,-220.27 362,-220.27 362,-218.47 383.29,-217 409.5,-217 435.71,-217 457,-218.47 457,-220.27 457,-220.27 457,-249.73 457,-249.73"/>
<path fill="none" stroke="#0173b2" d="M457,-249.73C457,-247.92 435.71,-246.45 409.5,-246.45 383.29,-246.45 362,-247.92 362,-249.73"/>
<text text-anchor="start" x="370" y="-232.3" font-family="Times,serif" font-size="14.00">Fluid&#45;Mesh</text>
<text text-anchor="start" x="434" y="-232.3" font-family="Times,serif" font-style="italic" baseline-shift="super" font-size="14.00">2D</text>
</g>
<!-- Fluid&#45;&gt;Fluid&#45;Fluid&#45;Mesh -->
<g id="edge2" class="edge">
<title>Fluid&#45;&gt;Fluid&#45;Fluid&#45;Mesh</title>
<g id="a_edge2"><a xlink:title="scalar">
<path fill="none" stroke="#0173b2" d="M218.73,-268.33C228.75,-261.83 240.97,-254.99 253,-251 284.57,-240.53 321.55,-236.42 351.52,-234.98"/>
<polygon fill="#0173b2" stroke="#0173b2" points="351.96,-238.46 361.81,-234.57 351.68,-231.47 351.96,-238.46"/>
</a>
</g>
<text text-anchor="middle" x="298.5" y="-254.8" font-family="Times,serif" font-size="14.00">Temperature</text>
</g>
<!-- Fluid&#45;Fluid&#45;Mesh&#45;&gt;Fluid -->
<g id="edge1" class="edge">
<title>Fluid&#45;Fluid&#45;Mesh&#45;&gt;Fluid</title>
<g id="a_edge1"><a xlink:title="scalar">
<path fill="none" stroke="#0173b2" d="M381.31,-252.87C370.18,-259.34 356.91,-266.02 344,-270 310.44,-280.35 270.78,-283.93 240.97,-285.02"/>
<polygon fill="#0173b2" stroke="#0173b2" points="240.75,-281.53 230.86,-285.31 240.95,-288.53 240.75,-281.53"/>
</a>
</g>
<text text-anchor="middle" x="298.5" y="-287.8" font-family="Times,serif" font-size="14.00">Heat&#45;Flux</text>
</g>
<!-- Solid&#45;Fluid&#45;Mesh -->
<g id="node8" class="node">
<title>Solid&#45;Fluid&#45;Mesh</title>
<path fill="none" stroke="#0173b2" stroke-dasharray="5,2" d="M235,-117.48C235,-120.11 217.07,-122.25 195,-122.25 172.93,-122.25 155,-120.11 155,-117.48 155,-117.48 155,-74.52 155,-74.52 155,-71.89 172.93,-69.75 195,-69.75 217.07,-69.75 235,-71.89 235,-74.52 235,-74.52 235,-117.48 235,-117.48"/>
<path fill="none" stroke="#0173b2" stroke-dasharray="5,2" d="M235,-117.48C235,-114.84 217.07,-112.7 195,-112.7 172.93,-112.7 155,-114.84 155,-117.48"/>
<text text-anchor="middle" x="195" y="-99.8" font-family="Times,serif" font-size="14.00">Fluid&#45;Mesh</text>
<text text-anchor="middle" x="195" y="-84.8" font-family="Times,serif" font-size="14.00">from Fluid</text>
</g>
<!-- Fluid&#45;Fluid&#45;Mesh&#45;&gt;Solid&#45;Fluid&#45;Mesh -->
<g id="edge11" class="edge">
<title>Fluid&#45;Fluid&#45;Mesh&#45;&gt;Solid&#45;Fluid&#45;Mesh</title>
<g id="a_edge11"><a xlink:title="scalar">
<path fill="none" stroke="#0173b2" d="M401.37,-216.93C391.7,-194.77 372.32,-157.62 344,-137 341.9,-135.47 287.4,-120.58 245.15,-109.18"/>
<polygon fill="#0173b2" stroke="#0173b2" points="245.82,-105.74 235.26,-106.52 244,-112.5 245.82,-105.74"/>
</a>
</g>
<text text-anchor="middle" x="298.5" y="-140.8" font-family="Times,serif" font-size="14.00">Temperature</text>
</g>
<!-- Fluid&#45;Solid&#45;Mesh -->
<g id="node5" class="node">
<title>Fluid&#45;Solid&#45;Mesh</title>
<path fill="none" stroke="#de8f05" stroke-dasharray="5,2" d="M235,-240.48C235,-243.11 217.07,-245.25 195,-245.25 172.93,-245.25 155,-243.11 155,-240.48 155,-240.48 155,-197.52 155,-197.52 155,-194.89 172.93,-192.75 195,-192.75 217.07,-192.75 235,-194.89 235,-197.52 235,-197.52 235,-240.48 235,-240.48"/>
<path fill="none" stroke="#de8f05" stroke-dasharray="5,2" d="M235,-240.48C235,-237.84 217.07,-235.7 195,-235.7 172.93,-235.7 155,-237.84 155,-240.48"/>
<text text-anchor="middle" x="195" y="-222.8" font-family="Times,serif" font-size="14.00">Solid&#45;Mesh</text>
<text text-anchor="middle" x="195" y="-207.8" font-family="Times,serif" font-size="14.00">from Solid</text>
</g>
<!-- Fluid&#45;Solid&#45;Mesh&#45;&gt;Fluid&#45;Fluid&#45;Mesh -->
<g id="edge3" class="edge">
<title>Fluid&#45;Solid&#45;Mesh&#45;&gt;Fluid&#45;Fluid&#45;Mesh</title>
<path fill="none" stroke="#0173b2" d="M235.15,-215.3C265.09,-213.24 307.34,-211.98 344,-217 346.66,-217.36 349.37,-217.81 352.09,-218.32"/>
<polygon fill="#0173b2" stroke="#0173b2" points="351.45,-221.76 361.96,-220.41 352.9,-214.91 351.45,-221.76"/>
<text text-anchor="middle" x="298.5" y="-220.8" font-family="Times,serif" font-size="14.00">nearest&#45;neighbor</text>
</g>
<!-- Solid&#45;Solid&#45;Mesh -->
<g id="node7" class="node">
<title>Solid&#45;Solid&#45;Mesh</title>
<path fill="none" stroke="#de8f05" d="M457,-97.73C457,-99.53 435.71,-101 409.5,-101 383.29,-101 362,-99.53 362,-97.73 362,-97.73 362,-68.27 362,-68.27 362,-66.47 383.29,-65 409.5,-65 435.71,-65 457,-66.47 457,-68.27 457,-68.27 457,-97.73 457,-97.73"/>
<path fill="none" stroke="#de8f05" d="M457,-97.73C457,-95.92 435.71,-94.45 409.5,-94.45 383.29,-94.45 362,-95.92 362,-97.73"/>
<text text-anchor="start" x="370" y="-80.3" font-family="Times,serif" font-size="14.00">Solid&#45;Mesh</text>
<text text-anchor="start" x="434" y="-80.3" font-family="Times,serif" font-style="italic" baseline-shift="super" font-size="14.00">2D</text>
</g>
<!-- Solid&#45;&gt;Solid&#45;Solid&#45;Mesh -->
<g id="edge5" class="edge">
<title>Solid&#45;&gt;Solid&#45;Solid&#45;Mesh</title>
<g id="a_edge5"><a xlink:title="scalar">
<path fill="none" stroke="#de8f05" d="M231.09,-38.75C263.88,-46.93 313.4,-59.28 351.8,-68.86"/>
<polygon fill="#de8f05" stroke="#de8f05" points="351.25,-72.33 361.8,-71.35 352.95,-65.54 351.25,-72.33"/>
</a>
</g>
<text text-anchor="middle" x="298.5" y="-68.8" font-family="Times,serif" font-size="14.00">Heat&#45;Flux</text>
</g>
<!-- Solid&#45;Solid&#45;Mesh&#45;&gt;Fluid&#45;Solid&#45;Mesh -->
<g id="edge12" class="edge">
<title>Solid&#45;Solid&#45;Mesh&#45;&gt;Fluid&#45;Solid&#45;Mesh</title>
<g id="a_edge12"><a xlink:title="scalar">
<path fill="none" stroke="#de8f05" d="M396.03,-101.31C384.22,-117.5 365.18,-140.84 344,-156 308.36,-181.51 293.29,-176.75 253,-194 250.21,-195.19 247.34,-196.43 244.46,-197.68"/>
<polygon fill="#de8f05" stroke="#de8f05" points="242.99,-194.5 235.21,-201.69 245.77,-200.92 242.99,-194.5"/>
</a>
</g>
<text text-anchor="middle" x="298.5" y="-197.8" font-family="Times,serif" font-size="14.00">Heat&#45;Flux</text>
</g>
<!-- Solid&#45;Solid&#45;Mesh&#45;&gt;Solid -->
<g id="edge4" class="edge">
<title>Solid&#45;Solid&#45;Mesh&#45;&gt;Solid</title>
<g id="a_edge4"><a xlink:title="scalar">
<path fill="none" stroke="#de8f05" d="M394,-64.79C382.16,-51.49 364.14,-34.52 344,-27 311.05,-14.69 271.03,-16.4 240.92,-20.66"/>
<polygon fill="#de8f05" stroke="#de8f05" points="240.05,-17.25 230.71,-22.25 241.13,-24.17 240.05,-17.25"/>
</a>
</g>
<text text-anchor="middle" x="298.5" y="-30.8" font-family="Times,serif" font-size="14.00">Temperature</text>
</g>
<!-- Solid&#45;Fluid&#45;Mesh&#45;&gt;Solid&#45;Solid&#45;Mesh -->
<g id="edge6" class="edge">
<title>Solid&#45;Fluid&#45;Mesh&#45;&gt;Solid&#45;Solid&#45;Mesh</title>
<path fill="none" stroke="#de8f05" d="M235.47,-93.59C268.17,-91.59 315.05,-88.72 351.76,-86.47"/>
<polygon fill="#de8f05" stroke="#de8f05" points="352.06,-89.96 361.83,-85.86 351.64,-82.97 352.06,-89.96"/>
<text text-anchor="middle" x="298.5" y="-95.8" font-family="Times,serif" font-size="14.00">nearest&#45;neighbor</text>
</g>
</g>
</svg>
