<?xml version="1.0" encoding="UTF-8" standalone="no"?>
<!DOCTYPE svg PUBLIC "-//W3C//DTD SVG 1.1//EN"
 "http://www.w3.org/Graphics/SVG/1.1/DTD/svg11.dtd">
<!-- Generated by graphviz version 2.43.0 (0)
 -->
<!-- Title: G Pages: 1 -->
<svg width="657pt" height="212pt"
 viewBox="0.00 0.00 657.31 212.00" xmlns="http://www.w3.org/2000/svg" xmlns:xlink="http://www.w3.org/1999/xlink">
<g id="graph0" class="graph" transform="scale(1 1) rotate(0) translate(4 208)">
<title>G</title>
<polygon fill="white" stroke="transparent" points="-4,4 -4,-208 653.31,-208 653.31,4 -4,4"/>
<g id="clust1" class="cluster">
<title>cluster_m2n</title>
<polygon fill="none" stroke="black" points="8,-105 8,-164 112,-164 112,-105 8,-105"/>
<text text-anchor="middle" x="60" y="-148.8" font-family="Times,serif" font-size="14.00">Communicators</text>
</g>
<g id="clust2" class="cluster">
<title>cluster_cpl</title>
<polygon fill="none" stroke="black" points="1,-38 1,-97 120,-97 120,-38 1,-38"/>
<text text-anchor="middle" x="60.5" y="-81.8" font-family="Times,serif" font-size="14.00">Coupling Schemes</text>
</g>
<g id="clust3" class="cluster">
<title>cluster_Fluid</title>
<polygon fill="none" stroke="black" stroke-width="2" points="157,-102 157,-196 641.31,-196 641.31,-102 157,-102"/>
<text text-anchor="middle" x="399.16" y="-180.8" font-family="Times,serif" font-size="14.00">Fluid</text>
</g>
<g id="clust4" class="cluster">
<title>cluster_Solid</title>
<polygon fill="none" stroke="black" stroke-width="2" points="157,-8 157,-102 435.31,-102 435.31,-8 157,-8"/>
<text text-anchor="middle" x="296.16" y="-86.8" font-family="Times,serif" font-size="14.00">Solid</text>
</g>
<!-- m2n&#45;Fluid&#45;Solid -->
<g id="node1" class="node">
<title>m2n&#45;Fluid&#45;Solid</title>
<polygon fill="none" stroke="black" points="88,-141 32,-141 32,-137 28,-137 28,-133 32,-133 32,-113 28,-113 28,-109 32,-109 32,-105 88,-105 88,-141"/>
<polyline fill="none" stroke="black" points="32,-137 36,-137 36,-133 32,-133 "/>
<polyline fill="none" stroke="black" points="32,-113 36,-113 36,-109 32,-109 "/>
<text text-anchor="middle" x="60" y="-119.3" font-family="Times,serif" font-size="14.00">sockets</text>
</g>
<!-- Fluid -->
<g id="node3" class="node">
<title>Fluid</title>
<polygon fill="none" stroke="#0173b2" points="224.45,-118.54 224.45,-133.46 205.83,-144 179.49,-144 160.86,-133.46 160.86,-118.54 179.49,-108 205.83,-108 224.45,-118.54"/>
<polygon fill="none" stroke="#0173b2" points="228.47,-116.22 228.47,-135.78 206.89,-148 178.42,-148 156.84,-135.78 156.84,-116.22 178.42,-104 206.89,-104 228.47,-116.22"/>
<text text-anchor="middle" x="192.66" y="-122.3" font-family="Times,serif" font-size="14.00">Fluid</text>
</g>
<!-- m2n&#45;Fluid&#45;Solid&#45;&gt;Fluid -->
<g id="edge7" class="edge">
<title>m2n&#45;Fluid&#45;Solid&#45;&gt;Fluid</title>
<path fill="none" stroke="#0173b2" d="M98.13,-123.85C113.21,-124.2 130.77,-124.6 146.58,-124.96"/>
<polygon fill="#0173b2" stroke="#0173b2" points="98.15,-120.35 88.07,-123.62 97.99,-127.35 98.15,-120.35"/>
<polygon fill="#0173b2" stroke="#0173b2" points="146.92,-128.47 157,-125.2 147.08,-121.48 146.92,-128.47"/>
</g>
<!-- Solid -->
<g id="node6" class="node">
<title>Solid</title>
<polygon fill="none" stroke="#de8f05" points="224.45,-48.54 224.45,-63.46 205.83,-74 179.49,-74 160.86,-63.46 160.86,-48.54 179.49,-38 205.83,-38 224.45,-48.54"/>
<polygon fill="none" stroke="#de8f05" points="228.47,-46.22 228.47,-65.78 206.89,-78 178.42,-78 156.84,-65.78 156.84,-46.22 178.42,-34 206.89,-34 228.47,-46.22"/>
<text text-anchor="middle" x="192.66" y="-52.3" font-family="Times,serif" font-size="14.00">Solid</text>
</g>
<!-- m2n&#45;Fluid&#45;Solid&#45;&gt;Solid -->
<g id="edge8" class="edge">
<title>m2n&#45;Fluid&#45;Solid&#45;&gt;Solid</title>
<path fill="none" stroke="#de8f05" d="M97.81,-110.6C105.27,-107.72 112.98,-104.47 120,-101 129.45,-96.33 139.23,-90.75 148.41,-85.13"/>
<polygon fill="#de8f05" stroke="#de8f05" points="96.37,-107.4 88.21,-114.16 98.81,-113.96 96.37,-107.4"/>
<polygon fill="#de8f05" stroke="#de8f05" points="150.38,-88.02 157,-79.75 146.67,-82.09 150.38,-88.02"/>
</g>
<!-- cpl&#45;Fluid&#45;Solid -->
<g id="node2" class="node">
<title>cpl&#45;Fluid&#45;Solid</title>
<polygon fill="none" stroke="black" points="112,-74 8,-74 8,-70 4,-70 4,-66 8,-66 8,-46 4,-46 4,-42 8,-42 8,-38 112,-38 112,-74"/>
<polyline fill="none" stroke="black" points="8,-70 12,-70 12,-66 8,-66 "/>
<polyline fill="none" stroke="black" points="8,-46 12,-46 12,-42 8,-42 "/>
<text text-anchor="middle" x="60" y="-52.3" font-family="Times,serif" font-size="14.00">parallel&#45;implicit</text>
</g>
<!-- cpl&#45;Fluid&#45;Solid&#45;&gt;Fluid -->
<g id="edge9" class="edge">
<title>cpl&#45;Fluid&#45;Solid&#45;&gt;Fluid</title>
<path fill="none" stroke="#0173b2" d="M94.65,-74.03C113.36,-84.05 136.65,-96.53 155.72,-106.75"/>
<polygon fill="#0173b2" stroke="#0173b2" points="146.68,-105.15 157,-107.56 150.44,-99.24 146.68,-105.15"/>
<text text-anchor="middle" x="105.65" y="-77.83" font-family="Times,serif" font-size="14.00">first</text>
</g>
<!-- cpl&#45;Fluid&#45;Solid&#45;&gt;Solid -->
<g id="edge10" class="edge">
<title>cpl&#45;Fluid&#45;Solid&#45;&gt;Solid</title>
<path fill="none" stroke="#de8f05" d="M112.26,-56C123.53,-56 135.39,-56 146.4,-56"/>
<polygon fill="#de8f05" stroke="#de8f05" points="147,-59.5 157,-56 147,-52.5 147,-59.5"/>
<text text-anchor="middle" x="131.26" y="-44.8" font-family="Times,serif" font-size="14.00">second</text>
</g>
<!-- Fluid&#45;Fluid&#45;Mesh -->
<g id="node4" class="node">
<title>Fluid&#45;Fluid&#45;Mesh</title>
<path fill="none" stroke="#0173b2" d="M435.31,-151.73C435.31,-153.53 414.02,-155 387.81,-155 361.6,-155 340.31,-153.53 340.31,-151.73 340.31,-151.73 340.31,-122.27 340.31,-122.27 340.31,-120.47 361.6,-119 387.81,-119 414.02,-119 435.31,-120.47 435.31,-122.27 435.31,-122.27 435.31,-151.73 435.31,-151.73"/>
<path fill="none" stroke="#0173b2" d="M435.31,-151.73C435.31,-149.92 414.02,-148.45 387.81,-148.45 361.6,-148.45 340.31,-149.92 340.31,-151.73"/>
<text text-anchor="start" x="348.31" y="-134.3" font-family="Times,serif" font-size="14.00">Fluid&#45;Mesh</text>
<text text-anchor="start" x="412.31" y="-134.3" font-family="Times,serif" font-style="italic" baseline-shift="super" font-size="14.00">2D</text>
</g>
<!-- Fluid&#45;&gt;Fluid&#45;Fluid&#45;Mesh -->
<g id="edge2" class="edge">
<title>Fluid&#45;&gt;Fluid&#45;Fluid&#45;Mesh</title>
<g id="a_edge2"><a xlink:title="vector">
<path fill="none" stroke="#0173b2" d="M228.39,-119.21C234.35,-118.29 240.49,-117.49 246.31,-117 279.97,-114.14 288.92,-111.94 322.31,-117 324.85,-117.38 327.42,-117.85 330.01,-118.38"/>
<polygon fill="#0173b2" stroke="#0173b2" points="329.46,-121.84 339.99,-120.7 331.04,-115.02 329.46,-121.84"/>
</a>
</g>
<text text-anchor="middle" x="284.31" y="-120.8" font-family="Times,serif" font-size="14.00">Force</text>
</g>
<!-- Fluid&#45;Fluid&#45;Mesh&#45;&gt;Fluid -->
<g id="edge1" class="edge">
<title>Fluid&#45;Fluid&#45;Mesh&#45;&gt;Fluid</title>
<g id="a_edge1"><a xlink:title="vector">
<path fill="none" stroke="#0173b2" d="M340.19,-138.77C312.79,-139.29 277.51,-139.05 246.31,-136 243.76,-135.75 241.15,-135.44 238.52,-135.08"/>
<polygon fill="#0173b2" stroke="#0173b2" points="238.79,-131.58 228.37,-133.51 237.71,-138.5 238.79,-131.58"/>
</a>
</g>
<text text-anchor="middle" x="284.31" y="-141.8" font-family="Times,serif" font-size="14.00">Displacement</text>
</g>
<!-- Fluid&#45;Solid&#45;Mesh -->
<g id="node5" class="node">
<title>Fluid&#45;Solid&#45;Mesh</title>
<path fill="none" stroke="#de8f05" stroke-dasharray="5,2" d="M641.31,-149.48C641.31,-152.11 623.39,-154.25 601.31,-154.25 579.24,-154.25 561.31,-152.11 561.31,-149.48 561.31,-149.48 561.31,-106.52 561.31,-106.52 561.31,-103.89 579.24,-101.75 601.31,-101.75 623.39,-101.75 641.31,-103.89 641.31,-106.52 641.31,-106.52 641.31,-149.48 641.31,-149.48"/>
<path fill="none" stroke="#de8f05" stroke-dasharray="5,2" d="M641.31,-149.48C641.31,-146.84 623.39,-144.7 601.31,-144.7 579.24,-144.7 561.31,-146.84 561.31,-149.48"/>
<text text-anchor="middle" x="601.31" y="-131.8" font-family="Times,serif" font-size="14.00">Solid&#45;Mesh</text>
<text text-anchor="middle" x="601.31" y="-116.8" font-family="Times,serif" font-size="14.00">from Solid</text>
</g>
<!-- Fluid&#45;Fluid&#45;Mesh&#45;&gt;Fluid&#45;Solid&#45;Mesh -->
<g id="edge3" class="edge">
<title>Fluid&#45;Fluid&#45;Mesh&#45;&gt;Fluid&#45;Solid&#45;Mesh</title>
<path fill="none" stroke="#0173b2" d="M435.42,-124.02C441.4,-122.78 447.47,-121.71 453.31,-121 493.02,-116.15 503.39,-118.56 543.31,-121 545.84,-121.15 548.42,-121.35 551.03,-121.57"/>
<polygon fill="#0173b2" stroke="#0173b2" points="550.83,-125.07 561.12,-122.55 551.51,-118.1 550.83,-125.07"/>
<text text-anchor="middle" x="498.31" y="-124.8" font-family="Times,serif" font-size="14.00">rbf&#45;global&#45;direct</text>
</g>
<!-- Fluid&#45;Solid&#45;Mesh&#45;&gt;Fluid&#45;Fluid&#45;Mesh -->
<g id="edge4" class="edge">
<title>Fluid&#45;Solid&#45;Mesh&#45;&gt;Fluid&#45;Fluid&#45;Mesh</title>
<path fill="none" stroke="#0173b2" d="M561.14,-134.2C555.18,-134.94 549.09,-135.58 543.31,-136 511.01,-138.36 474.8,-138.72 445.56,-138.43"/>
<polygon fill="#0173b2" stroke="#0173b2" points="445.57,-134.93 435.53,-138.31 445.48,-141.93 445.57,-134.93"/>
<text text-anchor="middle" x="498.31" y="-141.8" font-family="Times,serif" font-size="14.00">rbf&#45;global&#45;direct</text>
</g>
<!-- Solid&#45;Solid&#45;Mesh -->
<g id="node7" class="node">
<title>Solid&#45;Solid&#45;Mesh</title>
<path fill="none" stroke="#de8f05" d="M435.31,-66.73C435.31,-68.53 414.02,-70 387.81,-70 361.6,-70 340.31,-68.53 340.31,-66.73 340.31,-66.73 340.31,-37.27 340.31,-37.27 340.31,-35.47 361.6,-34 387.81,-34 414.02,-34 435.31,-35.47 435.31,-37.27 435.31,-37.27 435.31,-66.73 435.31,-66.73"/>
<path fill="none" stroke="#de8f05" d="M435.31,-66.73C435.31,-64.92 414.02,-63.45 387.81,-63.45 361.6,-63.45 340.31,-64.92 340.31,-66.73"/>
<text text-anchor="start" x="348.31" y="-49.3" font-family="Times,serif" font-size="14.00">Solid&#45;Mesh</text>
<text text-anchor="start" x="412.31" y="-49.3" font-family="Times,serif" font-style="italic" baseline-shift="super" font-size="14.00">2D</text>
</g>
<!-- Fluid&#45;Solid&#45;Mesh&#45;&gt;Solid&#45;Solid&#45;Mesh -->
<g id="edge11" class="edge">
<title>Fluid&#45;Solid&#45;Mesh&#45;&gt;Solid&#45;Solid&#45;Mesh</title>
<g id="a_edge11"><a xlink:title="vector">
<path fill="none" stroke="#0173b2" d="M590.3,-101.78C581.26,-82.21 565.9,-56.89 543.31,-45 513.64,-29.38 476.15,-30.67 445.53,-36.08"/>
<polygon fill="#0173b2" stroke="#0173b2" points="444.58,-32.7 435.44,-38.06 445.92,-39.57 444.58,-32.7"/>
</a>
</g>
<text text-anchor="middle" x="498.31" y="-48.8" font-family="Times,serif" font-size="14.00">Force</text>
</g>
<!-- Solid&#45;&gt;Solid&#45;Solid&#45;Mesh -->
<g id="edge6" class="edge">
<title>Solid&#45;&gt;Solid&#45;Solid&#45;Mesh</title>
<g id="a_edge6"><a xlink:title="vector">
<path fill="none" stroke="#de8f05" d="M221.43,-42C229.28,-38.71 237.96,-35.68 246.31,-34 279.43,-27.36 288.85,-29.42 322.31,-34 324.98,-34.36 327.68,-34.81 330.41,-35.32"/>
<polygon fill="#de8f05" stroke="#de8f05" points="329.77,-38.76 340.27,-37.41 331.22,-31.91 329.77,-38.76"/>
</a>
</g>
<text text-anchor="middle" x="284.31" y="-37.8" font-family="Times,serif" font-size="14.00">Displacement</text>
</g>
<!-- Solid&#45;Solid&#45;Mesh&#45;&gt;Fluid&#45;Solid&#45;Mesh -->
<g id="edge12" class="edge">
<title>Solid&#45;Solid&#45;Mesh&#45;&gt;Fluid&#45;Solid&#45;Mesh</title>
<g id="a_edge12"><a xlink:title="vector">
<path fill="none" stroke="#de8f05" d="M435.52,-63.91C466.55,-72.38 507.95,-84.75 543.31,-99 546.16,-100.15 549.05,-101.38 551.95,-102.67"/>
<polygon fill="#de8f05" stroke="#de8f05" points="550.63,-105.92 561.17,-106.96 553.58,-99.57 550.63,-105.92"/>
</a>
</g>
<text text-anchor="middle" x="498.31" y="-102.8" font-family="Times,serif" font-size="14.00">Displacement</text>
</g>
<!-- Solid&#45;Solid&#45;Mesh&#45;&gt;Solid -->
<g id="edge5" class="edge">
<title>Solid&#45;Solid&#45;Mesh&#45;&gt;Solid</title>
<g id="a_edge5"><a xlink:title="vector">
<path fill="none" stroke="#de8f05" d="M340.1,-52.97C309.38,-53.6 269.4,-54.43 238.97,-55.06"/>
<polygon fill="#de8f05" stroke="#de8f05" points="238.56,-51.57 228.64,-55.28 238.71,-58.57 238.56,-51.57"/>
</a>
</g>
<text text-anchor="middle" x="284.31" y="-57.8" font-family="Times,serif" font-size="14.00">Force</text>
</g>
</g>
</svg>
