<?xml version="1.0" encoding="UTF-8" standalone="no"?>
<!DOCTYPE svg PUBLIC "-//W3C//DTD SVG 1.1//EN"
 "http://www.w3.org/Graphics/SVG/1.1/DTD/svg11.dtd">
<!-- Generated by graphviz version 2.43.0 (0)
 -->
<!-- Title: G Pages: 1 -->
<svg width="1018pt" height="273pt"
 viewBox="0.00 0.00 1018.31 273.00" xmlns="http://www.w3.org/2000/svg" xmlns:xlink="http://www.w3.org/1999/xlink">
<g id="graph0" class="graph" transform="scale(1 1) rotate(0) translate(4 269)">
<title>G</title>
<polygon fill="white" stroke="transparent" points="-4,4 -4,-269 1014.31,-269 1014.31,4 -4,4"/>
<g id="clust1" class="cluster">
<title>cluster_m2n</title>
<polygon fill="none" stroke="black" points="18.5,-139 18.5,-198 122.5,-198 122.5,-139 18.5,-139"/>
<text text-anchor="middle" x="70.5" y="-182.8" font-family="Times,serif" font-size="14.00">Communicators</text>
</g>
<g id="clust2" class="cluster">
<title>cluster_cpl</title>
<polygon fill="none" stroke="black" points="11,-198 11,-257 130,-257 130,-198 11,-198"/>
<text text-anchor="middle" x="70.5" y="-241.8" font-family="Times,serif" font-size="14.00">Coupling Schemes</text>
</g>
<g id="clust3" class="cluster">
<title>cluster_Fluid</title>
<polygon fill="none" stroke="black" stroke-width="2" points="170,-143 170,-238 1002.31,-238 1002.31,-143 170,-143"/>
<text text-anchor="middle" x="586.16" y="-222.8" font-family="Times,serif" font-size="14.00">Fluid</text>
</g>
<g id="clust4" class="cluster">
<title>cluster_Solid</title>
<polygon fill="none" stroke="black" stroke-width="2" points="8,-8 8,-139 495.31,-139 495.31,-8 8,-8"/>
<text text-anchor="middle" x="251.66" y="-123.8" font-family="Times,serif" font-size="14.00">Solid</text>
</g>
<!-- m2n&#45;Fluid&#45;Solid -->
<g id="node1" class="node">
<title>m2n&#45;Fluid&#45;Solid</title>
<polygon fill="none" stroke="black" points="98.5,-175 42.5,-175 42.5,-171 38.5,-171 38.5,-167 42.5,-167 42.5,-147 38.5,-147 38.5,-143 42.5,-143 42.5,-139 98.5,-139 98.5,-175"/>
<polyline fill="none" stroke="black" points="42.5,-171 46.5,-171 46.5,-167 42.5,-167 "/>
<polyline fill="none" stroke="black" points="42.5,-147 46.5,-147 46.5,-143 42.5,-143 "/>
<text text-anchor="middle" x="70.5" y="-153.3" font-family="Times,serif" font-size="14.00">sockets</text>
</g>
<!-- Fluid -->
<g id="node3" class="node">
<title>Fluid</title>
<polygon fill="none" stroke="#0173b2" points="237.45,-160.54 237.45,-175.46 218.83,-186 192.49,-186 173.86,-175.46 173.86,-160.54 192.49,-150 218.83,-150 237.45,-160.54"/>
<polygon fill="none" stroke="#0173b2" points="241.47,-158.22 241.47,-177.78 219.89,-190 191.42,-190 169.84,-177.78 169.84,-158.22 191.42,-146 219.89,-146 241.47,-158.22"/>
<text text-anchor="middle" x="205.66" y="-164.3" font-family="Times,serif" font-size="14.00">Fluid</text>
</g>
<!-- m2n&#45;Fluid&#45;Solid&#45;&gt;Fluid -->
<g id="edge8" class="edge">
<title>m2n&#45;Fluid&#45;Solid&#45;&gt;Fluid</title>
<path fill="none" stroke="#0173b2" d="M108.91,-160.09C124.73,-161.4 143.28,-162.93 159.82,-164.3"/>
<polygon fill="#0173b2" stroke="#0173b2" points="109.02,-156.59 98.77,-159.25 108.45,-163.56 109.02,-156.59"/>
<polygon fill="#0173b2" stroke="#0173b2" points="159.75,-167.8 170,-165.12 160.32,-160.82 159.75,-167.8"/>
</g>
<!-- Solid -->
<g id="node7" class="node">
<title>Solid</title>
<polygon fill="none" stroke="#de8f05" points="237.45,-86.54 237.45,-101.46 218.83,-112 192.49,-112 173.86,-101.46 173.86,-86.54 192.49,-76 218.83,-76 237.45,-86.54"/>
<polygon fill="none" stroke="#de8f05" points="241.47,-84.22 241.47,-103.78 219.89,-116 191.42,-116 169.84,-103.78 169.84,-84.22 191.42,-72 219.89,-72 241.47,-84.22"/>
<text text-anchor="middle" x="205.66" y="-90.3" font-family="Times,serif" font-size="14.00">Solid</text>
</g>
<!-- m2n&#45;Fluid&#45;Solid&#45;&gt;Solid -->
<g id="edge9" class="edge">
<title>m2n&#45;Fluid&#45;Solid&#45;&gt;Solid</title>
<path fill="none" stroke="#de8f05" d="M108.05,-145.12C110.17,-144.35 112.31,-143.55 114.45,-142.73"/>
<polygon fill="#de8f05" stroke="#de8f05" points="106.81,-141.85 98.55,-148.48 109.14,-148.45 106.81,-141.85"/>
<polygon fill="#de8f05" stroke="#de8f05" points="115.84,-145.95 123.84,-139 113.26,-139.44 115.84,-145.95"/>
</g>
<!-- cpl&#45;Fluid&#45;Solid -->
<g id="node2" class="node">
<title>cpl&#45;Fluid&#45;Solid</title>
<polygon fill="none" stroke="black" points="117,-234 24,-234 24,-230 20,-230 20,-226 24,-226 24,-206 20,-206 20,-202 24,-202 24,-198 117,-198 117,-234"/>
<polyline fill="none" stroke="black" points="24,-230 28,-230 28,-226 24,-226 "/>
<polyline fill="none" stroke="black" points="24,-206 28,-206 28,-202 24,-202 "/>
<text text-anchor="middle" x="70.5" y="-212.3" font-family="Times,serif" font-size="14.00">serial&#45;implicit</text>
</g>
<!-- cpl&#45;Fluid&#45;Solid&#45;&gt;Fluid -->
<g id="edge10" class="edge">
<title>cpl&#45;Fluid&#45;Solid&#45;&gt;Fluid</title>
<path fill="none" stroke="#0173b2" d="M117,-209.83C128.64,-207.48 140.98,-204.29 152,-200 155.02,-198.83 158.06,-197.48 161.08,-196.02"/>
<polygon fill="#0173b2" stroke="#0173b2" points="162.75,-199.1 170,-191.37 159.52,-192.89 162.75,-199.1"/>
<text text-anchor="middle" x="128" y="-213.63" font-family="Times,serif" font-size="14.00">first</text>
</g>
<!-- cpl&#45;Fluid&#45;Solid&#45;&gt;Solid -->
<g id="edge11" class="edge">
<title>cpl&#45;Fluid&#45;Solid&#45;&gt;Solid</title>
<path fill="none" stroke="#de8f05" d="M117.23,-203.4C122.84,-200.79 128.26,-197.69 133,-194 153.35,-178.17 153.23,-166.24 164.42,-147.48"/>
<polygon fill="#de8f05" stroke="#de8f05" points="167.43,-149.28 170,-139 161.58,-145.43 167.43,-149.28"/>
<text text-anchor="middle" x="136.23" y="-192.2" font-family="Times,serif" font-size="14.00">second</text>
</g>
<!-- Fluid&#45;Fluid&#45;Mesh&#45;Faces -->
<g id="node5" class="node">
<title>Fluid&#45;Fluid&#45;Mesh&#45;Faces</title>
<path fill="none" stroke="#0173b2" d="M513.31,-176.73C513.31,-178.53 483.96,-180 447.81,-180 411.67,-180 382.31,-178.53 382.31,-176.73 382.31,-176.73 382.31,-147.27 382.31,-147.27 382.31,-145.47 411.67,-144 447.81,-144 483.96,-144 513.31,-145.47 513.31,-147.27 513.31,-147.27 513.31,-176.73 513.31,-176.73"/>
<path fill="none" stroke="#0173b2" d="M513.31,-176.73C513.31,-174.92 483.96,-173.45 447.81,-173.45 411.67,-173.45 382.31,-174.92 382.31,-176.73"/>
<text text-anchor="start" x="390.31" y="-159.3" font-family="Times,serif" font-size="14.00">Fluid&#45;Mesh&#45;Faces</text>
<text text-anchor="start" x="490.31" y="-159.3" font-family="Times,serif" font-style="italic" baseline-shift="super" font-size="14.00">3D</text>
</g>
<!-- Fluid&#45;&gt;Fluid&#45;Fluid&#45;Mesh&#45;Faces -->
<g id="edge2" class="edge">
<title>Fluid&#45;&gt;Fluid&#45;Fluid&#45;Mesh&#45;Faces</title>
<g id="a_edge2"><a xlink:title="vector">
<path fill="none" stroke="#0173b2" d="M241.32,-167.13C275.31,-166.28 328.21,-164.96 371.83,-163.87"/>
<polygon fill="#0173b2" stroke="#0173b2" points="371.93,-167.37 381.84,-163.62 371.76,-160.37 371.93,-167.37"/>
</a>
</g>
<text text-anchor="middle" x="311.81" y="-169.8" font-family="Times,serif" font-size="14.00">Force</text>
</g>
<!-- Fluid&#45;Fluid&#45;Mesh&#45;Nodes -->
<g id="node4" class="node">
<title>Fluid&#45;Fluid&#45;Mesh&#45;Nodes</title>
<path fill="none" stroke="#0173b2" d="M1002.31,-204.73C1002.31,-206.53 972.28,-208 935.31,-208 898.34,-208 868.31,-206.53 868.31,-204.73 868.31,-204.73 868.31,-175.27 868.31,-175.27 868.31,-173.47 898.34,-172 935.31,-172 972.28,-172 1002.31,-173.47 1002.31,-175.27 1002.31,-175.27 1002.31,-204.73 1002.31,-204.73"/>
<path fill="none" stroke="#0173b2" d="M1002.31,-204.73C1002.31,-202.92 972.28,-201.45 935.31,-201.45 898.34,-201.45 868.31,-202.92 868.31,-204.73"/>
<text text-anchor="start" x="876.31" y="-187.3" font-family="Times,serif" font-size="14.00">Fluid&#45;Mesh&#45;Nodes</text>
<text text-anchor="start" x="979.31" y="-187.3" font-family="Times,serif" font-style="italic" baseline-shift="super" font-size="14.00">3D</text>
</g>
<!-- Fluid&#45;Fluid&#45;Mesh&#45;Nodes&#45;&gt;Fluid -->
<g id="edge1" class="edge">
<title>Fluid&#45;Fluid&#45;Mesh&#45;Nodes&#45;&gt;Fluid</title>
<g id="a_edge1"><a xlink:title="vector">
<path fill="none" stroke="#0173b2" d="M867.9,-199.35C861.96,-199.99 856.03,-200.55 850.31,-201 798.9,-205.02 785.88,-203.33 734.31,-204 523.05,-206.73 467.17,-222.86 259.31,-185 255.65,-184.33 251.89,-183.48 248.14,-182.51"/>
<polygon fill="#0173b2" stroke="#0173b2" points="248.91,-179.09 238.33,-179.71 246.99,-185.82 248.91,-179.09"/>
</a>
</g>
<text text-anchor="middle" x="583.81" y="-212.8" font-family="Times,serif" font-size="14.00">DisplacementDelta</text>
</g>
<!-- Fluid&#45;Solid&#45;Mesh -->
<g id="node6" class="node">
<title>Fluid&#45;Solid&#45;Mesh</title>
<path fill="none" stroke="#de8f05" stroke-dasharray="5,2" d="M734.31,-190.48C734.31,-193.11 716.39,-195.25 694.31,-195.25 672.24,-195.25 654.31,-193.11 654.31,-190.48 654.31,-190.48 654.31,-147.52 654.31,-147.52 654.31,-144.89 672.24,-142.75 694.31,-142.75 716.39,-142.75 734.31,-144.89 734.31,-147.52 734.31,-147.52 734.31,-190.48 734.31,-190.48"/>
<path fill="none" stroke="#de8f05" stroke-dasharray="5,2" d="M734.31,-190.48C734.31,-187.84 716.39,-185.7 694.31,-185.7 672.24,-185.7 654.31,-187.84 654.31,-190.48"/>
<text text-anchor="middle" x="694.31" y="-172.8" font-family="Times,serif" font-size="14.00">Solid&#45;Mesh</text>
<text text-anchor="middle" x="694.31" y="-157.8" font-family="Times,serif" font-size="14.00">from Solid</text>
</g>
<!-- Fluid&#45;Fluid&#45;Mesh&#45;Faces&#45;&gt;Fluid&#45;Solid&#45;Mesh -->
<g id="edge3" class="edge">
<title>Fluid&#45;Fluid&#45;Mesh&#45;Faces&#45;&gt;Fluid&#45;Solid&#45;Mesh</title>
<path fill="none" stroke="#0173b2" d="M513.51,-160.76C549.66,-160.47 595.52,-160.75 636.31,-163 638.84,-163.14 641.42,-163.31 644.02,-163.5"/>
<polygon fill="#0173b2" stroke="#0173b2" points="643.85,-167 654.11,-164.35 644.44,-160.03 643.85,-167"/>
<text text-anchor="middle" x="583.81" y="-166.8" font-family="Times,serif" font-size="14.00">nearest&#45;projection</text>
</g>
<!-- Fluid&#45;Solid&#45;Mesh&#45;&gt;Fluid&#45;Fluid&#45;Mesh&#45;Nodes -->
<g id="edge4" class="edge">
<title>Fluid&#45;Solid&#45;Mesh&#45;&gt;Fluid&#45;Fluid&#45;Mesh&#45;Nodes</title>
<path fill="none" stroke="#0173b2" d="M734.51,-172.44C767.91,-175.38 816.89,-179.68 857.99,-183.29"/>
<polygon fill="#0173b2" stroke="#0173b2" points="857.72,-186.78 867.98,-184.17 858.33,-179.81 857.72,-186.78"/>
<text text-anchor="middle" x="801.31" y="-185.8" font-family="Times,serif" font-size="14.00">nearest&#45;projection</text>
</g>
<!-- Solid&#45;Solid&#45;Mesh -->
<g id="node8" class="node">
<title>Solid&#45;Solid&#45;Mesh</title>
<path fill="none" stroke="#de8f05" d="M495.31,-105.73C495.31,-107.53 474.02,-109 447.81,-109 421.6,-109 400.31,-107.53 400.31,-105.73 400.31,-105.73 400.31,-76.27 400.31,-76.27 400.31,-74.47 421.6,-73 447.81,-73 474.02,-73 495.31,-74.47 495.31,-76.27 495.31,-76.27 495.31,-105.73 495.31,-105.73"/>
<path fill="none" stroke="#de8f05" d="M495.31,-105.73C495.31,-103.92 474.02,-102.45 447.81,-102.45 421.6,-102.45 400.31,-103.92 400.31,-105.73"/>
<text text-anchor="start" x="408.31" y="-88.3" font-family="Times,serif" font-size="14.00">Solid&#45;Mesh</text>
<text text-anchor="start" x="472.31" y="-88.3" font-family="Times,serif" font-style="italic" baseline-shift="super" font-size="14.00">3D</text>
</g>
<!-- Fluid&#45;Solid&#45;Mesh&#45;&gt;Solid&#45;Solid&#45;Mesh -->
<g id="edge12" class="edge">
<title>Fluid&#45;Solid&#45;Mesh&#45;&gt;Solid&#45;Solid&#45;Mesh</title>
<g id="a_edge12"><a xlink:title="vector">
<path fill="none" stroke="#0173b2" d="M683.02,-142.69C673.92,-123.41 658.59,-98.65 636.31,-87 596.32,-66.09 544.66,-69 505.7,-76.06"/>
<polygon fill="#0173b2" stroke="#0173b2" points="504.72,-72.69 495.58,-78.04 506.06,-79.56 504.72,-72.69"/>
</a>
</g>
<text text-anchor="middle" x="583.81" y="-90.8" font-family="Times,serif" font-size="14.00">Force</text>
</g>
<!-- Solid&#45;&gt;Solid&#45;Solid&#45;Mesh -->
<g id="edge6" class="edge">
<title>Solid&#45;&gt;Solid&#45;Solid&#45;Mesh</title>
<g id="a_edge6"><a xlink:title="vector">
<path fill="none" stroke="#de8f05" d="M235.64,-80.85C243.19,-78.02 251.43,-75.45 259.31,-74 302.81,-66.02 352.69,-71.22 390.07,-77.9"/>
<polygon fill="#de8f05" stroke="#de8f05" points="389.79,-81.41 400.26,-79.81 391.08,-74.53 389.79,-81.41"/>
</a>
</g>
<text text-anchor="middle" x="311.81" y="-77.8" font-family="Times,serif" font-size="14.00">DisplacementDelta</text>
</g>
<!-- Solid&#45;Solid&#45;Mesh&#45;&gt;Fluid&#45;Solid&#45;Mesh -->
<g id="edge13" class="edge">
<title>Solid&#45;Solid&#45;Mesh&#45;&gt;Fluid&#45;Solid&#45;Mesh</title>
<g id="a_edge13"><a xlink:title="vector">
<path fill="none" stroke="#de8f05" d="M495.45,-100.76C533.88,-109.43 589.47,-123.44 636.31,-141 639.16,-142.07 642.06,-143.23 644.97,-144.46"/>
<polygon fill="#de8f05" stroke="#de8f05" points="643.64,-147.7 654.2,-148.54 646.47,-141.3 643.64,-147.7"/>
</a>
</g>
<text text-anchor="middle" x="583.81" y="-144.8" font-family="Times,serif" font-size="14.00">DisplacementDelta</text>
</g>
<!-- Solid&#45;Solid&#45;Mesh&#45;&gt;Solid -->
<g id="edge5" class="edge">
<title>Solid&#45;Solid&#45;Mesh&#45;&gt;Solid</title>
<g id="a_edge5"><a xlink:title="vector">
<path fill="none" stroke="#de8f05" d="M400.2,-91.58C357.19,-92.12 293.75,-92.91 251.36,-93.44"/>
<polygon fill="#de8f05" stroke="#de8f05" points="251.28,-89.94 241.32,-93.57 251.36,-96.94 251.28,-89.94"/>
</a>
</g>
<text text-anchor="middle" x="311.81" y="-97.8" font-family="Times,serif" font-size="14.00">Force</text>
</g>
<!-- Solid&#45;Fluid&#45;Mesh&#45;Faces -->
<g id="node9" class="node">
<title>Solid&#45;Fluid&#45;Mesh&#45;Faces</title>
<path fill="none" stroke="#0173b2" stroke-dasharray="5,2" d="M128.5,-111.48C128.5,-114.11 102.5,-116.25 70.5,-116.25 38.5,-116.25 12.5,-114.11 12.5,-111.48 12.5,-111.48 12.5,-68.52 12.5,-68.52 12.5,-65.89 38.5,-63.75 70.5,-63.75 102.5,-63.75 128.5,-65.89 128.5,-68.52 128.5,-68.52 128.5,-111.48 128.5,-111.48"/>
<path fill="none" stroke="#0173b2" stroke-dasharray="5,2" d="M128.5,-111.48C128.5,-108.84 102.5,-106.7 70.5,-106.7 38.5,-106.7 12.5,-108.84 12.5,-111.48"/>
<text text-anchor="middle" x="70.5" y="-93.8" font-family="Times,serif" font-size="14.00">Fluid&#45;Mesh&#45;Faces</text>
<text text-anchor="middle" x="70.5" y="-78.8" font-family="Times,serif" font-size="14.00">from Fluid</text>
</g>
<!-- Solid&#45;WP&#45;Tube&#45;Midpoint -->
<g id="node10" class="node">
<title>Solid&#45;WP&#45;Tube&#45;Midpoint</title>
<polygon fill="none" stroke="#de8f05" points="127,-46 8,-46 8,-8 133,-8 133,-40 127,-46"/>
<polyline fill="none" stroke="#de8f05" points="127,-46 127,-40 "/>
<polyline fill="none" stroke="#de8f05" points="133,-40 127,-40 "/>
<text text-anchor="middle" x="70.5" y="-30.8" font-family="Times,serif" font-size="14.00">Tube&#45;Midpoint</text>
<text text-anchor="middle" x="70.5" y="-15.8" font-family="Times,serif" font-size="14.00">at (0.0;0.005;0.025)</text>
</g>
<!-- Solid&#45;WP&#45;Tube&#45;Midpoint&#45;&gt;Solid -->
<g id="edge7" class="edge">
<title>Solid&#45;WP&#45;Tube&#45;Midpoint&#45;&gt;Solid</title>
<path fill="none" stroke="#de8f05" d="M114.36,-46.04C120.65,-48.97 127.02,-52.01 133,-55 145,-60.99 157.93,-67.88 169.45,-74.19"/>
<polygon fill="#de8f05" stroke="#de8f05" points="167.9,-77.34 178.35,-79.1 171.28,-71.21 167.9,-77.34"/>
</g>
</g>
</svg>
