<?xml version="1.0" encoding="UTF-8" standalone="no"?>
<!DOCTYPE svg PUBLIC "-//W3C//DTD SVG 1.1//EN"
 "http://www.w3.org/Graphics/SVG/1.1/DTD/svg11.dtd">
<!-- Generated by graphviz version 2.43.0 (0)
 -->
<!-- Title: G Pages: 1 -->
<svg width="531pt" height="346pt"
 viewBox="0.00 0.00 531.49 346.00" xmlns="http://www.w3.org/2000/svg" xmlns:xlink="http://www.w3.org/1999/xlink">
<g id="graph0" class="graph" transform="scale(1 1) rotate(0) translate(4 342)">
<title>G</title>
<polygon fill="white" stroke="transparent" points="-4,4 -4,-342 527.49,-342 527.49,4 -4,4"/>
<g id="clust1" class="cluster">
<title>cluster_m2n</title>
<polygon fill="none" stroke="black" points="7.5,-185 7.5,-244 111.5,-244 111.5,-185 7.5,-185"/>
<text text-anchor="middle" x="59.5" y="-228.8" font-family="Times,serif" font-size="14.00">Communicators</text>
</g>
<g id="clust2" class="cluster">
<title>cluster_cpl</title>
<polygon fill="none" stroke="black" points="0,-118 0,-177 119,-177 119,-118 0,-118"/>
<text text-anchor="middle" x="59.5" y="-161.8" font-family="Times,serif" font-size="14.00">Coupling Schemes</text>
</g>
<g id="clust3" class="cluster">
<title>cluster_Dirichlet</title>
<polygon fill="none" stroke="black" stroke-width="2" points="155.74,-193 155.74,-330 512.99,-330 512.99,-193 155.74,-193"/>
<text text-anchor="middle" x="334.37" y="-314.8" font-family="Times,serif" font-size="14.00">Dirichlet</text>
</g>
<g id="clust4" class="cluster">
<title>cluster_Neumann</title>
<polygon fill="none" stroke="black" stroke-width="2" points="155,-8 155,-145 515.49,-145 515.49,-8 155,-8"/>
<text text-anchor="middle" x="335.24" y="-129.8" font-family="Times,serif" font-size="14.00">Neumann</text>
</g>
<!-- m2n&#45;Dirichlet&#45;Neumann -->
<g id="node1" class="node">
<title>m2n&#45;Dirichlet&#45;Neumann</title>
<polygon fill="none" stroke="black" points="87.5,-221 31.5,-221 31.5,-217 27.5,-217 27.5,-213 31.5,-213 31.5,-193 27.5,-193 27.5,-189 31.5,-189 31.5,-185 87.5,-185 87.5,-221"/>
<polyline fill="none" stroke="black" points="31.5,-217 35.5,-217 35.5,-213 31.5,-213 "/>
<polyline fill="none" stroke="black" points="31.5,-193 35.5,-193 35.5,-189 31.5,-189 "/>
<text text-anchor="middle" x="59.5" y="-199.3" font-family="Times,serif" font-size="14.00">sockets</text>
</g>
<!-- Dirichlet -->
<g id="node3" class="node">
<title>Dirichlet</title>
<polygon fill="none" stroke="#0173b2" points="254.18,-277.54 254.18,-292.46 227.27,-303 189.22,-303 162.31,-292.46 162.31,-277.54 189.22,-267 227.27,-267 254.18,-277.54"/>
<polygon fill="none" stroke="#0173b2" points="258.2,-274.82 258.2,-295.18 228.03,-307 188.45,-307 158.29,-295.18 158.29,-274.82 188.45,-263 228.03,-263 258.2,-274.82"/>
<text text-anchor="middle" x="208.24" y="-281.3" font-family="Times,serif" font-size="14.00">Dirichlet</text>
</g>
<!-- m2n&#45;Dirichlet&#45;Neumann&#45;&gt;Dirichlet -->
<g id="edge7" class="edge">
<title>m2n&#45;Dirichlet&#45;Neumann&#45;&gt;Dirichlet</title>
<path fill="none" stroke="#0173b2" d="M96.73,-223.24C111.88,-231.71 129.9,-241.78 146.94,-251.3"/>
<polygon fill="#0173b2" stroke="#0173b2" points="98.19,-220.05 87.76,-218.23 94.78,-226.16 98.19,-220.05"/>
<polygon fill="#0173b2" stroke="#0173b2" points="145.31,-254.4 155.75,-256.22 148.73,-248.29 145.31,-254.4"/>
</g>
<!-- Neumann -->
<g id="node6" class="node">
<title>Neumann</title>
<polygon fill="none" stroke="#de8f05" points="257.72,-22.54 257.72,-37.46 228.74,-48 187.75,-48 158.77,-37.46 158.77,-22.54 187.75,-12 228.74,-12 257.72,-22.54"/>
<polygon fill="none" stroke="#de8f05" points="261.73,-19.75 261.73,-40.25 229.45,-52 187.04,-52 154.75,-40.25 154.75,-19.75 187.04,-8 229.45,-8 261.73,-19.75"/>
<text text-anchor="middle" x="208.24" y="-26.3" font-family="Times,serif" font-size="14.00">Neumann</text>
</g>
<!-- m2n&#45;Dirichlet&#45;Neumann&#45;&gt;Neumann -->
<g id="edge8" class="edge">
<title>m2n&#45;Dirichlet&#45;Neumann&#45;&gt;Neumann</title>
<path fill="none" stroke="#de8f05" d="M97.36,-194.97C105.36,-191.75 113.16,-187.26 119,-181 154.56,-142.93 125.08,-109.46 149.21,-69.38"/>
<polygon fill="#de8f05" stroke="#de8f05" points="95.96,-191.75 87.63,-198.29 98.23,-198.37 95.96,-191.75"/>
<polygon fill="#de8f05" stroke="#de8f05" points="152.2,-71.22 155,-61 146.44,-67.24 152.2,-71.22"/>
</g>
<!-- cpl&#45;Dirichlet&#45;Neumann -->
<g id="node2" class="node">
<title>cpl&#45;Dirichlet&#45;Neumann</title>
<polygon fill="none" stroke="black" points="106,-154 13,-154 13,-150 9,-150 9,-146 13,-146 13,-126 9,-126 9,-122 13,-122 13,-118 106,-118 106,-154"/>
<polyline fill="none" stroke="black" points="13,-150 17,-150 17,-146 13,-146 "/>
<polyline fill="none" stroke="black" points="13,-126 17,-126 17,-122 13,-122 "/>
<text text-anchor="middle" x="59.5" y="-132.3" font-family="Times,serif" font-size="14.00">serial&#45;implicit</text>
</g>
<!-- cpl&#45;Dirichlet&#45;Neumann&#45;&gt;Dirichlet -->
<g id="edge9" class="edge">
<title>cpl&#45;Dirichlet&#45;Neumann&#45;&gt;Dirichlet</title>
<path fill="none" stroke="#0173b2" d="M89.24,-154.07C99.53,-161.51 110.63,-170.79 119,-181 139.69,-206.25 132.35,-223.75 149.32,-247.02"/>
<polygon fill="#0173b2" stroke="#0173b2" points="146.68,-249.32 155.75,-254.79 152.07,-244.86 146.68,-249.32"/>
<text text-anchor="middle" x="100.24" y="-150.37" font-family="Times,serif" font-size="14.00">first</text>
</g>
<!-- cpl&#45;Dirichlet&#45;Neumann&#45;&gt;Neumann -->
<g id="edge10" class="edge">
<title>cpl&#45;Dirichlet&#45;Neumann&#45;&gt;Neumann</title>
<path fill="none" stroke="#de8f05" d="M81.64,-117.87C98.41,-103.78 122.9,-83.84 146.65,-66.87"/>
<polygon fill="#de8f05" stroke="#de8f05" points="148.83,-69.61 155,-61 144.8,-63.88 148.83,-69.61"/>
<text text-anchor="middle" x="62.64" y="-106.67" font-family="Times,serif" font-size="14.00">second</text>
</g>
<!-- Dirichlet&#45;Dirichlet&#45;Mesh -->
<g id="node4" class="node">
<title>Dirichlet&#45;Dirichlet&#45;Mesh</title>
<path fill="none" stroke="#0173b2" d="M512.99,-249.73C512.99,-251.53 487.22,-253 455.49,-253 423.76,-253 397.99,-251.53 397.99,-249.73 397.99,-249.73 397.99,-220.27 397.99,-220.27 397.99,-218.47 423.76,-217 455.49,-217 487.22,-217 512.99,-218.47 512.99,-220.27 512.99,-220.27 512.99,-249.73 512.99,-249.73"/>
<path fill="none" stroke="#0173b2" d="M512.99,-249.73C512.99,-247.92 487.22,-246.45 455.49,-246.45 423.76,-246.45 397.99,-247.92 397.99,-249.73"/>
<text text-anchor="start" x="405.99" y="-232.3" font-family="Times,serif" font-size="14.00">Dirichlet&#45;Mesh</text>
<text text-anchor="start" x="489.99" y="-232.3" font-family="Times,serif" font-style="italic" baseline-shift="super" font-size="14.00">2D</text>
</g>
<!-- Dirichlet&#45;&gt;Dirichlet&#45;Dirichlet&#45;Mesh -->
<g id="edge2" class="edge">
<title>Dirichlet&#45;&gt;Dirichlet&#45;Dirichlet&#45;Mesh</title>
<g id="a_edge2"><a xlink:title="vector">
<path fill="none" stroke="#0173b2" d="M239.42,-267.44C251.5,-261.21 265.78,-254.81 279.49,-251 314.39,-241.3 354.55,-237.16 387.6,-235.5"/>
<polygon fill="#0173b2" stroke="#0173b2" points="387.77,-239 397.61,-235.07 387.46,-232.01 387.77,-239"/>
</a>
</g>
<text text-anchor="middle" x="328.49" y="-254.8" font-family="Times,serif" font-size="14.00">Heat&#45;Flux</text>
</g>
<!-- Dirichlet&#45;Dirichlet&#45;Mesh&#45;&gt;Dirichlet -->
<g id="edge1" class="edge">
<title>Dirichlet&#45;Dirichlet&#45;Mesh&#45;&gt;Dirichlet</title>
<g id="a_edge1"><a xlink:title="scalar">
<path fill="none" stroke="#0173b2" d="M421.28,-253.06C408.03,-259.48 392.4,-266.07 377.49,-270 342.05,-279.34 301.12,-283.14 268.5,-284.58"/>
<polygon fill="#0173b2" stroke="#0173b2" points="268.08,-281.09 258.22,-284.96 268.34,-288.08 268.08,-281.09"/>
</a>
</g>
<text text-anchor="middle" x="328.49" y="-286.8" font-family="Times,serif" font-size="14.00">Temperature</text>
</g>
<!-- Neumann&#45;Dirichlet&#45;Mesh -->
<g id="node8" class="node">
<title>Neumann&#45;Dirichlet&#45;Mesh</title>
<path fill="none" stroke="#0173b2" stroke-dasharray="5,2" d="M258.24,-117.48C258.24,-120.11 235.83,-122.25 208.24,-122.25 180.66,-122.25 158.24,-120.11 158.24,-117.48 158.24,-117.48 158.24,-74.52 158.24,-74.52 158.24,-71.89 180.66,-69.75 208.24,-69.75 235.83,-69.75 258.24,-71.89 258.24,-74.52 258.24,-74.52 258.24,-117.48 258.24,-117.48"/>
<path fill="none" stroke="#0173b2" stroke-dasharray="5,2" d="M258.24,-117.48C258.24,-114.84 235.83,-112.7 208.24,-112.7 180.66,-112.7 158.24,-114.84 158.24,-117.48"/>
<text text-anchor="middle" x="208.24" y="-99.8" font-family="Times,serif" font-size="14.00">Dirichlet&#45;Mesh</text>
<text text-anchor="middle" x="208.24" y="-84.8" font-family="Times,serif" font-size="14.00">from Dirichlet</text>
</g>
<!-- Dirichlet&#45;Dirichlet&#45;Mesh&#45;&gt;Neumann&#45;Dirichlet&#45;Mesh -->
<g id="edge11" class="edge">
<title>Dirichlet&#45;Dirichlet&#45;Mesh&#45;&gt;Neumann&#45;Dirichlet&#45;Mesh</title>
<g id="a_edge11"><a xlink:title="vector">
<path fill="none" stroke="#0173b2" d="M445.17,-216.78C432.78,-194.46 408.78,-157.14 377.49,-137 372.72,-133.93 315.1,-120.23 268.6,-109.5"/>
<polygon fill="#0173b2" stroke="#0173b2" points="269.1,-106.02 258.57,-107.19 267.53,-112.85 269.1,-106.02"/>
</a>
</g>
<text text-anchor="middle" x="328.49" y="-140.8" font-family="Times,serif" font-size="14.00">Heat&#45;Flux</text>
</g>
<!-- Dirichlet&#45;Neumann&#45;Mesh -->
<g id="node5" class="node">
<title>Dirichlet&#45;Neumann&#45;Mesh</title>
<path fill="none" stroke="#de8f05" stroke-dasharray="5,2" d="M260.74,-240.48C260.74,-243.11 237.21,-245.25 208.24,-245.25 179.28,-245.25 155.74,-243.11 155.74,-240.48 155.74,-240.48 155.74,-197.52 155.74,-197.52 155.74,-194.89 179.28,-192.75 208.24,-192.75 237.21,-192.75 260.74,-194.89 260.74,-197.52 260.74,-197.52 260.74,-240.48 260.74,-240.48"/>
<path fill="none" stroke="#de8f05" stroke-dasharray="5,2" d="M260.74,-240.48C260.74,-237.84 237.21,-235.7 208.24,-235.7 179.28,-235.7 155.74,-237.84 155.74,-240.48"/>
<text text-anchor="middle" x="208.24" y="-222.8" font-family="Times,serif" font-size="14.00">Neumann&#45;Mesh</text>
<text text-anchor="middle" x="208.24" y="-207.8" font-family="Times,serif" font-size="14.00">from Neumann</text>
</g>
<!-- Dirichlet&#45;Neumann&#45;Mesh&#45;&gt;Dirichlet&#45;Dirichlet&#45;Mesh -->
<g id="edge3" class="edge">
<title>Dirichlet&#45;Neumann&#45;Mesh&#45;&gt;Dirichlet&#45;Dirichlet&#45;Mesh</title>
<path fill="none" stroke="#0173b2" d="M260.96,-215.01C294.33,-213.27 338.6,-212.52 377.49,-217 380.93,-217.4 384.45,-217.89 387.99,-218.46"/>
<polygon fill="#0173b2" stroke="#0173b2" points="387.52,-221.93 397.98,-220.24 388.75,-215.04 387.52,-221.93"/>
<text text-anchor="middle" x="328.49" y="-220.8" font-family="Times,serif" font-size="14.00">nearest&#45;projection</text>
</g>
<!-- Neumann&#45;Neumann&#45;Mesh -->
<g id="node7" class="node">
<title>Neumann&#45;Neumann&#45;Mesh</title>
<path fill="none" stroke="#de8f05" d="M515.49,-97.73C515.49,-99.53 488.6,-101 455.49,-101 422.38,-101 395.49,-99.53 395.49,-97.73 395.49,-97.73 395.49,-68.27 395.49,-68.27 395.49,-66.47 422.38,-65 455.49,-65 488.6,-65 515.49,-66.47 515.49,-68.27 515.49,-68.27 515.49,-97.73 515.49,-97.73"/>
<path fill="none" stroke="#de8f05" d="M515.49,-97.73C515.49,-95.92 488.6,-94.45 455.49,-94.45 422.38,-94.45 395.49,-95.92 395.49,-97.73"/>
<text text-anchor="start" x="403.49" y="-80.3" font-family="Times,serif" font-size="14.00">Neumann&#45;Mesh</text>
<text text-anchor="start" x="492.49" y="-80.3" font-family="Times,serif" font-style="italic" baseline-shift="super" font-size="14.00">2D</text>
</g>
<!-- Neumann&#45;&gt;Neumann&#45;Neumann&#45;Mesh -->
<g id="edge5" class="edge">
<title>Neumann&#45;&gt;Neumann&#45;Neumann&#45;Mesh</title>
<g id="a_edge5"><a xlink:title="scalar">
<path fill="none" stroke="#de8f05" d="M260.06,-40.98C296.27,-48.81 345.39,-59.42 385.2,-68.03"/>
<polygon fill="#de8f05" stroke="#de8f05" points="384.59,-71.47 395.1,-70.17 386.07,-64.63 384.59,-71.47"/>
</a>
</g>
<text text-anchor="middle" x="328.49" y="-68.8" font-family="Times,serif" font-size="14.00">Temperature</text>
</g>
<!-- Neumann&#45;Neumann&#45;Mesh&#45;&gt;Dirichlet&#45;Neumann&#45;Mesh -->
<g id="edge12" class="edge">
<title>Neumann&#45;Neumann&#45;Mesh&#45;&gt;Dirichlet&#45;Neumann&#45;Mesh</title>
<g id="a_edge12"><a xlink:title="scalar initialized">
<path fill="none" stroke="#de8f05" stroke-width="2" d="M439.3,-101.06C424.82,-117.3 401.7,-140.87 377.49,-156 372.58,-159.07 316.8,-179.76 270.79,-196.61"/>
<polygon fill="#de8f05" stroke="#de8f05" stroke-width="2" points="269.33,-193.41 261.14,-200.13 271.73,-199.99 269.33,-193.41"/>
</a>
</g>
<text text-anchor="middle" x="328.49" y="-196.8" font-family="Times,serif" font-size="14.00">Temperature</text>
</g>
<!-- Neumann&#45;Neumann&#45;Mesh&#45;&gt;Neumann -->
<g id="edge4" class="edge">
<title>Neumann&#45;Neumann&#45;Mesh&#45;&gt;Neumann</title>
<g id="a_edge4"><a xlink:title="vector">
<path fill="none" stroke="#de8f05" d="M436.47,-64.73C421.96,-51.39 400.28,-34.41 377.49,-27 343.77,-16.04 304.21,-16.14 271.92,-19.29"/>
<polygon fill="#de8f05" stroke="#de8f05" points="271.27,-15.84 261.71,-20.4 272.04,-22.79 271.27,-15.84"/>
</a>
</g>
<text text-anchor="middle" x="328.49" y="-30.8" font-family="Times,serif" font-size="14.00">Heat&#45;Flux</text>
</g>
<!-- Neumann&#45;Dirichlet&#45;Mesh&#45;&gt;Neumann&#45;Neumann&#45;Mesh -->
<g id="edge6" class="edge">
<title>Neumann&#45;Dirichlet&#45;Mesh&#45;&gt;Neumann&#45;Neumann&#45;Mesh</title>
<path fill="none" stroke="#de8f05" d="M258.28,-93.4C294.62,-91.47 344.64,-88.82 385.08,-86.68"/>
<polygon fill="#de8f05" stroke="#de8f05" points="385.34,-90.17 395.14,-86.15 384.97,-83.18 385.34,-90.17"/>
<text text-anchor="middle" x="328.49" y="-95.8" font-family="Times,serif" font-size="14.00">nearest&#45;projection</text>
</g>
</g>
</svg>
