<?xml version="1.0" encoding="UTF-8" standalone="no"?>
<!DOCTYPE svg PUBLIC "-//W3C//DTD SVG 1.1//EN"
 "http://www.w3.org/Graphics/SVG/1.1/DTD/svg11.dtd">
<!-- Generated by graphviz version 2.43.0 (0)
 -->
<!-- Title: G Pages: 1 -->
<svg width="487pt" height="346pt"
 viewBox="0.00 0.00 487.00 346.00" xmlns="http://www.w3.org/2000/svg" xmlns:xlink="http://www.w3.org/1999/xlink">
<g id="graph0" class="graph" transform="scale(1 1) rotate(0) translate(4 342)">
<title>G</title>
<polygon fill="white" stroke="transparent" points="-4,4 -4,-342 483,-342 483,4 -4,4"/>
<g id="clust1" class="cluster">
<title>cluster_m2n</title>
<polygon fill="none" stroke="black" points="7.5,-185 7.5,-244 111.5,-244 111.5,-185 7.5,-185"/>
<text text-anchor="middle" x="59.5" y="-228.8" font-family="Times,serif" font-size="14.00">Communicators</text>
</g>
<g id="clust2" class="cluster">
<title>cluster_cpl</title>
<polygon fill="none" stroke="black" points="0,-118 0,-177 119,-177 119,-118 0,-118"/>
<text text-anchor="middle" x="59.5" y="-161.8" font-family="Times,serif" font-size="14.00">Coupling Schemes</text>
</g>
<g id="clust3" class="cluster">
<title>cluster_Fluid1</title>
<polygon fill="none" stroke="black" stroke-width="2" points="155,-193 155,-330 471,-330 471,-193 155,-193"/>
<text text-anchor="middle" x="313" y="-314.8" font-family="Times,serif" font-size="14.00">Fluid1</text>
</g>
<g id="clust4" class="cluster">
<title>cluster_Fluid2</title>
<polygon fill="none" stroke="black" stroke-width="2" points="155,-8 155,-145 471,-145 471,-8 155,-8"/>
<text text-anchor="middle" x="313" y="-129.8" font-family="Times,serif" font-size="14.00">Fluid2</text>
</g>
<!-- m2n&#45;Fluid1&#45;Fluid2 -->
<g id="node1" class="node">
<title>m2n&#45;Fluid1&#45;Fluid2</title>
<polygon fill="none" stroke="black" points="87.5,-221 31.5,-221 31.5,-217 27.5,-217 27.5,-213 31.5,-213 31.5,-193 27.5,-193 27.5,-189 31.5,-189 31.5,-185 87.5,-185 87.5,-221"/>
<polyline fill="none" stroke="black" points="31.5,-217 35.5,-217 35.5,-213 31.5,-213 "/>
<polyline fill="none" stroke="black" points="31.5,-193 35.5,-193 35.5,-189 31.5,-189 "/>
<text text-anchor="middle" x="59.5" y="-199.3" font-family="Times,serif" font-size="14.00">sockets</text>
</g>
<!-- Fluid1 -->
<g id="node3" class="node">
<title>Fluid1</title>
<polygon fill="none" stroke="#0173b2" points="235.16,-277.54 235.16,-292.46 213.68,-303 183.32,-303 161.84,-292.46 161.84,-277.54 183.32,-267 213.68,-267 235.16,-277.54"/>
<polygon fill="none" stroke="#0173b2" points="239.16,-275.05 239.16,-294.95 214.62,-307 182.38,-307 157.84,-294.95 157.84,-275.05 182.38,-263 214.62,-263 239.16,-275.05"/>
<text text-anchor="middle" x="198.5" y="-281.3" font-family="Times,serif" font-size="14.00">Fluid1</text>
</g>
<!-- m2n&#45;Fluid1&#45;Fluid2&#45;&gt;Fluid1 -->
<g id="edge7" class="edge">
<title>m2n&#45;Fluid1&#45;Fluid2&#45;&gt;Fluid1</title>
<path fill="none" stroke="#0173b2" d="M96.42,-224.5C111.57,-233.57 129.49,-244.29 146,-254.18"/>
<polygon fill="#0173b2" stroke="#0173b2" points="97.94,-221.33 87.57,-219.2 94.35,-227.34 97.94,-221.33"/>
<polygon fill="#0173b2" stroke="#0173b2" points="144.63,-257.43 155,-259.56 148.22,-251.43 144.63,-257.43"/>
</g>
<!-- Fluid2 -->
<g id="node6" class="node">
<title>Fluid2</title>
<polygon fill="none" stroke="#de8f05" points="235.16,-22.54 235.16,-37.46 213.68,-48 183.32,-48 161.84,-37.46 161.84,-22.54 183.32,-12 213.68,-12 235.16,-22.54"/>
<polygon fill="none" stroke="#de8f05" points="239.16,-20.05 239.16,-39.95 214.62,-52 182.38,-52 157.84,-39.95 157.84,-20.05 182.38,-8 214.62,-8 239.16,-20.05"/>
<text text-anchor="middle" x="198.5" y="-26.3" font-family="Times,serif" font-size="14.00">Fluid2</text>
</g>
<!-- m2n&#45;Fluid1&#45;Fluid2&#45;&gt;Fluid2 -->
<g id="edge8" class="edge">
<title>m2n&#45;Fluid1&#45;Fluid2&#45;&gt;Fluid2</title>
<path fill="none" stroke="#de8f05" d="M97.36,-194.97C105.36,-191.75 113.16,-187.26 119,-181 154.56,-142.93 126.93,-110.84 149.57,-69.65"/>
<polygon fill="#de8f05" stroke="#de8f05" points="95.96,-191.75 87.63,-198.29 98.23,-198.37 95.96,-191.75"/>
<polygon fill="#de8f05" stroke="#de8f05" points="152.65,-71.33 155,-61 146.72,-67.61 152.65,-71.33"/>
</g>
<!-- cpl&#45;Fluid1&#45;Fluid2 -->
<g id="node2" class="node">
<title>cpl&#45;Fluid1&#45;Fluid2</title>
<polygon fill="none" stroke="black" points="106,-154 13,-154 13,-150 9,-150 9,-146 13,-146 13,-126 9,-126 9,-122 13,-122 13,-118 106,-118 106,-154"/>
<polyline fill="none" stroke="black" points="13,-150 17,-150 17,-146 13,-146 "/>
<polyline fill="none" stroke="black" points="13,-126 17,-126 17,-122 13,-122 "/>
<text text-anchor="middle" x="59.5" y="-132.3" font-family="Times,serif" font-size="14.00">serial&#45;implicit</text>
</g>
<!-- cpl&#45;Fluid1&#45;Fluid2&#45;&gt;Fluid1 -->
<g id="edge9" class="edge">
<title>cpl&#45;Fluid1&#45;Fluid2&#45;&gt;Fluid1</title>
<path fill="none" stroke="#0173b2" d="M89.24,-154.07C99.53,-161.51 110.63,-170.79 119,-181 139.6,-206.14 133.45,-222.69 148.87,-245.86"/>
<polygon fill="#0173b2" stroke="#0173b2" points="146.19,-248.12 155,-254 151.78,-243.91 146.19,-248.12"/>
<text text-anchor="middle" x="100.24" y="-150.37" font-family="Times,serif" font-size="14.00">first</text>
</g>
<!-- cpl&#45;Fluid1&#45;Fluid2&#45;&gt;Fluid2 -->
<g id="edge10" class="edge">
<title>cpl&#45;Fluid1&#45;Fluid2&#45;&gt;Fluid2</title>
<path fill="none" stroke="#de8f05" d="M82.83,-117.86C99.85,-104.13 124.16,-84.69 147,-67.12"/>
<polygon fill="#de8f05" stroke="#de8f05" points="149.19,-69.86 155,-61 144.93,-64.3 149.19,-69.86"/>
<text text-anchor="middle" x="63.83" y="-106.66" font-family="Times,serif" font-size="14.00">second</text>
</g>
<!-- Fluid1&#45;Fluid1&#45;Mesh -->
<g id="node4" class="node">
<title>Fluid1&#45;Fluid1&#45;Mesh</title>
<path fill="none" stroke="#0173b2" d="M471,-249.73C471,-251.53 448.14,-253 420,-253 391.86,-253 369,-251.53 369,-249.73 369,-249.73 369,-220.27 369,-220.27 369,-218.47 391.86,-217 420,-217 448.14,-217 471,-218.47 471,-220.27 471,-220.27 471,-249.73 471,-249.73"/>
<path fill="none" stroke="#0173b2" d="M471,-249.73C471,-247.92 448.14,-246.45 420,-246.45 391.86,-246.45 369,-247.92 369,-249.73"/>
<text text-anchor="start" x="377" y="-232.3" font-family="Times,serif" font-size="14.00">Fluid1&#45;Mesh</text>
<text text-anchor="start" x="448" y="-232.3" font-family="Times,serif" font-style="italic" baseline-shift="super" font-size="14.00">3D</text>
</g>
<!-- Fluid1&#45;&gt;Fluid1&#45;Fluid1&#45;Mesh -->
<g id="edge2" class="edge">
<title>Fluid1&#45;&gt;Fluid1&#45;Fluid1&#45;Mesh</title>
<g id="a_edge2"><a xlink:title="vector">
<path fill="none" stroke="#0173b2" d="M224.63,-267.8C235.12,-261.46 247.71,-254.89 260,-251 291.73,-240.97 328.63,-236.83 358.89,-235.26"/>
<polygon fill="#0173b2" stroke="#0173b2" points="359.04,-238.75 368.88,-234.82 358.74,-231.76 359.04,-238.75"/>
</a>
</g>
<text text-anchor="middle" x="305.5" y="-254.8" font-family="Times,serif" font-size="14.00">Velocity</text>
</g>
<!-- Fluid1&#45;Fluid1&#45;Mesh&#45;&gt;Fluid1 -->
<g id="edge1" class="edge">
<title>Fluid1&#45;Fluid1&#45;Mesh&#45;&gt;Fluid1</title>
<g id="a_edge1"><a xlink:title="scalar">
<path fill="none" stroke="#0173b2" d="M389.89,-253.05C378.21,-259.46 364.37,-266.05 351,-270 318.01,-279.74 279.4,-283.45 249.42,-284.75"/>
<polygon fill="#0173b2" stroke="#0173b2" points="249.07,-281.26 239.2,-285.11 249.31,-288.26 249.07,-281.26"/>
</a>
</g>
<text text-anchor="middle" x="305.5" y="-287.8" font-family="Times,serif" font-size="14.00">Pressure</text>
</g>
<!-- Fluid2&#45;Fluid1&#45;Mesh -->
<g id="node8" class="node">
<title>Fluid2&#45;Fluid1&#45;Mesh</title>
<path fill="none" stroke="#0173b2" stroke-dasharray="5,2" d="M242,-117.48C242,-120.11 222.5,-122.25 198.5,-122.25 174.5,-122.25 155,-120.11 155,-117.48 155,-117.48 155,-74.52 155,-74.52 155,-71.89 174.5,-69.75 198.5,-69.75 222.5,-69.75 242,-71.89 242,-74.52 242,-74.52 242,-117.48 242,-117.48"/>
<path fill="none" stroke="#0173b2" stroke-dasharray="5,2" d="M242,-117.48C242,-114.84 222.5,-112.7 198.5,-112.7 174.5,-112.7 155,-114.84 155,-117.48"/>
<text text-anchor="middle" x="198.5" y="-99.8" font-family="Times,serif" font-size="14.00">Fluid1&#45;Mesh</text>
<text text-anchor="middle" x="198.5" y="-84.8" font-family="Times,serif" font-size="14.00">from Fluid1</text>
</g>
<!-- Fluid1&#45;Fluid1&#45;Mesh&#45;&gt;Fluid2&#45;Fluid1&#45;Mesh -->
<g id="edge11" class="edge">
<title>Fluid1&#45;Fluid1&#45;Mesh&#45;&gt;Fluid2&#45;Fluid1&#45;Mesh</title>
<g id="a_edge11"><a xlink:title="vector">
<path fill="none" stroke="#0173b2" d="M411.24,-216.9C400.8,-194.71 380.11,-157.53 351,-137 346.77,-134.02 294.27,-120.15 252.24,-109.36"/>
<polygon fill="#0173b2" stroke="#0173b2" points="252.92,-105.92 242.37,-106.83 251.19,-112.7 252.92,-105.92"/>
</a>
</g>
<text text-anchor="middle" x="305.5" y="-140.8" font-family="Times,serif" font-size="14.00">Velocity</text>
</g>
<!-- Fluid1&#45;Fluid2&#45;Mesh -->
<g id="node5" class="node">
<title>Fluid1&#45;Fluid2&#45;Mesh</title>
<path fill="none" stroke="#de8f05" stroke-dasharray="5,2" d="M242,-240.48C242,-243.11 222.5,-245.25 198.5,-245.25 174.5,-245.25 155,-243.11 155,-240.48 155,-240.48 155,-197.52 155,-197.52 155,-194.89 174.5,-192.75 198.5,-192.75 222.5,-192.75 242,-194.89 242,-197.52 242,-197.52 242,-240.48 242,-240.48"/>
<path fill="none" stroke="#de8f05" stroke-dasharray="5,2" d="M242,-240.48C242,-237.84 222.5,-235.7 198.5,-235.7 174.5,-235.7 155,-237.84 155,-240.48"/>
<text text-anchor="middle" x="198.5" y="-222.8" font-family="Times,serif" font-size="14.00">Fluid2&#45;Mesh</text>
<text text-anchor="middle" x="198.5" y="-207.8" font-family="Times,serif" font-size="14.00">from Fluid2</text>
</g>
<!-- Fluid1&#45;Fluid2&#45;Mesh&#45;&gt;Fluid1&#45;Fluid1&#45;Mesh -->
<g id="edge3" class="edge">
<title>Fluid1&#45;Fluid2&#45;Mesh&#45;&gt;Fluid1&#45;Fluid1&#45;Mesh</title>
<path fill="none" stroke="#0173b2" d="M242.13,-215.21C272.6,-213.29 314.48,-212.25 351,-217 353.54,-217.33 356.13,-217.73 358.73,-218.18"/>
<polygon fill="#0173b2" stroke="#0173b2" points="358.3,-221.66 368.79,-220.16 359.65,-214.79 358.3,-221.66"/>
<text text-anchor="middle" x="305.5" y="-220.8" font-family="Times,serif" font-size="14.00">nearest&#45;neighbor</text>
</g>
<!-- Fluid2&#45;Fluid2&#45;Mesh -->
<g id="node7" class="node">
<title>Fluid2&#45;Fluid2&#45;Mesh</title>
<path fill="none" stroke="#de8f05" d="M471,-97.73C471,-99.53 448.14,-101 420,-101 391.86,-101 369,-99.53 369,-97.73 369,-97.73 369,-68.27 369,-68.27 369,-66.47 391.86,-65 420,-65 448.14,-65 471,-66.47 471,-68.27 471,-68.27 471,-97.73 471,-97.73"/>
<path fill="none" stroke="#de8f05" d="M471,-97.73C471,-95.92 448.14,-94.45 420,-94.45 391.86,-94.45 369,-95.92 369,-97.73"/>
<text text-anchor="start" x="377" y="-80.3" font-family="Times,serif" font-size="14.00">Fluid2&#45;Mesh</text>
<text text-anchor="start" x="448" y="-80.3" font-family="Times,serif" font-style="italic" baseline-shift="super" font-size="14.00">3D</text>
</g>
<!-- Fluid2&#45;&gt;Fluid2&#45;Fluid2&#45;Mesh -->
<g id="edge5" class="edge">
<title>Fluid2&#45;&gt;Fluid2&#45;Fluid2&#45;Mesh</title>
<g id="a_edge5"><a xlink:title="scalar">
<path fill="none" stroke="#de8f05" d="M239.25,-39.6C272.59,-47.65 320.73,-59.27 358.8,-68.46"/>
<polygon fill="#de8f05" stroke="#de8f05" points="358.2,-71.92 368.74,-70.87 359.84,-65.12 358.2,-71.92"/>
</a>
</g>
<text text-anchor="middle" x="305.5" y="-68.8" font-family="Times,serif" font-size="14.00">Pressure</text>
</g>
<!-- Fluid2&#45;Fluid2&#45;Mesh&#45;&gt;Fluid1&#45;Fluid2&#45;Mesh -->
<g id="edge12" class="edge">
<title>Fluid2&#45;Fluid2&#45;Mesh&#45;&gt;Fluid1&#45;Fluid2&#45;Mesh</title>
<g id="a_edge12"><a xlink:title="scalar">
<path fill="none" stroke="#de8f05" d="M405.65,-101.28C393.06,-117.45 372.9,-140.78 351,-156 349.87,-156.79 294.82,-179.61 251.4,-197.57"/>
<polygon fill="#de8f05" stroke="#de8f05" points="249.96,-194.37 242.06,-201.43 252.64,-200.84 249.96,-194.37"/>
</a>
</g>
<text text-anchor="middle" x="305.5" y="-196.8" font-family="Times,serif" font-size="14.00">Pressure</text>
</g>
<!-- Fluid2&#45;Fluid2&#45;Mesh&#45;&gt;Fluid2 -->
<g id="edge4" class="edge">
<title>Fluid2&#45;Fluid2&#45;Mesh&#45;&gt;Fluid2</title>
<g id="a_edge4"><a xlink:title="vector">
<path fill="none" stroke="#de8f05" d="M403.51,-64.77C390.92,-51.46 371.87,-34.49 351,-27 318.52,-15.35 279.55,-16.42 249.27,-20.24"/>
<polygon fill="#de8f05" stroke="#de8f05" points="248.77,-16.78 239.35,-21.63 249.74,-23.71 248.77,-16.78"/>
</a>
</g>
<text text-anchor="middle" x="305.5" y="-30.8" font-family="Times,serif" font-size="14.00">Velocity</text>
</g>
<!-- Fluid2&#45;Fluid1&#45;Mesh&#45;&gt;Fluid2&#45;Fluid2&#45;Mesh -->
<g id="edge6" class="edge">
<title>Fluid2&#45;Fluid1&#45;Mesh&#45;&gt;Fluid2&#45;Fluid2&#45;Mesh</title>
<path fill="none" stroke="#de8f05" d="M242.08,-93.48C275.24,-91.51 321.7,-88.76 358.69,-86.57"/>
<polygon fill="#de8f05" stroke="#de8f05" points="359.07,-90.06 368.85,-85.97 358.66,-83.07 359.07,-90.06"/>
<text text-anchor="middle" x="305.5" y="-95.8" font-family="Times,serif" font-size="14.00">nearest&#45;neighbor</text>
</g>
</g>
</svg>
