<?xml version="1.0" encoding="UTF-8" standalone="no"?>
<!DOCTYPE svg PUBLIC "-//W3C//DTD SVG 1.1//EN"
 "http://www.w3.org/Graphics/SVG/1.1/DTD/svg11.dtd">
<!-- Generated by graphviz version 2.43.0 (0)
 -->
<!-- Title: G Pages: 1 -->
<svg width="1098pt" height="489pt"
 viewBox="0.00 0.00 1098.00 489.00" xmlns="http://www.w3.org/2000/svg" xmlns:xlink="http://www.w3.org/1999/xlink">
<g id="graph0" class="graph" transform="scale(1 1) rotate(0) translate(4 485)">
<title>G</title>
<polygon fill="white" stroke="transparent" points="-4,4 -4,-485 1094,-485 1094,4 -4,4"/>
<g id="clust1" class="cluster">
<title>cluster_m2n</title>
<polygon fill="none" stroke="black" points="299,-153 299,-266 403,-266 403,-153 299,-153"/>
<text text-anchor="middle" x="351" y="-250.8" font-family="Times,serif" font-size="14.00">Communicators</text>
</g>
<g id="clust2" class="cluster">
<title>cluster_cpl</title>
<polygon fill="none" stroke="black" points="292,-266 292,-325 411,-325 411,-266 292,-266"/>
<text text-anchor="middle" x="351.5" y="-309.8" font-family="Times,serif" font-size="14.00">Coupling Schemes</text>
</g>
<g id="clust3" class="cluster">
<title>cluster_Fluid&#45;Top</title>
<polygon fill="none" stroke="black" stroke-width="2" points="602.5,-159 602.5,-296 1055,-296 1055,-159 602.5,-159"/>
<text text-anchor="middle" x="828.75" y="-280.8" font-family="Times,serif" font-size="14.00">Fluid&#45;Top</text>
</g>
<g id="clust4" class="cluster">
<title>cluster_Solid</title>
<polygon fill="none" stroke="black" stroke-width="2" points="8,-8 8,-153 1082,-153 1082,-8 8,-8"/>
<text text-anchor="middle" x="545" y="-137.8" font-family="Times,serif" font-size="14.00">Solid</text>
</g>
<g id="clust5" class="cluster">
<title>cluster_Fluid&#45;Bottom</title>
<polygon fill="none" stroke="black" stroke-width="2" points="593,-336 593,-473 1064.5,-473 1064.5,-336 593,-336"/>
<text text-anchor="middle" x="828.75" y="-457.8" font-family="Times,serif" font-size="14.00">Fluid&#45;Bottom</text>
</g>
<!-- m2n&#45;Fluid&#45;Top&#45;Solid -->
<g id="node1" class="node">
<title>m2n&#45;Fluid&#45;Top&#45;Solid</title>
<polygon fill="none" stroke="black" points="379,-189 323,-189 323,-185 319,-185 319,-181 323,-181 323,-161 319,-161 319,-157 323,-157 323,-153 379,-153 379,-189"/>
<polyline fill="none" stroke="black" points="323,-185 327,-185 327,-181 323,-181 "/>
<polyline fill="none" stroke="black" points="323,-161 327,-161 327,-157 323,-157 "/>
<text text-anchor="middle" x="351" y="-167.3" font-family="Times,serif" font-size="14.00">sockets</text>
</g>
<!-- Fluid&#45;Top -->
<g id="node4" class="node">
<title>Fluid&#45;Top</title>
<polygon fill="none" stroke="#0173b2" points="723.4,-243.54 723.4,-258.46 694.17,-269 652.83,-269 623.6,-258.46 623.6,-243.54 652.83,-233 694.17,-233 723.4,-243.54"/>
<polygon fill="none" stroke="#0173b2" points="727.4,-240.73 727.4,-261.27 694.87,-273 652.13,-273 619.6,-261.27 619.6,-240.73 652.13,-229 694.87,-229 727.4,-240.73"/>
<text text-anchor="middle" x="673.5" y="-247.3" font-family="Times,serif" font-size="14.00">Fluid&#45;Top</text>
</g>
<!-- m2n&#45;Fluid&#45;Top&#45;Solid&#45;&gt;Fluid&#45;Top -->
<g id="edge13" class="edge">
<title>m2n&#45;Fluid&#45;Top&#45;Solid&#45;&gt;Fluid&#45;Top</title>
<path fill="none" stroke="#0173b2" d="M388.91,-180.21C438.37,-192.56 527.5,-214.81 592.67,-231.07"/>
<polygon fill="#0173b2" stroke="#0173b2" points="389.6,-176.78 379.05,-177.75 387.9,-183.57 389.6,-176.78"/>
<polygon fill="#0173b2" stroke="#0173b2" points="591.95,-234.5 602.5,-233.53 593.65,-227.71 591.95,-234.5"/>
</g>
<!-- Solid -->
<g id="node7" class="node">
<title>Solid</title>
<polygon fill="none" stroke="#de8f05" points="705.3,-98.54 705.3,-113.46 686.67,-124 660.33,-124 641.7,-113.46 641.7,-98.54 660.33,-88 686.67,-88 705.3,-98.54"/>
<polygon fill="none" stroke="#de8f05" points="709.32,-96.22 709.32,-115.78 687.73,-128 659.27,-128 637.68,-115.78 637.68,-96.22 659.27,-84 687.73,-84 709.32,-96.22"/>
<text text-anchor="middle" x="673.5" y="-102.3" font-family="Times,serif" font-size="14.00">Solid</text>
</g>
<!-- m2n&#45;Fluid&#45;Top&#45;Solid&#45;&gt;Solid -->
<g id="edge14" class="edge">
<title>m2n&#45;Fluid&#45;Top&#45;Solid&#45;&gt;Solid</title>
<path fill="none" stroke="#de8f05" d="M389.23,-163.45C401.14,-161.03 415.32,-158.16 430.9,-155"/>
<polygon fill="#de8f05" stroke="#de8f05" points="388.15,-160.1 379.05,-165.51 389.55,-166.96 388.15,-160.1"/>
<polygon fill="#de8f05" stroke="#de8f05" points="431.66,-158.42 440.77,-153 430.27,-151.55 431.66,-158.42"/>
</g>
<!-- m2n&#45;Fluid&#45;Bottom&#45;Solid -->
<g id="node2" class="node">
<title>m2n&#45;Fluid&#45;Bottom&#45;Solid</title>
<polygon fill="none" stroke="black" points="379,-243 323,-243 323,-239 319,-239 319,-235 323,-235 323,-215 319,-215 319,-211 323,-211 323,-207 379,-207 379,-243"/>
<polyline fill="none" stroke="black" points="323,-239 327,-239 327,-235 323,-235 "/>
<polyline fill="none" stroke="black" points="323,-215 327,-215 327,-211 323,-211 "/>
<text text-anchor="middle" x="351" y="-221.3" font-family="Times,serif" font-size="14.00">sockets</text>
</g>
<!-- m2n&#45;Fluid&#45;Bottom&#45;Solid&#45;&gt;Solid -->
<g id="edge16" class="edge">
<title>m2n&#45;Fluid&#45;Bottom&#45;Solid&#45;&gt;Solid</title>
<path fill="none" stroke="#de8f05" d="M389.39,-214.05C405.34,-209.27 424.13,-203.51 441,-198 495.73,-180.11 513.44,-175.46 560.56,-156.79"/>
<polygon fill="#de8f05" stroke="#de8f05" points="387.95,-210.82 379.36,-217.03 389.94,-217.53 387.95,-210.82"/>
<polygon fill="#de8f05" stroke="#de8f05" points="562.06,-159.96 570.05,-153 559.46,-153.46 562.06,-159.96"/>
</g>
<!-- Fluid&#45;Bottom -->
<g id="node14" class="node">
<title>Fluid&#45;Bottom</title>
<polygon fill="none" stroke="#029e73" points="737.53,-420.54 737.53,-435.46 700.02,-446 646.98,-446 609.47,-435.46 609.47,-420.54 646.98,-410 700.02,-410 737.53,-420.54"/>
<polygon fill="none" stroke="#029e73" points="741.54,-417.51 741.54,-438.49 700.58,-450 646.42,-450 605.46,-438.49 605.46,-417.51 646.42,-406 700.58,-406 741.54,-417.51"/>
<text text-anchor="middle" x="673.5" y="-424.3" font-family="Times,serif" font-size="14.00">Fluid&#45;Bottom</text>
</g>
<!-- m2n&#45;Fluid&#45;Bottom&#45;Solid&#45;&gt;Fluid&#45;Bottom -->
<g id="edge15" class="edge">
<title>m2n&#45;Fluid&#45;Bottom&#45;Solid&#45;&gt;Fluid&#45;Bottom</title>
<path fill="none" stroke="#029e73" d="M389.12,-224.51C439.2,-226.02 527.59,-236.69 575,-290 604.54,-323.22 569.05,-354.33 587.17,-388.3"/>
<polygon fill="#029e73" stroke="#029e73" points="389.11,-221.01 379.04,-224.32 388.98,-228.01 389.11,-221.01"/>
<polygon fill="#029e73" stroke="#029e73" points="584.52,-390.64 593,-397 590.34,-386.74 584.52,-390.64"/>
</g>
<!-- cpl&#45;multi&#45;Fluid&#45;Top&#45;Fluid&#45;Bottom&#45;Solid -->
<g id="node3" class="node">
<title>cpl&#45;multi&#45;Fluid&#45;Top&#45;Fluid&#45;Bottom&#45;Solid</title>
<polygon fill="none" stroke="black" points="378,-302 324,-302 324,-298 320,-298 320,-294 324,-294 324,-274 320,-274 320,-270 324,-270 324,-266 378,-266 378,-302"/>
<polyline fill="none" stroke="black" points="324,-298 328,-298 328,-294 324,-294 "/>
<polyline fill="none" stroke="black" points="324,-274 328,-274 328,-270 324,-270 "/>
<text text-anchor="middle" x="351" y="-280.3" font-family="Times,serif" font-size="14.00">multi</text>
</g>
<!-- cpl&#45;multi&#45;Fluid&#45;Top&#45;Fluid&#45;Bottom&#45;Solid&#45;&gt;Fluid&#45;Top -->
<g id="edge17" class="edge">
<title>cpl&#45;multi&#45;Fluid&#45;Top&#45;Fluid&#45;Bottom&#45;Solid&#45;&gt;Fluid&#45;Top</title>
<path fill="none" stroke="#0173b2" d="M378.23,-281.3C424.46,-276.54 522.2,-266.48 592.36,-259.25"/>
<polygon fill="#0173b2" stroke="#0173b2" points="592.91,-262.71 602.5,-258.21 592.2,-255.75 592.91,-262.71"/>
</g>
<!-- cpl&#45;multi&#45;Fluid&#45;Top&#45;Fluid&#45;Bottom&#45;Solid&#45;&gt;Solid -->
<g id="edge19" class="edge">
<title>cpl&#45;multi&#45;Fluid&#45;Top&#45;Fluid&#45;Bottom&#45;Solid&#45;&gt;Solid</title>
<path fill="none" stroke="#de8f05" d="M378.3,-279.5C396.35,-275.94 420.62,-270.19 441,-262 504.74,-236.4 525.97,-233.11 575,-185 583.67,-176.49 583.11,-169.72 588.63,-160.93"/>
<polygon fill="#de8f05" stroke="#de8f05" points="591.47,-162.98 595.03,-153 586.02,-158.58 591.47,-162.98"/>
<text text-anchor="middle" x="406.3" y="-268.3" font-family="Times,serif" font-size="14.00">Controller</text>
</g>
<!-- cpl&#45;multi&#45;Fluid&#45;Top&#45;Fluid&#45;Bottom&#45;Solid&#45;&gt;Fluid&#45;Bottom -->
<g id="edge18" class="edge">
<title>cpl&#45;multi&#45;Fluid&#45;Top&#45;Fluid&#45;Bottom&#45;Solid&#45;&gt;Fluid&#45;Bottom</title>
<path fill="none" stroke="#029e73" d="M378.37,-284.02C431.1,-284.64 546.88,-288.99 575,-315 599.61,-337.76 574.95,-362.92 587.28,-388.36"/>
<polygon fill="#029e73" stroke="#029e73" points="584.56,-390.6 593,-397 590.39,-386.73 584.56,-390.6"/>
</g>
<!-- Fluid&#45;Top&#45;Fluid&#45;Top&#45;Mesh -->
<g id="node5" class="node">
<title>Fluid&#45;Top&#45;Fluid&#45;Top&#45;Mesh</title>
<path fill="none" stroke="#0173b2" d="M1055,-251.73C1055,-253.53 1027.66,-255 994,-255 960.34,-255 933,-253.53 933,-251.73 933,-251.73 933,-222.27 933,-222.27 933,-220.47 960.34,-219 994,-219 1027.66,-219 1055,-220.47 1055,-222.27 1055,-222.27 1055,-251.73 1055,-251.73"/>
<path fill="none" stroke="#0173b2" d="M1055,-251.73C1055,-249.92 1027.66,-248.45 994,-248.45 960.34,-248.45 933,-249.92 933,-251.73"/>
<text text-anchor="start" x="941" y="-234.3" font-family="Times,serif" font-size="14.00">Fluid&#45;Top&#45;Mesh</text>
<text text-anchor="start" x="1032" y="-234.3" font-family="Times,serif" font-style="italic" baseline-shift="super" font-size="14.00">2D</text>
</g>
<!-- Fluid&#45;Top&#45;&gt;Fluid&#45;Top&#45;Fluid&#45;Top&#45;Mesh -->
<g id="edge2" class="edge">
<title>Fluid&#45;Top&#45;&gt;Fluid&#45;Top&#45;Fluid&#45;Top&#45;Mesh</title>
<g id="a_edge2"><a xlink:title="scalar">
<path fill="none" stroke="#0173b2" d="M715.18,-236.04C732.45,-230.44 752.95,-224.77 772,-222 822.13,-214.7 879.19,-218.89 922.78,-224.67"/>
<polygon fill="#0173b2" stroke="#0173b2" points="922.32,-228.14 932.7,-226.05 923.28,-221.21 922.32,-228.14"/>
</a>
</g>
<text text-anchor="middle" x="830" y="-225.8" font-family="Times,serif" font-size="14.00">Temperature&#45;Top</text>
</g>
<!-- Fluid&#45;Top&#45;Fluid&#45;Top&#45;Mesh&#45;&gt;Fluid&#45;Top -->
<g id="edge1" class="edge">
<title>Fluid&#45;Top&#45;Fluid&#45;Top&#45;Mesh&#45;&gt;Fluid&#45;Top</title>
<g id="a_edge1"><a xlink:title="scalar">
<path fill="none" stroke="#0173b2" d="M932.86,-239.64C877.1,-242.09 794.45,-245.73 737.73,-248.22"/>
<polygon fill="#0173b2" stroke="#0173b2" points="737.29,-244.74 727.45,-248.67 737.6,-251.73 737.29,-244.74"/>
</a>
</g>
<text text-anchor="middle" x="830" y="-249.8" font-family="Times,serif" font-size="14.00">Heat&#45;Flux&#45;Top</text>
</g>
<!-- Solid&#45;Fluid&#45;Top&#45;Mesh -->
<g id="node12" class="node">
<title>Solid&#45;Fluid&#45;Top&#45;Mesh</title>
<path fill="none" stroke="#0173b2" stroke-dasharray="5,2" d="M124.5,-55.48C124.5,-58.11 100.52,-60.25 71,-60.25 41.48,-60.25 17.5,-58.11 17.5,-55.48 17.5,-55.48 17.5,-12.52 17.5,-12.52 17.5,-9.89 41.48,-7.75 71,-7.75 100.52,-7.75 124.5,-9.89 124.5,-12.52 124.5,-12.52 124.5,-55.48 124.5,-55.48"/>
<path fill="none" stroke="#0173b2" stroke-dasharray="5,2" d="M124.5,-55.48C124.5,-52.84 100.52,-50.7 71,-50.7 41.48,-50.7 17.5,-52.84 17.5,-55.48"/>
<text text-anchor="middle" x="71" y="-37.8" font-family="Times,serif" font-size="14.00">Fluid&#45;Top&#45;Mesh</text>
<text text-anchor="middle" x="71" y="-22.8" font-family="Times,serif" font-size="14.00">from Fluid&#45;Top</text>
</g>
<!-- Fluid&#45;Top&#45;Fluid&#45;Top&#45;Mesh&#45;&gt;Solid&#45;Fluid&#45;Top&#45;Mesh -->
<g id="edge20" class="edge">
<title>Fluid&#45;Top&#45;Fluid&#45;Top&#45;Mesh&#45;&gt;Solid&#45;Fluid&#45;Top&#45;Mesh</title>
<g id="a_edge20"><a xlink:title="scalar">
<path fill="none" stroke="#0173b2" d="M935.83,-253.74C920.4,-257.84 903.64,-261.94 888,-265 829.09,-276.54 813.56,-274.51 754,-282 700.82,-288.69 327.38,-360.13 261,-321 174.8,-270.18 191.96,-215.74 152,-124 141.73,-100.42 150.3,-88.89 134,-69 132.9,-67.65 131.73,-66.35 130.5,-65.08"/>
<polygon fill="#0173b2" stroke="#0173b2" points="132.72,-62.38 122.94,-58.3 128.04,-67.58 132.72,-62.38"/>
</a>
</g>
<text text-anchor="middle" x="517" y="-327.8" font-family="Times,serif" font-size="14.00">Temperature&#45;Top</text>
</g>
<!-- Fluid&#45;Top&#45;Solid&#45;Top&#45;Mesh&#45;Faces -->
<g id="node6" class="node">
<title>Fluid&#45;Top&#45;Solid&#45;Top&#45;Mesh&#45;Faces</title>
<path fill="none" stroke="#de8f05" stroke-dasharray="5,2" d="M744.5,-206.48C744.5,-209.11 712.68,-211.25 673.5,-211.25 634.32,-211.25 602.5,-209.11 602.5,-206.48 602.5,-206.48 602.5,-163.52 602.5,-163.52 602.5,-160.89 634.32,-158.75 673.5,-158.75 712.68,-158.75 744.5,-160.89 744.5,-163.52 744.5,-163.52 744.5,-206.48 744.5,-206.48"/>
<path fill="none" stroke="#de8f05" stroke-dasharray="5,2" d="M744.5,-206.48C744.5,-203.84 712.68,-201.7 673.5,-201.7 634.32,-201.7 602.5,-203.84 602.5,-206.48"/>
<text text-anchor="middle" x="673.5" y="-188.8" font-family="Times,serif" font-size="14.00">Solid&#45;Top&#45;Mesh&#45;Faces</text>
<text text-anchor="middle" x="673.5" y="-173.8" font-family="Times,serif" font-size="14.00">from Solid</text>
</g>
<!-- Fluid&#45;Top&#45;Solid&#45;Top&#45;Mesh&#45;Faces&#45;&gt;Fluid&#45;Top&#45;Fluid&#45;Top&#45;Mesh -->
<g id="edge3" class="edge">
<title>Fluid&#45;Top&#45;Solid&#45;Top&#45;Mesh&#45;Faces&#45;&gt;Fluid&#45;Top&#45;Fluid&#45;Top&#45;Mesh</title>
<path fill="none" stroke="#0173b2" d="M744.88,-184.66C786.84,-185.68 840.92,-189.14 888,-199 906.32,-202.84 925.76,-209.18 942.86,-215.6"/>
<polygon fill="#0173b2" stroke="#0173b2" points="942.05,-219.04 952.64,-219.37 944.57,-212.51 942.05,-219.04"/>
<text text-anchor="middle" x="830" y="-202.8" font-family="Times,serif" font-size="14.00">nearest&#45;neighbor</text>
</g>
<!-- Solid&#45;Solid&#45;Top&#45;Mesh&#45;Faces -->
<g id="node8" class="node">
<title>Solid&#45;Solid&#45;Top&#45;Mesh&#45;Faces</title>
<path fill="none" stroke="#de8f05" d="M1072.5,-72.73C1072.5,-74.53 1037.32,-76 994,-76 950.68,-76 915.5,-74.53 915.5,-72.73 915.5,-72.73 915.5,-43.27 915.5,-43.27 915.5,-41.47 950.68,-40 994,-40 1037.32,-40 1072.5,-41.47 1072.5,-43.27 1072.5,-43.27 1072.5,-72.73 1072.5,-72.73"/>
<path fill="none" stroke="#de8f05" d="M1072.5,-72.73C1072.5,-70.92 1037.32,-69.45 994,-69.45 950.68,-69.45 915.5,-70.92 915.5,-72.73"/>
<text text-anchor="start" x="923.5" y="-55.3" font-family="Times,serif" font-size="14.00">Solid&#45;Top&#45;Mesh&#45;Faces</text>
<text text-anchor="start" x="1049.5" y="-55.3" font-family="Times,serif" font-style="italic" baseline-shift="super" font-size="14.00">2D</text>
</g>
<!-- Solid&#45;&gt;Solid&#45;Solid&#45;Top&#45;Mesh&#45;Faces -->
<g id="edge6" class="edge">
<title>Solid&#45;&gt;Solid&#45;Solid&#45;Top&#45;Mesh&#45;Faces</title>
<g id="a_edge6"><a xlink:title="scalar">
<path fill="none" stroke="#de8f05" d="M709.58,-98.13C728.08,-94.15 751.2,-89.45 772,-86 815.7,-78.76 864.54,-72.39 905.17,-67.57"/>
<polygon fill="#de8f05" stroke="#de8f05" points="905.79,-71.02 915.31,-66.37 904.97,-64.07 905.79,-71.02"/>
</a>
</g>
<text text-anchor="middle" x="830" y="-89.8" font-family="Times,serif" font-size="14.00">Heat&#45;Flux&#45;Top</text>
</g>
<!-- Solid&#45;Solid&#45;Bottom&#45;Mesh&#45;Faces -->
<g id="node11" class="node">
<title>Solid&#45;Solid&#45;Bottom&#45;Mesh&#45;Faces</title>
<path fill="none" stroke="#de8f05" d="M1082,-126.73C1082,-128.53 1042.56,-130 994,-130 945.44,-130 906,-128.53 906,-126.73 906,-126.73 906,-97.27 906,-97.27 906,-95.47 945.44,-94 994,-94 1042.56,-94 1082,-95.47 1082,-97.27 1082,-97.27 1082,-126.73 1082,-126.73"/>
<path fill="none" stroke="#de8f05" d="M1082,-126.73C1082,-124.92 1042.56,-123.45 994,-123.45 945.44,-123.45 906,-124.92 906,-126.73"/>
<text text-anchor="start" x="914" y="-109.3" font-family="Times,serif" font-size="14.00">Solid&#45;Bottom&#45;Mesh&#45;Faces</text>
<text text-anchor="start" x="1059" y="-109.3" font-family="Times,serif" font-style="italic" baseline-shift="super" font-size="14.00">2D</text>
</g>
<!-- Solid&#45;&gt;Solid&#45;Solid&#45;Bottom&#45;Mesh&#45;Faces -->
<g id="edge7" class="edge">
<title>Solid&#45;&gt;Solid&#45;Solid&#45;Bottom&#45;Mesh&#45;Faces</title>
<g id="a_edge7"><a xlink:title="scalar">
<path fill="none" stroke="#de8f05" d="M709.27,-105.71C751.53,-105.45 825.01,-105.35 888,-107 890.55,-107.07 893.14,-107.14 895.75,-107.22"/>
<polygon fill="#de8f05" stroke="#de8f05" points="895.81,-110.73 905.92,-107.57 896.04,-103.73 895.81,-110.73"/>
</a>
</g>
<text text-anchor="middle" x="830" y="-110.8" font-family="Times,serif" font-size="14.00">Heat&#45;Flux&#45;Bottom</text>
</g>
<!-- Solid&#45;Solid&#45;Top&#45;Mesh&#45;Faces&#45;&gt;Fluid&#45;Top&#45;Solid&#45;Top&#45;Mesh&#45;Faces -->
<g id="edge21" class="edge">
<title>Solid&#45;Solid&#45;Top&#45;Mesh&#45;Faces&#45;&gt;Fluid&#45;Top&#45;Solid&#45;Top&#45;Mesh&#45;Faces</title>
<g id="a_edge21"><a xlink:title="scalar">
<path fill="none" stroke="#de8f05" d="M921.1,-74.88C915.68,-77.74 910.56,-81.09 906,-85 892.13,-96.91 901.96,-110.18 888,-122 867.46,-139.39 806.08,-156.5 754.37,-168.5"/>
<polygon fill="#de8f05" stroke="#de8f05" points="753.48,-165.11 744.51,-170.75 755.04,-171.93 753.48,-165.11"/>
</a>
</g>
<text text-anchor="middle" x="830" y="-167.8" font-family="Times,serif" font-size="14.00">Heat&#45;Flux&#45;Top</text>
</g>
<!-- Solid&#45;Solid&#45;Top&#45;Mesh&#45;Nodes -->
<g id="node9" class="node">
<title>Solid&#45;Solid&#45;Top&#45;Mesh&#45;Nodes</title>
<path fill="none" stroke="#de8f05" d="M431.5,-57.73C431.5,-59.53 395.42,-61 351,-61 306.58,-61 270.5,-59.53 270.5,-57.73 270.5,-57.73 270.5,-28.27 270.5,-28.27 270.5,-26.47 306.58,-25 351,-25 395.42,-25 431.5,-26.47 431.5,-28.27 431.5,-28.27 431.5,-57.73 431.5,-57.73"/>
<path fill="none" stroke="#de8f05" d="M431.5,-57.73C431.5,-55.92 395.42,-54.45 351,-54.45 306.58,-54.45 270.5,-55.92 270.5,-57.73"/>
<text text-anchor="start" x="278.5" y="-40.3" font-family="Times,serif" font-size="14.00">Solid&#45;Top&#45;Mesh&#45;Nodes</text>
<text text-anchor="start" x="408.5" y="-40.3" font-family="Times,serif" font-style="italic" baseline-shift="super" font-size="14.00">2D</text>
</g>
<!-- Solid&#45;Solid&#45;Top&#45;Mesh&#45;Nodes&#45;&gt;Solid -->
<g id="edge4" class="edge">
<title>Solid&#45;Solid&#45;Top&#45;Mesh&#45;Nodes&#45;&gt;Solid</title>
<g id="a_edge4"><a xlink:title="scalar">
<path fill="none" stroke="#de8f05" d="M431.64,-58.65C493.56,-70.83 577.19,-87.26 627.85,-97.22"/>
<polygon fill="#de8f05" stroke="#de8f05" points="627.35,-100.69 637.84,-99.19 628.7,-93.82 627.35,-100.69"/>
</a>
</g>
<text text-anchor="middle" x="517" y="-88.8" font-family="Times,serif" font-size="14.00">Temperature&#45;Top</text>
</g>
<!-- Solid&#45;Solid&#45;Bottom&#45;Mesh&#45;Nodes -->
<g id="node10" class="node">
<title>Solid&#45;Solid&#45;Bottom&#45;Mesh&#45;Nodes</title>
<path fill="none" stroke="#de8f05" d="M441,-120.73C441,-122.53 400.66,-124 351,-124 301.34,-124 261,-122.53 261,-120.73 261,-120.73 261,-91.27 261,-91.27 261,-89.47 301.34,-88 351,-88 400.66,-88 441,-89.47 441,-91.27 441,-91.27 441,-120.73 441,-120.73"/>
<path fill="none" stroke="#de8f05" d="M441,-120.73C441,-118.92 400.66,-117.45 351,-117.45 301.34,-117.45 261,-118.92 261,-120.73"/>
<text text-anchor="start" x="269" y="-103.3" font-family="Times,serif" font-size="14.00">Solid&#45;Bottom&#45;Mesh&#45;Nodes</text>
<text text-anchor="start" x="418" y="-103.3" font-family="Times,serif" font-style="italic" baseline-shift="super" font-size="14.00">2D</text>
</g>
<!-- Solid&#45;Solid&#45;Bottom&#45;Mesh&#45;Nodes&#45;&gt;Solid -->
<g id="edge5" class="edge">
<title>Solid&#45;Solid&#45;Bottom&#45;Mesh&#45;Nodes&#45;&gt;Solid</title>
<g id="a_edge5"><a xlink:title="scalar">
<path fill="none" stroke="#de8f05" d="M441.28,-106C501.85,-106 579.37,-106 627.48,-106"/>
<polygon fill="#de8f05" stroke="#de8f05" points="627.57,-109.5 637.57,-106 627.57,-102.5 627.57,-109.5"/>
</a>
</g>
<text text-anchor="middle" x="517" y="-109.8" font-family="Times,serif" font-size="14.00">Temperature&#45;Bottom</text>
</g>
<!-- Fluid&#45;Bottom&#45;Solid&#45;Bottom&#45;Mesh&#45;Faces -->
<g id="node16" class="node">
<title>Fluid&#45;Bottom&#45;Solid&#45;Bottom&#45;Mesh&#45;Faces</title>
<path fill="none" stroke="#de8f05" stroke-dasharray="5,2" d="M754,-383.48C754,-386.11 717.92,-388.25 673.5,-388.25 629.08,-388.25 593,-386.11 593,-383.48 593,-383.48 593,-340.52 593,-340.52 593,-337.89 629.08,-335.75 673.5,-335.75 717.92,-335.75 754,-337.89 754,-340.52 754,-340.52 754,-383.48 754,-383.48"/>
<path fill="none" stroke="#de8f05" stroke-dasharray="5,2" d="M754,-383.48C754,-380.84 717.92,-378.7 673.5,-378.7 629.08,-378.7 593,-380.84 593,-383.48"/>
<text text-anchor="middle" x="673.5" y="-365.8" font-family="Times,serif" font-size="14.00">Solid&#45;Bottom&#45;Mesh&#45;Faces</text>
<text text-anchor="middle" x="673.5" y="-350.8" font-family="Times,serif" font-size="14.00">from Solid</text>
</g>
<!-- Solid&#45;Solid&#45;Bottom&#45;Mesh&#45;Faces&#45;&gt;Fluid&#45;Bottom&#45;Solid&#45;Bottom&#45;Mesh&#45;Faces -->
<g id="edge23" class="edge">
<title>Solid&#45;Solid&#45;Bottom&#45;Mesh&#45;Faces&#45;&gt;Fluid&#45;Bottom&#45;Solid&#45;Bottom&#45;Mesh&#45;Faces</title>
<g id="a_edge23"><a xlink:title="scalar">
<path fill="none" stroke="#de8f05" d="M936.8,-129.69C924.95,-135.9 913.71,-144.15 906,-155 868.63,-207.57 929.75,-249.84 888,-299 879.4,-309.12 818.45,-326.55 763.87,-340.51"/>
<polygon fill="#de8f05" stroke="#de8f05" points="762.95,-337.13 754.12,-342.98 764.67,-343.91 762.95,-337.13"/>
</a>
</g>
<text text-anchor="middle" x="830" y="-340.8" font-family="Times,serif" font-size="14.00">Heat&#45;Flux&#45;Bottom</text>
</g>
<!-- Solid&#45;Fluid&#45;Top&#45;Mesh&#45;&gt;Solid&#45;Solid&#45;Top&#45;Mesh&#45;Nodes -->
<g id="edge8" class="edge">
<title>Solid&#45;Fluid&#45;Top&#45;Mesh&#45;&gt;Solid&#45;Solid&#45;Top&#45;Mesh&#45;Nodes</title>
<path fill="none" stroke="#de8f05" d="M124.62,-35.7C162.89,-36.94 215.63,-38.65 260.47,-40.1"/>
<polygon fill="#de8f05" stroke="#de8f05" points="260.39,-43.6 270.5,-40.43 260.62,-36.6 260.39,-43.6"/>
<text text-anchor="middle" x="197.5" y="-43.8" font-family="Times,serif" font-size="14.00">nearest&#45;neighbor</text>
</g>
<!-- Solid&#45;Fluid&#45;Bottom&#45;Mesh -->
<g id="node13" class="node">
<title>Solid&#45;Fluid&#45;Bottom&#45;Mesh</title>
<path fill="none" stroke="#029e73" stroke-dasharray="5,2" d="M134,-125.48C134,-128.11 105.76,-130.25 71,-130.25 36.24,-130.25 8,-128.11 8,-125.48 8,-125.48 8,-82.52 8,-82.52 8,-79.89 36.24,-77.75 71,-77.75 105.76,-77.75 134,-79.89 134,-82.52 134,-82.52 134,-125.48 134,-125.48"/>
<path fill="none" stroke="#029e73" stroke-dasharray="5,2" d="M134,-125.48C134,-122.84 105.76,-120.7 71,-120.7 36.24,-120.7 8,-122.84 8,-125.48"/>
<text text-anchor="middle" x="71" y="-107.8" font-family="Times,serif" font-size="14.00">Fluid&#45;Bottom&#45;Mesh</text>
<text text-anchor="middle" x="71" y="-92.8" font-family="Times,serif" font-size="14.00">from Fluid&#45;Bottom</text>
</g>
<!-- Solid&#45;Fluid&#45;Bottom&#45;Mesh&#45;&gt;Solid&#45;Solid&#45;Bottom&#45;Mesh&#45;Nodes -->
<g id="edge9" class="edge">
<title>Solid&#45;Fluid&#45;Bottom&#45;Mesh&#45;&gt;Solid&#45;Solid&#45;Bottom&#45;Mesh&#45;Nodes</title>
<path fill="none" stroke="#de8f05" d="M134.04,-104.45C168.34,-104.69 211.77,-105.01 250.68,-105.29"/>
<polygon fill="#de8f05" stroke="#de8f05" points="250.96,-108.79 260.99,-105.36 251.02,-101.79 250.96,-108.79"/>
<text text-anchor="middle" x="197.5" y="-108.8" font-family="Times,serif" font-size="14.00">nearest&#45;neighbor</text>
</g>
<!-- Fluid&#45;Bottom&#45;Fluid&#45;Bottom&#45;Mesh -->
<g id="node15" class="node">
<title>Fluid&#45;Bottom&#45;Fluid&#45;Bottom&#45;Mesh</title>
<path fill="none" stroke="#029e73" d="M1064.5,-428.73C1064.5,-430.53 1032.9,-432 994,-432 955.1,-432 923.5,-430.53 923.5,-428.73 923.5,-428.73 923.5,-399.27 923.5,-399.27 923.5,-397.47 955.1,-396 994,-396 1032.9,-396 1064.5,-397.47 1064.5,-399.27 1064.5,-399.27 1064.5,-428.73 1064.5,-428.73"/>
<path fill="none" stroke="#029e73" d="M1064.5,-428.73C1064.5,-426.92 1032.9,-425.45 994,-425.45 955.1,-425.45 923.5,-426.92 923.5,-428.73"/>
<text text-anchor="start" x="931.5" y="-411.3" font-family="Times,serif" font-size="14.00">Fluid&#45;Bottom&#45;Mesh</text>
<text text-anchor="start" x="1041.5" y="-411.3" font-family="Times,serif" font-style="italic" baseline-shift="super" font-size="14.00">2D</text>
</g>
<!-- Fluid&#45;Bottom&#45;&gt;Fluid&#45;Bottom&#45;Fluid&#45;Bottom&#45;Mesh -->
<g id="edge11" class="edge">
<title>Fluid&#45;Bottom&#45;&gt;Fluid&#45;Bottom&#45;Fluid&#45;Bottom&#45;Mesh</title>
<g id="a_edge11"><a xlink:title="scalar">
<path fill="none" stroke="#029e73" d="M720.5,-411.34C736.57,-406.33 754.87,-401.49 772,-399 818.5,-392.23 870.97,-395.34 913.11,-400.44"/>
<polygon fill="#029e73" stroke="#029e73" points="912.67,-403.92 923.03,-401.7 913.56,-396.97 912.67,-403.92"/>
</a>
</g>
<text text-anchor="middle" x="830" y="-402.8" font-family="Times,serif" font-size="14.00">Temperature&#45;Bottom</text>
</g>
<!-- Fluid&#45;Bottom&#45;Fluid&#45;Bottom&#45;Mesh&#45;&gt;Solid&#45;Fluid&#45;Bottom&#45;Mesh -->
<g id="edge22" class="edge">
<title>Fluid&#45;Bottom&#45;Fluid&#45;Bottom&#45;Mesh&#45;&gt;Solid&#45;Fluid&#45;Bottom&#45;Mesh</title>
<g id="a_edge22"><a xlink:title="scalar">
<path fill="none" stroke="#029e73" d="M934.06,-431.04C855.76,-451.31 713.32,-479.91 593,-459 438.57,-432.16 393.21,-424.2 261,-340 180.6,-288.8 119.16,-191.48 90.24,-139.24"/>
<polygon fill="#029e73" stroke="#029e73" points="93.25,-137.44 85.38,-130.34 87.1,-140.79 93.25,-137.44"/>
</a>
</g>
<text text-anchor="middle" x="517" y="-458.8" font-family="Times,serif" font-size="14.00">Temperature&#45;Bottom</text>
</g>
<!-- Fluid&#45;Bottom&#45;Fluid&#45;Bottom&#45;Mesh&#45;&gt;Fluid&#45;Bottom -->
<g id="edge10" class="edge">
<title>Fluid&#45;Bottom&#45;Fluid&#45;Bottom&#45;Mesh&#45;&gt;Fluid&#45;Bottom</title>
<g id="a_edge10"><a xlink:title="scalar">
<path fill="none" stroke="#029e73" d="M923.46,-417.06C872.83,-419.28 804.26,-422.3 751.9,-424.6"/>
<polygon fill="#029e73" stroke="#029e73" points="751.49,-421.11 741.66,-425.05 751.8,-428.11 751.49,-421.11"/>
</a>
</g>
<text text-anchor="middle" x="830" y="-426.8" font-family="Times,serif" font-size="14.00">Heat&#45;Flux&#45;Bottom</text>
</g>
<!-- Fluid&#45;Bottom&#45;Solid&#45;Bottom&#45;Mesh&#45;Faces&#45;&gt;Fluid&#45;Bottom&#45;Fluid&#45;Bottom&#45;Mesh -->
<g id="edge12" class="edge">
<title>Fluid&#45;Bottom&#45;Solid&#45;Bottom&#45;Mesh&#45;Faces&#45;&gt;Fluid&#45;Bottom&#45;Fluid&#45;Bottom&#45;Mesh</title>
<path fill="none" stroke="#029e73" d="M754.05,-361.91C794.53,-363.2 844.28,-366.85 888,-376 906.08,-379.79 925.25,-386.02 942.19,-392.35"/>
<polygon fill="#029e73" stroke="#029e73" points="941.3,-395.76 951.89,-396.08 943.81,-389.22 941.3,-395.76"/>
<text text-anchor="middle" x="830" y="-379.8" font-family="Times,serif" font-size="14.00">nearest&#45;neighbor</text>
</g>
</g>
</svg>
