<?xml version="1.0" encoding="UTF-8" standalone="no"?>
<!DOCTYPE svg PUBLIC "-//W3C//DTD SVG 1.1//EN"
 "http://www.w3.org/Graphics/SVG/1.1/DTD/svg11.dtd">
<!-- Generated by graphviz version 2.43.0 (0)
 -->
<!-- Title: G Pages: 1 -->
<svg width="1085pt" height="209pt"
 viewBox="0.00 0.00 1085.08 209.00" xmlns="http://www.w3.org/2000/svg" xmlns:xlink="http://www.w3.org/1999/xlink">
<g id="graph0" class="graph" transform="scale(1 1) rotate(0) translate(4 205)">
<title>G</title>
<polygon fill="white" stroke="transparent" points="-4,4 -4,-205 1081.08,-205 1081.08,4 -4,4"/>
<g id="clust1" class="cluster">
<title>cluster_m2n</title>
<polygon fill="none" stroke="black" points="7.5,-134 7.5,-193 111.5,-193 111.5,-134 7.5,-134"/>
<text text-anchor="middle" x="59.5" y="-177.8" font-family="Times,serif" font-size="14.00">Communicators</text>
</g>
<g id="clust2" class="cluster">
<title>cluster_cpl</title>
<polygon fill="none" stroke="black" points="0,-56 0,-115 119,-115 119,-56 0,-56"/>
<text text-anchor="middle" x="59.5" y="-99.8" font-family="Times,serif" font-size="14.00">Coupling Schemes</text>
</g>
<g id="clust3" class="cluster">
<title>cluster_Flow</title>
<polygon fill="none" stroke="black" stroke-width="2" points="155,-28 155,-165 436,-165 436,-28 155,-28"/>
<text text-anchor="middle" x="295.5" y="-149.8" font-family="Times,serif" font-size="14.00">Flow</text>
</g>
<g id="clust4" class="cluster">
<title>cluster_Chemical</title>
<polygon fill="none" stroke="black" stroke-width="2" points="518,-94 518,-169 1069.08,-169 1069.08,-94 518,-94"/>
<text text-anchor="middle" x="793.54" y="-153.8" font-family="Times,serif" font-size="14.00">Chemical</text>
</g>
<!-- m2n&#45;Flow&#45;Chemical -->
<g id="node1" class="node">
<title>m2n&#45;Flow&#45;Chemical</title>
<polygon fill="none" stroke="black" points="87.5,-170 31.5,-170 31.5,-166 27.5,-166 27.5,-162 31.5,-162 31.5,-142 27.5,-142 27.5,-138 31.5,-138 31.5,-134 87.5,-134 87.5,-170"/>
<polyline fill="none" stroke="black" points="31.5,-166 35.5,-166 35.5,-162 31.5,-162 "/>
<polyline fill="none" stroke="black" points="31.5,-142 35.5,-142 35.5,-138 31.5,-138 "/>
<text text-anchor="middle" x="59.5" y="-148.3" font-family="Times,serif" font-size="14.00">sockets</text>
</g>
<!-- Flow -->
<g id="node3" class="node">
<title>Flow</title>
<polygon fill="none" stroke="#0173b2" points="237.91,-112.54 237.91,-127.46 219.8,-138 194.2,-138 176.09,-127.46 176.09,-112.54 194.2,-102 219.8,-102 237.91,-112.54"/>
<polygon fill="none" stroke="#0173b2" points="241.91,-110.24 241.91,-129.76 220.88,-142 193.12,-142 172.09,-129.76 172.09,-110.24 193.12,-98 220.88,-98 241.91,-110.24"/>
<text text-anchor="middle" x="207" y="-116.3" font-family="Times,serif" font-size="14.00">Flow</text>
</g>
<!-- m2n&#45;Flow&#45;Chemical&#45;&gt;Flow -->
<g id="edge4" class="edge">
<title>m2n&#45;Flow&#45;Chemical&#45;&gt;Flow</title>
<path fill="none" stroke="#0173b2" d="M97.56,-143.85C112,-140.67 128.94,-136.95 145.08,-133.4"/>
<polygon fill="#0173b2" stroke="#0173b2" points="96.54,-140.49 87.53,-146.06 98.04,-147.33 96.54,-140.49"/>
<polygon fill="#0173b2" stroke="#0173b2" points="145.99,-136.78 155,-131.22 144.48,-129.95 145.99,-136.78"/>
</g>
<!-- Chemical -->
<g id="node6" class="node">
<title>Chemical</title>
<polygon fill="none" stroke="#de8f05" points="1065.12,-112.54 1065.12,-127.46 1036.66,-138 996.42,-138 967.96,-127.46 967.96,-112.54 996.42,-102 1036.66,-102 1065.12,-112.54"/>
<polygon fill="none" stroke="#de8f05" points="1069.12,-109.76 1069.12,-130.24 1037.38,-142 995.7,-142 963.96,-130.24 963.96,-109.76 995.7,-98 1037.38,-98 1069.12,-109.76"/>
<text text-anchor="middle" x="1016.54" y="-116.3" font-family="Times,serif" font-size="14.00">Chemical</text>
</g>
<!-- m2n&#45;Flow&#45;Chemical&#45;&gt;Chemical -->
<g id="edge5" class="edge">
<title>m2n&#45;Flow&#45;Chemical&#45;&gt;Chemical</title>
<path fill="none" stroke="#de8f05" d="M97.44,-161.12C126.7,-167.54 168.71,-175 206,-175 206,-175 206,-175 823.5,-175 838.45,-175 853.81,-173.44 869.02,-170.85"/>
<polygon fill="#de8f05" stroke="#de8f05" points="98.18,-157.69 87.65,-158.9 96.63,-164.52 98.18,-157.69"/>
<polygon fill="#de8f05" stroke="#de8f05" points="869.79,-174.26 878.99,-169 868.52,-167.38 869.79,-174.26"/>
</g>
<!-- cpl&#45;Flow&#45;Chemical -->
<g id="node2" class="node">
<title>cpl&#45;Flow&#45;Chemical</title>
<polygon fill="none" stroke="black" points="105,-92 14,-92 14,-88 10,-88 10,-84 14,-84 14,-64 10,-64 10,-60 14,-60 14,-56 105,-56 105,-92"/>
<polyline fill="none" stroke="black" points="14,-88 18,-88 18,-84 14,-84 "/>
<polyline fill="none" stroke="black" points="14,-64 18,-64 18,-60 14,-60 "/>
<text text-anchor="middle" x="59.5" y="-70.3" font-family="Times,serif" font-size="14.00">serial&#45;explicit</text>
</g>
<!-- cpl&#45;Flow&#45;Chemical&#45;&gt;Flow -->
<g id="edge6" class="edge">
<title>cpl&#45;Flow&#45;Chemical&#45;&gt;Flow</title>
<path fill="none" stroke="#0173b2" d="M105.34,-88.18C117.99,-92.17 131.96,-96.59 145.37,-100.83"/>
<polygon fill="#0173b2" stroke="#0173b2" points="144.41,-104.2 155,-103.88 146.52,-97.53 144.41,-104.2"/>
<text text-anchor="middle" x="116.34" y="-76.98" font-family="Times,serif" font-size="14.00">first</text>
</g>
<!-- cpl&#45;Flow&#45;Chemical&#45;&gt;Chemical -->
<g id="edge7" class="edge">
<title>cpl&#45;Flow&#45;Chemical&#45;&gt;Chemical</title>
<path fill="none" stroke="#de8f05" d="M81.01,-55.71C107.76,-33.79 156.97,0 206,0 206,0 206,0 823.5,0 891.48,0 955.25,-54.75 989.47,-90.29"/>
<polygon fill="#de8f05" stroke="#de8f05" points="983.89,-90.06 993.72,-94 988.49,-84.78 983.89,-90.06"/>
<text text-anchor="middle" x="62.01" y="-44.51" font-family="Times,serif" font-size="14.00">second</text>
</g>
<!-- Flow&#45;Flow&#45;Mesh -->
<g id="node4" class="node">
<title>Flow&#45;Flow&#45;Mesh</title>
<path fill="none" stroke="#0173b2" d="M436,-134.73C436,-136.53 414.71,-138 388.5,-138 362.29,-138 341,-136.53 341,-134.73 341,-134.73 341,-105.27 341,-105.27 341,-103.47 362.29,-102 388.5,-102 414.71,-102 436,-103.47 436,-105.27 436,-105.27 436,-134.73 436,-134.73"/>
<path fill="none" stroke="#0173b2" d="M436,-134.73C436,-132.92 414.71,-131.45 388.5,-131.45 362.29,-131.45 341,-132.92 341,-134.73"/>
<text text-anchor="start" x="349" y="-117.3" font-family="Times,serif" font-size="14.00">Flow&#45;Mesh</text>
<text text-anchor="start" x="413" y="-117.3" font-family="Times,serif" font-style="italic" baseline-shift="super" font-size="14.00">2D</text>
</g>
<!-- Flow&#45;&gt;Flow&#45;Flow&#45;Mesh -->
<g id="edge1" class="edge">
<title>Flow&#45;&gt;Flow&#45;Flow&#45;Mesh</title>
<g id="a_edge1"><a xlink:title="vector">
<path fill="none" stroke="#0173b2" d="M242.19,-120C267.21,-120 301.73,-120 330.85,-120"/>
<polygon fill="#0173b2" stroke="#0173b2" points="330.9,-123.5 340.9,-120 330.9,-116.5 330.9,-123.5"/>
</a>
</g>
<text text-anchor="middle" x="300" y="-123.8" font-family="Times,serif" font-size="14.00">Velocity</text>
</g>
<!-- Chemical&#45;Flow&#45;Mesh -->
<g id="node8" class="node">
<title>Chemical&#45;Flow&#45;Mesh</title>
<path fill="none" stroke="#0173b2" stroke-dasharray="5,2" d="M598,-141.48C598,-144.11 580.07,-146.25 558,-146.25 535.93,-146.25 518,-144.11 518,-141.48 518,-141.48 518,-98.52 518,-98.52 518,-95.89 535.93,-93.75 558,-93.75 580.07,-93.75 598,-95.89 598,-98.52 598,-98.52 598,-141.48 598,-141.48"/>
<path fill="none" stroke="#0173b2" stroke-dasharray="5,2" d="M598,-141.48C598,-138.84 580.07,-136.7 558,-136.7 535.93,-136.7 518,-138.84 518,-141.48"/>
<text text-anchor="middle" x="558" y="-123.8" font-family="Times,serif" font-size="14.00">Flow&#45;Mesh</text>
<text text-anchor="middle" x="558" y="-108.8" font-family="Times,serif" font-size="14.00">from Flow</text>
</g>
<!-- Flow&#45;Flow&#45;Mesh&#45;&gt;Chemical&#45;Flow&#45;Mesh -->
<g id="edge8" class="edge">
<title>Flow&#45;Flow&#45;Mesh&#45;&gt;Chemical&#45;Flow&#45;Mesh</title>
<g id="a_edge8"><a xlink:title="vector">
<path fill="none" stroke="#0173b2" d="M436.16,-120C458.49,-120 485.22,-120 507.87,-120"/>
<polygon fill="#0173b2" stroke="#0173b2" points="507.95,-123.5 517.95,-120 507.95,-116.5 507.95,-123.5"/>
</a>
</g>
<text text-anchor="middle" x="477" y="-123.8" font-family="Times,serif" font-size="14.00">Velocity</text>
</g>
<!-- Flow&#45;Chemical&#45;Mesh -->
<g id="node5" class="node">
<title>Flow&#45;Chemical&#45;Mesh</title>
<path fill="none" stroke="#de8f05" stroke-dasharray="5,2" d="M259,-75.48C259,-78.11 235.69,-80.25 207,-80.25 178.31,-80.25 155,-78.11 155,-75.48 155,-75.48 155,-32.52 155,-32.52 155,-29.89 178.31,-27.75 207,-27.75 235.69,-27.75 259,-29.89 259,-32.52 259,-32.52 259,-75.48 259,-75.48"/>
<path fill="none" stroke="#de8f05" stroke-dasharray="5,2" d="M259,-75.48C259,-72.84 235.69,-70.7 207,-70.7 178.31,-70.7 155,-72.84 155,-75.48"/>
<text text-anchor="middle" x="207" y="-57.8" font-family="Times,serif" font-size="14.00">Chemical&#45;Mesh</text>
<text text-anchor="middle" x="207" y="-42.8" font-family="Times,serif" font-size="14.00">from Chemical</text>
</g>
<!-- Chemical&#45;Chemical&#45;Mesh -->
<g id="node7" class="node">
<title>Chemical&#45;Chemical&#45;Mesh</title>
<path fill="none" stroke="#de8f05" d="M882,-134.73C882,-136.53 855.33,-138 822.5,-138 789.67,-138 763,-136.53 763,-134.73 763,-134.73 763,-105.27 763,-105.27 763,-103.47 789.67,-102 822.5,-102 855.33,-102 882,-103.47 882,-105.27 882,-105.27 882,-134.73 882,-134.73"/>
<path fill="none" stroke="#de8f05" d="M882,-134.73C882,-132.92 855.33,-131.45 822.5,-131.45 789.67,-131.45 763,-132.92 763,-134.73"/>
<text text-anchor="start" x="771" y="-117.3" font-family="Times,serif" font-size="14.00">Chemical&#45;Mesh</text>
<text text-anchor="start" x="859" y="-117.3" font-family="Times,serif" font-style="italic" baseline-shift="super" font-size="14.00">2D</text>
</g>
<!-- Chemical&#45;Chemical&#45;Mesh&#45;&gt;Chemical -->
<g id="edge2" class="edge">
<title>Chemical&#45;Chemical&#45;Mesh&#45;&gt;Chemical</title>
<g id="a_edge2"><a xlink:title="vector">
<path fill="none" stroke="#de8f05" d="M882.16,-120C904.74,-120 930.57,-120 953.46,-120"/>
<polygon fill="#de8f05" stroke="#de8f05" points="953.75,-123.5 963.75,-120 953.75,-116.5 953.75,-123.5"/>
</a>
</g>
<text text-anchor="middle" x="923" y="-123.8" font-family="Times,serif" font-size="14.00">Velocity</text>
</g>
<!-- Chemical&#45;Flow&#45;Mesh&#45;&gt;Chemical&#45;Chemical&#45;Mesh -->
<g id="edge3" class="edge">
<title>Chemical&#45;Flow&#45;Mesh&#45;&gt;Chemical&#45;Chemical&#45;Mesh</title>
<path fill="none" stroke="#de8f05" d="M598.02,-120C638.68,-120 703.24,-120 752.54,-120"/>
<polygon fill="#de8f05" stroke="#de8f05" points="752.81,-123.5 762.81,-120 752.81,-116.5 752.81,-123.5"/>
<text text-anchor="middle" x="680.5" y="-123.8" font-family="Times,serif" font-size="14.00">linear&#45;cell&#45;interpolation</text>
</g>
</g>
</svg>
